<svg width="172" height="50" viewBox="0 0 172 50" fill="none" xmlns="http://www.w3.org/2000/svg">
<path d="M1 25C1 11.7452 11.7452 1 25 1H147C160.255 1 171 11.7452 171 25C171 38.2548 160.255 49 147 49H25C11.7452 49 1 38.2548 1 25Z" stroke="white" stroke-width="2"/>
<path fill-rule="evenodd" clip-rule="evenodd" d="M37.005 19.3863C37.005 19.3863 34.9314 16.2488 31.6887 16.2488C30.3682 16.2488 29.3881 16.6733 28.5042 17.0561C27.7783 17.3704 27.1173 17.6567 26.3861 17.6567C25.4747 17.6567 24.7715 17.3417 24.0303 17.0098C23.2044 16.6399 22.3313 16.2488 21.0704 16.2488C18.3461 16.2488 14 18.7028 14 24.8307C14 30.7302 18.2926 37.9843 21.6155 37.9843C22.4269 37.9843 23.0276 37.7369 23.669 37.4726C24.404 37.1698 25.1924 36.845 26.4128 36.845C27.8221 36.845 28.5147 37.1717 29.1581 37.4752C29.7162 37.7385 30.2374 37.9843 31.1573 37.9843C34.6791 37.9843 37.8155 30.5424 37.8155 30.5424C37.8155 30.5424 33.8418 29.2553 33.8418 24.8307C33.8418 21.1029 37.005 19.3863 37.005 19.3863ZM31.1312 10C31.6091 13.0036 28.8848 16.7183 25.629 16.5975C25.1504 12.7757 28.6592 10.2016 31.1312 10ZM56.7666 19.6261L54.2172 26.642H59.3159L56.8087 19.6261H56.7666ZM55.7131 17.8142L49.856 32.8573H51.8997L53.5852 28.3275H59.9479L61.5913 32.8573H63.8035L57.9253 17.8142H55.7131ZM65.0466 21.9647V37.0078H66.8374V31.4035H66.8796C67.0762 31.7266 67.3185 31.997 67.6064 32.2147C67.8944 32.4324 68.1999 32.6044 68.5229 32.7309C68.846 32.8573 69.1725 32.9486 69.5026 33.0047C69.8327 33.0609 70.1312 33.089 70.398 33.089C71.2268 33.089 71.9536 32.9415 72.5787 32.6466C73.2037 32.3516 73.7234 31.9478 74.1377 31.4351C74.5521 30.9224 74.8611 30.322 75.0648 29.6337C75.2684 28.9455 75.3703 28.2151 75.3703 27.4426C75.3703 26.6701 75.2649 25.9397 75.0542 25.2514C74.8436 24.5632 74.531 23.9557 74.1167 23.429C73.7023 22.9023 73.1826 22.4844 72.5576 22.1754C71.9325 21.8664 71.1987 21.7119 70.3559 21.7119C69.5974 21.7119 68.9022 21.8488 68.2701 22.1227C67.638 22.3966 67.1745 22.8356 66.8796 23.4395H66.8374V21.9647H65.0466ZM73.4741 27.3162C73.4741 27.8499 73.4179 28.3696 73.3055 28.8753C73.1932 29.3809 73.0106 29.8304 72.7577 30.2237C72.5049 30.617 72.1713 30.933 71.757 31.1718C71.3426 31.4105 70.8264 31.5299 70.2084 31.5299C69.5904 31.5299 69.0637 31.4141 68.6283 31.1823C68.1928 30.9505 67.8382 30.645 67.5643 30.2658C67.2904 29.8866 67.0902 29.4476 66.9638 28.949C66.8374 28.4504 66.7742 27.9342 66.7742 27.4005C66.7742 26.8948 66.8339 26.3962 66.9533 25.9046C67.0727 25.413 67.2658 24.974 67.5327 24.5878C67.7996 24.2015 68.1437 23.889 68.5651 23.6502C68.9864 23.4114 69.4991 23.292 70.1031 23.292C70.679 23.292 71.1811 23.4044 71.6095 23.6291C72.0379 23.8539 72.389 24.1559 72.6629 24.5351C72.9368 24.9143 73.1405 25.3462 73.2739 25.8308C73.4074 26.3154 73.4741 26.8105 73.4741 27.3162ZM77.5404 21.9647V37.0078H79.3312V31.4035H79.3733C79.57 31.7266 79.8123 31.997 80.1002 32.2147C80.3882 32.4324 80.6936 32.6044 81.0167 32.7309C81.3398 32.8573 81.6663 32.9486 81.9964 33.0047C82.3265 33.0609 82.6249 33.089 82.8918 33.089C83.7205 33.089 84.4474 32.9415 85.0724 32.6466C85.6975 32.3516 86.2172 31.9478 86.6315 31.4351C87.0459 30.9224 87.3549 30.322 87.5586 29.6337C87.7622 28.9455 87.8641 28.2151 87.8641 27.4426C87.8641 26.6701 87.7587 25.9397 87.548 25.2514C87.3373 24.5632 87.0248 23.9557 86.6105 23.429C86.1961 22.9023 85.6764 22.4844 85.0514 22.1754C84.4263 21.8664 83.6924 21.7119 82.8497 21.7119C82.0912 21.7119 81.3959 21.8488 80.7639 22.1227C80.1318 22.3966 79.6683 22.8356 79.3733 23.4395H79.3312V21.9647H77.5404ZM85.9679 27.3162C85.9679 27.8499 85.9117 28.3696 85.7993 28.8753C85.6869 29.3809 85.5043 29.8304 85.2515 30.2237C84.9987 30.617 84.6651 30.933 84.2508 31.1718C83.8364 31.4105 83.3202 31.5299 82.7022 31.5299C82.0842 31.5299 81.5575 31.4141 81.122 31.1823C80.6866 30.9505 80.332 30.645 80.0581 30.2658C79.7842 29.8866 79.584 29.4476 79.4576 28.949C79.3312 28.4504 79.268 27.9342 79.268 27.4005C79.268 26.8948 79.3277 26.3962 79.4471 25.9046C79.5665 25.413 79.7596 24.974 80.0265 24.5878C80.2933 24.2015 80.6375 23.889 81.0588 23.6502C81.4802 23.4114 81.9929 23.292 82.5969 23.292C83.1727 23.292 83.6749 23.4044 84.1033 23.6291C84.5317 23.8539 84.8828 24.1559 85.1567 24.5351C85.4306 24.9143 85.6343 25.3462 85.7677 25.8308C85.9011 26.3154 85.9679 26.8105 85.9679 27.3162ZM104.824 22.2175H106.721C106.693 21.3888 106.534 20.676 106.247 20.0791C105.959 19.4821 105.565 18.987 105.067 18.5937C104.568 18.2004 103.989 17.9125 103.329 17.7299C102.668 17.5473 101.952 17.456 101.18 17.456C100.491 17.456 99.8206 17.5438 99.1674 17.7194C98.5143 17.8949 97.9314 18.1618 97.4187 18.52C96.9061 18.8781 96.4952 19.3346 96.1862 19.8894C95.8772 20.4443 95.7227 21.1009 95.7227 21.8594C95.7227 22.5476 95.8596 23.12 96.1335 23.5765C96.4074 24.033 96.7726 24.4052 97.2291 24.6931C97.6856 24.9811 98.2018 25.2128 98.7777 25.3884C99.3536 25.564 99.94 25.7185 100.537 25.8519C101.134 25.9853 101.72 26.1153 102.296 26.2417C102.872 26.3681 103.388 26.5331 103.845 26.7368C104.301 26.9405 104.666 27.2038 104.94 27.5269C105.214 27.8499 105.351 28.2713 105.351 28.791C105.351 29.3388 105.239 29.7882 105.014 30.1394C104.789 30.4905 104.494 30.7679 104.129 30.9716C103.764 31.1753 103.353 31.3192 102.897 31.4035C102.44 31.4878 101.987 31.5299 101.538 31.5299C100.976 31.5299 100.428 31.4597 99.8943 31.3192C99.3606 31.1788 98.8935 30.9611 98.4932 30.6661C98.0929 30.3712 97.7699 29.9954 97.5241 29.5389C97.2783 29.0824 97.1554 28.5382 97.1554 27.9061H95.2592C95.2592 28.8191 95.4242 29.6092 95.7543 30.2763C96.0844 30.9435 96.5338 31.4913 97.1027 31.9197C97.6716 32.3481 98.3317 32.6676 99.0832 32.8783C99.8346 33.089 100.632 33.1944 101.474 33.1944C102.163 33.1944 102.854 33.1136 103.55 32.9521C104.245 32.7905 104.874 32.5307 105.435 32.1725C105.997 31.8144 106.457 31.3509 106.815 30.782C107.174 30.2131 107.353 29.5284 107.353 28.7278C107.353 27.9834 107.216 27.3653 106.942 26.8737C106.668 26.3821 106.303 25.9748 105.846 25.6517C105.39 25.3287 104.874 25.0724 104.298 24.8827C103.722 24.6931 103.135 24.5281 102.538 24.3876C101.941 24.2472 101.355 24.1172 100.779 23.9979C100.203 23.8785 99.6871 23.7275 99.2306 23.5449C98.7742 23.3623 98.409 23.127 98.1351 22.8391C97.8612 22.5511 97.7242 22.1754 97.7242 21.7119C97.7242 21.2203 97.819 20.8094 98.0087 20.4794C98.1983 20.1493 98.4511 19.8859 98.7671 19.6893C99.0832 19.4926 99.4448 19.3522 99.8522 19.2679C100.26 19.1836 100.674 19.1415 101.095 19.1415C102.135 19.1415 102.988 19.3838 103.655 19.8684C104.322 20.353 104.712 21.136 104.824 22.2175ZM111.967 21.9647V18.6991H110.176V21.9647H108.322V23.5449H110.176V30.4765C110.176 30.9821 110.225 31.3895 110.323 31.6985C110.422 32.0075 110.573 32.2463 110.776 32.4148C110.98 32.5834 111.247 32.6992 111.577 32.7625C111.907 32.8257 112.304 32.8573 112.767 32.8573H114.137V31.2771H113.315C113.034 31.2771 112.806 31.2666 112.63 31.2455C112.455 31.2244 112.318 31.1788 112.22 31.1086C112.121 31.0383 112.054 30.94 112.019 30.8136C111.984 30.6872 111.967 30.5186 111.967 30.3079V23.5449H114.137V21.9647H111.967ZM117.424 27.4215C117.424 26.7614 117.511 26.175 117.687 25.6623C117.862 25.1496 118.105 24.7177 118.414 24.3666C118.723 24.0154 119.084 23.7485 119.499 23.5659C119.913 23.3833 120.352 23.292 120.816 23.292C121.279 23.292 121.718 23.3833 122.132 23.5659C122.547 23.7485 122.908 24.0154 123.217 24.3666C123.526 24.7177 123.769 25.1496 123.944 25.6623C124.12 26.175 124.208 26.7614 124.208 27.4215C124.208 28.0817 124.12 28.6681 123.944 29.1808C123.769 29.6934 123.526 30.1218 123.217 30.466C122.908 30.8101 122.547 31.0734 122.132 31.256C121.718 31.4386 121.279 31.5299 120.816 31.5299C120.352 31.5299 119.913 31.4386 119.499 31.256C119.084 31.0734 118.723 30.8101 118.414 30.466C118.105 30.1218 117.862 29.6934 117.687 29.1808C117.511 28.6681 117.424 28.0817 117.424 27.4215ZM115.527 27.4215C115.527 28.2221 115.64 28.9666 115.864 29.6548C116.089 30.3431 116.426 30.9435 116.876 31.4562C117.325 31.9689 117.88 32.3692 118.54 32.6571C119.2 32.9451 119.959 33.089 120.816 33.089C121.686 33.089 122.448 32.9451 123.102 32.6571C123.755 32.3692 124.306 31.9689 124.755 31.4562C125.205 30.9435 125.542 30.3431 125.767 29.6548C125.991 28.9666 126.104 28.2221 126.104 27.4215C126.104 26.6209 125.991 25.873 125.767 25.1777C125.542 24.4824 125.205 23.8785 124.755 23.3658C124.306 22.8531 123.755 22.4493 123.102 22.1543C122.448 21.8594 121.686 21.7119 120.816 21.7119C119.959 21.7119 119.2 21.8594 118.54 22.1543C117.88 22.4493 117.325 22.8531 116.876 23.3658C116.426 23.8785 116.089 24.4824 115.864 25.1777C115.64 25.873 115.527 26.6209 115.527 27.4215ZM128.148 21.9647V32.8573H129.938V28.0114C129.938 27.3092 130.009 26.6876 130.149 26.1469C130.29 25.6061 130.514 25.1461 130.823 24.7669C131.132 24.3876 131.54 24.0997 132.045 23.903C132.551 23.7064 133.162 23.6081 133.878 23.6081V21.7119C132.909 21.6838 132.108 21.8804 131.476 22.3018C130.844 22.7232 130.311 23.3763 129.875 24.2612H129.833V21.9647H128.148ZM142.411 26.3681H136.154C136.182 25.9467 136.273 25.5499 136.428 25.1777C136.582 24.8055 136.793 24.4789 137.06 24.198C137.326 23.9171 137.646 23.6959 138.018 23.5343C138.39 23.3728 138.808 23.292 139.272 23.292C139.721 23.292 140.132 23.3728 140.504 23.5343C140.877 23.6959 141.2 23.9136 141.474 24.1875C141.747 24.4614 141.965 24.7879 142.127 25.1672C142.288 25.5464 142.383 25.9467 142.411 26.3681ZM144.139 29.402H142.369C142.214 30.1183 141.895 30.6521 141.41 31.0032C140.926 31.3544 140.304 31.5299 139.546 31.5299C138.956 31.5299 138.443 31.4316 138.008 31.235C137.572 31.0383 137.214 30.775 136.933 30.4449C136.652 30.1148 136.449 29.7356 136.322 29.3072C136.196 28.8788 136.14 28.4258 136.154 27.9482H144.307C144.335 27.2881 144.276 26.5928 144.128 25.8624C143.981 25.132 143.714 24.4579 143.328 23.8398C142.941 23.2218 142.429 22.7127 141.79 22.3124C141.15 21.912 140.346 21.7119 139.377 21.7119C138.633 21.7119 137.948 21.8523 137.323 22.1333C136.698 22.4142 136.157 22.8075 135.701 23.3131C135.244 23.8188 134.89 24.4157 134.637 25.104C134.384 25.7922 134.257 26.5507 134.257 27.3794C134.286 28.2081 134.408 28.9736 134.626 29.6759C134.844 30.3782 135.17 30.9821 135.606 31.4878C136.041 31.9935 136.579 32.3867 137.218 32.6676C137.857 32.9486 138.612 33.089 139.483 33.089C140.719 33.089 141.744 32.78 142.559 32.162C143.373 31.544 143.9 30.624 144.139 29.402Z" fill="white"/>
</svg>
