<svg width="173" height="140" viewBox="0 0 173 140" fill="none" xmlns="http://www.w3.org/2000/svg">
<path d="M157.861 111.039C157.861 112.259 150.751 115.815 142.306 115.815C133.86 115.815 127.279 112.259 127.279 111.039C127.279 109.819 134.125 110.212 142.579 110.212C151.033 110.212 157.861 109.817 157.861 111.039Z" fill="#504F60"/>
<path opacity="0.2" d="M157.861 111.039C157.861 112.259 150.751 115.815 142.306 115.815C133.86 115.815 127.279 112.259 127.279 111.039" fill="black"/>
<path d="M72.8066 88.6562C74.1774 88.8319 75.5998 88.9436 76.9127 88.5177C77.1194 88.4536 77.3469 88.3109 77.3262 88.1042C77.3114 88.029 77.2796 87.9583 77.2331 87.8974C76.7383 87.1552 76.3225 86.3631 75.9927 85.5343C75.9796 85.491 75.9527 85.4533 75.9162 85.4268C75.8734 85.4113 75.8266 85.4113 75.7838 85.4268C75.1781 85.586 74.655 85.9767 74.0533 86.1442C73.7466 86.2283 73.4264 86.2522 73.1106 86.2145C72.8377 86.1835 72.4655 85.9581 72.2174 85.9871C72.358 86.8905 72.7012 87.7341 72.8066 88.6562Z" fill="#6C63FF"/>
<path d="M98.731 86.3675C99.6345 85.7473 100.571 85.096 101.105 84.1388C101.143 84.0815 101.165 84.0152 101.169 83.9465C101.16 83.8789 101.133 83.8149 101.092 83.7604C100.584 82.9527 99.9299 82.2466 99.1631 81.6785C98.7631 81.9611 98.4017 82.2947 98.088 82.6709C97.8606 82.9107 97.2321 83.2911 97.2259 83.6571C97.2259 83.8638 97.4657 84.1036 97.5774 84.2773C97.7283 84.5006 97.871 84.728 98.0074 84.9596C98.086 85.0733 98.8034 86.3221 98.731 86.3675Z" fill="#6C63FF"/>
<path d="M78.1801 91.4246C78.1962 91.6376 78.1378 91.8495 78.0147 92.0241C77.9182 92.1212 77.7987 92.1923 77.6674 92.2309C75.7508 92.9173 73.5324 92.0614 71.6199 92.7374C71.2271 92.8759 70.855 93.0765 70.4601 93.2088C69.9893 93.3503 69.5036 93.4364 69.0128 93.4652C68.3368 93.5293 67.6566 93.5706 66.9784 93.5892C66.4632 93.6257 65.9454 93.5803 65.4443 93.4548C65.1938 93.3907 64.9595 93.2745 64.7569 93.1139C64.5542 92.9532 64.3876 92.7517 64.2679 92.5224C64.164 92.3169 64.1432 92.0792 64.21 91.8587C64.24 91.7832 64.2827 91.7132 64.3362 91.652C64.4658 91.5066 64.618 91.383 64.7869 91.286L65.4919 90.8312C65.8225 90.5974 66.1817 90.407 66.5608 90.2647C66.8399 90.1737 67.1355 90.1344 67.4188 90.0579C68.4091 89.7685 69.1658 88.9829 69.8688 88.2282L70.8281 87.2048C70.9178 87.0922 71.0315 87.0011 71.161 86.9381C71.294 86.8937 71.4354 86.8803 71.5745 86.8988C72.5063 86.9654 73.4061 87.2669 74.1898 87.7754C74.3901 87.9257 74.6065 88.0533 74.8349 88.1559C75.3973 88.375 76.1188 88.2096 76.6378 87.9326C76.8838 87.8003 76.83 87.7258 76.9334 87.4901C77.0368 87.2544 77.289 87.1035 77.5082 87.3185C77.5743 87.3929 77.6211 87.4823 77.6446 87.579C77.8514 88.2613 77.7728 88.9953 77.7728 89.7106C77.7667 89.8225 77.7807 89.9345 77.8142 90.0414C77.8669 90.1492 77.9299 90.2517 78.0023 90.3474C78.017 90.3727 78.0301 90.399 78.0416 90.426C78.168 90.7427 78.2156 91.0854 78.1801 91.4246Z" fill="#514E7F"/>
<path d="M78.1801 91.4246C78.1962 91.6376 78.1378 91.8496 78.0147 92.0242C77.9182 92.1213 77.7987 92.1924 77.6674 92.2309C75.7508 92.9173 73.5324 92.0614 71.6199 92.7375C71.2271 92.876 70.855 93.0765 70.4601 93.2088C69.9893 93.3504 69.5036 93.4364 69.0128 93.4652C68.3368 93.5293 67.6566 93.5707 66.9784 93.5893C66.4632 93.6258 65.9454 93.5804 65.4443 93.4549C65.1938 93.3907 64.9595 93.2746 64.7569 93.1139C64.5542 92.9533 64.3876 92.7517 64.2679 92.5224C64.164 92.3169 64.1432 92.0792 64.21 91.8588C64.24 91.7832 64.2827 91.7133 64.3362 91.652C64.4478 91.8857 64.5284 92.1958 64.5987 92.3074C64.6937 92.4729 64.8229 92.6162 64.9776 92.7278C65.1323 92.8394 65.3091 92.9167 65.496 92.9545C65.7759 92.9717 66.0564 92.936 66.323 92.8491C68.0597 92.4191 69.906 92.4129 71.5745 91.7616C72.1472 91.5362 72.693 91.2365 73.2946 91.1C73.8963 90.9636 74.5351 91.0008 75.1554 90.9491C76.1353 90.8705 77.0843 90.5749 78.0498 90.4198C78.1745 90.7391 78.2192 91.0841 78.1801 91.4246Z" fill="#464353"/>
<path d="M103.12 86.2413C103.029 86.9691 102.568 87.5955 102.062 88.1269C101.555 88.6582 100.982 89.1358 100.579 89.7478C100.083 90.5066 99.8599 91.4473 99.2148 92.0882C98.9672 92.3213 98.689 92.5195 98.3878 92.6774C98.0504 92.8765 97.6937 93.0407 97.323 93.1674C96.3596 93.4755 95.3217 93.4052 94.3148 93.3308C93.9879 93.3276 93.6643 93.2653 93.3597 93.1468C93.221 93.0763 93.0882 92.9947 92.9627 92.9028C92.7103 92.7474 92.4979 92.5349 92.3424 92.2825C92.2661 92.1453 92.2447 91.9842 92.2825 91.8318C92.34 91.6639 92.4388 91.5132 92.5699 91.3935C92.7964 91.1579 93.0396 90.9389 93.2976 90.7381C93.6516 90.5097 93.9705 90.2311 94.2445 89.9111C94.4126 89.6583 94.5364 89.3786 94.6105 89.0841C94.7569 88.5683 94.8464 88.0379 94.8772 87.5025C94.8761 87.1468 94.9128 86.7919 94.9868 86.4439C95.1398 85.8981 95.545 85.4102 95.4995 84.8458C95.4811 84.765 95.4883 84.6804 95.5202 84.6039C95.5683 84.5441 95.6354 84.5025 95.7104 84.486C96.0263 84.3601 96.3595 84.2827 96.6986 84.2565C96.8687 84.2448 97.0393 84.271 97.1981 84.3332C97.3568 84.3954 97.4998 84.4921 97.6166 84.6163C97.7572 84.7858 97.8502 85.0298 98.057 85.0959C98.1594 85.1239 98.2669 85.1281 98.3713 85.1083C98.8799 85.0567 99.4174 84.9926 99.8185 84.6638C100.004 84.4976 100.153 84.2947 100.256 84.0681C100.359 83.8414 100.414 83.5959 100.418 83.3468C100.418 83.1587 100.333 82.9623 100.625 82.9333C100.844 82.9044 101.018 83.1401 101.129 83.2848C101.532 83.8244 101.946 84.3889 102.097 85.0463C102.156 85.0235 102.218 85.0116 102.281 85.0112C102.41 85.01 102.537 85.0401 102.652 85.0988C102.767 85.1574 102.866 85.243 102.94 85.3482C103.105 85.6149 103.169 85.9317 103.12 86.2413Z" fill="#514E7F"/>
<path d="M103.12 86.2413C103.029 86.9691 102.568 87.5955 102.062 88.1269C101.555 88.6582 100.983 89.1358 100.579 89.7478C100.083 90.5065 99.8599 91.4473 99.2149 92.0882C98.9672 92.3213 98.689 92.5195 98.3879 92.6774C98.0505 92.8765 97.6937 93.0406 97.3231 93.1674C96.3596 93.4755 95.3218 93.4052 94.3149 93.3307C93.988 93.3276 93.6644 93.2653 93.3597 93.1467C93.221 93.0763 93.0883 92.9947 92.9627 92.9028C92.7104 92.7473 92.4979 92.5349 92.3425 92.2825C92.5363 92.1893 92.7478 92.1386 92.9627 92.1337C93.4093 92.1585 93.736 92.5802 94.164 92.7105C94.7739 92.8945 95.3817 92.4645 95.9999 92.3177C96.4031 92.2226 96.8269 92.2474 97.2259 92.1109C97.5584 91.9824 97.8657 91.7962 98.1336 91.561C98.5007 91.2985 98.8274 90.9836 99.1032 90.6265C99.3323 90.2693 99.5229 89.8888 99.6718 89.4914C99.9982 88.7299 100.383 87.9944 100.821 87.2916C100.886 87.1803 100.965 87.0775 101.055 86.9856C101.152 86.8967 101.262 86.8347 101.371 86.7561C101.785 86.4439 101.956 85.9291 102.101 85.4246C102.14 85.2713 102.195 85.1224 102.264 84.9801C102.393 84.979 102.521 85.0091 102.636 85.0677C102.75 85.1264 102.849 85.212 102.924 85.3171C103.102 85.5901 103.172 85.9196 103.12 86.2413Z" fill="#464353"/>
<path d="M59.7672 21.7811C60.2818 22.1668 60.7053 22.6609 61.0077 23.2284C61.2972 23.7949 62.9656 28.1904 62.8685 28.8292C63.4122 28.2813 65.5562 28.1924 66.1062 27.6446C66.3356 27.4151 67.5741 26.2697 67.7601 26.003C67.9462 25.7363 69.3273 25.176 69.4782 24.8948C70.0427 23.8838 65.4756 20.0527 66.0607 19.0541C66.093 19.0082 66.1097 18.9531 66.1082 18.897C66.0949 18.8499 66.0683 18.8075 66.0317 18.775C65.6575 18.3925 65.1613 18.1548 64.7106 17.8715C64.2599 17.5883 63.8257 17.1934 63.7037 16.6724C63.2739 16.8702 62.8793 17.137 62.5356 17.4621C61.6976 18.1803 60.874 18.9128 60.0649 19.6599C59.7486 19.9535 59.1366 20.3442 58.9898 20.7639C58.8162 21.2146 59.4654 21.5351 59.7672 21.7811Z" fill="#A1616A"/>
<path d="M67.1604 20.1538C66.4597 20.6247 65.8048 21.1605 65.2045 21.754C64.638 22.3143 64.1005 22.9635 63.964 23.7471C63.9062 24.0552 63.9144 24.3674 63.8669 24.6796C63.6601 26.0338 62.4899 27.0262 61.973 28.2935C61.8233 28.6847 61.7132 29.0899 61.6443 29.503C61.4991 30.2862 61.4196 31.0801 61.4066 31.8765C61.3941 32.6477 62.1509 33.179 62.4279 33.8985C62.7049 34.618 62.7794 35.3582 62.92 36.0962C63.1846 37.4897 63.6705 38.8336 64.1605 40.1692C65.1797 42.9851 68.4836 50.7693 69.5029 53.5872C72.6268 52.8037 80.9423 51.0029 83.7086 49.351C84.6307 48.801 77.3097 42.5964 78.2959 42.1685C78.3523 42.1597 78.4058 42.1379 78.4524 42.1049C78.4989 42.0719 78.5371 42.0285 78.564 41.9782C78.5908 41.9278 78.6056 41.8719 78.6072 41.8149C78.6087 41.7579 78.597 41.7013 78.573 41.6495C77.5868 37.3367 74.5021 33.7931 73.1024 29.594C72.6165 28.1364 71.744 26.8918 71.0824 25.5065C70.4828 24.2516 70.1624 22.8643 69.445 21.6713C69.3097 21.4256 69.1327 21.2052 68.9219 21.0201C68.743 20.8829 68.5495 20.7657 68.3451 20.6707C67.9357 20.4722 67.5553 20.3544 67.1604 20.1538Z" fill="#181F3E"/>
<path d="M59.9324 21.291C62.6329 21.291 64.8221 19.1018 64.8221 16.4013C64.8221 13.7009 62.6329 11.5117 59.9324 11.5117C57.232 11.5117 55.0428 13.7009 55.0428 16.4013C55.0428 19.1018 57.232 21.291 59.9324 21.291Z" fill="#A1616A"/>
<path d="M64.9069 18.6985C65.1506 18.4738 65.4567 18.3281 65.7848 18.2809C66.113 18.2337 66.4477 18.287 66.7449 18.4339C67.0757 18.6055 67.3652 18.9528 67.2907 19.3167L69.7159 19.3539C70.1019 19.3433 70.4878 19.3787 70.8654 19.4594C71.2455 19.5421 71.5848 19.7549 71.8248 20.061C71.8537 20.1003 71.8868 20.1478 71.9364 20.154C71.9768 20.1547 72.0161 20.1415 72.048 20.1168C72.4211 19.9297 72.8414 19.8577 73.2555 19.9101C74.5663 19.9948 75.7778 20.6502 76.8054 21.469C76.9906 21.5963 77.1344 21.7754 77.2189 21.9838C77.3036 22.2587 77.2023 22.604 77.4256 22.8004C77.4256 25.0747 78.2071 27.2 78.7281 29.4164C78.8212 29.8113 79.1995 30.1607 79.4621 30.4708C79.7865 30.8146 80.0513 31.2101 80.2457 31.641C80.6881 32.7906 80.0782 34.1427 80.5082 35.2964C80.6902 35.7843 81.0416 36.1854 81.3352 36.6092C81.7222 37.0986 81.9669 37.6852 82.0423 38.3046C82.0609 38.5816 82.0258 38.8607 82.0423 39.1316C82.0701 39.5041 82.1394 39.8723 82.2491 40.2294C82.4255 40.8965 82.6102 41.5629 82.8032 42.2287C83.1174 43.3038 83.5268 44.4636 84.4902 45.0363C82.1643 45.4312 79.7122 45.8178 77.4959 45.0094C77.1867 44.904 76.8933 44.7572 76.6234 44.5732C75.8233 44.0026 75.4367 43.0267 75.0914 42.1046C74.7068 41.0709 74.3161 40.0185 74.2375 38.9186C74.2383 38.5688 74.1888 38.2206 74.0907 37.8849C73.8654 37.2853 73.2637 36.9235 72.7179 36.5906C72.1015 36.2529 71.5432 35.8187 71.0639 35.3046C70.8261 35.0457 70.644 34.7407 70.5288 34.4086C70.4135 34.0764 70.3677 33.7242 70.3941 33.3736C70.4354 33.0325 70.5698 32.7037 70.5822 32.3605C70.5946 32.0173 70.4416 31.6245 70.1129 31.5335C68.4196 31.0208 67.6112 29.0153 67.2349 27.2869C67.0725 26.3936 66.9998 25.4862 67.0178 24.5785L66.9951 22.8149C66.7614 22.6023 66.5735 22.3444 66.4427 22.0568C66.3119 21.7693 66.241 21.4581 66.2343 21.1423C66.2567 20.958 66.2532 20.7715 66.2239 20.5882C66.1421 20.3641 66.009 20.1623 65.8352 19.999C65.4614 19.6153 65.1483 19.1767 64.9069 18.6985Z" fill="#464353"/>
<path d="M59.6989 24.2888C59.643 24.8346 59.7671 25.3949 59.6451 25.9304C59.5976 26.1372 59.5149 26.3439 59.4549 26.5362C59.2716 27.3069 59.3509 28.1168 59.6803 28.8373C60.0092 29.5507 60.4029 30.2324 60.8567 30.8738C61.0101 31.0927 61.1365 31.3294 61.2329 31.5788C61.3111 31.8406 61.3597 32.1104 61.3777 32.383C61.4974 33.4779 61.6894 34.5636 61.9524 35.6332C62.184 36.5594 64.8138 44.4779 65.4258 45.2118C65.5369 45.3743 65.7053 45.4888 65.8972 45.5323C66.0356 45.5375 66.1732 45.5091 66.2983 45.4496L67.5388 44.9741C67.6443 44.9418 67.7421 44.8883 67.8262 44.817C67.9424 44.6811 68.0056 44.5078 68.004 44.329C68.0929 43.3201 65.4568 35.3458 65.1219 34.3927C64.1088 31.5147 62.7608 28.7401 62.1013 25.7609C61.9173 24.9339 61.8201 23.6603 61.2143 23.0008C60.9642 22.7279 61.0489 22.8436 60.7491 22.9863C60.5977 23.052 60.4512 23.1287 60.3108 23.2158C60.1354 23.3378 59.9893 23.4974 59.8835 23.6831C59.7776 23.8687 59.7145 24.0757 59.6989 24.2888Z" fill="#464353"/>
<path d="M63.4638 29.7491C63.7967 31.5086 64.1399 33.2639 64.481 35.0233L69.3355 33.7518C69.3748 33.2432 69.1039 32.7718 68.922 32.3045C68.4796 31.1943 68.4692 29.9579 68.1115 28.8167C67.8407 27.9483 67.3693 27.1503 67.115 26.2757C66.9682 25.7671 66.8938 25.242 66.7491 24.7272C66.5938 24.2216 66.4032 23.7276 66.1784 23.2489C65.9059 22.5546 65.5505 21.8958 65.1199 21.2869C64.4996 21.5184 63.838 21.7872 63.4845 22.3475C63.3032 22.6632 63.1997 23.0176 63.1826 23.3812C63.0979 24.4708 63.4928 25.5666 63.3625 26.6499C63.2284 27.6817 63.2626 28.7283 63.4638 29.7491Z" fill="#09B3FF"/>
<path d="M69.4162 53.1532C69.6891 54.1869 69.2942 55.2744 68.9717 56.2978C68.4861 57.8393 68.155 59.4253 67.9834 61.0324C67.9623 61.4414 67.8801 61.8449 67.7394 62.2295C67.5864 62.5747 67.3259 62.8662 67.1481 63.195C66.6602 64.0592 66.6726 65.1136 66.778 66.1019C66.8483 66.7531 66.9538 67.4023 67.084 68.0432C67.2432 68.8268 67.4396 69.6456 67.2102 70.4105C67.5947 70.3258 67.8552 70.824 67.8304 71.2148C67.8056 71.6055 67.6795 72.0418 67.8676 72.3788C68.3431 72.5525 68.3473 73.2058 68.3328 73.7123C68.3407 74.5906 68.4517 75.465 68.6636 76.3174C69.3831 79.777 70.1467 83.2269 70.9544 86.6672C72.7014 87.2089 74.742 87.7733 76.4084 87.0228C76.7186 86.8843 77.0287 86.6631 77.099 86.3282C77.1171 86.1476 77.0945 85.9654 77.0328 85.7947L76.243 82.9209C76.0507 82.2262 75.8585 81.5088 75.9598 80.7955C76.0363 80.2642 76.2678 79.6915 76.0073 79.2222C75.9184 79.0609 75.7778 78.9348 75.6745 78.7818C75.261 78.176 75.4781 77.3656 75.5111 76.6316C75.524 76.4669 75.5129 76.3011 75.4781 76.1396C75.4214 75.9509 75.3423 75.7697 75.2424 75.5999C74.5897 74.3328 74.2762 72.9182 74.3327 71.4939C74.3574 71.3121 74.3324 71.1271 74.2603 70.9584C74.2101 70.8888 74.1652 70.8155 74.1259 70.7393C74.0951 70.6065 74.1104 70.4672 74.1693 70.3444C73.9324 70.1646 73.7185 69.9563 73.5325 69.7241C73.6472 69.6528 73.7442 69.5564 73.8162 69.4422C73.8881 69.3279 73.9331 69.1988 73.9479 69.0646C73.9626 68.9304 73.9467 68.7945 73.9012 68.6674C73.8558 68.5403 73.782 68.4251 73.6855 68.3306C73.7699 68.3136 73.8478 68.2736 73.9108 68.215C73.9737 68.1564 74.0192 68.0815 74.0421 67.9986C74.065 67.9157 74.0645 67.828 74.0406 67.7454C74.0167 67.6628 73.9704 67.5884 73.9068 67.5305C73.8055 67.4602 73.6711 67.4292 73.5987 67.3238C73.4871 67.1708 73.578 66.9578 73.669 66.7945L74.1507 65.9241C74.5105 65.2769 74.5911 64.4768 74.9777 63.8566C75.5318 62.9531 75.8936 61.9462 76.2513 60.9497L77.6427 57.1103L78.5793 57.9229C78.8913 58.1612 79.1527 58.4592 79.3484 58.7995C79.4816 59.1358 79.5658 59.4895 79.5986 59.8498C79.9418 61.9338 81.2526 63.7408 81.7384 65.7938C81.8459 66.2507 81.9183 66.7304 82.1809 67.1211C82.2748 67.2411 82.3592 67.3683 82.4331 67.5016C82.5015 67.7048 82.5371 67.9177 82.5385 68.1322C82.5819 68.5521 82.7151 68.9578 82.9292 69.3216C83.1432 69.6855 83.4331 69.9991 83.779 70.241C84.2401 70.5573 84.8128 70.7744 85.063 71.2747C85.113 71.4297 85.1825 71.5776 85.2697 71.7151C85.493 71.9839 85.9747 72.0149 86.0698 72.3519C86.1236 72.54 86.0243 72.7654 86.1298 72.9308C86.1897 73.0073 86.2689 73.0666 86.3593 73.1024L87.7052 73.7743C89.2103 74.5269 89.9795 76.2553 91.0897 77.5144C91.4731 77.9245 91.8126 78.3735 92.1028 78.8542C92.5824 79.7122 92.8037 80.7893 93.6141 81.3352C93.832 81.4481 94.0302 81.5954 94.2013 81.7714C94.4556 82.1063 94.3625 82.5757 94.3853 82.9974C94.408 83.4192 94.7306 83.9216 95.1317 83.7934C94.9911 84.3042 94.9911 84.8435 95.1317 85.3544C96.8925 85.2639 98.5718 84.5838 99.8993 83.4233C100.292 83.0801 100.67 82.6418 100.675 82.1208C100.681 82.0309 100.661 81.9411 100.617 81.8624C100.537 81.7606 100.432 81.6815 100.313 81.6329C99.0537 80.9506 98.6753 79.369 98.0386 78.0851C97.4824 76.9521 96.6595 75.9762 95.9711 74.9239C94.4742 72.66 93.4529 69.9205 91.1889 68.4257C90.6907 68.097 90.1118 67.8055 89.8616 67.2617C89.7231 66.9578 89.7066 66.6105 89.597 66.2962C89.4874 65.982 89.2248 65.676 88.8899 65.676C89.076 65.2211 89.0387 64.667 89.0512 64.175C89.0639 63.9566 89.0387 63.7376 88.9767 63.5278C88.8907 63.3021 88.779 63.0871 88.6439 62.8869C88.0532 61.8868 87.7579 60.7399 87.7921 59.5789C87.8086 58.9814 87.914 58.3653 87.7342 57.7947C87.6432 57.5073 87.484 57.2447 87.3744 56.9677C87.2093 56.4657 87.1221 55.9413 87.116 55.4129L86.9919 53.4261C86.9732 52.7644 86.8873 52.1063 86.7356 51.4619C86.3221 49.9196 85.9086 43.4587 84.4923 42.7309C83.0761 42.0032 80.6427 46.9755 79.0486 47.0727C78.3434 47.102 77.6466 47.2365 76.9811 47.4717C75.9205 47.8686 75.0315 48.6088 74.1652 49.3324L71.2335 51.7948C70.6132 52.3055 70.1005 52.7934 69.4162 53.1532Z" fill="#464353"/>
<path d="M55.3447 10.9721C55.9898 10.0914 57.098 9.62413 58.1896 9.58485C59.2812 9.54556 60.3563 9.88877 61.3343 10.3746C61.6229 10.5388 61.9314 10.6652 62.2522 10.7509C62.7691 10.8564 63.3439 10.7158 63.8111 10.9577C64.4314 11.2864 64.5513 12.1237 64.4975 12.8184C64.4438 13.5131 64.3135 14.2843 64.6836 14.8859C64.8149 15.0575 64.9344 15.2378 65.0413 15.4255C65.2005 15.7832 65.1074 16.1967 65.0123 16.575C64.7704 16.3683 64.634 16.0561 64.419 15.8163C64.2039 15.5764 63.8297 15.4152 63.563 15.5951C63.2963 15.7749 63.3004 16.1016 63.286 16.3952C63.2715 16.6888 63.1971 17.0402 62.92 17.1353C62.8043 17.1617 62.6833 17.1527 62.5728 17.1096C62.4622 17.0664 62.3671 16.9912 62.2998 16.8934C61.8263 16.3145 62.0165 15.3904 61.5472 14.8073C61.2805 14.4765 60.836 14.3153 60.59 13.9679C60.3956 13.695 60.346 13.3477 60.1765 13.0541C60.0069 12.7605 59.612 12.5455 59.3495 12.7481C59.2598 12.8337 59.1851 12.9336 59.1282 13.0438C58.9645 13.2783 58.7265 13.4508 58.4526 13.5333C58.1787 13.6158 57.885 13.6036 57.619 13.4986C57.4157 13.3738 57.1957 13.2784 56.9656 13.2154C56.815 13.2078 56.6653 13.2426 56.5335 13.3156C56.4016 13.3887 56.2927 13.4972 56.2193 13.6289C56.0709 13.8919 55.9993 14.1913 56.0125 14.4931C56.0125 14.9066 56.087 15.347 55.8513 15.6778C55.7616 15.8023 55.6494 15.9089 55.5205 15.992C55.1752 16.2132 54.6935 16.3621 54.3751 16.1099C54.2671 16.0093 54.1869 15.8828 54.142 15.7423C54.0971 15.6018 54.0891 15.4521 54.1187 15.3077C54.1807 15.0199 54.2622 14.7367 54.3627 14.46C54.5446 13.8191 54.3068 13.0975 54.5053 12.4938C54.7132 11.9501 54.9957 11.438 55.3447 10.9721Z" fill="#464353"/>
<path d="M57.9643 25.5582C57.9332 25.7089 57.9491 25.8655 58.0097 26.0069C58.0712 26.1032 58.1548 26.1833 58.2537 26.2405C58.949 26.6736 59.7397 26.9299 60.5569 26.9869C60.6681 26.9888 60.7772 27.0171 60.8753 27.0696C61.0696 27.1978 61.082 27.4831 61.0097 27.7105C60.9132 27.925 60.8632 28.1575 60.8629 28.3928C60.9228 28.8249 61.4356 29.013 61.8677 29.0771C62.4735 29.1536 63.1371 29.1143 63.6168 28.736C63.9417 28.4396 64.1894 28.0685 64.3383 27.6547C65.5251 24.9277 65.9406 21.9133 67.1419 19.1945C67.2329 19.017 67.2937 18.8255 67.3217 18.628C67.3344 18.5291 67.3204 18.4287 67.2811 18.337C67.2419 18.2454 67.1788 18.166 67.0984 18.107C66.8751 17.9685 66.5278 18.047 66.3769 17.8299C66.3025 17.7204 66.3107 17.5715 66.2446 17.4557C66.106 17.2097 65.7422 17.249 65.4941 17.1063C65.2997 17.003 65.1653 16.79 64.9482 16.7487C64.8417 16.7426 64.7352 16.7615 64.6372 16.8039C64.5392 16.8462 64.4525 16.9109 64.3838 16.9926C63.6788 17.6501 63.3087 18.5825 62.9159 19.4633C62.3161 20.8133 61.6138 22.1155 60.8153 23.3584C60.9084 23.2137 60.3687 22.1179 60.1579 22.0704C59.7878 21.9959 59.3143 22.6451 59.1138 22.887C58.4844 23.6501 58.0857 24.5767 57.9643 25.5582Z" fill="#09B3FF"/>
<path opacity="0.1" d="M65.4755 17.2988C65.327 17.3013 65.1809 17.3372 65.0482 17.4037C64.9154 17.4703 64.7993 17.5659 64.7084 17.6834C64.4872 17.9708 64.4438 18.3512 64.388 18.7171C64.1998 19.8765 63.7861 20.9877 63.1702 21.9879" fill="black"/>
<path opacity="0.1" d="M66.53 18.1235C66.325 18.1281 66.1247 18.186 65.9489 18.2915C65.7731 18.397 65.6278 18.5464 65.5273 18.7252C65.3904 19.0504 65.3053 19.395 65.275 19.7465C65.0978 20.5259 64.7559 21.2583 64.2723 21.8946" fill="black"/>
<path d="M115.666 58.5431V55.9753C115.665 54.085 114.914 52.2723 113.577 50.9359C112.24 49.5994 110.428 48.8486 108.537 48.8486H7.12872C5.23842 48.8486 3.42552 49.5994 2.08868 50.9359C0.75185 52.2723 0.00054823 54.085 0 55.9753V60.7098L115.666 58.5431Z" fill="#7B99BA"/>
<path opacity="0.2" d="M35.3398 45.8384C35.3398 45.8384 35.0503 63.7967 38.2343 69.7056C41.4182 75.6145 42.7827 101.32 42.7827 101.32C42.7827 101.32 76.1604 104.772 99.4197 97.1846C122.679 89.5969 172.171 86.4936 172.171 86.4936L163.83 30.2805C163.83 30.2805 122.627 27.6383 99.1881 38.8172C75.7489 49.9962 35.3398 45.8384 35.3398 45.8384Z" fill="#181F3E"/>
<path d="M42.7268 52.3987C42.7268 52.3987 41.6827 67.2164 44.3022 71.951C46.9217 76.6855 47.0437 97.8215 47.0437 97.8215C47.0437 97.8215 77.0823 99.215 98.4499 91.9416C119.817 84.6681 164.719 79.9501 164.719 79.9501L159.617 33.9794C159.617 33.9794 122.464 33.5969 100.78 43.8351C79.096 54.0734 42.7268 52.3987 42.7268 52.3987Z" fill="#09B3FF"/>
<path opacity="0.1" d="M100.45 83.5246C104.724 82.9922 107.263 75.1296 106.121 65.9629C104.98 56.7962 100.589 49.7967 96.3153 50.3291C92.0413 50.8614 89.5021 58.724 90.6439 67.8907C91.7857 77.0574 96.176 84.0569 100.45 83.5246Z" fill="black"/>
<path opacity="0.2" d="M141.241 2.89648C141.241 2.89648 101.212 13.0272 82.3358 30.8593C63.4596 48.6915 23.7224 57.1351 23.7224 57.1351C23.7224 57.1351 28.9573 74.3139 33.7993 78.9617C38.6414 83.6094 47.8252 107.658 47.8252 107.658C47.8252 107.658 80.6508 100.699 100.457 86.3343C120.264 71.9694 166.425 53.8271 166.425 53.8271L141.241 2.89648Z" fill="black"/>
<path opacity="0.2" d="M23.1209 54.5632C23.1209 54.5632 28.3537 71.7441 33.1917 76.3918C38.0296 81.0395 47.2175 105.087 47.2175 105.087C47.2175 105.087 80.0473 98.1294 99.8559 83.7645C119.665 69.3996 165.821 51.2635 165.821 51.2635L140.637 0.32666C140.637 0.32666 100.611 10.4574 81.7343 28.2895C62.8581 46.1216 23.1209 54.5632 23.1209 54.5632Z" fill="#181F3E"/>
<path d="M32.1578 58.5411C32.1578 58.5411 35.7118 72.966 39.6586 76.6668C43.6055 80.3676 50.2029 100.443 50.2029 100.443C50.2029 100.443 79.2181 92.5493 97.3231 79.0692C115.428 65.5891 156.72 47.3394 156.72 47.3394L137.759 5.1377C137.759 5.1377 102.283 16.1719 84.7858 32.5713C67.2886 48.9706 32.1578 58.5411 32.1578 58.5411Z" fill="#09B3FF"/>
<path opacity="0.1" d="M96.6538 70.4516C100.558 68.6334 100.562 60.3709 96.6626 51.9968C92.7631 43.6228 86.4367 38.3081 82.5322 40.1263C78.6277 41.9445 78.6238 50.207 82.5233 58.5811C86.4229 66.9552 92.7493 72.2698 96.6538 70.4516Z" fill="black"/>
<path opacity="0.1" d="M118.403 61.0633V132.392C118.403 133.202 118.244 134.004 117.934 134.752C117.624 135.501 117.169 136.181 116.596 136.754C116.023 137.326 115.343 137.78 114.595 138.09C113.846 138.4 113.044 138.559 112.234 138.559H6.17143C4.53611 138.559 2.96795 137.909 1.8118 136.752C0.65565 135.596 0.00616446 134.027 0.00616455 132.392V53.8726C3.04538 55.0014 3.04538 55.0014 6.17143 54.9063H112.234C113.868 54.9063 115.435 55.5546 116.592 56.7089C117.749 57.8632 118.4 59.4292 118.403 61.0633Z" fill="black"/>
<path d="M118.403 61.9711V133.3C118.403 134.936 117.752 136.504 116.596 137.661C115.439 138.817 113.87 139.467 112.234 139.467H6.17143C4.53611 139.466 2.96795 138.816 1.8118 137.66C0.65565 136.503 0.00616446 134.935 0.00616455 133.3V54.7783C3.04538 55.9051 3.04538 55.9051 6.17143 55.8121H112.234C113.868 55.8121 115.436 56.4606 116.593 57.6154C117.749 58.7701 118.401 60.3367 118.403 61.9711Z" fill="#C7EEFF"/>
<path opacity="0.1" d="M118.101 88.3419V111.153H95.9793C92.981 111.112 90.1192 109.893 88.0132 107.758C85.9073 105.624 84.7265 102.746 84.7265 99.7472C84.7265 96.7487 85.9073 93.8707 88.0132 91.7362C90.1192 89.6017 92.981 88.3823 95.9793 88.3419H118.101Z" fill="black"/>
<path d="M118.403 87.7341V110.549H96.2811C93.2828 110.509 90.421 109.289 88.315 107.155C86.209 105.02 85.0283 102.142 85.0283 99.1436C85.0283 96.145 86.209 93.2671 88.315 91.1326C90.421 88.998 93.2828 87.7786 96.2811 87.7383L118.403 87.7341Z" fill="#33323D"/>
<path opacity="0.1" d="M97.3417 104.196C99.7979 104.196 101.789 102.204 101.789 99.7483C101.789 97.2922 99.7979 95.3011 97.3417 95.3011C94.8856 95.3011 92.8946 97.2922 92.8946 99.7483C92.8946 102.204 94.8856 104.196 97.3417 104.196Z" fill="black"/>
<path d="M97.6435 103.592C100.1 103.592 102.091 101.601 102.091 99.1446C102.091 96.6885 100.1 94.6974 97.6435 94.6974C95.1874 94.6974 93.1963 96.6885 93.1963 99.1446C93.1963 101.601 95.1874 103.592 97.6435 103.592Z" fill="#09B3FF"/>
<path d="M83.7749 42.3877C83.3717 42.7463 82.999 43.1377 82.6605 43.5579C82.3198 43.9839 82.1384 44.5155 82.1477 45.0609C82.1495 45.2191 82.2001 45.3729 82.2925 45.5013C82.3397 45.5628 82.4049 45.608 82.479 45.6306C82.5532 45.6532 82.6325 45.6521 82.706 45.6274C82.789 45.5851 82.8601 45.5225 82.9127 45.4455C83.1312 45.1829 83.3631 44.9317 83.6074 44.6929C83.6963 44.604 83.8141 44.511 83.9341 44.5441C83.9878 44.5631 84.0361 44.5951 84.0746 44.6371C84.2137 44.7574 84.315 44.9153 84.3662 45.092C84.4385 45.4083 84.2545 45.7246 84.0457 45.9727C83.8369 46.2208 83.5909 46.4586 83.5061 46.7708C83.474 46.8532 83.474 46.9447 83.5061 47.0271C83.546 47.0868 83.6019 47.134 83.6674 47.1636C83.9634 47.3266 84.2917 47.4226 84.629 47.4447C84.9662 47.4669 85.3042 47.4147 85.6191 47.2918C86.0326 47.1243 86.4006 46.8369 86.8265 46.6881C87.0109 46.6376 87.1896 46.5683 87.3599 46.4813C87.4817 46.4002 87.5863 46.2958 87.6676 46.1741C87.7488 46.0524 87.8052 45.9158 87.8333 45.7722C87.8871 45.4852 87.8976 45.1918 87.8644 44.9017C87.8128 43.7786 87.5724 42.6722 87.1531 41.6289C87.1289 41.5616 87.0876 41.5018 87.0332 41.4552C86.971 41.4173 86.8993 41.398 86.8265 41.3994C86.2972 41.3436 85.4289 41.0728 84.9182 41.2692C84.7396 41.3671 84.5855 41.5042 84.4675 41.6703C84.3724 41.7757 83.7749 42.2492 83.7749 42.3877Z" fill="#A1616A"/>
<path d="M83.6072 41.9205C83.6072 41.416 82.9869 40.1982 83.9731 40.1176C83.9731 39.578 83.2102 39.243 83.3529 38.6703C83.3984 38.4801 83.5596 38.3251 83.5783 38.1307C83.6403 37.5787 82.6437 37.2789 82.8091 36.7496C82.8712 36.5429 83.0903 36.423 83.1379 36.2183C83.2495 35.7407 82.3956 35.5278 82.3791 35.0378C82.3791 34.8724 82.4721 34.7173 82.4639 34.5519C82.4639 34.3451 82.284 34.188 82.1848 34.0082C81.9263 33.5471 82.0524 32.8338 81.581 32.5961C81.8932 32.6229 81.9945 32.1598 81.8664 31.8766C81.7382 31.5933 81.4756 31.3473 81.4735 31.033C81.489 30.9191 81.489 30.8037 81.4735 30.6898C81.3867 30.388 80.8926 30.3632 80.8099 30.0696C80.7992 29.9569 80.7957 29.8436 80.7995 29.7305C80.7665 29.4969 80.5266 29.348 80.3013 29.2819C80.0672 29.2421 79.8419 29.1616 79.6355 29.0441C79.4908 28.9345 79.3233 28.7526 79.1683 28.8373C79.1104 28.8725 79.0815 28.9387 79.038 28.9883C78.852 29.2054 78.4964 29.1103 78.2627 28.9511C77.5722 28.4817 77.229 27.6403 77.0822 26.8195C76.9354 25.9987 76.9395 25.151 76.7555 24.3385C76.6994 24.0853 76.6248 23.8365 76.5322 23.5942C76.4537 23.3874 76.2014 23.0628 76.1849 22.854C76.1477 22.3785 77.1318 22.7031 77.506 22.7506C77.8693 22.7861 78.2286 22.8553 78.5791 22.9574C78.9531 23.0987 79.3196 23.2595 79.6769 23.4391C81.1696 24.0987 82.9725 24.1793 84.1716 25.2875C84.5665 25.6513 84.8994 26.1289 85.4121 26.2943C85.6473 26.3394 85.8793 26.3995 86.1068 26.4742C86.6754 26.7409 86.7643 27.4955 87.0744 28.0414C87.1719 28.1855 87.2569 28.3377 87.3287 28.4962C87.3885 28.6832 87.4164 28.8789 87.4114 29.0751L87.4548 30.5079C87.5251 32.9082 87.5954 35.3148 87.339 37.7007C87.2563 38.4884 87.1323 39.2989 87.3659 40.0556C87.4279 40.2623 87.5148 40.4567 87.5727 40.6655C87.6238 40.9103 87.6501 41.1597 87.6512 41.4098L87.6843 42.3381C87.6958 42.4103 87.6795 42.4841 87.6388 42.5448C87.6042 42.5729 87.5638 42.5928 87.5205 42.6032C87.4772 42.6136 87.4322 42.6141 87.3886 42.6048C86.0965 42.489 84.7898 41.7612 83.57 42.2016" fill="#464353"/>
<path d="M142.576 113.249C151.022 113.249 157.868 112.26 157.868 111.039C157.868 109.818 151.022 108.829 142.576 108.829C134.131 108.829 127.285 109.818 127.285 111.039C127.285 112.26 134.131 113.249 142.576 113.249Z" fill="#504F60"/>
<path d="M155.732 111.146C155.463 109.995 155.296 108.984 155.296 108.984C155.296 108.984 155.358 107.731 154.795 106.79V106.476V104.16C154.955 103.74 155.151 103.334 155.38 102.947C155.794 102.219 155.38 99.5519 155.38 99.5519C155.38 99.5519 153.836 95.7911 154.21 93.4052C154.585 91.0193 151.039 82.8114 151.039 82.8114C151.061 82.0198 151.172 81.2332 151.372 80.4668C151.409 80.3057 151.425 80.1401 151.417 79.9748C151.417 79.9541 151.417 79.9355 151.417 79.9148C151.417 79.8941 151.417 79.9272 151.417 79.9334C151.363 78.36 150.119 75.4118 150.119 75.4118L150.286 69.7924C150.286 69.7924 151.08 66.4844 149.786 62.0289C149.333 60.4762 149.044 59.2337 148.86 58.2743C148.839 58.1668 148.818 58.0676 148.802 57.9622C151.467 57.5487 153.503 57.2179 153.503 57.2179C153.503 57.2179 151.957 50.7487 150.913 49.6157C149.869 48.4827 149.033 44.9245 149.033 44.9245C149.033 44.9245 148.49 40.3574 149.368 39.0218C150.247 37.6862 150.371 35.3831 150.371 35.3831C150.371 35.3831 152.374 33.9358 152.627 33.2804C152.879 32.625 153.294 31.1778 153.294 30.4107C153.294 29.6437 153.044 28.9635 153.127 28.55C153.21 28.1365 152.542 26.6086 152.877 25.8809C152.963 25.6573 153.008 25.4197 153.009 25.18C153.01 25.1731 153.01 25.1662 153.009 25.1593C153.012 24.5224 152.953 23.8868 152.833 23.2613C152.254 22.772 151.577 22.4105 150.849 22.2007L150.805 22.027L150.691 21.5722C150.628 21.5302 150.562 21.4916 150.495 21.4564V21.291L150.476 20.6336L150.791 19.1574C151.411 16.5895 147.981 16.207 147.981 16.207C147.773 15.8132 147.427 15.5099 147.009 15.3552C146.321 15.1133 146.895 19.2173 147.216 19.4902C147.458 19.697 148.206 20.9747 148.568 21.6073L148.626 21.7107C148.569 21.7616 148.517 21.8169 148.469 21.8761L148.599 22.7672L148.62 22.9037C148.392 23.186 148.208 23.5001 148.072 23.8361C148.072 23.8361 148.692 24.5225 148.574 25.2833C148.456 26.0442 148.767 27.0097 148.781 27.0614C148.744 27.018 148.303 26.5424 147.863 26.6582C147.423 26.774 146.193 27.1441 146.193 27.1441C146.193 27.1441 145.275 27.3054 145.366 27.508C145.457 27.7106 144.745 28.5996 144.745 28.5996L142.277 26.2592C142.252 26.1889 142.225 26.1186 142.204 26.0525C142.104 25.715 142.034 25.3689 141.998 25.0187C142.267 24.9548 142.531 24.8712 142.787 24.7685C143.047 24.6795 143.281 24.5291 143.47 24.3302C143.72 24.0346 143.767 23.6335 143.869 23.2655C144.063 22.546 144.489 21.9071 144.785 21.2228C145.285 20.0664 145.447 18.7914 145.25 17.5468C145.212 17.1632 145.082 16.7944 144.871 16.4717C144.468 15.9176 143.736 15.6922 143.205 15.2498C142.674 14.8074 142.33 14.1313 141.71 13.8026C141.15 13.5028 140.47 13.5379 139.837 13.6413C138.601 13.845 137.414 14.2769 136.337 14.9149C135.977 15.1216 135.58 15.3759 135.167 15.2994C134.811 15.2353 134.546 14.9521 134.323 14.6792C134.326 14.6679 134.329 14.6568 134.333 14.6461C134.323 14.636 134.314 14.6249 134.307 14.613C134.045 15.1936 133.914 15.8245 133.922 16.4614C133.922 16.5606 133.922 16.6681 133.934 16.757V16.8604C133.934 16.8893 133.934 16.9183 133.934 16.9451C133.934 16.9892 133.928 17.0331 133.916 17.0754C133.864 17.2019 133.785 17.3155 133.684 17.4083C133.608 17.4945 133.539 17.5864 133.477 17.6832C133.477 17.6502 133.498 17.6171 133.511 17.5819C133.353 17.8121 133.264 18.0825 133.254 18.3614C133.243 18.5644 133.309 18.7641 133.44 18.9196C133.564 19.0398 133.699 19.1478 133.843 19.2421C133.794 19.5151 133.769 19.7918 133.769 20.0691C133.774 20.8913 133.99 21.6983 134.398 22.4122C134.806 23.126 135.391 23.7226 136.097 24.1442C136.126 24.2124 136.153 24.2827 136.18 24.3509C136.496 25.1779 136.734 26.1496 136.628 27.0386C136.628 27.1027 136.61 27.1689 136.599 27.233C136.589 27.2971 136.537 27.3012 136.51 27.3364C136.51 27.3364 132.431 27.3777 131.472 26.5094C130.513 25.641 129.049 28.6327 129.049 28.6327C129.049 28.6327 127.587 28.9159 127.294 28.6327C127 28.3494 125.29 28.5934 125.29 28.5934C124.59 27.9704 123.678 27.6377 122.741 27.663C122.173 27.2315 121.547 26.8834 120.88 26.6293L120.835 26.6127C120.541 26.5055 120.226 26.466 119.915 26.497C119.915 26.497 117.909 24.843 117.324 23.9498C116.739 23.0567 113.954 19.759 113.942 19.7445V19.5853L113.911 19.1057C113.828 19.1187 113.744 19.1256 113.661 19.1264C113.646 19.0788 113.625 19.023 113.605 18.9589C113.444 18.491 113.247 18.0368 113.013 17.6005C113.013 17.6005 113.013 16.9948 113.189 16.8418C113.365 16.6888 113.117 14.4662 113.117 14.4662C113.117 14.4662 111.31 10.2423 109.691 13.3953C109.691 13.3953 106.631 15.4359 109.199 17.8135C109.199 17.8135 110.233 18.3097 110.369 18.7025C110.464 18.9568 110.812 19.6701 111.045 20.1498L111.151 20.3565L111.122 20.3813L111.159 20.7783L111.175 20.9313C110.692 21.2062 110.363 21.4792 110.444 21.6838C110.586 22.0341 110.684 22.4008 110.735 22.7755C110.735 22.7755 114.287 27.2247 114.746 29.1247C114.746 29.1247 124.271 34.7855 127.403 35.1887L126.849 38.0108C126.768 38.7766 126.727 39.5461 126.725 40.3161C126.766 40.9219 126.349 43.6716 126.349 43.6716C126.349 43.6716 125.805 47.7157 125.346 48.2821C124.887 48.8486 124.97 51.2738 124.97 51.2738C124.861 52.4348 124.654 53.5844 124.349 54.71C123.89 56.2461 124.223 58.1482 124.223 58.1482C124.223 58.1482 122.638 61.787 126.438 59.3205C126.438 59.3205 128.298 59.2047 130.453 59.1303C130.453 59.2006 130.453 59.2729 130.453 59.337C130.453 59.6141 130.453 59.9139 130.438 60.2281C130.409 62.3122 130.397 65.1901 130.492 67.3568C130.659 71.1982 131.83 78.8004 131.83 78.8004V82.6273C131.754 82.9863 131.717 83.3522 131.718 83.719C131.693 85.0655 132.052 86.3913 132.752 87.5418L133.045 90.0889C133.045 90.0889 133.732 91.7677 133.744 92.7767C133.742 92.858 133.732 92.9389 133.715 93.0186C133.688 93.147 133.677 93.2782 133.682 93.4093C133.643 94.5671 134.34 97.3376 134.34 97.3376C134.34 97.3376 134.381 100.127 134.799 100.29C135.156 100.428 134.321 101.896 134.073 102.318C134.066 102.292 134.061 102.266 134.058 102.24L134.007 102.322C133.921 102.548 133.876 102.788 133.876 103.029C133.853 103.22 133.884 103.413 133.966 103.587C134.048 103.76 134.178 103.907 134.34 104.009C135.134 104.495 135.559 104.898 134.885 105.06C134.637 105.098 134.392 105.15 134.149 105.215C134.149 105.184 134.125 105.151 134.114 105.122C134.019 105.159 133.94 105.228 133.89 105.317C133.84 105.406 133.822 105.509 133.839 105.61C133.846 105.938 133.93 106.259 134.085 106.548C134.753 108.045 135.216 108.616 135.216 108.616L135.537 108.581C135.489 108.703 135.427 108.819 135.351 108.926C135.229 109.099 135.067 109.241 134.879 109.339C134.704 109.444 134.509 109.511 134.307 109.536C134.08 109.543 133.858 109.598 133.654 109.697C133.45 109.796 133.27 109.937 133.124 110.111C132.71 110.65 132.446 111.384 133.269 112.029L136.256 113.063C136.256 113.063 141.396 113.731 141.123 112.577C140.85 111.423 140.685 110.414 140.685 110.414C140.707 109.71 140.565 109.01 140.271 108.37C140.217 108.265 140.157 108.164 140.089 108.068L140.271 108.049C140.271 108.049 140.648 105.5 141.148 105.016C141.264 104.905 141.291 104.809 141.264 104.752C141.315 104.613 141.183 104.532 141.016 104.485L140.978 104.586C140.815 104.551 140.648 104.532 140.48 104.53C140.48 104.53 140.313 103.197 140.856 102.711C140.9 102.656 140.932 102.592 140.95 102.523C140.969 102.455 140.972 102.384 140.962 102.314C140.966 102.131 140.946 101.948 140.904 101.77C140.898 101.782 140.892 101.793 140.885 101.803C140.612 100.592 139.686 98.667 139.686 98.667C139.686 98.667 139.645 97.4554 139.98 96.9696C140.315 96.4837 139.936 90.3784 139.936 90.3784C139.936 90.3784 140.062 87.4281 139.686 86.0532C139.31 84.6783 140.145 83.0595 140.145 83.0595C140.145 83.0595 140.145 83.0284 140.145 82.9726V82.952L140.098 82.4868C140.096 82.4964 140.096 82.5061 140.098 82.5157C140.013 81.7342 139.854 80.318 139.736 79.6646C139.568 78.7343 139.779 74.2892 139.779 74.2892L140.53 72.3871L141.867 75.664L143.288 80.0306C143.288 80.0306 143.991 80.9527 144.007 81.8913C144.007 81.9368 144.007 81.9823 144.007 82.0278C143.996 82.1245 143.99 82.2219 143.991 82.3193C143.965 82.871 144.117 83.4163 144.423 83.8761C144.423 83.8761 144.799 85.9436 145.384 86.4626C145.969 86.9815 145.969 87.9987 145.969 87.9987C145.969 87.9987 146.678 90.9924 147.003 91.5135C147.284 91.9559 147.299 93.1674 147.297 93.5458C147.297 93.614 147.297 93.6533 147.297 93.6533C147.297 93.6533 147.396 94.7243 147.392 95.6216C147.392 95.7332 147.392 95.8407 147.392 95.942C147.393 95.9345 147.393 95.9268 147.392 95.9193C147.391 96.1644 147.362 96.4087 147.305 96.647L147.292 96.6884C147.292 96.6367 147.292 96.5871 147.307 96.5375C147.162 97.1468 147.092 97.7718 147.1 98.3982C147.082 99.4733 147.245 100.747 147.896 101.499C149.025 102.794 149.734 102.632 149.734 102.632C149.734 102.632 149.192 104.249 148.523 104.574C148.497 104.586 148.474 104.601 148.452 104.619C148.452 104.586 148.44 104.555 148.436 104.524C148.361 104.605 148.304 104.7 148.269 104.804C148.233 104.908 148.219 105.018 148.229 105.128C148.181 105.839 148.63 106.989 149.056 107.524C149.214 107.679 149.408 107.793 149.62 107.855C149.587 107.879 149.552 107.9 149.515 107.919C149.441 107.96 149.364 107.996 149.286 108.029C149.177 108.075 149.062 108.105 148.944 108.117C148.718 108.124 148.495 108.178 148.291 108.277C148.087 108.376 147.907 108.518 147.762 108.692C147.348 109.23 147.084 109.964 147.906 110.609L150.894 111.643C150.894 111.643 156.001 112.298 155.732 111.146Z" fill="url(#paint0_linear)"/>
<path d="M136.109 113.057L133.215 112.023C132.417 111.378 132.671 110.644 133.074 110.104C133.213 109.932 133.387 109.792 133.585 109.693C133.782 109.594 133.999 109.538 134.22 109.53C134.416 109.505 134.604 109.438 134.772 109.333C134.955 109.234 135.112 109.092 135.231 108.92C135.442 108.585 135.556 108.197 135.559 107.801C135.559 107.801 138.735 106.871 139.603 107.801C139.758 107.97 139.888 108.16 139.988 108.366C140.276 109.008 140.418 109.706 140.401 110.41C140.401 110.41 140.563 111.419 140.825 112.573C141.088 113.727 136.109 113.057 136.109 113.057Z" fill="#2D293D"/>
<path d="M150.259 111.63L147.365 110.596C146.567 109.951 146.821 109.217 147.224 108.68C147.362 108.507 147.535 108.366 147.733 108.267C147.93 108.168 148.147 108.113 148.367 108.105C148.482 108.093 148.593 108.063 148.698 108.016C148.775 107.984 148.849 107.947 148.922 107.907C149.73 107.462 149.709 106.371 149.709 106.371C149.709 106.371 152.883 105.44 153.753 106.371C153.87 106.497 153.972 106.635 154.057 106.784C154.601 107.725 154.541 108.98 154.541 108.98C154.541 108.98 154.702 109.991 154.954 111.142C155.207 112.294 150.259 111.63 150.259 111.63Z" fill="#2D293D"/>
<path opacity="0.1" d="M139.606 107.799C139.761 107.968 139.89 108.158 139.99 108.364L135.235 108.916C135.446 108.58 135.56 108.193 135.564 107.797C135.564 107.797 138.737 106.869 139.606 107.799Z" fill="black"/>
<path opacity="0.1" d="M154.061 106.788V107.679C153.321 108.897 149.742 108.63 148.702 108.02C148.779 107.988 148.853 107.951 148.926 107.911C149.734 107.466 149.713 106.375 149.713 106.375C149.713 106.375 152.887 105.444 153.757 106.375C153.874 106.501 153.976 106.639 154.061 106.788Z" fill="black"/>
<path d="M154.626 102.947C154.405 103.335 154.216 103.741 154.061 104.16V107.354C153.251 108.688 149.048 108.244 148.479 107.516C147.911 106.788 147.317 104.894 147.956 104.565C148.595 104.237 149.128 102.624 149.128 102.624C149.128 102.624 148.44 102.785 147.348 101.491C146.257 100.197 146.581 97.3272 146.784 96.6407C146.986 95.9543 146.784 93.6491 146.784 93.6491C146.784 93.6491 146.825 92.0302 146.503 91.5051C146.18 90.9799 145.492 87.9903 145.492 87.9903C145.492 87.9903 145.492 86.9793 144.925 86.4542C144.359 85.9291 143.995 83.8657 143.995 83.8657C143.664 83.3501 143.521 82.7357 143.592 82.1269C143.712 81.1159 142.903 80.0243 142.903 80.0243L141.528 75.6557L140.234 72.3808L139.506 74.2808C139.506 74.2808 139.3 78.728 139.467 79.6563C139.634 80.5846 139.881 83.0532 139.881 83.0532C139.881 83.0532 139.072 84.67 139.436 86.0448C139.8 87.4197 139.668 90.3742 139.668 90.3742C139.668 90.3742 140.031 96.4774 139.707 96.9633C139.382 97.4491 139.424 98.6627 139.424 98.6627C139.424 98.6627 141.078 102.219 140.557 102.705C140.036 103.191 140.193 104.524 140.193 104.524C140.193 104.524 141.324 104.524 140.84 105.01C140.356 105.496 139.99 108.043 139.99 108.043L135.1 108.616C135.1 108.616 134.654 108.051 134.007 106.548C133.36 105.045 134.127 105.215 134.778 105.051C135.429 104.888 135.018 104.487 134.249 104.001C133.48 103.515 133.926 102.424 133.926 102.424C133.926 102.424 135.098 100.443 134.693 100.282C134.288 100.12 134.249 97.3292 134.249 97.3292C134.249 97.3292 133.44 94.0212 133.643 93.1239C133.845 92.2266 132.996 90.093 132.996 90.093L132.713 87.5458C131.847 86.1004 131.532 84.3918 131.823 82.7327V78.8045C131.823 78.8045 130.69 71.2044 130.529 67.363C130.426 64.9026 130.455 61.545 130.488 59.4507C130.509 58.2763 130.529 57.4969 130.529 57.4969L147.995 55.6775C147.995 55.6775 147.979 56.4838 148.312 58.2722C148.492 59.2315 148.771 60.4741 149.209 62.0268C150.462 66.4739 149.695 69.7881 149.695 69.7881L149.532 75.4097C149.532 75.4097 151.068 79.1684 150.745 80.4626C150.55 81.2311 150.441 82.0188 150.419 82.8113C150.419 82.8113 153.855 91.0192 153.491 93.4051C153.127 95.791 154.622 99.5518 154.622 99.5518C154.622 99.5518 155.031 102.219 154.626 102.947Z" fill="#464353"/>
<path opacity="0.05" d="M144.64 81.8831L149.957 81.174C149.957 81.174 146.945 84.2483 144.64 81.8831Z" fill="black"/>
<path opacity="0.1" d="M149.188 75.9784C149.188 75.9784 149.37 77.8598 148.219 78.5669C148.219 78.5669 150.28 78.2444 149.188 75.9784Z" fill="black"/>
<path opacity="0.1" d="M148.862 69.995C148.862 69.995 144.416 73.6545 142.8 73.3505C141.183 73.0466 148.862 69.995 148.862 69.995Z" fill="black"/>
<path opacity="0.1" d="M138.049 83.5991C138.049 83.5991 134.673 84.3662 134.571 85.7224C134.47 87.0787 138.049 83.5991 138.049 83.5991Z" fill="black"/>
<path opacity="0.05" d="M138.791 100.462C138.791 100.462 134.021 101.351 135.375 101.956C136.73 102.562 138.954 103.048 138.954 103.048C138.954 103.048 140.495 103.129 138.791 100.462Z" fill="black"/>
<g opacity="0.05">
<path opacity="0.05" d="M134.412 102.92C134.292 102.845 134.19 102.744 134.115 102.624C134.039 102.505 133.992 102.37 133.976 102.229L133.926 102.314C133.926 102.314 133.481 103.406 134.251 103.889C134.337 103.945 134.422 104.001 134.499 104.055C134.641 104.028 134.794 104.007 134.941 103.97C135.592 103.809 135.181 103.406 134.412 102.92Z" fill="black"/>
<path opacity="0.05" d="M140.556 102.595C140.689 102.475 140.685 102.165 140.604 101.768C140.397 102.081 140.337 102.568 140.333 102.939C140.383 102.81 140.459 102.693 140.556 102.595Z" fill="black"/>
<path opacity="0.05" d="M139.822 82.4806C139.647 82.9588 139.538 83.4591 139.5 83.9671C139.592 83.6162 139.716 83.2743 139.87 82.9458L139.822 82.4806Z" fill="black"/>
<path opacity="0.05" d="M150.747 80.3593C150.779 80.214 150.793 80.0655 150.791 79.9169C150.731 80.2187 150.689 80.4978 150.658 80.7439C150.685 80.6178 150.714 80.4978 150.747 80.3593Z" fill="black"/>
<path opacity="0.05" d="M139.709 96.8559C139.775 96.7567 139.812 96.4217 139.829 95.9565C139.679 96.3165 139.6 96.7018 139.595 97.0916C139.623 97.0087 139.662 96.9296 139.709 96.8559Z" fill="black"/>
<path opacity="0.05" d="M140.701 104.481C140.45 105.292 140.265 106.121 140.145 106.962L135.255 107.526C135.255 107.526 134.809 106.962 134.162 105.459C134.11 105.343 134.063 105.224 134.023 105.103C133.73 105.238 133.61 105.541 133.998 106.428C134.646 107.925 135.094 108.496 135.094 108.496L139.984 107.929C139.984 107.929 140.348 105.382 140.831 104.896C141.08 104.663 140.927 104.541 140.701 104.481Z" fill="black"/>
<path opacity="0.05" d="M134.25 97.2197C134.25 97.2197 134.29 100.009 134.695 100.17C134.902 99.709 135.036 99.2707 134.854 99.1983C134.441 99.0371 134.41 96.2459 134.41 96.2459C134.41 96.2459 133.601 92.9379 133.804 92.0407C134.007 91.1434 133.157 89.0097 133.157 89.0097L132.874 86.4625C132.008 85.0171 131.693 83.3085 131.985 81.6494V77.7212C131.985 77.7212 130.852 70.1211 130.69 66.2797C130.587 63.8194 130.616 60.4617 130.649 58.3674C130.649 57.989 130.661 57.6541 130.668 57.3708L130.529 57.3853C130.529 57.3853 130.506 58.1627 130.488 59.3391C130.455 61.4335 130.424 64.7911 130.529 67.2493C130.69 71.0907 131.821 78.6929 131.821 78.6929V82.6212C131.531 84.2798 131.847 85.9875 132.712 87.4322L132.993 89.9794C132.993 89.9794 133.843 92.1213 133.641 93.0124C133.438 93.9035 134.25 97.2197 134.25 97.2197Z" fill="black"/>
<path opacity="0.05" d="M148.644 106.437C148.247 105.862 147.982 105.206 147.869 104.516C147.371 104.967 147.944 106.716 148.489 107.41C149.054 108.138 153.259 108.583 154.072 107.247V106.478C152.97 107.559 149.178 107.125 148.644 106.437Z" fill="black"/>
<path opacity="0.05" d="M154.789 101.867C154.567 102.256 154.378 102.662 154.223 103.081V103.654C154.316 103.447 154.446 103.17 154.636 102.843C154.764 102.525 154.825 102.184 154.814 101.841C154.814 101.841 154.795 101.859 154.789 101.867Z" fill="black"/>
<path opacity="0.05" d="M148.892 102.506C149.046 102.195 149.179 101.874 149.291 101.545C149.291 101.545 148.603 101.706 147.511 100.412C146.717 99.4712 146.672 97.6932 146.786 96.5312C146.579 97.2197 146.258 100.089 147.35 101.384C148.063 102.229 148.603 102.453 148.892 102.506Z" fill="black"/>
<path opacity="0.05" d="M146.784 93.5397C146.855 94.3363 146.882 95.1363 146.864 95.9359C146.884 95.8097 146.912 95.6847 146.947 95.5617C147.154 94.8732 146.947 92.5701 146.947 92.5701C146.947 92.5701 146.988 90.9512 146.664 90.4261C146.339 89.9009 145.663 86.9072 145.663 86.9072C145.663 86.9072 145.663 85.8962 145.097 85.371C144.53 84.8459 144.166 82.7825 144.166 82.7825C143.832 82.268 143.686 81.6537 143.753 81.0438C143.875 80.0328 143.066 78.9411 143.066 78.9411L141.691 74.5746L140.397 71.2997L139.667 73.2018C139.667 73.2018 139.667 73.4416 139.642 73.822L140.234 72.2776L141.528 75.5463L142.903 79.9129C142.903 79.9129 143.711 81.0045 143.589 82.0155C143.523 82.6254 143.669 83.2397 144.003 83.7543C144.003 83.7543 144.367 85.8218 144.933 86.3428C145.5 86.8638 145.498 87.8789 145.498 87.8789C145.498 87.8789 146.186 90.8706 146.509 91.3937C146.831 91.9167 146.784 93.5397 146.784 93.5397Z" fill="black"/>
</g>
<path d="M150.179 19.1512L149.875 20.6274L149.893 21.2849L149.906 21.7687L148.219 21.9423L148.03 21.5929C147.681 20.9603 146.955 19.6743 146.722 19.4758C146.41 19.2153 145.853 15.1093 146.515 15.3532C146.922 15.5105 147.257 15.8133 147.454 16.203C147.454 16.203 150.776 16.5834 150.179 19.1512Z" fill="#FFCDD3"/>
<path opacity="0.1" d="M149.906 21.7686L148.219 21.9423L148.031 21.5929C148.257 21.3346 148.567 21.1629 148.906 21.1071C149.246 21.0513 149.594 21.1149 149.891 21.2869L149.906 21.7686Z" fill="black"/>
<path d="M150.332 22.5687L148.107 23.0835L148.059 22.7527L147.933 21.8616C147.933 21.8616 148.814 20.6873 150.088 21.568L150.199 22.0208L150.332 22.5687Z" fill="#09B3FF"/>
<path d="M114.295 19.3125L111.92 20.5861L111.713 20.1395C111.488 19.666 111.151 18.9528 111.058 18.6923C110.917 18.2994 109.927 17.8032 109.927 17.8032C107.446 15.4277 110.402 13.385 110.402 13.385C111.969 10.2321 113.71 14.456 113.71 14.456C113.71 14.456 113.954 16.6827 113.783 16.8315C113.611 16.9804 113.611 17.5903 113.611 17.5903C113.837 18.0273 114.029 18.4815 114.184 18.9486C114.256 19.174 114.295 19.3125 114.295 19.3125Z" fill="#FFCDD3"/>
<path opacity="0.1" d="M114.295 19.3124L111.92 20.586L111.713 20.1394C112.048 19.8582 113.237 18.8989 113.627 18.9382C113.814 18.9615 114.002 18.9663 114.19 18.9527C114.256 19.1739 114.295 19.3124 114.295 19.3124Z" fill="black"/>
<path d="M114.537 20.0299L111.868 21.3448L111.814 20.7721L111.777 20.3751C111.777 20.3751 113.323 19.0499 113.78 19.1016C114.011 19.135 114.246 19.135 114.477 19.1016L114.508 19.5812L114.537 20.0299Z" fill="#09B3FF"/>
<path d="M143.709 28.9572C143.709 28.9572 132.074 30.2701 134.249 29.563C135.762 29.0689 136.364 28.1157 136.49 27.0406C136.593 26.1454 136.361 25.1799 136.058 24.3529C135.784 23.6192 135.438 22.9148 135.024 22.2503C135.024 22.2503 143.914 17.3586 142.138 21.8057C141.864 22.4784 141.694 23.1888 141.634 23.9125C141.58 24.6318 141.658 25.3547 141.863 26.0462C142.198 27.1681 142.837 28.1755 143.709 28.9572Z" fill="#FFCDD3"/>
<path opacity="0.1" d="M142.132 21.7996C141.858 22.4723 141.688 23.1827 141.627 23.9064C140.79 24.6114 139.872 24.5639 138.692 24.5639C137.786 24.5639 136.781 24.783 136.058 24.3468C135.784 23.6131 135.438 22.9087 135.024 22.2442C135.024 22.2442 143.912 17.3525 142.132 21.7996Z" fill="black"/>
<path d="M138.534 24.8741C141.192 24.8741 143.346 22.7201 143.346 20.063C143.346 17.4059 141.192 15.252 138.534 15.252C135.877 15.252 133.723 17.4059 133.723 20.063C133.723 22.7201 135.877 24.8741 138.534 24.8741Z" fill="#FFCDD3"/>
<path opacity="0.1" d="M143.709 28.9574C143.709 28.9574 132.074 30.2702 134.249 29.5631C135.762 29.069 136.364 28.1159 136.49 27.0408C137.069 26.4206 138.233 25.9595 138.971 25.7197C139.653 25.4902 140.39 25.4779 141.08 25.6845C141.351 25.7662 141.609 25.886 141.847 26.0401C142.186 27.1662 142.83 28.1761 143.709 28.9574Z" fill="black"/>
<path opacity="0.1" d="M150.332 22.5687L148.107 23.0836L148.059 22.7528C148.298 22.4256 148.631 22.1798 149.014 22.0488C149.397 21.9178 149.811 21.9081 150.199 22.0209L150.332 22.5687Z" fill="black"/>
<path opacity="0.1" d="M148.312 58.2766C143.802 58.9961 137.393 59.914 136.376 59.6039C135.53 59.3476 132.834 59.3744 130.488 59.4551C130.508 58.2807 130.529 57.5013 130.529 57.5013L147.995 55.6819C147.995 55.6819 147.979 56.4882 148.312 58.2766Z" fill="black"/>
<path d="M152.806 57.2178C152.806 57.2178 137.968 59.765 136.376 59.2853C134.784 58.8056 126.607 59.3246 126.607 59.3246C122.927 61.7911 124.463 58.1523 124.463 58.1523C124.463 58.1523 124.141 56.2523 124.585 54.7161C124.884 53.5883 125.088 52.4376 125.195 51.2758C125.195 51.2758 125.114 48.8486 125.559 48.2821C126.003 47.7156 126.531 43.6737 126.531 43.6737C126.531 43.6737 126.934 40.9239 126.894 40.3181C126.855 39.7123 127.014 38.0129 127.014 38.0129L127.542 35.1825C124.509 34.7793 115.29 29.1185 115.29 29.1185C114.845 27.2185 111.409 22.7713 111.409 22.7713C111.359 22.3973 111.264 22.0308 111.126 21.6797C110.884 21.0325 114.523 19.7383 114.523 19.7383C114.523 19.7383 117.231 23.0463 117.797 23.9436C118.364 24.8409 120.303 26.4907 120.303 26.4907C120.605 26.4597 120.909 26.4994 121.192 26.6065L121.24 26.621C121.89 26.8761 122.499 27.2243 123.049 27.6547C123.961 27.6331 124.845 27.9667 125.515 28.5851C125.515 28.5851 127.169 28.3411 127.457 28.6244C127.744 28.9076 129.154 28.6244 129.154 28.6244C129.154 28.6244 130.568 25.6327 131.499 26.5011C132.429 27.3694 136.376 27.3281 136.376 27.3281C136.901 26.6292 138.181 26.1289 138.981 25.8808C139.664 25.6523 140.4 25.64 141.09 25.8457C141.387 25.9345 141.667 26.0744 141.917 26.2592L144.317 28.6037C144.317 28.6037 145.004 27.7126 144.923 27.5121C144.842 27.3115 145.731 27.1482 145.731 27.1482C145.731 27.1482 146.904 26.7843 147.348 26.6623C147.793 26.5403 148.2 27.0221 148.237 27.0655C148.223 27.0138 147.919 26.0317 148.03 25.2874C148.142 24.5431 147.545 23.8402 147.545 23.8402C148.959 20.3627 152.153 23.2737 152.153 23.2737C152.153 23.2737 152.517 25.1737 152.194 25.9015C151.872 26.6292 152.517 28.1654 152.436 28.5706C152.356 28.9758 152.6 29.6623 152.6 30.4314C152.6 31.2005 152.186 32.6539 151.952 33.301C151.719 33.9482 149.769 35.4037 149.769 35.4037C149.769 35.4037 149.647 37.7089 148.797 39.0425C147.948 40.376 148.481 44.9369 148.481 44.9369C148.481 44.9369 149.29 48.4951 150.301 49.628C151.312 50.761 152.806 57.2178 152.806 57.2178Z" fill="#3F3D56"/>
<path opacity="0.1" d="M131.176 30.6135C131.176 30.6135 130.732 29.2799 130.327 29.1662C129.924 29.0183 129.533 28.8428 129.154 28.6411L129.415 28.1428C129.415 28.1428 130.932 28.5563 131.176 29.005C131.42 29.4536 131.176 30.6135 131.176 30.6135Z" fill="black"/>
<path opacity="0.1" d="M123.049 27.6632C122.968 28.0767 119.369 28.4302 119.369 28.4302L121.188 26.6067L121.234 26.6232C121.886 26.8797 122.498 27.2301 123.049 27.6632Z" fill="black"/>
<path d="M112.637 22.4363C112.815 22.4363 112.96 22.2919 112.96 22.1138C112.96 21.9357 112.815 21.7913 112.637 21.7913C112.459 21.7913 112.315 21.9357 112.315 22.1138C112.315 22.2919 112.459 22.4363 112.637 22.4363Z" fill="#575988"/>
<path d="M113.051 23.0835C113.229 23.0835 113.373 22.9391 113.373 22.761C113.373 22.5829 113.229 22.4385 113.051 22.4385C112.873 22.4385 112.728 22.5829 112.728 22.761C112.728 22.9391 112.873 23.0835 113.051 23.0835Z" fill="#575988"/>
<path d="M113.456 23.6809C113.634 23.6809 113.778 23.5365 113.778 23.3584C113.778 23.1803 113.634 23.0359 113.456 23.0359C113.278 23.0359 113.133 23.1803 113.133 23.3584C113.133 23.5365 113.278 23.6809 113.456 23.6809Z" fill="#575988"/>
<path d="M113.88 24.3262C114.058 24.3262 114.202 24.1818 114.202 24.0037C114.202 23.8256 114.058 23.6812 113.88 23.6812C113.702 23.6812 113.557 23.8256 113.557 24.0037C113.557 24.1818 113.702 24.3262 113.88 24.3262Z" fill="#575988"/>
<path d="M151.992 24.231C152.137 24.231 152.254 24.1134 152.254 23.9684C152.254 23.8234 152.137 23.7058 151.992 23.7058C151.847 23.7058 151.729 23.8234 151.729 23.9684C151.729 24.1134 151.847 24.231 151.992 24.231Z" fill="#575988"/>
<path d="M152.033 24.8286C152.178 24.8286 152.296 24.7111 152.296 24.566C152.296 24.421 152.178 24.3035 152.033 24.3035C151.888 24.3035 151.771 24.421 151.771 24.566C151.771 24.7111 151.888 24.8286 152.033 24.8286Z" fill="#575988"/>
<path d="M152.068 25.4241C152.213 25.4241 152.331 25.3065 152.331 25.1615C152.331 25.0165 152.213 24.8989 152.068 24.8989C151.923 24.8989 151.806 25.0165 151.806 25.1615C151.806 25.3065 151.923 25.4241 152.068 25.4241Z" fill="#575988"/>
<path opacity="0.1" d="M131.191 41.5709C131.152 41.5234 140.267 53.0331 147.342 46.382C147.348 46.3841 136.169 47.8995 131.191 41.5709Z" fill="black"/>
<path opacity="0.1" d="M125.96 47.5544C125.96 47.5544 131.414 47.7033 131.985 49.2725V50.9058C131.829 50.992 131.655 51.0372 131.477 51.0372C131.3 51.0372 131.125 50.992 130.97 50.9058C130.42 50.6081 127.122 48.9335 125.96 49.7398V47.5544Z" fill="black"/>
<path d="M126.061 47.5544C126.061 47.5544 131.277 47.6971 131.823 49.194V50.7487C131.675 50.8313 131.507 50.8746 131.337 50.8746C131.167 50.8746 131 50.8313 130.852 50.7487C130.326 50.4675 127.173 48.8694 126.061 49.6385V47.5544Z" fill="#3F3D56"/>
<path opacity="0.1" d="M128.937 35.7119C129.494 37.0017 130.204 38.2199 131.052 39.3404C131.974 40.5788 133.091 41.6591 134.36 42.5388C134.36 42.5388 129.028 36.4603 128.937 35.7119Z" fill="black"/>
<path opacity="0.1" d="M127.153 29.375C127.153 29.375 128.062 33.3032 130.407 34.6368L127.153 29.375Z" fill="black"/>
<path opacity="0.1" d="M125.757 29.772C125.735 29.6996 124.949 32.8732 128.78 34.6368C128.78 34.6368 127.153 34.0848 125.757 29.772Z" fill="black"/>
<path opacity="0.1" d="M149.573 27.1379C149.513 27.1379 151.463 28.3784 151.994 28.9573C151.994 28.9573 150.725 27.0552 149.573 27.1379Z" fill="black"/>
<path d="M137.234 24.4233C137.235 24.5282 137.257 24.6319 137.3 24.7277C137.343 24.8235 137.405 24.9094 137.483 24.98C137.56 25.0505 137.652 25.1042 137.752 25.1375C137.851 25.1709 137.956 25.1832 138.061 25.1738C139.527 25.2647 141.055 25.3288 142.403 24.7603C142.655 24.67 142.883 24.5196 143.064 24.322C143.304 24.0263 143.352 23.6252 143.449 23.2572C143.639 22.5377 144.044 21.8989 144.336 21.2145C144.829 20.0583 144.994 18.7886 144.813 17.5447C144.775 17.1634 144.649 16.7962 144.445 16.4717C144.057 15.9155 143.348 15.6902 142.833 15.2477C142.318 14.8053 141.987 14.1292 141.385 13.8005C140.844 13.4986 140.18 13.5359 139.57 13.6392C138.371 13.8429 137.221 14.2746 136.184 14.9107C135.834 15.1175 135.452 15.3718 135.051 15.2953C134.699 15.2291 134.443 14.9335 134.224 14.6564C133.942 15.3181 133.823 16.0379 133.878 16.7549C133.894 16.8602 133.89 16.9673 133.868 17.0713C133.818 17.197 133.741 17.3105 133.643 17.4041C133.281 17.8176 133.056 18.4896 133.413 18.9155C133.568 19.0995 133.808 19.2008 133.959 19.3889C134.23 19.7259 134.139 20.2159 134.133 20.646C134.118 20.7961 134.156 20.9468 134.24 21.0719C134.318 21.1448 134.414 21.1962 134.518 21.2212C134.622 21.2462 134.731 21.2439 134.834 21.2145C135.038 21.1528 135.253 21.1325 135.466 21.1546C135.69 21.2275 135.884 21.373 136.016 21.5681C136.684 22.4385 136.949 23.3854 137.234 24.4233Z" fill="#2D293D"/>
<g opacity="0.1">
<path opacity="0.1" d="M143.236 23.956C143.054 24.1536 142.827 24.3041 142.574 24.3943C141.218 24.9587 139.692 24.8946 138.233 24.8078C138.076 24.8094 137.921 24.7747 137.78 24.7065C137.557 24.5762 137.472 24.3033 137.404 24.0552C137.118 23.0215 136.856 22.0725 136.178 21.2104C136.047 21.0115 135.853 20.8623 135.628 20.7865C135.415 20.7665 135.2 20.7868 134.995 20.8465C134.892 20.8761 134.784 20.8788 134.68 20.8542C134.576 20.8295 134.48 20.7785 134.402 20.7059C134.317 20.5808 134.279 20.4302 134.294 20.28C134.294 19.8458 134.391 19.36 134.12 19.023C133.969 18.8348 133.73 18.7335 133.575 18.5474C133.473 18.4103 133.411 18.2482 133.395 18.0786C133.379 17.9089 133.409 17.738 133.482 17.584C133.223 17.9975 133.114 18.5164 133.413 18.872C133.568 19.056 133.808 19.1573 133.959 19.3455C134.23 19.6846 134.139 20.1725 134.133 20.6025C134.117 20.7525 134.154 20.9032 134.238 21.0284C134.317 21.1017 134.413 21.1533 134.517 21.1784C134.622 21.2034 134.731 21.2009 134.834 21.1711C135.039 21.1094 135.254 21.089 135.466 21.1111C135.691 21.184 135.884 21.3295 136.016 21.5246C136.692 22.3868 136.957 23.3337 137.242 24.3716C137.276 24.627 137.403 24.8607 137.6 25.027C137.742 25.0953 137.898 25.1293 138.055 25.1262C139.521 25.2172 141.049 25.2833 142.397 24.7127C142.65 24.6231 142.877 24.4725 143.058 24.2744C143.149 24.1579 143.219 24.0264 143.265 23.8857C143.267 23.9126 143.253 23.9353 143.236 23.956Z" fill="black"/>
<path opacity="0.1" d="M133.878 16.9452C133.943 16.8746 133.993 16.7916 134.025 16.7012C134.044 16.5966 134.044 16.4895 134.025 16.3849C133.985 15.7954 134.062 15.2038 134.251 14.644L134.224 14.613C133.941 15.2737 133.822 15.993 133.878 16.7095C133.885 16.7879 133.885 16.8667 133.878 16.9452Z" fill="black"/>
</g>
<path opacity="0.1" d="M136.376 27.3384C136.376 27.3384 142.386 28.1364 142.926 27.2329L136.376 27.3384Z" fill="black"/>
<path opacity="0.1" d="M148.059 24.8513C148.059 24.8513 151.4 24.8513 152.134 26.1084L148.059 24.8513Z" fill="black"/>
<defs>
<linearGradient id="paint0_linear" x1="131.952" y1="113.249" x2="131.952" y2="12.2189" gradientUnits="userSpaceOnUse">
<stop stop-color="#808080" stop-opacity="0.25"/>
<stop offset="0.54" stop-color="#808080" stop-opacity="0.12"/>
<stop offset="1" stop-color="#808080" stop-opacity="0.1"/>
</linearGradient>
</defs>
</svg>
