<svg width="105" height="145" viewBox="0 0 105 145" fill="none" xmlns="http://www.w3.org/2000/svg">
<path d="M53.1004 42.0702C59.7301 42.0702 65.1045 36.6958 65.1045 30.0661C65.1045 23.4364 59.7301 18.062 53.1004 18.062C46.4708 18.062 41.0963 23.4364 41.0963 30.0661C41.0963 36.6958 46.4708 42.0702 53.1004 42.0702Z" fill="#3F3D56"/>
<path d="M91.1947 139.519C92.8515 139.519 94.1947 138.176 94.1947 136.519C94.1947 134.862 92.8515 133.519 91.1947 133.519C89.5379 133.519 88.1947 134.862 88.1947 136.519C88.1947 138.176 89.5379 139.519 91.1947 139.519Z" fill="#3F3D56"/>
<path d="M75.5245 139.519C77.1813 139.519 78.5245 138.176 78.5245 136.519C78.5245 134.862 77.1813 133.519 75.5245 133.519C73.8676 133.519 72.5245 134.862 72.5245 136.519C72.5245 138.176 73.8676 139.519 75.5245 139.519Z" fill="#3F3D56"/>
<path d="M80.1925 64.1622H78.8585V101.009H80.1925V64.1622Z" fill="#3F3D56"/>
<path d="M87.3606 64.1622H86.0266V101.009H87.3606V64.1622Z" fill="#3F3D56"/>
<path d="M79.1844 65.1623L78.8503 64.1623C78.8503 64.1623 82.5184 59.8283 87.6864 63.322L87.3524 64.8241H86.0184C86.0184 64.8241 83.8524 63.0068 80.1844 65.0825L79.1844 65.1623Z" fill="#3F3D56"/>
<path d="M56.7684 58.9103H44.7643V74.2484H56.7684V58.9103Z" fill="#FBBEBE"/>
<path d="M65.1045 54.5742H61.4365V61.9103H65.1045V54.5742Z" fill="#FBBEBE"/>
<path d="M46.3484 133.519L44.8484 138.021C44.8484 138.021 44.1804 141.355 46.3484 141.521C48.5165 141.687 52.0206 141.021 52.0206 141.021C52.0206 141.021 52.5206 139.521 52.0206 138.187C51.5206 136.853 50.0207 133.185 50.0207 133.185L46.3484 133.519Z" fill="#3C354C"/>
<path d="M57.6845 133.685C57.6845 133.685 55.3505 139.521 57.1845 140.521C59.0185 141.521 61.5206 140.687 63.5206 141.521C65.5205 142.355 71.0226 140.355 71.0226 140.355C71.0226 140.355 71.6907 138.521 68.0226 138.021C68.0226 138.021 64.0311 135.019 64.0311 134.353C64.0311 133.687 61.6971 133.685 61.6971 133.685H57.6845Z" fill="#3C354C"/>
<path d="M57.1844 67.1644C57.1844 67.1644 43.5143 69.9984 41.8484 69.1644C40.1824 68.3303 38.5143 80.5088 38.5143 80.5088C38.5143 80.5088 37.8463 87.8449 40.1803 97.6809C42.5143 107.517 40.1803 112.353 40.1803 112.353C40.1803 112.353 40.5143 121.689 43.0164 126.025C45.5185 130.361 45.5164 134.361 45.5164 134.361C45.5164 134.361 50.3483 134.861 50.5184 133.693C50.5184 133.693 48.5164 129.025 48.8504 124.691C49.1844 120.357 47.8504 112.019 47.8504 112.019C47.8504 112.019 50.0185 101.515 49.6844 97.5233C49.3504 93.5318 50.8525 85.0193 51.6844 86.5192C52.5163 88.0192 54.6865 95.3553 54.6865 96.8574C54.6865 98.3595 55.5268 108.359 56.0205 109.027C56.5142 109.695 56.3524 111.695 56.1865 112.695C56.0205 113.695 56.0205 121.197 56.8524 125.2C57.6843 129.202 57.0205 133.702 57.1864 134.37C57.3524 135.038 62.1885 134.536 62.3545 133.368C62.3545 133.368 63.0225 126.2 63.3566 125.2C63.6906 124.2 63.8482 111.511 63.8482 111.511C63.8482 111.511 64.1801 101.675 64.5141 100.675C64.8481 99.6746 65.3544 78.1664 63.1801 75.6748C61.0057 73.1832 61.8461 66.8387 61.8461 66.8387L57.1844 67.1644Z" fill="#3F3D56"/>
<path d="M45.9472 38.1205C45.3295 39.2843 44.7077 40.4587 44.3212 41.7213C43.9346 42.9839 43.8002 44.3515 44.1636 45.6204C44.4236 46.413 44.7852 47.1685 45.2392 47.8683C45.6004 48.537 46.0584 49.1486 46.5985 49.6834C47.8589 50.8346 49.6909 51.0657 51.3925 51.2464C51.6844 51.2951 51.9827 51.2902 52.2728 51.2317C52.5054 51.1641 52.7205 51.0465 52.903 50.8871C53.6488 50.2569 53.987 49.2947 54.2601 48.3662C54.9097 46.1578 55.3749 43.8994 55.6509 41.6141C55.715 41.2528 55.715 40.883 55.6509 40.5217C55.5038 39.8914 54.9996 39.402 54.6341 38.8599C54.1963 38.2123 53.9461 37.4561 53.9114 36.6751C53.8967 36.2948 53.9114 35.8747 53.6719 35.5848C53.5126 35.4269 53.3193 35.3077 53.1068 35.236C52.1131 34.8159 51.1215 34.3957 50.1257 33.9923C49.5249 33.7444 48.4451 33.0848 47.8148 33.5722C47.2749 33.9923 47.5354 34.9671 47.3043 35.5511C46.9493 36.4377 46.3926 37.2801 45.9472 38.1205Z" fill="#FBBEBE"/>
<path opacity="0.1" d="M45.9472 38.1205C45.3295 39.2843 44.7077 40.4587 44.3212 41.7213C43.9346 42.9839 43.8002 44.3515 44.1636 45.6204C44.4236 46.413 44.7852 47.1685 45.2392 47.8683C45.6004 48.537 46.0584 49.1486 46.5985 49.6834C47.8589 50.8346 49.6909 51.0657 51.3925 51.2464C51.6844 51.2951 51.9827 51.2902 52.2728 51.2317C52.5054 51.1641 52.7205 51.0465 52.903 50.8871C53.6488 50.2569 53.987 49.2947 54.2601 48.3662C54.9097 46.1578 55.3749 43.8994 55.6509 41.6141C55.715 41.2528 55.715 40.883 55.6509 40.5217C55.5038 39.8914 54.9996 39.402 54.6341 38.8599C54.1963 38.2123 53.9461 37.4561 53.9114 36.6751C53.8967 36.2948 53.9114 35.8747 53.6719 35.5848C53.5126 35.4269 53.3193 35.3077 53.1068 35.236C52.1131 34.8159 51.1215 34.3957 50.1257 33.9923C49.5249 33.7444 48.4451 33.0848 47.8148 33.5722C47.2749 33.9923 47.5354 34.9671 47.3043 35.5511C46.9493 36.4377 46.3926 37.2801 45.9472 38.1205Z" fill="black"/>
<path d="M52.5165 38.4881C55.7397 38.4881 58.3526 35.8752 58.3526 32.652C58.3526 29.4288 55.7397 26.8159 52.5165 26.8159C49.2933 26.8159 46.6804 29.4288 46.6804 32.652C46.6804 35.8752 49.2933 38.4881 52.5165 38.4881Z" fill="#FBBEBE"/>
<path d="M54.5647 47.3704C53.4597 47.7675 52.3189 48.1099 51.1446 48.1519C50.2648 48.1607 49.3871 48.067 48.5291 47.8725C46.7563 47.5199 45.0152 47.0232 43.3232 46.3872C42.9619 47.0994 42.8652 47.9124 42.8337 48.7107C42.7434 51.1246 43.2245 53.5195 43.4094 55.9292C43.6426 58.9922 43.4094 62.1224 44.1972 65.0887C44.2427 64.5846 44.4388 64.1059 44.7602 63.7148C45.028 63.4262 45.3481 63.191 45.7035 63.0215C47.2934 62.1996 49.1243 61.9717 50.8673 62.3787C51.8778 62.6182 52.9513 63.0657 53.9093 62.6644C54.4807 62.4228 54.8945 61.9144 55.2118 61.3808C55.7503 60.418 56.1346 59.3766 56.3504 58.2947C56.9807 55.5132 57.0647 52.6372 57.1403 49.7843C57.1613 49.0217 57.4891 46.7549 56.8567 46.1961C56.4134 45.8074 56.2832 46.362 55.9639 46.6519C55.5485 46.9799 55.0733 47.2239 54.5647 47.3704Z" fill="#F2F2F2"/>
<path d="M46.3505 37.3517C45.9619 37.0471 45.3862 37.1416 44.9577 37.4C44.5291 37.6584 44.1825 38.0156 43.7476 38.2508C42.5417 38.9042 40.922 38.4252 39.777 39.1857C38.7014 39.9021 38.5165 41.3769 38.4325 42.6668C38.2224 45.944 38.0417 49.2444 37.2539 52.4335C37.0439 53.2738 36.7918 54.1351 36.8716 55.0007C36.9345 55.4952 37.0514 55.9813 37.2203 56.4503L38.2539 59.6792C38.7329 61.1792 39.2182 62.7023 39.2686 64.2758C39.3191 65.8493 38.9493 67.3451 38.5817 68.8472C37.8551 71.8064 37.3821 74.8222 37.1678 77.8618C37.1027 78.8681 37.0754 79.9185 37.4829 80.8408C37.9031 81.8051 38.756 82.5214 39.6552 83.0656C40.5543 83.6097 41.5312 84.0298 42.4115 84.6076C44.1783 85.7693 45.5963 87.5991 47.6635 88.076C48.611 88.2861 49.6026 88.2021 50.5563 88.0172C50.5563 88.0172 50.0164 63.4964 48.5143 59.9943C47.0123 56.4923 45.6803 41.3222 45.6803 40.8222C45.6803 40.3223 46.3505 37.3517 46.3505 37.3517Z" fill="#09B3FF"/>
<path d="M54.4639 38.1541C54.4639 38.1541 62.3525 38.1541 63.5205 42.3221C64.6886 46.4901 60.1865 53.3262 60.1865 53.3262C60.1865 53.3262 62.0205 66.8303 62.8524 68.1643C63.6844 69.4983 63.3545 72.1558 63.3545 72.1558C63.9586 73.9852 64.073 75.9408 63.6865 77.8281C63.0205 80.828 60.5184 86.1641 60.5184 86.1641C60.5184 86.1641 57.1844 86.1641 56.3504 88.1641C55.5164 90.1641 55.3504 79.494 55.3504 79.494C55.3504 79.494 52.3504 59.9879 52.5164 58.8219C52.6824 57.656 53.5164 47.9838 53.8504 45.3158C54.1845 42.6477 54.9113 39.154 54.4639 38.1541Z" fill="#09B3FF"/>
<path d="M60.5185 40.8223C60.5185 40.8223 64.3546 41.9882 64.3546 43.3222C64.3546 44.6563 65.529 51.8243 65.529 54.1583C65.529 56.4923 65.029 56.8263 65.529 57.6603C66.029 58.4944 60.195 58.1603 60.195 58.1603L59.1341 48.6583L60.5185 40.8223Z" fill="#09B3FF"/>
<path d="M37.8442 52.8263C37.8442 52.8263 45.3484 53.3263 46.6824 52.3242C48.0164 51.3221 53.6844 53.6582 54.1844 54.9922C54.6844 56.3262 46.1803 56.4922 44.8484 56.4922C43.5165 56.4922 37.1783 58.4943 37.1783 58.4943L37.8442 52.8263Z" fill="#A0616A"/>
<path d="M22.397 130.487C22.397 130.487 18.8991 139.311 20.7163 140.361C22.5335 141.412 41.6951 140.664 41.6951 140.664C41.6951 140.664 44.8862 138.689 41.2392 137.319C41.2392 137.319 38.1972 137.168 36.2225 135.952C34.2477 134.735 31.9641 132.456 31.9641 132.456C31.9641 132.456 31.8128 129.111 30.5965 129.872C30.2326 130.111 29.923 130.425 29.6874 130.791C29.4519 131.158 29.2957 131.569 29.2288 132L22.397 130.487Z" fill="#3F3D56"/>
<path opacity="0.1" d="M22.397 130.487C22.397 130.487 18.8991 139.311 20.7163 140.361C22.5335 141.412 41.6951 140.664 41.6951 140.664C41.6951 140.664 44.8862 138.689 41.2392 137.319C41.2392 137.319 38.1972 137.168 36.2225 135.952C34.2477 134.735 31.9641 132.456 31.9641 132.456C31.9641 132.456 31.8128 129.111 30.5965 129.872C30.2326 130.111 29.923 130.425 29.6874 130.791C29.4519 131.158 29.2957 131.569 29.2288 132L22.397 130.487Z" fill="black"/>
<path d="M16.9999 133.185C16.9999 133.185 13.1659 142.849 15.1659 144.021C17.1659 145.193 38.1741 144.355 38.1741 144.355C38.1741 144.355 41.6761 142.189 37.6741 140.687C37.6741 140.687 34.3401 140.521 32.172 139.187C30.004 137.853 27.504 135.347 27.504 135.347C27.504 135.347 27.338 131.678 26.004 132.513C25.6048 132.775 25.2651 133.119 25.0067 133.521C24.7484 133.923 24.5771 134.374 24.504 134.847L16.9999 133.185Z" fill="#3F3D56"/>
<path d="M36.6783 71.8324L34.3443 92.8406C34.3443 92.8406 33.504 102.845 31.0103 105.011C31.0103 105.011 31.0103 108.179 30.17 109.179L29.0019 122.351C29.0019 122.351 30.67 127.183 30.504 128.023C30.3381 128.863 31.17 131.523 31.004 131.857C30.838 132.191 22.9999 131.857 22.9999 131.857L24.6679 105.015L29.8359 67.6707L36.6783 71.8324Z" fill="#3C354C"/>
<path opacity="0.1" d="M36.6783 71.8324L34.3443 92.8406C34.3443 92.8406 33.504 102.845 31.0103 105.011C31.0103 105.011 31.0103 108.179 30.17 109.179L29.0019 122.351C29.0019 122.351 30.67 127.183 30.504 128.023C30.3381 128.863 31.17 131.523 31.004 131.857C30.838 132.191 22.9999 131.857 22.9999 131.857L24.6679 105.015L29.8359 67.6707L36.6783 71.8324Z" fill="black"/>
<path d="M32.5102 71.1644C32.5102 71.1644 30.6762 88.3365 29.8422 92.0046C29.3178 94.4201 28.9835 96.8729 28.8422 99.3406C28.8422 99.3406 28.6762 104.677 27.1741 106.177C26.7358 106.611 26.3914 107.13 26.1623 107.703C25.9332 108.276 25.8242 108.89 25.8422 109.506C25.8422 109.506 24.3401 126.345 25.1742 128.347C26.0082 130.349 26.8422 132.015 26.0145 133.347C25.1868 134.679 16.0104 134.681 16.0104 133.681C16.0104 132.681 16.0104 131.847 15.5104 131.347C15.0104 130.847 15.5104 127.679 15.5104 127.679C15.5104 127.679 13.5104 112.84 15.3444 108.507C17.1784 104.173 18.0125 92.3302 18.0125 92.3302C18.0125 92.3302 16.6784 78.8261 15.0104 76.6581C13.3423 74.49 15.3444 66.822 15.3444 66.822L32.5102 71.1644Z" fill="#3C354C"/>
<path d="M27.8171 17.8371C28.0104 18.2782 28.4746 18.524 28.8969 18.7572C31.3444 20.1059 33.3927 22.0618 35.4094 23.9946C34.9061 22.2869 35.0138 20.4571 35.7141 18.8202C35.9536 18.2635 36.2708 17.6627 36.0985 17.0808C35.9704 16.6606 35.6069 16.3413 35.2582 16.0682C34.4347 15.4313 33.5739 14.8441 32.6805 14.3098C32.0502 13.9358 30.7729 12.9421 30.0566 13.0493C30.0187 14.0178 29.9998 14.8833 29.5755 15.7804C29.4704 16.003 27.8906 18.0051 27.8171 17.8371Z" fill="#A0616A"/>
<path d="M36.6782 29.3182C36.6782 29.3182 37.8442 23.4821 34.5102 21.4821C31.1762 19.4821 27.3422 17.1481 27.3422 17.1481C27.3422 17.1481 26.1741 16.98 25.6741 19.4821C25.6741 19.4821 16.1721 21.3161 15.17 30.3182C14.1679 39.3202 15.8381 52.4923 15.8381 52.4923C15.8381 52.4923 14.3381 63.9964 12.5041 70.1644C12.5041 70.1644 11.002 71.4984 17.6721 69.4985C24.3422 67.4985 36.0102 75.1707 36.0102 75.1707C36.0102 75.1707 37.1782 74.0026 37.1782 73.1686C37.1782 72.3346 38.5122 67.4964 38.5122 67.4964C38.5122 67.4964 39.6782 46.9903 40.1782 44.6563C40.6782 42.3222 38.1782 29.6522 36.6782 29.3182Z" fill="#3F3D56"/>
<path d="M26.3423 40.8222C26.3423 40.8222 35.5103 35.4861 33.6763 28.65C31.8423 21.814 27.8423 19.648 27.8423 19.648C27.8423 19.648 21.3402 17.48 15.8382 24.4799L16.1722 27.6479C16.1722 27.6479 22.1743 15.4779 28.6763 23.1459C35.1784 30.8139 26.3423 40.8222 26.3423 40.8222Z" fill="#09B3FF"/>
<path d="M16.5041 24.8161V52.154L14.8004 61.4796L14.0042 65.8262H8.17648L0.00848389 62.8241V42.6562C0.00848389 42.6562 6.84246 29.1501 9.0105 26.6501C11.1785 24.1501 16.5041 24.8161 16.5041 24.8161Z" fill="#09B3FF"/>
<path opacity="0.1" d="M14.7982 61.4817L14.0041 65.8283H8.16799L0 62.8283L14.7982 61.4817Z" fill="black"/>
<path d="M14.5041 55.6582L28.8422 38.1521L16.17 56.3263L14.836 56.6582L14.5041 55.6582Z" fill="#09B3FF"/>
<path d="M78.3587 98.6746C78.3587 98.6746 73.8567 98.8406 73.1907 104.009C72.5247 109.177 73.1907 133.185 73.1907 133.185C73.1907 133.185 78.3587 137.019 84.6948 136.519C91.0309 136.019 101.199 134.185 101.199 134.185V106.034C101.199 101.832 97.6947 98.4057 93.4972 98.6473C93.3985 98.6473 93.2872 98.6599 93.1968 98.6704L78.3587 98.6746Z" fill="#09B3FF"/>
<path d="M84.8607 140.353C86.5176 140.353 87.8607 139.01 87.8607 137.353C87.8607 135.696 86.5176 134.353 84.8607 134.353C83.2039 134.353 81.8607 135.696 81.8607 137.353C81.8607 139.01 83.2039 140.353 84.8607 140.353Z" fill="#3F3D56"/>
<path d="M101.199 139.019C102.856 139.019 104.199 137.676 104.199 136.019C104.199 134.362 102.856 133.019 101.199 133.019C99.5418 133.019 98.1987 134.362 98.1987 136.019C98.1987 137.676 99.5418 139.019 101.199 139.019Z" fill="#3F3D56"/>
<path d="M17.5062 44.9903C17.5062 44.9903 16.3382 52.3243 21.1722 51.6583C21.1722 51.6583 23.6742 51.3243 24.0083 51.6583C24.3423 51.9924 36.6783 49.8243 38.3464 47.9903C38.3464 47.9903 40.3464 47.3243 41.3464 48.3243C42.3463 49.3243 52.3504 50.3243 49.3526 47.3222C46.3547 44.3202 41.6846 43.6542 41.6846 43.6542L35.3485 43.9861C35.3485 43.9861 32.0145 44.9882 30.0145 43.9861C28.0145 42.984 22.3402 43.3307 22.3402 43.3307L17.5062 44.9903Z" fill="#A0616A"/>
<path d="M24.3402 21.8162C24.3402 21.8162 16.8382 22.6565 16.8382 33.4862V47.3222C16.8382 47.3222 21.0062 45.4882 21.8402 45.6542C22.6742 45.8201 26.0082 43.4861 26.0082 43.4861C26.0082 43.4861 29.8422 34.4862 29.5082 31.9862C29.1742 29.4863 29.3422 22.1481 24.3402 21.8162Z" fill="#3F3D56"/>
<path d="M58.6843 48.6561L51.1823 53.9922L55.8503 54.4922L62.3524 48.9902L58.6843 48.6561Z" fill="#3F3D56"/>
<path d="M64.5205 56.6603C64.5205 56.6603 66.3545 62.3325 63.8546 63.9964C61.3546 65.6602 57.1845 58.1603 57.1845 58.1603C57.1845 58.1603 52.6824 52.8263 55.6845 51.6583C58.6865 50.4902 59.9113 55.5763 59.9113 55.5763L63.8483 58.9943L64.5205 56.6603Z" fill="#FBBEBE"/>
<path d="M53.1003 32.5681C56.783 32.5681 59.7683 30.6644 59.7683 28.316C59.7683 25.9677 56.783 24.064 53.1003 24.064C49.4177 24.064 46.4323 25.9677 46.4323 28.316C46.4323 30.6644 49.4177 32.5681 53.1003 32.5681Z" fill="#3F3D56"/>
<path d="M54.2663 22.898C56.936 22.898 59.1003 20.7337 59.1003 18.064C59.1003 15.3942 56.936 13.23 54.2663 13.23C51.5966 13.23 49.4323 15.3942 49.4323 18.064C49.4323 20.7337 51.5966 22.898 54.2663 22.898Z" fill="#3F3D56"/>
<path d="M36.4283 14.5619C41.0322 14.5619 44.7644 11.6509 44.7644 8.0599C44.7644 4.46892 41.0322 1.55786 36.4283 1.55786C31.8244 1.55786 28.0923 4.46892 28.0923 8.0599C28.0923 11.6509 31.8244 14.5619 36.4283 14.5619Z" fill="#3F3D56"/>
<path d="M36.3443 19.98C40.1197 19.98 43.1804 16.9194 43.1804 13.1439C43.1804 9.36848 40.1197 6.30786 36.3443 6.30786C32.5688 6.30786 29.5082 9.36848 29.5082 13.1439C29.5082 16.9194 32.5688 19.98 36.3443 19.98Z" fill="#A0616A"/>
<path d="M34.733 13.8498C35.1216 13.5872 35.609 13.5388 36.0754 13.4926C36.5418 13.4464 37.0292 13.3834 37.401 13.0977C38.046 12.6019 38.0943 11.6439 38.567 10.9821C39.2498 10.0221 40.6132 9.90652 41.7918 9.95273C42.5123 9.98215 43.2875 10.0263 43.8926 9.63761C44.4976 9.24896 44.7959 8.48216 45.006 7.77418C45.256 6.93386 45.4157 5.90866 44.7959 5.28681C44.3758 4.85404 43.6951 4.76791 43.2203 4.38766C42.7455 4.00741 42.5249 3.35406 42.2581 2.78473C41.9535 2.08925 41.4718 1.48584 40.8611 1.03475C39.9661 0.404503 38.8233 0.274252 37.733 0.284757C36.6426 0.295261 35.5481 0.440217 34.4662 0.305764C33.5797 0.196522 32.6952 -0.0975922 31.8129 0.0326587C30.6868 0.198624 29.7562 1.04946 29.1994 2.04314C28.6427 3.03683 28.4074 4.17127 28.1763 5.28471L27.5461 8.3162C27.3528 9.25736 27.1574 10.2216 27.3066 11.1691C27.6175 13.1355 29.357 14.6985 29.4767 16.6838C29.5911 16.1353 29.8399 15.6238 30.2007 15.1952C30.5615 14.7665 31.023 14.4342 31.5439 14.2279C31.6743 14.1642 31.8221 14.1458 31.9641 14.1754C32.1364 14.2321 32.2372 14.4044 32.3465 14.5493C32.6322 14.9296 33.5292 15.5052 34.0271 15.2363C34.5019 14.9947 34.1616 14.2384 34.733 13.8498Z" fill="#3F3D56"/>
<path d="M36.3442 12.2278C39.8888 12.2278 42.7623 10.7351 42.7623 8.89382C42.7623 7.0525 39.8888 5.55981 36.3442 5.55981C32.7997 5.55981 29.9262 7.0525 29.9262 8.89382C29.9262 10.7351 32.7997 12.2278 36.3442 12.2278Z" fill="#3F3D56"/>
<path d="M30.3422 15.0618C31.5849 15.0618 32.5922 12.5608 32.5922 9.47573C32.5922 6.39062 31.5849 3.88965 30.3422 3.88965C29.0996 3.88965 28.0923 6.39062 28.0923 9.47573C28.0923 12.5608 29.0996 15.0618 30.3422 15.0618Z" fill="#3F3D56"/>
</svg>
