<svg width="385" height="242" viewBox="0 0 385 242" fill="none" xmlns="http://www.w3.org/2000/svg">
<path d="M36.7305 72H34.7383L34.1641 60.6914C34.1016 59.6289 34.0703 58.5273 34.0703 57.3867H34C33.8047 57.9492 33.5664 58.5547 33.2852 59.2031C33.0039 59.8438 31.0352 64.1094 27.3789 72H25.3398L24.6133 54.8672H26.6055L26.9688 65.4258L26.9922 66.457C26.9922 67.2227 26.9531 68.2305 26.875 69.4805H26.9453C27.6406 67.582 28.25 66.0859 28.7734 64.9922L33.5195 54.8672H35.6055L36.1094 64.9453C36.1797 66.1406 36.2148 67.3281 36.2148 68.5078L36.2031 69.4805H36.3086C36.8945 67.7305 37.4062 66.3477 37.8438 65.332L42.3789 54.8672H44.5117L36.7305 72ZM48.0538 72.2344C46.6163 72.2344 45.4874 71.8086 44.667 70.957C43.8467 70.1055 43.4366 68.9258 43.4366 67.418C43.4366 65.9492 43.7256 64.543 44.3038 63.1992C44.8897 61.8477 45.6631 60.7969 46.6241 60.0469C47.585 59.2969 48.6436 58.9219 49.7999 58.9219C50.9952 58.9219 51.8936 59.1836 52.4952 59.707C53.0967 60.2227 53.3975 60.9453 53.3975 61.875C53.3975 63.2812 52.7491 64.3867 51.4522 65.1914C50.1553 65.9883 48.2999 66.3867 45.8858 66.3867H45.4991L45.4522 67.3242C45.4522 68.3477 45.6905 69.1484 46.167 69.7266C46.6514 70.2969 47.3975 70.582 48.4053 70.582C48.8975 70.582 49.4014 70.5117 49.917 70.3711C50.4405 70.2305 51.0889 69.9727 51.8624 69.5977V71.3086C51.128 71.6523 50.4795 71.8906 49.917 72.0234C49.3545 72.1641 48.7334 72.2344 48.0538 72.2344ZM49.6827 60.5977C48.878 60.5977 48.1202 60.9648 47.4092 61.6992C46.7061 62.4336 46.167 63.4531 45.792 64.7578H45.9327C47.7139 64.7578 49.0772 64.5273 50.0225 64.0664C50.9756 63.5977 51.4522 62.9219 51.4522 62.0391C51.4522 61.625 51.3077 61.2812 51.0186 61.0078C50.7374 60.7344 50.292 60.5977 49.6827 60.5977ZM68.5558 72L70.2902 63.8906C70.4308 63.1562 70.5011 62.6289 70.5011 62.3086C70.5011 61.1523 69.9269 60.5742 68.7785 60.5742C68.0832 60.5742 67.4035 60.8047 66.7394 61.2656C66.0832 61.7266 65.5011 62.3984 64.9933 63.2812C64.4933 64.1562 64.1144 65.2148 63.8566 66.457L62.673 72H60.7043L64.5714 53.7656H66.5402C66.3996 54.4062 66.2629 55.0273 66.13 55.6289C66.005 56.2305 65.8722 56.8438 65.7316 57.4688C65.5988 58.0859 65.4504 58.7344 65.2863 59.4141C65.13 60.0938 64.9464 60.832 64.7355 61.6289H64.8644C65.5988 60.668 66.3214 59.9805 67.0324 59.5664C67.7511 59.1523 68.5011 58.9453 69.2824 58.9453C70.3058 58.9453 71.0949 59.2266 71.6496 59.7891C72.2121 60.3516 72.4933 61.1484 72.4933 62.1797C72.4933 62.6641 72.4035 63.3125 72.2238 64.125C71.9191 65.6328 71.3527 68.2578 70.5246 72H68.5558ZM81.1799 58.9219C81.8986 58.9219 82.5393 59.1172 83.1018 59.5078C83.6643 59.8906 84.1018 60.4453 84.4143 61.1719H84.5432L85.3283 59.1562H86.8166L84.0861 72H82.5275L82.8322 69.5508H82.7385C81.34 71.3398 79.8674 72.2344 78.3205 72.2344C77.2346 72.2344 76.383 71.8477 75.7658 71.0742C75.1486 70.3008 74.84 69.2422 74.84 67.8984C74.84 66.2734 75.1174 64.7656 75.6721 63.375C76.2268 61.9844 76.9924 60.8945 77.969 60.1055C78.9455 59.3164 80.0158 58.9219 81.1799 58.9219ZM78.9533 70.6055C79.7111 70.6055 80.465 70.2461 81.215 69.5273C81.965 68.8008 82.5744 67.8594 83.0432 66.7031C83.5119 65.5391 83.7463 64.375 83.7463 63.2109C83.7463 62.4062 83.5275 61.7656 83.09 61.2891C82.6525 60.8125 82.0783 60.5742 81.3674 60.5742C80.5549 60.5742 79.7971 60.9102 79.094 61.582C78.3986 62.2539 77.8518 63.1641 77.4533 64.3125C77.0549 65.4609 76.8557 66.6719 76.8557 67.9453C76.8557 68.8359 77.0393 69.5039 77.4065 69.9492C77.7736 70.3867 78.2893 70.6055 78.9533 70.6055ZM94.5774 58.9453C96.093 58.9453 97.1907 59.6875 97.8704 61.1719H97.9876C98.1204 59.9609 98.2962 58.8906 98.5149 57.9609L99.429 53.7656H101.374L97.5071 72H95.8782L96.136 69.5508H96.0423C95.2532 70.5273 94.5149 71.2188 93.8274 71.625C93.1399 72.0312 92.429 72.2344 91.6946 72.2344C90.6087 72.2344 89.761 71.8516 89.1516 71.0859C88.5423 70.3203 88.2376 69.2578 88.2376 67.8984C88.2376 66.2266 88.5188 64.6953 89.0813 63.3047C89.6438 61.9141 90.4016 60.8398 91.3548 60.082C92.3157 59.3242 93.3899 58.9453 94.5774 58.9453ZM92.3508 70.6055C93.0852 70.6055 93.843 70.2422 94.6243 69.5156C95.4055 68.7812 96.0227 67.8477 96.4758 66.7148C96.9368 65.5742 97.1673 64.4141 97.1673 63.2344C97.1673 62.3672 96.9563 61.707 96.5344 61.2539C96.1126 60.8008 95.4993 60.5742 94.6946 60.5742C93.9055 60.5742 93.1712 60.8984 92.4915 61.5469C91.8196 62.1875 91.2766 63.0938 90.8626 64.2656C90.4563 65.4297 90.2532 66.6562 90.2532 67.9453C90.2532 69.7188 90.9524 70.6055 92.3508 70.6055ZM111.458 70.6289C111.888 70.6289 112.451 70.5273 113.146 70.3242V71.8359C112.88 71.9453 112.552 72.0391 112.161 72.1172C111.771 72.1953 111.458 72.2344 111.224 72.2344C110.247 72.2344 109.497 72.0039 108.974 71.543C108.458 71.0742 108.201 70.3789 108.201 69.457C108.201 68.9414 108.271 68.3555 108.411 67.6992L109.9 60.6445H107.884L108.048 59.7891L110.216 58.875L111.681 56.2031H112.829L112.185 59.1562H115.396L115.091 60.6445H111.892L110.38 67.7227C110.24 68.4023 110.169 68.918 110.169 69.2695C110.169 69.707 110.283 70.043 110.509 70.2773C110.736 70.5117 111.052 70.6289 111.458 70.6289ZM122.981 72L124.715 63.8906C124.856 63.1562 124.926 62.6289 124.926 62.3086C124.926 61.1523 124.352 60.5742 123.204 60.5742C122.508 60.5742 121.829 60.8047 121.164 61.2656C120.508 61.7266 119.926 62.3984 119.418 63.2812C118.918 64.1562 118.539 65.2148 118.282 66.457L117.098 72H115.129L118.997 53.7656H120.965C120.825 54.4062 120.688 55.0273 120.555 55.6289C120.43 56.2305 120.297 56.8438 120.157 57.4688C120.024 58.0859 119.875 58.7344 119.711 59.4141C119.555 60.0938 119.372 60.832 119.161 61.6289H119.289C120.024 60.668 120.747 59.9805 121.457 59.5664C122.176 59.1523 122.926 58.9453 123.707 58.9453C124.731 58.9453 125.52 59.2266 126.075 59.7891C126.637 60.3516 126.918 61.1484 126.918 62.1797C126.918 62.6641 126.829 63.3125 126.649 64.125C126.344 65.6328 125.778 68.2578 124.95 72H122.981ZM133.882 72.2344C132.445 72.2344 131.316 71.8086 130.496 70.957C129.675 70.1055 129.265 68.9258 129.265 67.418C129.265 65.9492 129.554 64.543 130.132 63.1992C130.718 61.8477 131.492 60.7969 132.453 60.0469C133.414 59.2969 134.472 58.9219 135.628 58.9219C136.824 58.9219 137.722 59.1836 138.324 59.707C138.925 60.2227 139.226 60.9453 139.226 61.875C139.226 63.2812 138.578 64.3867 137.281 65.1914C135.984 65.9883 134.128 66.3867 131.714 66.3867H131.328L131.281 67.3242C131.281 68.3477 131.519 69.1484 131.996 69.7266C132.48 70.2969 133.226 70.582 134.234 70.582C134.726 70.582 135.23 70.5117 135.746 70.3711C136.269 70.2305 136.917 69.9727 137.691 69.5977V71.3086C136.957 71.6523 136.308 71.8906 135.746 72.0234C135.183 72.1641 134.562 72.2344 133.882 72.2344ZM135.511 60.5977C134.707 60.5977 133.949 60.9648 133.238 61.6992C132.535 62.4336 131.996 63.4531 131.621 64.7578H131.761C133.542 64.7578 134.906 64.5273 135.851 64.0664C136.804 63.5977 137.281 62.9219 137.281 62.0391C137.281 61.625 137.136 61.2812 136.847 61.0078C136.566 60.7344 136.121 60.5977 135.511 60.5977ZM153.998 72L155.732 63.8906C155.873 63.1562 155.943 62.6289 155.943 62.3086C155.943 61.7617 155.822 61.3359 155.58 61.0312C155.337 60.7266 154.923 60.5742 154.337 60.5742C153.681 60.5742 153.041 60.8086 152.416 61.2773C151.798 61.7461 151.252 62.418 150.775 63.293C150.306 64.1602 149.943 65.207 149.685 66.4336L148.502 72H146.533L149.275 59.1562H150.904L150.646 61.5352H150.763C151.443 60.6055 152.119 59.9375 152.791 59.5312C153.47 59.125 154.17 58.9219 154.888 58.9219C155.771 58.9219 156.451 59.1758 156.927 59.6836C157.404 60.1914 157.685 60.8984 157.771 61.8047H157.865C158.537 60.8281 159.252 60.1055 160.009 59.6367C160.767 59.1602 161.533 58.9219 162.306 58.9219C163.298 58.9219 164.064 59.1875 164.603 59.7188C165.15 60.25 165.423 61.0234 165.423 62.0391C165.423 62.5703 165.337 63.2656 165.166 64.125L163.478 72H161.486L163.22 63.8906C163.377 63.0781 163.455 62.5078 163.455 62.1797C163.455 61.6953 163.318 61.3086 163.045 61.0195C162.779 60.7227 162.357 60.5742 161.779 60.5742C161.146 60.5742 160.521 60.8008 159.904 61.2539C159.287 61.707 158.744 62.3516 158.275 63.1875C157.814 64.0156 157.462 65 157.22 66.1406L155.966 72H153.998ZM174.133 58.9922C175.618 58.9922 176.79 59.4336 177.649 60.3164C178.508 61.1914 178.938 62.3984 178.938 63.9375C178.938 65.4062 178.657 66.793 178.094 68.0977C177.532 69.4023 176.77 70.4102 175.809 71.1211C174.848 71.832 173.762 72.1875 172.551 72.1875C171.051 72.1875 169.876 71.7461 169.024 70.8633C168.173 69.9805 167.747 68.7734 167.747 67.2422C167.747 65.7578 168.032 64.3633 168.602 63.0586C169.173 61.7461 169.942 60.7422 170.911 60.0469C171.88 59.3438 172.954 58.9922 174.133 58.9922ZM176.899 63.668C176.899 62.7695 176.653 62.043 176.161 61.4883C175.676 60.9258 175.016 60.6445 174.18 60.6445C173.329 60.6445 172.563 60.9336 171.883 61.5117C171.212 62.0898 170.688 62.8945 170.313 63.9258C169.946 64.9492 169.762 66.0898 169.762 67.3477C169.762 68.3711 170.008 69.1641 170.501 69.7266C171.001 70.2812 171.715 70.5586 172.645 70.5586C173.458 70.5586 174.188 70.2734 174.837 69.7031C175.485 69.1328 175.989 68.3242 176.348 67.2773C176.715 66.2227 176.899 65.0195 176.899 63.668ZM188.515 68.3555C188.515 69.5742 188.082 70.5273 187.215 71.2148C186.355 71.8945 185.14 72.2344 183.57 72.2344C182.25 72.2344 181.058 71.9648 179.996 71.4258V69.5742C180.543 69.9023 181.133 70.1562 181.765 70.3359C182.398 70.5156 182.984 70.6055 183.523 70.6055C184.508 70.6055 185.25 70.4102 185.75 70.0195C186.25 69.6289 186.5 69.1289 186.5 68.5195C186.5 68.0742 186.363 67.6992 186.09 67.3945C185.816 67.0898 185.226 66.6719 184.32 66.1406C183.304 65.5703 182.586 65.0117 182.164 64.4648C181.742 63.918 181.531 63.2695 181.531 62.5195C181.531 61.4414 181.925 60.5742 182.715 59.918C183.504 59.2539 184.543 58.9219 185.832 58.9219C187.168 58.9219 188.457 59.2109 189.699 59.7891L189.066 61.3945L188.41 61.1016C187.621 60.7656 186.761 60.5977 185.832 60.5977C185.105 60.5977 184.535 60.7695 184.121 61.1133C183.707 61.4492 183.5 61.8867 183.5 62.4258C183.5 62.8633 183.636 63.2383 183.91 63.5508C184.191 63.8633 184.765 64.2656 185.633 64.7578C186.468 65.2266 187.066 65.6289 187.425 65.9648C187.793 66.3008 188.066 66.6641 188.246 67.0547C188.425 67.4375 188.515 67.8711 188.515 68.3555ZM194.647 70.6289C195.077 70.6289 195.639 70.5273 196.335 70.3242V71.8359C196.069 71.9453 195.741 72.0391 195.35 72.1172C194.96 72.1953 194.647 72.2344 194.413 72.2344C193.436 72.2344 192.686 72.0039 192.163 71.543C191.647 71.0742 191.389 70.3789 191.389 69.457C191.389 68.9414 191.46 68.3555 191.6 67.6992L193.089 60.6445H191.073L191.237 59.7891L193.405 58.875L194.87 56.2031H196.018L195.374 59.1562H198.585L198.28 60.6445H195.081L193.569 67.7227C193.428 68.4023 193.358 68.918 193.358 69.2695C193.358 69.707 193.471 70.043 193.698 70.2773C193.925 70.5117 194.241 70.6289 194.647 70.6289ZM211.177 58.9219C211.895 58.9219 212.536 59.1172 213.098 59.5078C213.661 59.8906 214.098 60.4453 214.411 61.1719H214.54L215.325 59.1562H216.813L214.083 72H212.524L212.829 69.5508H212.735C211.337 71.3398 209.864 72.2344 208.317 72.2344C207.231 72.2344 206.38 71.8477 205.763 71.0742C205.145 70.3008 204.837 69.2422 204.837 67.8984C204.837 66.2734 205.114 64.7656 205.669 63.375C206.223 61.9844 206.989 60.8945 207.966 60.1055C208.942 59.3164 210.013 58.9219 211.177 58.9219ZM208.95 70.6055C209.708 70.6055 210.462 70.2461 211.212 69.5273C211.962 68.8008 212.571 67.8594 213.04 66.7031C213.509 65.5391 213.743 64.375 213.743 63.2109C213.743 62.4062 213.524 61.7656 213.087 61.2891C212.649 60.8125 212.075 60.5742 211.364 60.5742C210.552 60.5742 209.794 60.9102 209.091 61.582C208.395 62.2539 207.848 63.1641 207.45 64.3125C207.052 65.4609 206.852 66.6719 206.852 67.9453C206.852 68.8359 207.036 69.5039 207.403 69.9492C207.77 70.3867 208.286 70.6055 208.95 70.6055ZM222.371 59.1562L220.613 67.3008C220.473 67.9961 220.402 68.5391 220.402 68.9297C220.402 70.0469 220.976 70.6055 222.125 70.6055C222.812 70.6055 223.488 70.3711 224.152 69.9023C224.816 69.4336 225.402 68.7617 225.91 67.8867C226.418 67.0117 226.805 65.957 227.07 64.7227L228.242 59.1562H230.187L227.48 72H225.851L226.109 69.6211H225.969C225.203 70.5977 224.473 71.2773 223.777 71.6602C223.082 72.043 222.363 72.2344 221.621 72.2344C220.621 72.2344 219.836 71.9648 219.266 71.4258C218.695 70.8789 218.41 70.1016 218.41 69.0938C218.41 68.6094 218.496 67.9375 218.668 67.0781L220.379 59.1562H222.371ZM235.394 70.6289C235.823 70.6289 236.386 70.5273 237.081 70.3242V71.8359C236.815 71.9453 236.487 72.0391 236.097 72.1172C235.706 72.1953 235.394 72.2344 235.159 72.2344C234.183 72.2344 233.433 72.0039 232.909 71.543C232.394 71.0742 232.136 70.3789 232.136 69.457C232.136 68.9414 232.206 68.3555 232.347 67.6992L233.835 60.6445H231.819L231.983 59.7891L234.151 58.875L235.616 56.2031H236.765L236.12 59.1562H239.331L239.026 60.6445H235.827L234.315 67.7227C234.175 68.4023 234.104 68.918 234.104 69.2695C234.104 69.707 234.218 70.043 234.444 70.2773C234.671 70.5117 234.987 70.6289 235.394 70.6289ZM246.916 72L248.65 63.8906C248.791 63.1562 248.861 62.6289 248.861 62.3086C248.861 61.1523 248.287 60.5742 247.139 60.5742C246.443 60.5742 245.764 60.8047 245.1 61.2656C244.443 61.7266 243.861 62.3984 243.354 63.2812C242.854 64.1562 242.475 65.2148 242.217 66.457L241.033 72H239.064L242.932 53.7656H244.9C244.76 54.4062 244.623 55.0273 244.49 55.6289C244.365 56.2305 244.232 56.8438 244.092 57.4688C243.959 58.0859 243.811 58.7344 243.646 59.4141C243.49 60.0938 243.307 60.832 243.096 61.6289H243.225C243.959 60.668 244.682 59.9805 245.393 59.5664C246.111 59.1523 246.861 58.9453 247.643 58.9453C248.666 58.9453 249.455 59.2266 250.01 59.7891C250.572 60.3516 250.854 61.1484 250.854 62.1797C250.854 62.6641 250.764 63.3125 250.584 64.125C250.279 65.6328 249.713 68.2578 248.885 72H246.916ZM257.817 72.2344C256.38 72.2344 255.251 71.8086 254.431 70.957C253.61 70.1055 253.2 68.9258 253.2 67.418C253.2 65.9492 253.489 64.543 254.067 63.1992C254.653 61.8477 255.427 60.7969 256.388 60.0469C257.349 59.2969 258.407 58.9219 259.564 58.9219C260.759 58.9219 261.657 59.1836 262.259 59.707C262.86 60.2227 263.161 60.9453 263.161 61.875C263.161 63.2812 262.513 64.3867 261.216 65.1914C259.919 65.9883 258.064 66.3867 255.649 66.3867H255.263L255.216 67.3242C255.216 68.3477 255.454 69.1484 255.931 69.7266C256.415 70.2969 257.161 70.582 258.169 70.582C258.661 70.582 259.165 70.5117 259.681 70.3711C260.204 70.2305 260.853 69.9727 261.626 69.5977V71.3086C260.892 71.6523 260.243 71.8906 259.681 72.0234C259.118 72.1641 258.497 72.2344 257.817 72.2344ZM259.446 60.5977C258.642 60.5977 257.884 60.9648 257.173 61.6992C256.47 62.4336 255.931 63.4531 255.556 64.7578H255.696C257.478 64.7578 258.841 64.5273 259.786 64.0664C260.739 63.5977 261.216 62.9219 261.216 62.0391C261.216 61.625 261.071 61.2812 260.782 61.0078C260.501 60.7344 260.056 60.5977 259.446 60.5977ZM272.258 72L273.992 63.8906C274.149 63.0781 274.227 62.5156 274.227 62.2031C274.227 61.7109 274.086 61.3164 273.805 61.0195C273.531 60.7227 273.09 60.5742 272.481 60.5742C271.785 60.5742 271.106 60.8086 270.442 61.2773C269.785 61.7461 269.203 62.4141 268.695 63.2812C268.195 64.1484 267.817 65.1992 267.559 66.4336L266.375 72H264.406L267.149 59.1562H268.777L268.52 61.5352H268.637C269.387 60.582 270.109 59.9102 270.805 59.5195C271.508 59.1211 272.234 58.9219 272.984 58.9219C273.977 58.9219 274.758 59.1953 275.328 59.7422C275.906 60.2812 276.195 61.0391 276.195 62.0156C276.195 62.6328 276.106 63.3359 275.926 64.125L274.25 72H272.258ZM282.023 70.6289C282.452 70.6289 283.015 70.5273 283.71 70.3242V71.8359C283.444 71.9453 283.116 72.0391 282.726 72.1172C282.335 72.1953 282.023 72.2344 281.788 72.2344C280.812 72.2344 280.062 72.0039 279.538 71.543C279.023 71.0742 278.765 70.3789 278.765 69.457C278.765 68.9414 278.835 68.3555 278.976 67.6992L280.464 60.6445H278.448L278.612 59.7891L280.78 58.875L282.245 56.2031H283.394L282.749 59.1562H285.96L285.655 60.6445H282.456L280.944 67.7227C280.804 68.4023 280.734 68.918 280.734 69.2695C280.734 69.707 280.847 70.043 281.073 70.2773C281.3 70.5117 281.616 70.6289 282.023 70.6289ZM287.662 72H285.694L288.436 59.1562H290.405L287.662 72ZM288.987 55.875C288.987 55.4375 289.112 55.082 289.362 54.8086C289.612 54.5273 289.936 54.3867 290.334 54.3867C291.022 54.3867 291.365 54.7383 291.365 55.4414C291.365 55.8711 291.233 56.2344 290.967 56.5312C290.709 56.8281 290.408 56.9766 290.065 56.9766C289.752 56.9766 289.494 56.8828 289.291 56.6953C289.088 56.5 288.987 56.2266 288.987 55.875ZM296.853 72.2344C295.337 72.2344 294.161 71.8164 293.325 70.9805C292.49 70.1445 292.072 68.9648 292.072 67.4414C292.072 65.8789 292.361 64.4375 292.939 63.1172C293.517 61.7969 294.314 60.7695 295.329 60.0352C296.353 59.293 297.501 58.9219 298.775 58.9219C299.845 58.9219 300.892 59.1211 301.915 59.5195L301.365 61.1719C300.427 60.7734 299.572 60.5742 298.798 60.5742C297.923 60.5742 297.122 60.875 296.396 61.4766C295.677 62.0703 295.111 62.9023 294.697 63.9727C294.29 65.0352 294.087 66.1914 294.087 67.4414C294.087 68.4414 294.345 69.2188 294.861 69.7734C295.384 70.3281 296.103 70.6055 297.017 70.6055C297.579 70.6055 298.111 70.5273 298.611 70.3711C299.111 70.2148 299.603 70.0312 300.087 69.8203V71.4961C299.118 71.9883 298.04 72.2344 296.853 72.2344ZM310.253 72H308.285L312.175 53.7656H314.144L310.253 72ZM321.073 58.9922C322.557 58.9922 323.729 59.4336 324.588 60.3164C325.448 61.1914 325.877 62.3984 325.877 63.9375C325.877 65.4062 325.596 66.793 325.034 68.0977C324.471 69.4023 323.709 70.4102 322.748 71.1211C321.788 71.832 320.702 72.1875 319.491 72.1875C317.991 72.1875 316.815 71.7461 315.963 70.8633C315.112 69.9805 314.686 68.7734 314.686 67.2422C314.686 65.7578 314.971 64.3633 315.541 63.0586C316.112 61.7461 316.881 60.7422 317.85 60.0469C318.819 59.3438 319.893 58.9922 321.073 58.9922ZM323.838 63.668C323.838 62.7695 323.592 62.043 323.1 61.4883C322.616 60.9258 321.956 60.6445 321.12 60.6445C320.268 60.6445 319.502 60.9336 318.823 61.5117C318.151 62.0898 317.627 62.8945 317.252 63.9258C316.885 64.9492 316.702 66.0898 316.702 67.3477C316.702 68.3711 316.948 69.1641 317.44 69.7266C317.94 70.2812 318.655 70.5586 319.584 70.5586C320.397 70.5586 321.127 70.2734 321.776 69.7031C322.424 69.1328 322.928 68.3242 323.288 67.2773C323.655 66.2227 323.838 65.0195 323.838 63.668ZM332.771 72.2344C331.255 72.2344 330.08 71.8164 329.244 70.9805C328.408 70.1445 327.99 68.9648 327.99 67.4414C327.99 65.8789 328.279 64.4375 328.857 63.1172C329.435 61.7969 330.232 60.7695 331.248 60.0352C332.271 59.293 333.419 58.9219 334.693 58.9219C335.763 58.9219 336.81 59.1211 337.833 59.5195L337.283 61.1719C336.345 60.7734 335.49 60.5742 334.716 60.5742C333.841 60.5742 333.04 60.875 332.314 61.4766C331.595 62.0703 331.029 62.9023 330.615 63.9727C330.208 65.0352 330.005 66.1914 330.005 67.4414C330.005 68.4414 330.263 69.2188 330.779 69.7734C331.302 70.3281 332.021 70.6055 332.935 70.6055C333.498 70.6055 334.029 70.5273 334.529 70.3711C335.029 70.2148 335.521 70.0312 336.005 69.8203V71.4961C335.037 71.9883 333.958 72.2344 332.771 72.2344ZM344.961 58.9219C345.68 58.9219 346.321 59.1172 346.883 59.5078C347.446 59.8906 347.883 60.4453 348.196 61.1719H348.325L349.11 59.1562H350.598L347.868 72H346.309L346.614 69.5508H346.52C345.122 71.3398 343.649 72.2344 342.102 72.2344C341.016 72.2344 340.165 71.8477 339.547 71.0742C338.93 70.3008 338.622 69.2422 338.622 67.8984C338.622 66.2734 338.899 64.7656 339.454 63.375C340.008 61.9844 340.774 60.8945 341.751 60.1055C342.727 59.3164 343.797 58.9219 344.961 58.9219ZM342.735 70.6055C343.493 70.6055 344.247 70.2461 344.997 69.5273C345.747 68.8008 346.356 67.8594 346.825 66.7031C347.293 65.5391 347.528 64.375 347.528 63.2109C347.528 62.4062 347.309 61.7656 346.872 61.2891C346.434 60.8125 345.86 60.5742 345.149 60.5742C344.336 60.5742 343.579 60.9102 342.876 61.582C342.18 62.2539 341.633 63.1641 341.235 64.3125C340.836 65.4609 340.637 66.6719 340.637 67.9453C340.637 68.8359 340.821 69.5039 341.188 69.9492C341.555 70.3867 342.071 70.6055 342.735 70.6055ZM353.507 72H351.539L355.429 53.7656H357.398L353.507 72ZM27.7656 107.234C26.3281 107.234 25.1992 106.809 24.3789 105.957C23.5586 105.105 23.1484 103.926 23.1484 102.418C23.1484 100.949 23.4375 99.543 24.0156 98.1992C24.6016 96.8477 25.375 95.7969 26.3359 95.0469C27.2969 94.2969 28.3555 93.9219 29.5117 93.9219C30.707 93.9219 31.6055 94.1836 32.207 94.707C32.8086 95.2227 33.1094 95.9453 33.1094 96.875C33.1094 98.2812 32.4609 99.3867 31.1641 100.191C29.8672 100.988 28.0117 101.387 25.5977 101.387H25.2109L25.1641 102.324C25.1641 103.348 25.4023 104.148 25.8789 104.727C26.3633 105.297 27.1094 105.582 28.1172 105.582C28.6094 105.582 29.1133 105.512 29.6289 105.371C30.1523 105.23 30.8008 104.973 31.5742 104.598V106.309C30.8398 106.652 30.1914 106.891 29.6289 107.023C29.0664 107.164 28.4453 107.234 27.7656 107.234ZM29.3945 95.5977C28.5898 95.5977 27.832 95.9648 27.1211 96.6992C26.418 97.4336 25.8789 98.4531 25.5039 99.7578H25.6445C27.4258 99.7578 28.7891 99.5273 29.7344 99.0664C30.6875 98.5977 31.1641 97.9219 31.1641 97.0391C31.1641 96.625 31.0195 96.2812 30.7305 96.0078C30.4492 95.7344 30.0039 95.5977 29.3945 95.5977ZM39.1358 101.914L35.0811 107H32.7959L38.3624 100.379L35.5616 94.1562H37.5538L39.5928 98.9844L43.46 94.1562H45.7334L40.4014 100.473L43.3545 107H41.3858L39.1358 101.914ZM51.3614 107.234C50.6036 107.234 49.9396 107.039 49.3692 106.648C48.7989 106.258 48.3575 105.711 48.045 105.008H47.9278L47.881 105.453C47.8575 105.648 47.8146 105.922 47.7521 106.273C47.6974 106.625 47.2521 108.789 46.4161 112.766H44.4708L48.4083 94.1562H50.0372L49.7325 96.6055H49.8263C51.2247 94.832 52.6778 93.9453 54.1856 93.9453C55.256 93.9453 56.0997 94.3281 56.7169 95.0938C57.3341 95.8516 57.6427 96.918 57.6427 98.293C57.6427 99.9492 57.3731 101.469 56.8341 102.852C56.295 104.234 55.5489 105.312 54.5958 106.086C53.6427 106.852 52.5646 107.234 51.3614 107.234ZM53.5411 95.5742C52.7911 95.5742 52.0255 95.9453 51.2442 96.6875C50.4708 97.4297 49.8536 98.3633 49.3927 99.4883C48.9396 100.613 48.713 101.766 48.713 102.945C48.713 103.805 48.9278 104.465 49.3575 104.926C49.795 105.379 50.4239 105.605 51.2442 105.605C52.0177 105.605 52.7364 105.289 53.4005 104.656C54.0724 104.023 54.6114 103.125 55.0177 101.961C55.4239 100.789 55.6271 99.5469 55.6271 98.2344C55.6271 96.4609 54.9317 95.5742 53.5411 95.5742ZM64.4191 107.234C62.9816 107.234 61.8527 106.809 61.0324 105.957C60.2121 105.105 59.8019 103.926 59.8019 102.418C59.8019 100.949 60.091 99.543 60.6691 98.1992C61.255 96.8477 62.0285 95.7969 62.9894 95.0469C63.9504 94.2969 65.0089 93.9219 66.1652 93.9219C67.3605 93.9219 68.2589 94.1836 68.8605 94.707C69.4621 95.2227 69.7629 95.9453 69.7629 96.875C69.7629 98.2812 69.1144 99.3867 67.8175 100.191C66.5207 100.988 64.6652 101.387 62.2511 101.387H61.8644L61.8175 102.324C61.8175 103.348 62.0558 104.148 62.5324 104.727C63.0168 105.297 63.7629 105.582 64.7707 105.582C65.2629 105.582 65.7668 105.512 66.2824 105.371C66.8058 105.23 67.4543 104.973 68.2277 104.598V106.309C67.4933 106.652 66.8449 106.891 66.2824 107.023C65.7199 107.164 65.0988 107.234 64.4191 107.234ZM66.048 95.5977C65.2433 95.5977 64.4855 95.9648 63.7746 96.6992C63.0714 97.4336 62.5324 98.4531 62.1574 99.7578H62.298C64.0793 99.7578 65.4425 99.5273 66.3879 99.0664C67.341 98.5977 67.8175 97.9219 67.8175 97.0391C67.8175 96.625 67.673 96.2812 67.3839 96.0078C67.1027 95.7344 66.6574 95.5977 66.048 95.5977ZM79.1291 93.9219C79.6682 93.9219 80.1369 93.9766 80.5354 94.0859L80.1135 95.8438C79.6994 95.7422 79.2893 95.6914 78.883 95.6914C78.1721 95.6914 77.5041 95.9258 76.8791 96.3945C76.2619 96.8633 75.719 97.5156 75.2502 98.3516C74.7893 99.1797 74.4494 100.102 74.2307 101.117L72.9768 107H71.008L73.7502 94.1562H75.3791L75.1213 96.5352H75.2385C75.801 95.793 76.2658 95.2617 76.633 94.9414C77.0002 94.6133 77.383 94.3633 77.7815 94.1914C78.1877 94.0117 78.6369 93.9219 79.1291 93.9219ZM82.3196 107H80.3508L83.093 94.1562H85.0618L82.3196 107ZM83.6438 90.875C83.6438 90.4375 83.7688 90.082 84.0188 89.8086C84.2688 89.5273 84.593 89.3867 84.9915 89.3867C85.679 89.3867 86.0227 89.7383 86.0227 90.4414C86.0227 90.8711 85.8899 91.2344 85.6243 91.5312C85.3665 91.8281 85.0657 91.9766 84.7219 91.9766C84.4094 91.9766 84.1516 91.8828 83.9485 91.6953C83.7454 91.5 83.6438 91.2266 83.6438 90.875ZM91.346 107.234C89.9085 107.234 88.7796 106.809 87.9593 105.957C87.139 105.105 86.7288 103.926 86.7288 102.418C86.7288 100.949 87.0179 99.543 87.596 98.1992C88.1819 96.8477 88.9554 95.7969 89.9163 95.0469C90.8773 94.2969 91.9359 93.9219 93.0921 93.9219C94.2874 93.9219 95.1859 94.1836 95.7874 94.707C96.389 95.2227 96.6898 95.9453 96.6898 96.875C96.6898 98.2812 96.0413 99.3867 94.7444 100.191C93.4476 100.988 91.5921 101.387 89.178 101.387H88.7913L88.7444 102.324C88.7444 103.348 88.9827 104.148 89.4593 104.727C89.9437 105.297 90.6898 105.582 91.6976 105.582C92.1898 105.582 92.6937 105.512 93.2093 105.371C93.7327 105.23 94.3812 104.973 95.1546 104.598V106.309C94.4202 106.652 93.7718 106.891 93.2093 107.023C92.6468 107.164 92.0257 107.234 91.346 107.234ZM92.9749 95.5977C92.1702 95.5977 91.4124 95.9648 90.7015 96.6992C89.9984 97.4336 89.4593 98.4531 89.0843 99.7578H89.2249C91.0062 99.7578 92.3694 99.5273 93.3148 99.0664C94.2679 98.5977 94.7444 97.9219 94.7444 97.0391C94.7444 96.625 94.5999 96.2812 94.3109 96.0078C94.0296 95.7344 93.5843 95.5977 92.9749 95.5977ZM105.786 107L107.521 98.8906C107.677 98.0781 107.755 97.5156 107.755 97.2031C107.755 96.7109 107.615 96.3164 107.333 96.0195C107.06 95.7227 106.619 95.5742 106.009 95.5742C105.314 95.5742 104.634 95.8086 103.97 96.2773C103.314 96.7461 102.732 97.4141 102.224 98.2812C101.724 99.1484 101.345 100.199 101.087 101.434L99.9037 107H97.9349L100.677 94.1562H102.306L102.048 96.5352H102.165C102.915 95.582 103.638 94.9102 104.333 94.5195C105.036 94.1211 105.763 93.9219 106.513 93.9219C107.505 93.9219 108.286 94.1953 108.857 94.7422C109.435 95.2812 109.724 96.0391 109.724 97.0156C109.724 97.6328 109.634 98.3359 109.454 99.125L107.779 107H105.786ZM116.852 107.234C115.336 107.234 114.161 106.816 113.325 105.98C112.489 105.145 112.071 103.965 112.071 102.441C112.071 100.879 112.36 99.4375 112.938 98.1172C113.516 96.7969 114.313 95.7695 115.329 95.0352C116.352 94.293 117.5 93.9219 118.774 93.9219C119.844 93.9219 120.891 94.1211 121.914 94.5195L121.364 96.1719C120.426 95.7734 119.571 95.5742 118.797 95.5742C117.922 95.5742 117.122 95.875 116.395 96.4766C115.676 97.0703 115.11 97.9023 114.696 98.9727C114.289 100.035 114.086 101.191 114.086 102.441C114.086 103.441 114.344 104.219 114.86 104.773C115.383 105.328 116.102 105.605 117.016 105.605C117.579 105.605 118.11 105.527 118.61 105.371C119.11 105.215 119.602 105.031 120.086 104.82V106.496C119.118 106.988 118.039 107.234 116.852 107.234ZM127.32 107.234C125.882 107.234 124.753 106.809 123.933 105.957C123.113 105.105 122.703 103.926 122.703 102.418C122.703 100.949 122.992 99.543 123.57 98.1992C124.156 96.8477 124.929 95.7969 125.89 95.0469C126.851 94.2969 127.91 93.9219 129.066 93.9219C130.261 93.9219 131.16 94.1836 131.761 94.707C132.363 95.2227 132.664 95.9453 132.664 96.875C132.664 98.2812 132.015 99.3867 130.718 100.191C129.421 100.988 127.566 101.387 125.152 101.387H124.765L124.718 102.324C124.718 103.348 124.957 104.148 125.433 104.727C125.917 105.297 126.664 105.582 127.671 105.582C128.164 105.582 128.667 105.512 129.183 105.371C129.707 105.23 130.355 104.973 131.128 104.598V106.309C130.394 106.652 129.746 106.891 129.183 107.023C128.621 107.164 127.999 107.234 127.32 107.234ZM128.949 95.5977C128.144 95.5977 127.386 95.9648 126.675 96.6992C125.972 97.4336 125.433 98.4531 125.058 99.7578H125.199C126.98 99.7578 128.343 99.5273 129.289 99.0664C130.242 98.5977 130.718 97.9219 130.718 97.0391C130.718 96.625 130.574 96.2812 130.285 96.0078C130.003 95.7344 129.558 95.5977 128.949 95.5977ZM149.017 107L148.642 99.9453C148.611 99.2109 148.595 98.5391 148.595 97.9297V96.1016H148.49L147.904 97.4844L146.931 99.6992L143.521 107H141.154L140.65 94.1562H142.572L142.783 101.117V102.148C142.783 103.297 142.752 104.348 142.689 105.301H142.759C143.127 104.332 143.662 103.074 144.365 101.527L147.822 94.1562H149.955L150.388 101.117C150.435 102.43 150.459 103.453 150.459 104.188V104.809L150.435 105.301H150.505C150.724 104.629 151.048 103.777 151.478 102.746C151.908 101.707 153.17 98.8438 155.263 94.1562H157.349L151.42 107H149.017ZM158.969 107H157.001L159.743 94.1562H161.712L158.969 107ZM160.294 90.875C160.294 90.4375 160.419 90.082 160.669 89.8086C160.919 89.5273 161.243 89.3867 161.641 89.3867C162.329 89.3867 162.673 89.7383 162.673 90.4414C162.673 90.8711 162.54 91.2344 162.274 91.5312C162.016 91.8281 161.715 91.9766 161.372 91.9766C161.059 91.9766 160.801 91.8828 160.598 91.6953C160.395 91.5 160.294 91.2266 160.294 90.875ZM166.859 105.629C167.289 105.629 167.851 105.527 168.547 105.324V106.836C168.281 106.945 167.953 107.039 167.562 107.117C167.172 107.195 166.859 107.234 166.625 107.234C165.648 107.234 164.898 107.004 164.375 106.543C163.859 106.074 163.601 105.379 163.601 104.457C163.601 103.941 163.672 103.355 163.812 102.699L165.3 95.6445H163.285L163.449 94.7891L165.617 93.875L167.082 91.2031H168.23L167.586 94.1562H170.797L170.492 95.6445H167.293L165.781 102.723C165.64 103.402 165.57 103.918 165.57 104.27C165.57 104.707 165.683 105.043 165.91 105.277C166.136 105.512 166.453 105.629 166.859 105.629ZM178.382 107L180.116 98.8906C180.257 98.1562 180.327 97.6289 180.327 97.3086C180.327 96.1523 179.753 95.5742 178.604 95.5742C177.909 95.5742 177.229 95.8047 176.565 96.2656C175.909 96.7266 175.327 97.3984 174.819 98.2812C174.319 99.1562 173.94 100.215 173.682 101.457L172.499 107H170.53L174.397 88.7656H176.366C176.225 89.4062 176.089 90.0273 175.956 90.6289C175.831 91.2305 175.698 91.8438 175.557 92.4688C175.425 93.0859 175.276 93.7344 175.112 94.4141C174.956 95.0938 174.772 95.832 174.561 96.6289H174.69C175.425 95.668 176.147 94.9805 176.858 94.5664C177.577 94.1523 178.327 93.9453 179.108 93.9453C180.132 93.9453 180.921 94.2266 181.475 94.7891C182.038 95.3516 182.319 96.1484 182.319 97.1797C182.319 97.6641 182.229 98.3125 182.05 99.125C181.745 100.633 181.178 103.258 180.35 107H178.382ZM197.114 93.9922C198.598 93.9922 199.77 94.4336 200.63 95.3164C201.489 96.1914 201.919 97.3984 201.919 98.9375C201.919 100.406 201.638 101.793 201.075 103.098C200.513 104.402 199.751 105.41 198.79 106.121C197.829 106.832 196.743 107.188 195.532 107.188C194.032 107.188 192.856 106.746 192.005 105.863C191.153 104.98 190.727 103.773 190.727 102.242C190.727 100.758 191.013 99.3633 191.583 98.0586C192.153 96.7461 192.923 95.7422 193.891 95.0469C194.86 94.3438 195.934 93.9922 197.114 93.9922ZM199.88 98.668C199.88 97.7695 199.634 97.043 199.141 96.4883C198.657 95.9258 197.997 95.6445 197.161 95.6445C196.309 95.6445 195.544 95.9336 194.864 96.5117C194.192 97.0898 193.669 97.8945 193.294 98.9258C192.927 99.9492 192.743 101.09 192.743 102.348C192.743 103.371 192.989 104.164 193.481 104.727C193.981 105.281 194.696 105.559 195.626 105.559C196.438 105.559 197.169 105.273 197.817 104.703C198.466 104.133 198.97 103.324 199.329 102.277C199.696 101.223 199.88 100.02 199.88 98.668ZM208.168 94.1562L206.41 102.301C206.269 102.996 206.199 103.539 206.199 103.93C206.199 105.047 206.773 105.605 207.922 105.605C208.609 105.605 209.285 105.371 209.949 104.902C210.613 104.434 211.199 103.762 211.707 102.887C212.215 102.012 212.601 100.957 212.867 99.7227L214.039 94.1562H215.984L213.277 107H211.648L211.906 104.621H211.766C211 105.598 210.269 106.277 209.574 106.66C208.879 107.043 208.16 107.234 207.418 107.234C206.418 107.234 205.633 106.965 205.062 106.426C204.492 105.879 204.207 105.102 204.207 104.094C204.207 103.609 204.293 102.938 204.465 102.078L206.176 94.1562H208.168ZM225.374 93.9219C225.913 93.9219 226.382 93.9766 226.78 94.0859L226.358 95.8438C225.944 95.7422 225.534 95.6914 225.128 95.6914C224.417 95.6914 223.749 95.9258 223.124 96.3945C222.507 96.8633 221.964 97.5156 221.495 98.3516C221.034 99.1797 220.694 100.102 220.476 101.117L219.222 107H217.253L219.995 94.1562H221.624L221.366 96.5352H221.483C222.046 95.793 222.511 95.2617 222.878 94.9414C223.245 94.6133 223.628 94.3633 224.026 94.1914C224.433 94.0117 224.882 93.9219 225.374 93.9219ZM237.673 107H235.657L238.903 91.6367H234.146L234.532 89.8672H246.075L245.724 91.6367H240.942L237.673 107ZM251.281 93.9922C252.766 93.9922 253.938 94.4336 254.797 95.3164C255.656 96.1914 256.086 97.3984 256.086 98.9375C256.086 100.406 255.805 101.793 255.242 103.098C254.68 104.402 253.918 105.41 252.957 106.121C251.996 106.832 250.91 107.188 249.699 107.188C248.199 107.188 247.024 106.746 246.172 105.863C245.32 104.98 244.895 103.773 244.895 102.242C244.895 100.758 245.18 99.3633 245.75 98.0586C246.32 96.7461 247.09 95.7422 248.059 95.0469C249.027 94.3438 250.102 93.9922 251.281 93.9922ZM254.047 98.668C254.047 97.7695 253.801 97.043 253.309 96.4883C252.824 95.9258 252.164 95.6445 251.328 95.6445C250.477 95.6445 249.711 95.9336 249.031 96.5117C248.359 97.0898 247.836 97.8945 247.461 98.9258C247.094 99.9492 246.91 101.09 246.91 102.348C246.91 103.371 247.156 104.164 247.649 104.727C248.149 105.281 248.863 105.559 249.793 105.559C250.606 105.559 251.336 105.273 251.984 104.703C252.633 104.133 253.137 103.324 253.496 102.277C253.863 101.223 254.047 100.02 254.047 98.668ZM265.862 93.9219C266.402 93.9219 266.87 93.9766 267.269 94.0859L266.847 95.8438C266.433 95.7422 266.023 95.6914 265.616 95.6914C264.905 95.6914 264.237 95.9258 263.612 96.3945C262.995 96.8633 262.452 97.5156 261.984 98.3516C261.523 99.1797 261.183 100.102 260.964 101.117L259.71 107H257.741L260.484 94.1562H262.112L261.855 96.5352H261.972C262.534 95.793 262.999 95.2617 263.366 94.9414C263.734 94.6133 264.116 94.3633 264.515 94.1914C264.921 94.0117 265.37 93.9219 265.862 93.9219ZM269.053 107H267.084L269.826 94.1562H271.795L269.053 107ZM270.377 90.875C270.377 90.4375 270.502 90.082 270.752 89.8086C271.002 89.5273 271.326 89.3867 271.725 89.3867C272.412 89.3867 272.756 89.7383 272.756 90.4414C272.756 90.8711 272.623 91.2344 272.358 91.5312C272.1 91.8281 271.799 91.9766 271.455 91.9766C271.143 91.9766 270.885 91.8828 270.682 91.6953C270.479 91.5 270.377 91.2266 270.377 90.875ZM278.7 107.234C277.943 107.234 277.279 107.039 276.708 106.648C276.138 106.258 275.697 105.711 275.384 105.008H275.267L275.22 105.453C275.197 105.648 275.154 105.922 275.091 106.273C275.036 106.625 274.591 108.789 273.755 112.766H271.81L275.747 94.1562H277.376L277.072 96.6055H277.165C278.564 94.832 280.017 93.9453 281.525 93.9453C282.595 93.9453 283.439 94.3281 284.056 95.0938C284.673 95.8516 284.982 96.918 284.982 98.293C284.982 99.9492 284.712 101.469 284.173 102.852C283.634 104.234 282.888 105.312 281.935 106.086C280.982 106.852 279.904 107.234 278.7 107.234ZM280.88 95.5742C280.13 95.5742 279.365 95.9453 278.583 96.6875C277.81 97.4297 277.193 98.3633 276.732 99.4883C276.279 100.613 276.052 101.766 276.052 102.945C276.052 103.805 276.267 104.465 276.697 104.926C277.134 105.379 277.763 105.605 278.583 105.605C279.357 105.605 280.075 105.289 280.74 104.656C281.411 104.023 281.95 103.125 282.357 101.961C282.763 100.789 282.966 99.5469 282.966 98.2344C282.966 96.4609 282.271 95.5742 280.88 95.5742ZM291.278 94.1562L289.52 102.301C289.379 102.996 289.309 103.539 289.309 103.93C289.309 105.047 289.883 105.605 291.032 105.605C291.719 105.605 292.395 105.371 293.059 104.902C293.723 104.434 294.309 103.762 294.817 102.887C295.325 102.012 295.711 100.957 295.977 99.7227L297.149 94.1562H299.094L296.387 107H294.758L295.016 104.621H294.875C294.11 105.598 293.379 106.277 292.684 106.66C291.989 107.043 291.27 107.234 290.528 107.234C289.528 107.234 288.742 106.965 288.172 106.426C287.602 105.879 287.317 105.102 287.317 104.094C287.317 103.609 287.403 102.938 287.575 102.078L289.285 94.1562H291.278ZM313.221 93.9453C314.737 93.9453 315.834 94.6875 316.514 96.1719H316.631C316.764 94.9609 316.94 93.8906 317.159 92.9609L318.073 88.7656H320.018L316.151 107H314.522L314.78 104.551H314.686C313.897 105.527 313.159 106.219 312.471 106.625C311.784 107.031 311.073 107.234 310.338 107.234C309.252 107.234 308.405 106.852 307.795 106.086C307.186 105.32 306.881 104.258 306.881 102.898C306.881 101.227 307.163 99.6953 307.725 98.3047C308.288 96.9141 309.045 95.8398 309.998 95.082C310.959 94.3242 312.034 93.9453 313.221 93.9453ZM310.995 105.605C311.729 105.605 312.487 105.242 313.268 104.516C314.049 103.781 314.666 102.848 315.12 101.715C315.581 100.574 315.811 99.4141 315.811 98.2344C315.811 97.3672 315.6 96.707 315.178 96.2539C314.756 95.8008 314.143 95.5742 313.338 95.5742C312.549 95.5742 311.815 95.8984 311.135 96.5469C310.463 97.1875 309.92 98.0938 309.506 99.2656C309.1 100.43 308.897 101.656 308.897 102.945C308.897 104.719 309.596 105.605 310.995 105.605ZM328.224 93.9219C328.763 93.9219 329.232 93.9766 329.63 94.0859L329.208 95.8438C328.794 95.7422 328.384 95.6914 327.978 95.6914C327.267 95.6914 326.599 95.9258 325.974 96.3945C325.357 96.8633 324.814 97.5156 324.345 98.3516C323.884 99.1797 323.544 100.102 323.326 101.117L322.072 107H320.103L322.845 94.1562H324.474L324.216 96.5352H324.333C324.896 95.793 325.361 95.2617 325.728 94.9414C326.095 94.6133 326.478 94.3633 326.876 94.1914C327.283 94.0117 327.732 93.9219 328.224 93.9219ZM331.415 107H329.446L332.188 94.1562H334.157L331.415 107ZM332.739 90.875C332.739 90.4375 332.864 90.082 333.114 89.8086C333.364 89.5273 333.688 89.3867 334.086 89.3867C334.774 89.3867 335.118 89.7383 335.118 90.4414C335.118 90.8711 334.985 91.2344 334.719 91.5312C334.461 91.8281 334.161 91.9766 333.817 91.9766C333.504 91.9766 333.247 91.8828 333.043 91.6953C332.84 91.5 332.739 91.2266 332.739 90.875ZM337.289 107L335.824 94.1562H337.793L338.543 101.34C338.73 103.355 338.824 104.77 338.824 105.582H338.894C339.886 103.434 340.586 101.984 340.992 101.234L344.8 94.1562H346.886L339.961 107H337.289ZM351.354 107.234C349.917 107.234 348.788 106.809 347.967 105.957C347.147 105.105 346.737 103.926 346.737 102.418C346.737 100.949 347.026 99.543 347.604 98.1992C348.19 96.8477 348.964 95.7969 349.924 95.0469C350.885 94.2969 351.944 93.9219 353.1 93.9219C354.296 93.9219 355.194 94.1836 355.796 94.707C356.397 95.2227 356.698 95.9453 356.698 96.875C356.698 98.2812 356.049 99.3867 354.753 100.191C353.456 100.988 351.6 101.387 349.186 101.387H348.799L348.753 102.324C348.753 103.348 348.991 104.148 349.467 104.727C349.952 105.297 350.698 105.582 351.706 105.582C352.198 105.582 352.702 105.512 353.217 105.371C353.741 105.23 354.389 104.973 355.163 104.598V106.309C354.428 106.652 353.78 106.891 353.217 107.023C352.655 107.164 352.034 107.234 351.354 107.234ZM352.983 95.5977C352.178 95.5977 351.421 95.9648 350.71 96.6992C350.006 97.4336 349.467 98.4531 349.092 99.7578H349.233C351.014 99.7578 352.378 99.5273 353.323 99.0664C354.276 98.5977 354.753 97.9219 354.753 97.0391C354.753 96.625 354.608 96.2812 354.319 96.0078C354.038 95.7344 353.592 95.5977 352.983 95.5977ZM366.064 93.9219C366.603 93.9219 367.072 93.9766 367.47 94.0859L367.049 95.8438C366.634 95.7422 366.224 95.6914 365.818 95.6914C365.107 95.6914 364.439 95.9258 363.814 96.3945C363.197 96.8633 362.654 97.5156 362.185 98.3516C361.724 99.1797 361.384 100.102 361.166 101.117L359.912 107H357.943L360.685 94.1562H362.314L362.056 96.5352H362.174C362.736 95.793 363.201 95.2617 363.568 94.9414C363.935 94.6133 364.318 94.3633 364.716 94.1914C365.123 94.0117 365.572 93.9219 366.064 93.9219ZM367.098 106.133C367.098 105.531 367.255 105.055 367.567 104.703C367.887 104.344 368.325 104.164 368.88 104.164C369.216 104.164 369.485 104.266 369.688 104.469C369.899 104.672 370.005 104.98 370.005 105.395C370.005 105.949 369.848 106.414 369.536 106.789C369.223 107.156 368.802 107.34 368.27 107.34C367.911 107.34 367.626 107.238 367.415 107.035C367.204 106.832 367.098 106.531 367.098 106.133ZM23.0078 142L26.6523 124.867H28.6211L24.9766 142H23.0078ZM33.0186 140.629C33.4483 140.629 34.0108 140.527 34.7061 140.324V141.836C34.4405 141.945 34.1124 142.039 33.7217 142.117C33.3311 142.195 33.0186 142.234 32.7842 142.234C31.8077 142.234 31.0577 142.004 30.5342 141.543C30.0186 141.074 29.7608 140.379 29.7608 139.457C29.7608 138.941 29.8311 138.355 29.9717 137.699L31.46 130.645H29.4444L29.6084 129.789L31.7764 128.875L33.2413 126.203H34.3897L33.7452 129.156H36.9561L36.6514 130.645H33.4522L31.9405 137.723C31.7999 138.402 31.7295 138.918 31.7295 139.27C31.7295 139.707 31.8428 140.043 32.0694 140.277C32.2959 140.512 32.6124 140.629 33.0186 140.629ZM51.798 142L51.423 134.945C51.3918 134.211 51.3761 133.539 51.3761 132.93V131.102H51.2707L50.6847 132.484L49.7121 134.699L46.3019 142H43.9347L43.4308 129.156H45.3527L45.5636 136.117V137.148C45.5636 138.297 45.5324 139.348 45.4699 140.301H45.5402C45.9074 139.332 46.4425 138.074 47.1457 136.527L50.6027 129.156H52.7355L53.1691 136.117C53.216 137.43 53.2394 138.453 53.2394 139.188V139.809L53.216 140.301H53.2863C53.505 139.629 53.8293 138.777 54.2589 137.746C54.6886 136.707 55.9503 133.844 58.0441 129.156H60.13L54.2003 142H51.798ZM66.5783 128.922C67.2971 128.922 67.9377 129.117 68.5002 129.508C69.0627 129.891 69.5002 130.445 69.8127 131.172H69.9416L70.7268 129.156H72.215L69.4846 142H67.926L68.2307 139.551H68.1369C66.7385 141.34 65.2658 142.234 63.719 142.234C62.633 142.234 61.7815 141.848 61.1643 141.074C60.5471 140.301 60.2385 139.242 60.2385 137.898C60.2385 136.273 60.5158 134.766 61.0705 133.375C61.6252 131.984 62.3908 130.895 63.3674 130.105C64.344 129.316 65.4143 128.922 66.5783 128.922ZM64.3518 140.605C65.1096 140.605 65.8635 140.246 66.6135 139.527C67.3635 138.801 67.9729 137.859 68.4416 136.703C68.9104 135.539 69.1447 134.375 69.1447 133.211C69.1447 132.406 68.926 131.766 68.4885 131.289C68.051 130.812 67.4768 130.574 66.7658 130.574C65.9533 130.574 65.1955 130.91 64.4924 131.582C63.7971 132.254 63.2502 133.164 62.8518 134.312C62.4533 135.461 62.2541 136.672 62.2541 137.945C62.2541 138.836 62.4377 139.504 62.8049 139.949C63.1721 140.387 63.6877 140.605 64.3518 140.605ZM81.1008 138.355C81.1008 139.574 80.6673 140.527 79.8001 141.215C78.9407 141.895 77.7258 142.234 76.1555 142.234C74.8352 142.234 73.6438 141.965 72.5813 141.426V139.574C73.1282 139.902 73.718 140.156 74.3508 140.336C74.9837 140.516 75.5696 140.605 76.1087 140.605C77.093 140.605 77.8352 140.41 78.3352 140.02C78.8352 139.629 79.0852 139.129 79.0852 138.52C79.0852 138.074 78.9485 137.699 78.6751 137.395C78.4016 137.09 77.8118 136.672 76.9055 136.141C75.8899 135.57 75.1712 135.012 74.7493 134.465C74.3274 133.918 74.1165 133.27 74.1165 132.52C74.1165 131.441 74.511 130.574 75.3001 129.918C76.0891 129.254 77.1282 128.922 78.4173 128.922C79.7532 128.922 81.0423 129.211 82.2844 129.789L81.6516 131.395L80.9954 131.102C80.2063 130.766 79.3469 130.598 78.4173 130.598C77.6907 130.598 77.1204 130.77 76.7063 131.113C76.2923 131.449 76.0852 131.887 76.0852 132.426C76.0852 132.863 76.2219 133.238 76.4954 133.551C76.7766 133.863 77.3508 134.266 78.218 134.758C79.054 135.227 79.6516 135.629 80.011 135.965C80.3782 136.301 80.6516 136.664 80.8313 137.055C81.011 137.438 81.1008 137.871 81.1008 138.355ZM96.8216 142L98.556 133.891C98.6966 133.156 98.767 132.629 98.767 132.309C98.767 131.762 98.6459 131.336 98.4037 131.031C98.1615 130.727 97.7474 130.574 97.1615 130.574C96.5052 130.574 95.8646 130.809 95.2396 131.277C94.6224 131.746 94.0756 132.418 93.599 133.293C93.1302 134.16 92.767 135.207 92.5091 136.434L91.3256 142H89.3568L92.099 129.156H93.7279L93.4701 131.535H93.5873C94.267 130.605 94.9427 129.938 95.6146 129.531C96.2943 129.125 96.9935 128.922 97.7123 128.922C98.5951 128.922 99.2748 129.176 99.7513 129.684C100.228 130.191 100.509 130.898 100.595 131.805H100.689C101.361 130.828 102.076 130.105 102.833 129.637C103.591 129.16 104.357 128.922 105.13 128.922C106.122 128.922 106.888 129.188 107.427 129.719C107.974 130.25 108.247 131.023 108.247 132.039C108.247 132.57 108.161 133.266 107.99 134.125L106.302 142H104.31L106.044 133.891C106.201 133.078 106.279 132.508 106.279 132.18C106.279 131.695 106.142 131.309 105.869 131.02C105.603 130.723 105.181 130.574 104.603 130.574C103.97 130.574 103.345 130.801 102.728 131.254C102.111 131.707 101.568 132.352 101.099 133.188C100.638 134.016 100.286 135 100.044 136.141L98.7904 142H96.8216ZM116.911 128.922C117.629 128.922 118.27 129.117 118.832 129.508C119.395 129.891 119.832 130.445 120.145 131.172H120.274L121.059 129.156H122.547L119.817 142H118.258L118.563 139.551H118.469C117.071 141.34 115.598 142.234 114.051 142.234C112.965 142.234 112.114 141.848 111.497 141.074C110.879 140.301 110.571 139.242 110.571 137.898C110.571 136.273 110.848 134.766 111.403 133.375C111.957 131.984 112.723 130.895 113.7 130.105C114.676 129.316 115.747 128.922 116.911 128.922ZM114.684 140.605C115.442 140.605 116.196 140.246 116.946 139.527C117.696 138.801 118.305 137.859 118.774 136.703C119.243 135.539 119.477 134.375 119.477 133.211C119.477 132.406 119.258 131.766 118.821 131.289C118.383 130.812 117.809 130.574 117.098 130.574C116.286 130.574 115.528 130.91 114.825 131.582C114.129 132.254 113.582 133.164 113.184 134.312C112.786 135.461 112.586 136.672 112.586 137.945C112.586 138.836 112.77 139.504 113.137 139.949C113.504 140.387 114.02 140.605 114.684 140.605ZM135.71 129.156L135.417 130.41L132.945 130.691C133.265 131.176 133.425 131.793 133.425 132.543C133.425 134.035 132.968 135.227 132.054 136.117C131.148 137 129.933 137.441 128.41 137.441C127.98 137.441 127.652 137.41 127.425 137.348C126.339 137.762 125.796 138.273 125.796 138.883C125.796 139.203 125.925 139.418 126.183 139.527C126.441 139.629 126.816 139.711 127.308 139.773L128.679 139.938C130.093 140.109 131.117 140.453 131.749 140.969C132.39 141.484 132.71 142.242 132.71 143.242C132.71 144.68 132.14 145.793 130.999 146.582C129.859 147.371 128.253 147.766 126.183 147.766C124.667 147.766 123.48 147.477 122.621 146.898C121.761 146.328 121.332 145.52 121.332 144.473C121.332 143.652 121.613 142.941 122.175 142.34C122.738 141.738 123.648 141.227 124.906 140.805C124.296 140.484 123.992 140.012 123.992 139.387C123.992 138.848 124.191 138.387 124.589 138.004C124.988 137.613 125.542 137.25 126.253 136.914C125.761 136.664 125.359 136.297 125.046 135.812C124.734 135.32 124.578 134.75 124.578 134.102C124.578 132.586 125.042 131.344 125.972 130.375C126.91 129.406 128.105 128.922 129.558 128.922C130.167 128.922 130.769 129 131.363 129.156H135.71ZM123.23 144.285C123.23 144.887 123.484 145.363 123.992 145.715C124.499 146.066 125.253 146.242 126.253 146.242C127.675 146.242 128.785 145.992 129.582 145.492C130.386 145 130.789 144.301 130.789 143.395C130.789 142.91 130.578 142.527 130.156 142.246C129.734 141.965 129.015 141.77 127.999 141.66L126.136 141.473C125.199 141.668 124.48 142.012 123.98 142.504C123.48 142.996 123.23 143.59 123.23 144.285ZM126.488 134.031C126.488 134.695 126.664 135.203 127.015 135.555C127.367 135.898 127.855 136.07 128.48 136.07C129.097 136.07 129.636 135.906 130.097 135.578C130.558 135.25 130.91 134.801 131.152 134.23C131.402 133.652 131.527 133.027 131.527 132.355C131.527 131.715 131.355 131.227 131.011 130.891C130.667 130.555 130.175 130.387 129.535 130.387C128.925 130.387 128.39 130.547 127.929 130.867C127.476 131.18 127.121 131.621 126.863 132.191C126.613 132.754 126.488 133.367 126.488 134.031ZM137.331 142H135.362L138.104 129.156H140.073L137.331 142ZM138.655 125.875C138.655 125.438 138.78 125.082 139.03 124.809C139.28 124.527 139.604 124.387 140.002 124.387C140.69 124.387 141.034 124.738 141.034 125.441C141.034 125.871 140.901 126.234 140.635 126.531C140.377 126.828 140.077 126.977 139.733 126.977C139.42 126.977 139.163 126.883 138.96 126.695C138.756 126.5 138.655 126.227 138.655 125.875ZM146.521 142.234C145.005 142.234 143.83 141.816 142.994 140.98C142.158 140.145 141.74 138.965 141.74 137.441C141.74 135.879 142.029 134.438 142.607 133.117C143.185 131.797 143.982 130.77 144.998 130.035C146.021 129.293 147.17 128.922 148.443 128.922C149.513 128.922 150.56 129.121 151.584 129.52L151.033 131.172C150.095 130.773 149.24 130.574 148.466 130.574C147.591 130.574 146.791 130.875 146.064 131.477C145.345 132.07 144.779 132.902 144.365 133.973C143.959 135.035 143.755 136.191 143.755 137.441C143.755 138.441 144.013 139.219 144.529 139.773C145.052 140.328 145.771 140.605 146.685 140.605C147.248 140.605 147.779 140.527 148.279 140.371C148.779 140.215 149.271 140.031 149.755 139.82V141.496C148.787 141.988 147.709 142.234 146.521 142.234ZM158.712 128.922C159.43 128.922 160.071 129.117 160.633 129.508C161.196 129.891 161.633 130.445 161.946 131.172H162.075L162.86 129.156H164.348L161.618 142H160.059L160.364 139.551H160.27C158.872 141.34 157.399 142.234 155.852 142.234C154.766 142.234 153.915 141.848 153.298 141.074C152.68 140.301 152.372 139.242 152.372 137.898C152.372 136.273 152.649 134.766 153.204 133.375C153.758 131.984 154.524 130.895 155.501 130.105C156.477 129.316 157.548 128.922 158.712 128.922ZM156.485 140.605C157.243 140.605 157.997 140.246 158.747 139.527C159.497 138.801 160.106 137.859 160.575 136.703C161.044 135.539 161.278 134.375 161.278 133.211C161.278 132.406 161.059 131.766 160.622 131.289C160.184 130.812 159.61 130.574 158.899 130.574C158.087 130.574 157.329 130.91 156.626 131.582C155.93 132.254 155.383 133.164 154.985 134.312C154.587 135.461 154.387 136.672 154.387 137.945C154.387 138.836 154.571 139.504 154.938 139.949C155.305 140.387 155.821 140.605 156.485 140.605ZM167.258 142H165.289L169.179 123.766H171.148L167.258 142ZM171.046 141.133C171.046 140.531 171.202 140.055 171.514 139.703C171.835 139.344 172.272 139.164 172.827 139.164C173.163 139.164 173.432 139.266 173.635 139.469C173.846 139.672 173.952 139.98 173.952 140.395C173.952 140.949 173.796 141.414 173.483 141.789C173.171 142.156 172.749 142.34 172.218 142.34C171.858 142.34 171.573 142.238 171.362 142.035C171.151 141.832 171.046 141.531 171.046 141.133ZM25.36 212.144C24.896 212.144 24.52 212.008 24.232 211.736C23.96 211.448 23.824 211.064 23.824 210.584V196.544C23.824 196.08 23.952 195.72 24.208 195.464C24.48 195.208 24.848 195.08 25.312 195.08H31.216C33.024 195.08 34.432 195.536 35.44 196.448C36.448 197.344 36.952 198.608 36.952 200.24C36.952 201.872 36.448 203.144 35.44 204.056C34.432 204.968 33.024 205.424 31.216 205.424H26.92V210.584C26.92 211.064 26.776 211.448 26.488 211.736C26.216 212.008 25.84 212.144 25.36 212.144ZM30.832 203.048C32.96 203.048 34.024 202.12 34.024 200.264C34.024 198.408 32.96 197.48 30.832 197.48H26.92V203.048H30.832ZM45.5486 200.024C45.9646 199.992 46.2926 200.08 46.5326 200.288C46.7726 200.496 46.8926 200.808 46.8926 201.224C46.8926 201.656 46.7886 201.976 46.5806 202.184C46.3726 202.392 45.9966 202.528 45.4526 202.592L44.7326 202.664C43.7886 202.76 43.0926 203.08 42.6446 203.624C42.2126 204.168 41.9966 204.848 41.9966 205.664V210.704C41.9966 211.168 41.8526 211.528 41.5646 211.784C41.2766 212.024 40.9166 212.144 40.4846 212.144C40.0526 212.144 39.6926 212.024 39.4046 211.784C39.1326 211.528 38.9966 211.168 38.9966 210.704V201.416C38.9966 200.968 39.1326 200.624 39.4046 200.384C39.6926 200.144 40.0446 200.024 40.4606 200.024C40.8766 200.024 41.2126 200.144 41.4686 200.384C41.7246 200.608 41.8526 200.936 41.8526 201.368V202.328C42.1566 201.624 42.6046 201.08 43.1966 200.696C43.8046 200.312 44.4766 200.096 45.2126 200.048L45.5486 200.024ZM49.4993 212.144C49.0673 212.144 48.7073 212.024 48.4193 211.784C48.1473 211.528 48.0113 211.168 48.0113 210.704V201.44C48.0113 200.976 48.1473 200.624 48.4193 200.384C48.7073 200.144 49.0673 200.024 49.4993 200.024C49.9313 200.024 50.2913 200.144 50.5793 200.384C50.8673 200.624 51.0113 200.976 51.0113 201.44V210.704C51.0113 211.168 50.8673 211.528 50.5793 211.784C50.2913 212.024 49.9313 212.144 49.4993 212.144ZM49.4993 197.888C48.9553 197.888 48.5233 197.744 48.2033 197.456C47.8833 197.152 47.7233 196.76 47.7233 196.28C47.7233 195.8 47.8833 195.416 48.2033 195.128C48.5233 194.84 48.9553 194.696 49.4993 194.696C50.0273 194.696 50.4513 194.84 50.7713 195.128C51.1073 195.416 51.2753 195.8 51.2753 196.28C51.2753 196.76 51.1153 197.152 50.7953 197.456C50.4753 197.744 50.0433 197.888 49.4993 197.888ZM59.1402 212.192C57.9722 212.192 56.9402 211.944 56.0442 211.448C55.1642 210.952 54.4842 210.248 54.0042 209.336C53.5242 208.424 53.2842 207.36 53.2842 206.144C53.2842 204.928 53.5322 203.856 54.0282 202.928C54.5402 201.984 55.2522 201.256 56.1642 200.744C57.0762 200.232 58.1242 199.976 59.3082 199.976C59.9322 199.976 60.5562 200.064 61.1802 200.24C61.8202 200.416 62.3802 200.656 62.8602 200.96C63.3722 201.296 63.6282 201.72 63.6282 202.232C63.6282 202.584 63.5402 202.872 63.3642 203.096C63.2042 203.304 62.9882 203.408 62.7162 203.408C62.5402 203.408 62.3562 203.368 62.1642 203.288C61.9722 203.208 61.7802 203.112 61.5882 203C61.2362 202.792 60.9002 202.632 60.5802 202.52C60.2602 202.392 59.8922 202.328 59.4762 202.328C58.4842 202.328 57.7162 202.656 57.1722 203.312C56.6442 203.952 56.3802 204.88 56.3802 206.096C56.3802 207.296 56.6442 208.224 57.1722 208.88C57.7162 209.52 58.4842 209.84 59.4762 209.84C59.8762 209.84 60.2282 209.784 60.5322 209.672C60.8522 209.544 61.2042 209.376 61.5882 209.168C61.8282 209.024 62.0362 208.92 62.2122 208.856C62.3882 208.776 62.5642 208.736 62.7402 208.736C62.9962 208.736 63.2122 208.848 63.3882 209.072C63.5642 209.296 63.6522 209.576 63.6522 209.912C63.6522 210.184 63.5882 210.424 63.4602 210.632C63.3482 210.824 63.1562 211 62.8842 211.16C62.3882 211.48 61.8122 211.736 61.1562 211.928C60.5002 212.104 59.8282 212.192 59.1402 212.192ZM66.9662 212.144C66.5342 212.144 66.1742 212.024 65.8862 211.784C65.6142 211.528 65.4782 211.168 65.4782 210.704V201.44C65.4782 200.976 65.6142 200.624 65.8862 200.384C66.1742 200.144 66.5342 200.024 66.9662 200.024C67.3982 200.024 67.7582 200.144 68.0462 200.384C68.3342 200.624 68.4782 200.976 68.4782 201.44V210.704C68.4782 211.168 68.3342 211.528 68.0462 211.784C67.7582 212.024 67.3982 212.144 66.9662 212.144ZM66.9662 197.888C66.4222 197.888 65.9902 197.744 65.6702 197.456C65.3502 197.152 65.1902 196.76 65.1902 196.28C65.1902 195.8 65.3502 195.416 65.6702 195.128C65.9902 194.84 66.4222 194.696 66.9662 194.696C67.4942 194.696 67.9182 194.84 68.2382 195.128C68.5742 195.416 68.7422 195.8 68.7422 196.28C68.7422 196.76 68.5822 197.152 68.2622 197.456C67.9422 197.744 67.5102 197.888 66.9662 197.888ZM72.8871 212.144C72.4551 212.144 72.0951 212.024 71.8071 211.784C71.5351 211.528 71.3991 211.168 71.3991 210.704V196.376C71.3991 195.912 71.5351 195.56 71.8071 195.32C72.0951 195.08 72.4551 194.96 72.8871 194.96C73.3191 194.96 73.6791 195.08 73.9671 195.32C74.2551 195.56 74.3991 195.912 74.3991 196.376V210.704C74.3991 211.168 74.2551 211.528 73.9671 211.784C73.6791 212.024 73.3191 212.144 72.8871 212.144ZM78.8081 212.144C78.3761 212.144 78.0161 212.024 77.7281 211.784C77.4561 211.528 77.3201 211.168 77.3201 210.704V196.376C77.3201 195.912 77.4561 195.56 77.7281 195.32C78.0161 195.08 78.3761 194.96 78.8081 194.96C79.2401 194.96 79.6001 195.08 79.8881 195.32C80.1761 195.56 80.3201 195.912 80.3201 196.376V210.704C80.3201 211.168 80.1761 211.528 79.8881 211.784C79.6001 212.024 79.2401 212.144 78.8081 212.144ZM88.329 199.976C89.961 199.976 91.169 200.384 91.953 201.2C92.753 202 93.153 203.224 93.153 204.872V210.728C93.153 211.16 93.025 211.504 92.769 211.76C92.513 212 92.161 212.12 91.713 212.12C91.297 212.12 90.953 211.992 90.681 211.736C90.425 211.48 90.297 211.144 90.297 210.728V210.2C90.025 210.824 89.593 211.312 89.001 211.664C88.425 212.016 87.753 212.192 86.985 212.192C86.201 212.192 85.489 212.032 84.849 211.712C84.209 211.392 83.705 210.952 83.337 210.392C82.969 209.832 82.785 209.208 82.785 208.52C82.785 207.656 83.001 206.976 83.433 206.48C83.881 205.984 84.601 205.624 85.593 205.4C86.585 205.176 87.953 205.064 89.697 205.064H90.297V204.512C90.297 203.728 90.129 203.16 89.793 202.808C89.457 202.44 88.913 202.256 88.161 202.256C87.697 202.256 87.225 202.328 86.745 202.472C86.265 202.6 85.697 202.792 85.041 203.048C84.625 203.256 84.321 203.36 84.129 203.36C83.841 203.36 83.601 203.256 83.409 203.048C83.233 202.84 83.145 202.568 83.145 202.232C83.145 201.96 83.209 201.728 83.337 201.536C83.481 201.328 83.713 201.136 84.033 200.96C84.593 200.656 85.257 200.416 86.025 200.24C86.809 200.064 87.577 199.976 88.329 199.976ZM87.585 210.032C88.385 210.032 89.033 209.768 89.529 209.24C90.041 208.696 90.297 208 90.297 207.152V206.648H89.865C88.793 206.648 87.961 206.696 87.369 206.792C86.777 206.888 86.353 207.056 86.097 207.296C85.841 207.536 85.713 207.864 85.713 208.28C85.713 208.792 85.889 209.216 86.241 209.552C86.609 209.872 87.057 210.032 87.585 210.032ZM97.3972 208.544C97.9412 208.544 98.3812 208.744 98.7172 209.144C99.0532 209.544 99.2212 210.128 99.2212 210.896C99.2212 212.416 98.6932 213.728 97.6372 214.832C97.4292 215.04 97.2052 215.144 96.9652 215.144C96.7252 215.144 96.5172 215.064 96.3412 214.904C96.1652 214.744 96.0772 214.552 96.0772 214.328C96.0772 214.136 96.1572 213.952 96.3172 213.776C96.7972 213.264 97.1092 212.688 97.2532 212.048C96.7892 212 96.4052 211.824 96.1012 211.52C95.8132 211.2 95.6692 210.808 95.6692 210.344C95.6692 209.832 95.8292 209.408 96.1492 209.072C96.4852 208.72 96.9012 208.544 97.3972 208.544ZM113.055 212.12C112.767 212.12 112.535 212.032 112.359 211.856C112.183 211.664 112.103 211.416 112.119 211.112L113.247 196.76H108.111C107.839 196.76 107.623 196.688 107.463 196.544C107.319 196.384 107.247 196.184 107.247 195.944C107.247 195.672 107.327 195.464 107.487 195.32C107.647 195.16 107.879 195.08 108.183 195.08H120.495C120.783 195.08 120.999 195.152 121.143 195.296C121.287 195.44 121.359 195.64 121.359 195.896C121.359 196.472 121.047 196.76 120.423 196.76H115.215L114.087 211.184C114.055 211.456 113.943 211.68 113.751 211.856C113.575 212.032 113.343 212.12 113.055 212.12ZM125.182 212.168C124.094 212.168 123.134 211.936 122.302 211.472C121.486 211.008 120.854 210.352 120.406 209.504C119.974 208.64 119.758 207.64 119.758 206.504C119.758 205.208 119.99 204.072 120.454 203.096C120.934 202.12 121.598 201.368 122.446 200.84C123.31 200.296 124.31 200.024 125.446 200.024C126.55 200.024 127.51 200.256 128.326 200.72C129.142 201.184 129.774 201.848 130.222 202.712C130.67 203.576 130.894 204.576 130.894 205.712C130.894 207.008 130.654 208.144 130.174 209.12C129.71 210.096 129.046 210.848 128.182 211.376C127.318 211.904 126.318 212.168 125.182 212.168ZM125.206 210.56C126.374 210.56 127.278 210.12 127.918 209.24C128.574 208.36 128.902 207.16 128.902 205.64C128.902 204.36 128.598 203.376 127.99 202.688C127.398 201.984 126.55 201.632 125.446 201.632C124.278 201.632 123.366 202.08 122.71 202.976C122.054 203.872 121.726 205.072 121.726 206.576C121.726 207.872 122.022 208.864 122.614 209.552C123.206 210.224 124.07 210.56 125.206 210.56ZM139.954 200.072C140.226 200.04 140.434 200.096 140.578 200.24C140.738 200.368 140.818 200.56 140.818 200.816C140.818 201.392 140.506 201.704 139.882 201.752L139.234 201.824C138.066 201.936 137.186 202.28 136.594 202.856C136.018 203.432 135.69 204.256 135.61 205.328L135.13 211.16C135.114 211.48 135.002 211.72 134.794 211.88C134.602 212.04 134.37 212.12 134.098 212.12C133.826 212.12 133.602 212.04 133.426 211.88C133.25 211.72 133.17 211.48 133.186 211.16L134.026 200.984C134.042 200.696 134.146 200.472 134.338 200.312C134.546 200.152 134.786 200.072 135.058 200.072C135.33 200.072 135.538 200.152 135.682 200.312C135.842 200.456 135.914 200.672 135.898 200.96L135.802 202.208C136.218 201.552 136.746 201.056 137.386 200.72C138.026 200.384 138.794 200.176 139.69 200.096L139.954 200.072ZM142.386 212.12C142.114 212.12 141.89 212.04 141.714 211.88C141.538 211.72 141.458 211.48 141.474 211.16L142.314 200.984C142.33 200.68 142.434 200.456 142.626 200.312C142.834 200.152 143.074 200.072 143.346 200.072C143.618 200.072 143.842 200.152 144.018 200.312C144.194 200.456 144.274 200.68 144.258 200.984L143.418 211.16C143.402 211.48 143.29 211.72 143.082 211.88C142.89 212.04 142.658 212.12 142.386 212.12ZM143.658 197.552C143.274 197.552 142.962 197.44 142.722 197.216C142.482 196.992 142.362 196.696 142.362 196.328C142.362 195.976 142.482 195.688 142.722 195.464C142.962 195.24 143.274 195.128 143.658 195.128C144.042 195.128 144.354 195.24 144.594 195.464C144.834 195.688 144.954 195.976 144.954 196.328C144.954 196.696 144.834 196.992 144.594 197.216C144.354 197.44 144.042 197.552 143.658 197.552ZM153.383 200.024C154.375 200.024 155.247 200.256 155.999 200.72C156.751 201.184 157.335 201.84 157.751 202.688C158.167 203.536 158.375 204.528 158.375 205.664C158.375 206.96 158.143 208.096 157.679 209.072C157.215 210.048 156.567 210.808 155.735 211.352C154.903 211.896 153.951 212.168 152.879 212.168C151.967 212.168 151.167 211.968 150.479 211.568C149.791 211.168 149.279 210.608 148.943 209.888L148.487 215.576C148.471 215.864 148.367 216.08 148.175 216.224C147.983 216.384 147.743 216.464 147.455 216.464C147.167 216.464 146.935 216.384 146.759 216.224C146.599 216.08 146.527 215.864 146.543 215.576L147.695 201.032C147.727 200.712 147.839 200.472 148.031 200.312C148.223 200.152 148.455 200.072 148.727 200.072C149.015 200.072 149.239 200.16 149.399 200.336C149.575 200.496 149.655 200.728 149.639 201.032L149.543 202.064C149.927 201.424 150.455 200.928 151.127 200.576C151.815 200.208 152.567 200.024 153.383 200.024ZM152.687 210.56C153.839 210.56 154.743 210.128 155.399 209.264C156.055 208.4 156.383 207.224 156.383 205.736C156.383 204.44 156.079 203.432 155.471 202.712C154.863 201.992 154.007 201.632 152.903 201.632C151.751 201.632 150.847 202.072 150.191 202.952C149.535 203.816 149.207 205.008 149.207 206.528C149.207 207.84 149.503 208.84 150.095 209.528C150.703 210.216 151.567 210.56 152.687 210.56ZM170.443 200.072C170.731 200.072 170.955 200.16 171.115 200.336C171.291 200.496 171.363 200.728 171.331 201.032L170.515 211.232C170.499 211.504 170.387 211.72 170.179 211.88C169.987 212.04 169.755 212.12 169.483 212.12C169.211 212.12 168.995 212.048 168.835 211.904C168.675 211.744 168.603 211.528 168.619 211.256L168.715 210.104C168.315 210.76 167.779 211.272 167.107 211.64C166.435 211.992 165.683 212.168 164.851 212.168C163.555 212.168 162.571 211.832 161.899 211.16C161.227 210.472 160.891 209.472 160.891 208.16C160.891 207.872 160.899 207.656 160.915 207.512L161.419 201.032C161.451 200.728 161.563 200.496 161.755 200.336C161.963 200.16 162.203 200.072 162.475 200.072C162.763 200.072 162.987 200.16 163.147 200.336C163.323 200.496 163.395 200.728 163.363 201.032L162.859 207.392C162.843 207.504 162.835 207.672 162.835 207.896C162.835 209.656 163.675 210.536 165.355 210.536C166.395 210.536 167.227 210.216 167.851 209.576C168.475 208.936 168.827 208.048 168.907 206.912L169.387 201.032C169.419 200.728 169.531 200.496 169.723 200.336C169.931 200.16 170.171 200.072 170.443 200.072ZM182.85 207.776C182.834 207.888 182.826 208.048 182.826 208.256C182.826 209.024 183.002 209.608 183.354 210.008C183.706 210.408 184.202 210.608 184.842 210.608C185.05 210.608 185.25 210.6 185.442 210.584C185.634 210.552 185.778 210.536 185.874 210.536C186.034 210.536 186.162 210.6 186.258 210.728C186.37 210.856 186.426 211.032 186.426 211.256C186.426 211.592 186.282 211.832 185.994 211.976C185.722 212.104 185.234 212.168 184.53 212.168C183.378 212.168 182.482 211.84 181.842 211.184C181.202 210.528 180.882 209.6 180.882 208.4C180.882 208.176 180.89 208 180.906 207.872L181.362 201.848H179.778C179.522 201.848 179.322 201.784 179.178 201.656C179.05 201.512 178.986 201.328 178.986 201.104C178.986 200.848 179.058 200.656 179.202 200.528C179.362 200.384 179.578 200.312 179.85 200.312H181.482L181.698 197.576C181.73 197.304 181.834 197.088 182.01 196.928C182.202 196.752 182.442 196.664 182.73 196.664C183.034 196.664 183.266 196.752 183.426 196.928C183.602 197.104 183.674 197.336 183.642 197.624L183.426 200.312H186.066C186.306 200.312 186.498 200.384 186.642 200.528C186.786 200.656 186.858 200.832 186.858 201.056C186.858 201.312 186.786 201.512 186.642 201.656C186.498 201.784 186.29 201.848 186.018 201.848H183.306L182.85 207.776ZM194.721 200.072C194.993 200.04 195.201 200.096 195.345 200.24C195.505 200.368 195.585 200.56 195.585 200.816C195.585 201.392 195.273 201.704 194.649 201.752L194.001 201.824C192.833 201.936 191.953 202.28 191.361 202.856C190.785 203.432 190.457 204.256 190.377 205.328L189.897 211.16C189.881 211.48 189.769 211.72 189.561 211.88C189.369 212.04 189.137 212.12 188.865 212.12C188.593 212.12 188.369 212.04 188.193 211.88C188.017 211.72 187.937 211.48 187.953 211.16L188.793 200.984C188.809 200.696 188.913 200.472 189.105 200.312C189.313 200.152 189.553 200.072 189.825 200.072C190.097 200.072 190.305 200.152 190.449 200.312C190.609 200.456 190.681 200.672 190.665 200.96L190.569 202.208C190.985 201.552 191.513 201.056 192.153 200.72C192.793 200.384 193.561 200.176 194.457 200.096L194.721 200.072ZM201.644 200.024C204.46 200.024 205.868 201.36 205.868 204.032C205.868 204.32 205.86 204.536 205.844 204.68L205.34 211.232C205.324 211.52 205.228 211.744 205.052 211.904C204.876 212.048 204.652 212.12 204.38 212.12C204.092 212.12 203.86 212.032 203.684 211.856C203.508 211.664 203.436 211.432 203.468 211.16L203.54 210.104C203.188 210.76 202.7 211.272 202.076 211.64C201.468 211.992 200.764 212.168 199.964 212.168C198.796 212.168 197.836 211.856 197.084 211.232C196.348 210.592 195.98 209.784 195.98 208.808C195.98 207.928 196.212 207.232 196.676 206.72C197.14 206.192 197.884 205.808 198.908 205.568C199.932 205.328 201.316 205.208 203.06 205.208H203.924L203.972 204.512L203.996 204.056C203.996 203.224 203.788 202.616 203.372 202.232C202.972 201.832 202.348 201.632 201.5 201.632C200.348 201.632 199.108 202.024 197.78 202.808C197.62 202.888 197.492 202.928 197.396 202.928C197.204 202.928 197.044 202.856 196.916 202.712C196.788 202.552 196.724 202.368 196.724 202.16C196.724 201.808 196.876 201.536 197.18 201.344C197.756 200.944 198.444 200.624 199.244 200.384C200.06 200.144 200.86 200.024 201.644 200.024ZM200.372 210.632C201.284 210.632 202.06 210.312 202.7 209.672C203.34 209.032 203.692 208.208 203.756 207.2L203.804 206.456H203.132C201.804 206.456 200.764 206.528 200.012 206.672C199.276 206.8 198.748 207.024 198.428 207.344C198.108 207.648 197.948 208.08 197.948 208.64C197.948 209.248 198.164 209.736 198.596 210.104C199.028 210.456 199.62 210.632 200.372 210.632ZM217.87 200.72C218.046 200.368 218.318 200.192 218.686 200.192C218.926 200.192 219.134 200.272 219.31 200.432C219.502 200.592 219.598 200.792 219.598 201.032C219.598 201.16 219.558 201.304 219.478 201.464L214.246 211.4C214.118 211.64 213.942 211.824 213.718 211.952C213.51 212.08 213.286 212.144 213.046 212.144C212.774 212.144 212.526 212.072 212.302 211.928C212.094 211.784 211.942 211.576 211.846 211.304L208.222 201.416C208.174 201.288 208.15 201.184 208.15 201.104C208.15 200.848 208.254 200.64 208.462 200.48C208.67 200.304 208.902 200.216 209.158 200.216C209.334 200.216 209.494 200.264 209.638 200.36C209.798 200.456 209.91 200.6 209.974 200.792L213.19 209.888L217.87 200.72ZM222.372 206.456V206.552C222.372 207.832 222.684 208.824 223.308 209.528C223.948 210.232 224.868 210.584 226.068 210.584C227.332 210.584 228.444 210.232 229.404 209.528C229.564 209.416 229.724 209.36 229.884 209.36C230.076 209.36 230.228 209.432 230.34 209.576C230.468 209.72 230.532 209.888 230.532 210.08C230.532 210.368 230.404 210.632 230.148 210.872C229.716 211.256 229.108 211.568 228.324 211.808C227.556 212.048 226.772 212.168 225.972 212.168C224.276 212.168 222.924 211.656 221.916 210.632C220.924 209.608 220.428 208.232 220.428 206.504C220.428 205.224 220.66 204.096 221.124 203.12C221.604 202.144 222.276 201.384 223.14 200.84C224.02 200.296 225.036 200.024 226.188 200.024C227.756 200.024 228.956 200.496 229.788 201.44C230.62 202.368 231.036 203.72 231.036 205.496C231.036 205.8 230.956 206.04 230.796 206.216C230.636 206.376 230.42 206.456 230.148 206.456H222.372ZM226.26 201.536C225.188 201.536 224.332 201.856 223.692 202.496C223.052 203.12 222.644 204.024 222.468 205.208H229.284C229.332 204.008 229.084 203.096 228.54 202.472C228.012 201.848 227.252 201.536 226.26 201.536ZM234.112 212.12C233.84 212.12 233.616 212.04 233.44 211.88C233.264 211.72 233.184 211.48 233.2 211.16L234.424 195.848C234.44 195.544 234.552 195.32 234.76 195.176C234.968 195.016 235.208 194.936 235.48 194.936C235.752 194.936 235.968 195.016 236.128 195.176C236.304 195.32 236.384 195.544 236.368 195.848L235.144 211.16C235.128 211.48 235.016 211.72 234.808 211.88C234.616 212.04 234.384 212.12 234.112 212.12ZM239.517 212.12C239.245 212.12 239.021 212.04 238.845 211.88C238.669 211.72 238.589 211.48 238.605 211.16L239.829 195.848C239.845 195.544 239.957 195.32 240.165 195.176C240.373 195.016 240.613 194.936 240.885 194.936C241.157 194.936 241.373 195.016 241.533 195.176C241.709 195.32 241.789 195.544 241.773 195.848L240.549 211.16C240.533 211.48 240.421 211.72 240.213 211.88C240.021 212.04 239.789 212.12 239.517 212.12ZM245.666 206.456V206.552C245.666 207.832 245.978 208.824 246.602 209.528C247.242 210.232 248.162 210.584 249.362 210.584C250.626 210.584 251.738 210.232 252.698 209.528C252.858 209.416 253.018 209.36 253.178 209.36C253.37 209.36 253.522 209.432 253.634 209.576C253.762 209.72 253.826 209.888 253.826 210.08C253.826 210.368 253.698 210.632 253.442 210.872C253.01 211.256 252.402 211.568 251.618 211.808C250.85 212.048 250.066 212.168 249.266 212.168C247.57 212.168 246.218 211.656 245.21 210.632C244.218 209.608 243.722 208.232 243.722 206.504C243.722 205.224 243.954 204.096 244.418 203.12C244.898 202.144 245.57 201.384 246.434 200.84C247.314 200.296 248.33 200.024 249.482 200.024C251.05 200.024 252.25 200.496 253.082 201.44C253.914 202.368 254.33 203.72 254.33 205.496C254.33 205.8 254.25 206.04 254.09 206.216C253.93 206.376 253.714 206.456 253.442 206.456H245.666ZM249.554 201.536C248.482 201.536 247.626 201.856 246.986 202.496C246.346 203.12 245.938 204.024 245.762 205.208H252.578C252.626 204.008 252.378 203.096 251.834 202.472C251.306 201.848 250.546 201.536 249.554 201.536ZM263.262 200.072C263.534 200.04 263.742 200.096 263.886 200.24C264.046 200.368 264.126 200.56 264.126 200.816C264.126 201.392 263.814 201.704 263.19 201.752L262.542 201.824C261.374 201.936 260.494 202.28 259.902 202.856C259.326 203.432 258.998 204.256 258.918 205.328L258.438 211.16C258.422 211.48 258.31 211.72 258.102 211.88C257.91 212.04 257.678 212.12 257.406 212.12C257.134 212.12 256.91 212.04 256.734 211.88C256.558 211.72 256.478 211.48 256.494 211.16L257.334 200.984C257.35 200.696 257.454 200.472 257.646 200.312C257.854 200.152 258.094 200.072 258.366 200.072C258.638 200.072 258.846 200.152 258.99 200.312C259.15 200.456 259.222 200.672 259.206 200.96L259.11 202.208C259.526 201.552 260.054 201.056 260.694 200.72C261.334 200.384 262.102 200.176 262.998 200.096L263.262 200.072Z" fill="white"/>
<path d="M12.024 28.584V36.072H4.608V30.816C4.608 28.8 4.944 26.952 5.616 25.272C6.288 23.544 7.416 21.888 9 20.304L11.736 22.464C9.864 24.48 8.808 26.52 8.568 28.584H12.024ZM24.12 28.584V36.072H16.704V30.816C16.704 28.8 17.04 26.952 17.712 25.272C18.384 23.544 19.512 21.888 21.096 20.304L23.832 22.464C21.96 24.48 20.904 26.52 20.664 28.584H24.12Z" fill="white"/>
<path d="M203.024 134.736V139.992C203.024 142.008 202.688 143.856 202.016 145.536C201.344 147.216 200.216 148.872 198.632 150.504L195.896 148.344C197.768 146.184 198.824 144.12 199.064 142.152H195.608V134.736H203.024ZM215.12 134.736V139.992C215.12 142.008 214.784 143.856 214.112 145.536C213.44 147.216 212.312 148.872 210.728 150.504L207.992 148.344C209.864 146.184 210.92 144.12 211.16 142.152H207.704V134.736H215.12Z" fill="white"/>
</svg>
