<svg width="466" height="466" viewBox="0 0 466 466" fill="none" xmlns="http://www.w3.org/2000/svg">
<path d="M233 370.581C309.481 370.581 371.481 308.582 371.481 232.101C371.481 155.62 309.481 93.6202 233 93.6202C156.519 93.6202 94.5195 155.62 94.5195 232.101C94.5195 308.582 156.519 370.581 233 370.581Z" stroke="#A8A6A6" stroke-dasharray="5"/>
<path opacity="0.35" d="M233 465C361.13 465 465 361.13 465 233C465 104.87 361.13 1 233 1C104.87 1 1 104.87 1 233C1 361.13 104.87 465 233 465Z" stroke="#181F3E" stroke-dasharray="13"/>
<path d="M233.45 407.45C330.044 407.45 408.349 329.145 408.349 232.55C408.349 135.956 330.044 57.6512 233.45 57.6512C136.855 57.6512 58.5503 135.956 58.5503 232.55C58.5503 329.145 136.855 407.45 233.45 407.45Z" stroke="#CFE5FF"/>
</svg>
