<svg width="42" height="42" viewBox="0 0 42 42" fill="none" xmlns="http://www.w3.org/2000/svg">
<path fill-rule="evenodd" clip-rule="evenodd" d="M21.2973 40.6056C32.2389 40.6056 41.1088 31.7396 41.1088 20.8028C41.1088 9.86602 32.2389 1 21.2973 1C10.3557 1 1.48584 9.86602 1.48584 20.8028C1.48584 31.7396 10.3557 40.6056 21.2973 40.6056Z" stroke="#181F3E"/>
<path d="M14.4179 20.2862C14.2226 20.4815 14.2226 20.7981 14.4179 20.9933L17.5999 24.1753C17.7951 24.3706 18.1117 24.3706 18.307 24.1753C18.5022 23.98 18.5022 23.6635 18.307 23.4682L15.4785 20.6398L18.307 17.8113C18.5022 17.6161 18.5022 17.2995 18.307 17.1042C18.1117 16.909 17.7951 16.909 17.5999 17.1042L14.4179 20.2862ZM27.4795 20.1398L14.7714 20.1398L14.7714 21.1398L27.4795 21.1398L27.4795 20.1398Z" fill="black"/>
</svg>
