<svg width="172" height="50" viewBox="0 0 172 50" fill="none" xmlns="http://www.w3.org/2000/svg">
<path d="M1 25C1 11.7452 11.7452 1 25 1H147C160.255 1 171 11.7452 171 25C171 38.2548 160.255 49 147 49H25C11.7452 49 1 38.2548 1 25Z" stroke="white" stroke-width="2"/>
<path fill-rule="evenodd" clip-rule="evenodd" d="M103.076 30.9049C102.288 30.8308 102.121 30.6841 102.121 29.7411L102.127 15.9755C102.222 15.1261 102.445 14.8607 103.188 14.4248H99.7576L97.9605 15.3008H99.8273L99.8365 29.7318V30.2734C99.8365 30.7116 99.7587 30.8131 99.3341 31.3663C99.289 31.425 99.24 31.4888 99.1868 31.5587H103.414L104.302 31.0243C104.097 30.9996 103.892 30.9819 103.686 30.9641L103.686 30.9641L103.685 30.9641L103.685 30.9641L103.685 30.9641C103.483 30.9466 103.28 30.9291 103.076 30.9049ZM112.765 31.0243L113.913 29.9289C114.023 29.8167 113.868 29.8987 113.868 29.8987C113.092 30.2863 112.247 30.6625 111.108 30.6625C108.828 30.6625 106.765 28.868 106.168 25.7824L108.014 25.6371L113.654 23.3319L113.648 23.3125L113.648 23.3125C113.474 22.7499 113.158 21.7224 111.973 20.9297C111.252 20.4686 110.366 20.25 109.503 20.25C107.033 20.25 104.006 22.0956 104.006 25.8587C104.006 27.6762 104.75 29.762 106.453 30.9754C107.678 31.8723 108.88 31.9226 109.646 31.9226C110.366 31.9226 111.176 31.8306 111.973 31.4645C112.149 31.3834 112.324 31.2803 112.501 31.1768L112.501 31.1768L112.501 31.1767C112.589 31.1251 112.677 31.0734 112.765 31.0243ZM111.206 23.1399C111.206 23.478 110.968 23.6232 110.51 23.7915L106.143 25.7091C106.135 25.56 106.124 25.4109 106.113 25.2628L106.113 25.2621L106.113 25.2621L106.113 25.262L106.113 25.262C106.092 24.9775 106.071 24.6971 106.071 24.4281C106.071 21.8057 107.87 21.0505 108.828 21.0505C110.122 21.0505 111.206 22.1704 111.206 23.1399ZM95.5649 21.4411C96.1158 21.8992 97.2653 22.8716 97.2653 24.7158C97.2653 26.5132 96.2637 27.3604 95.2535 28.1624L95.2104 28.2062C94.911 28.5101 94.581 28.8449 94.581 29.3499C94.581 29.8771 94.9301 30.1674 95.1897 30.3833L95.2045 30.3957L96.071 31.0725C97.1245 31.9722 98.0849 32.7972 98.0849 34.4731C98.0849 36.756 95.9011 39.0583 91.7745 39.0583C88.2983 39.0583 86.6178 37.3831 86.6178 35.5872C86.6178 34.7133 87.0479 33.4755 88.4668 32.6275C89.9343 31.7197 91.9153 31.588 93.0043 31.5155L93.0477 31.5127L92.9975 31.4473C92.6737 31.0263 92.3261 30.5743 92.3261 29.8591C92.3261 29.491 92.424 29.2559 92.5292 29.0034C92.5415 28.9737 92.554 28.9437 92.5664 28.9133L92.5496 28.9149C92.2928 28.9396 92.0345 28.9644 91.7994 28.9644C89.2552 28.9644 87.8171 27.044 87.8171 25.1516C87.8171 24.0354 88.3204 22.7968 89.354 21.8992C90.7217 20.7599 92.3524 20.5636 93.6484 20.5636H98.5918L97.0549 21.4411H95.5649ZM93.3128 32.1902C93.5503 32.1902 93.6683 32.1902 93.8652 32.2161C95.685 33.5287 96.4762 34.1818 96.4762 35.4196C96.4762 36.9235 95.2535 38.0405 92.9503 38.0405C90.3869 38.0405 88.7298 36.7998 88.7298 35.0794C88.7298 33.3554 90.2646 32.7749 90.7956 32.5786C91.7994 32.2377 93.0953 32.1902 93.3128 32.1902ZM95.1576 25.8306C95.1576 26.2701 95.1092 27.044 94.5547 27.6043C94.1751 27.9883 93.5282 28.284 92.9268 28.284C90.866 28.284 89.9291 25.5882 89.9291 23.9627C89.9291 23.3319 90.0506 22.676 90.4566 22.1704C90.839 21.682 91.5129 21.3662 92.1349 21.3662C94.1289 21.3662 95.1576 24.085 95.1576 25.8306ZM74.8387 26.1478C74.8387 28.868 76.8789 31.8723 80.692 31.8723C84.6039 31.8723 86.787 28.8414 86.787 25.9766C86.787 23.0435 84.5783 20.25 81.0517 20.25C77.4035 20.25 74.8387 22.9694 74.8387 26.1478ZM83.6919 29.9087C84.2719 29.1319 84.4127 28.1624 84.4127 27.2173C84.4127 25.0797 83.4061 21.003 80.4311 21.003C79.6399 21.003 78.843 21.3159 78.2686 21.8266C77.3317 22.676 77.1646 23.7434 77.1646 24.7906C77.1646 27.1885 78.3362 31.1437 81.2436 31.1437C82.182 31.1437 83.1395 30.6841 83.6919 29.9087ZM67.9254 31.8723C64.1116 31.8723 62.0749 28.868 62.0749 26.1478C62.0749 22.9694 64.6405 20.25 68.2872 20.25C71.8118 20.25 74.0183 23.0435 74.0183 25.9766C74.0183 28.8414 71.8381 31.8723 67.9254 31.8723ZM71.6454 27.2173C71.6454 28.1624 71.5018 29.1319 70.926 29.9087C70.3722 30.6841 69.4161 31.1437 68.4799 31.1437C65.5774 31.1437 64.4009 27.1885 64.4009 24.7906C64.4009 23.7434 64.5672 22.676 65.5056 21.8266C66.0814 21.3159 66.8698 21.003 67.6638 21.003C70.636 21.003 71.6454 25.0797 71.6454 27.2173ZM57.3341 31.7752L60.5501 31.03V28.2559C60.5501 28.0243 60.5721 27.3655 60.5956 27.1583C60.6397 26.9771 60.661 26.9311 60.8181 26.7958L61.401 26.2284H56.6353L54.8354 27.2065L58.2312 27.0217V30.6898C57.558 30.9631 56.8166 31.2559 55.3764 31.2559C50.4749 31.2559 47.4188 27.231 47.4188 22.9522C47.4188 18.9683 50.0953 16.2395 53.6433 16.2395C56.2912 16.2395 57.6892 17.6209 58.4509 18.3736L58.4559 18.3785L57.8943 19.284L58.6819 19.1057L60.5501 17.3104L60.4802 17.2612C59.9831 16.9104 59.1916 16.3519 57.5836 15.8949C56.5202 15.6015 55.3529 15.421 54.1394 15.421C48.4041 15.421 45.0552 19.5149 45.0552 23.9304C45.0552 27.546 47.4188 32.1657 53.6219 32.1657C54.861 32.1657 56.0311 31.983 57.3341 31.7752ZM120.827 30.0324V36.2144H119.614V20.4837H120.827V22.2754C121.618 21.1174 123.062 20.1996 124.74 20.1996C127.749 20.1996 129.776 22.5091 129.776 26.1651C129.776 29.7965 127.749 32.1542 124.74 32.1542C123.156 32.1542 121.737 31.3278 120.827 30.0324ZM124.535 21.308C127.052 21.308 128.472 23.4096 128.472 26.1651C128.472 28.9248 127.052 31.0444 124.535 31.0444C122.972 31.0444 121.477 29.7563 120.827 28.6702V23.6348C121.477 22.5508 122.972 21.308 124.535 21.308ZM132.645 16.1402H131.433V31.8708H132.645V16.1402ZM146.262 35.1973C146.521 35.3146 146.964 35.3865 147.245 35.3865C147.987 35.3865 148.504 35.0794 148.968 33.9948L149.853 31.9658L145.073 20.4837H146.426L150.527 30.4338L154.587 20.4837H155.96L150.13 34.3753C149.525 35.8066 148.573 36.4949 147.266 36.4949C146.874 36.4949 146.356 36.4244 146.053 36.3302L146.262 35.1973ZM142.53 30.8035C142.575 31.0941 142.636 31.4422 142.717 31.837H144.115C144.007 31.4695 143.925 31.0897 143.874 30.7093C143.824 30.3295 143.805 29.9397 143.805 29.5362V23.9189C143.805 22.7163 143.4 21.7964 142.594 21.1598C141.787 20.5168 140.717 20.1946 139.394 20.1946C138.067 20.1946 136.988 20.5219 136.165 21.1728C135.338 21.8244 134.949 22.5789 134.994 23.4391L135.02 23.5003H136.262C136.262 22.8623 136.544 22.3329 137.104 21.9057C137.669 21.4871 138.411 21.272 139.326 21.272C140.327 21.272 141.099 21.5072 141.649 21.9726C142.197 22.4372 142.472 23.0781 142.472 23.893V25.3077H139.642C138.125 25.3077 136.899 25.6242 135.951 26.2607C135.003 26.8944 134.527 27.7229 134.527 28.7436C134.527 29.7656 134.856 30.5733 135.508 31.1696C136.163 31.7665 137.081 32.0607 138.263 32.0607C139.245 32.0607 139.96 31.8608 140.714 31.453C141.467 31.048 142.056 30.5338 142.472 29.9159C142.472 30.2173 142.493 30.5136 142.53 30.8035ZM138.411 30.9423C139.442 30.9423 140.183 30.7093 140.94 30.2482C141.692 29.7901 142.204 29.1924 142.472 28.4688V26.2823H139.628C138.542 26.2823 137.643 26.5254 136.936 27.0159C136.227 27.505 135.868 28.097 135.868 28.7853C135.868 29.4347 136.095 29.954 136.547 30.3475C137.001 30.7452 137.621 30.9423 138.411 30.9423Z" fill="white"/>
<path fill-rule="evenodd" clip-rule="evenodd" d="M15.6447 36.165C15.2542 36.0598 15 35.6721 15 35.0721V15.2667C15 14.711 15.2152 14.3362 15.5564 14.2L25.2892 25.2372L15.6447 36.165ZM16.9845 35.7446L28.6997 29.1048L25.8463 25.869L16.9845 35.7446ZM28.7804 21.2815L17.2285 14.7327L25.8632 24.5868L28.7804 21.2815ZM29.5642 21.7258L34.0896 24.2912C34.9464 24.777 34.9543 25.56 34.0896 26.05L29.4497 28.6798L26.4233 25.226L29.5642 21.7258Z" fill="white"/>
</svg>
