<svg width="150" height="56" viewBox="0 0 150 56" fill="none" xmlns="http://www.w3.org/2000/svg">
<path fill-rule="evenodd" clip-rule="evenodd" d="M33.5907 16.6945C28.5668 16.6945 24.5168 20.7847 24.5168 25.7819C24.5168 30.7213 28.5668 34.8115 33.5907 34.8115C38.6123 34.8115 42.6645 30.7213 42.6645 25.7819C42.6645 20.7847 38.6123 16.6945 33.5907 16.6945M33.5908 41.3981C24.9146 41.3981 17.8959 34.3558 17.8959 25.7819C17.8959 17.1502 24.9146 10.1079 33.5908 10.1079C42.2648 10.1079 49.3417 17.1502 49.3417 25.7819C49.3417 34.3558 42.2648 41.3981 33.5908 41.3981" fill="white"/>
<path fill-rule="evenodd" clip-rule="evenodd" d="M60.9792 12.379C62.9204 11.2431 65.1453 10.6184 67.4841 10.6184C69.3695 10.6184 70.8527 12.0967 70.8527 13.9106C70.8527 15.729 69.3695 17.205 67.4841 17.205C63.8318 17.205 61.0953 20.1593 61.0953 24.1917V37.9339C61.0953 39.7523 59.6098 41.2284 57.7848 41.2284C55.9575 41.2284 54.4742 39.7523 54.4742 37.9339V24.3807C54.4742 24.3807 53.8085 16.0802 60.9792 12.379" fill="white"/>
<path fill-rule="evenodd" clip-rule="evenodd" d="M83.1781 13.231V37.9346C83.1781 39.7529 81.6948 41.229 79.8117 41.229C77.9844 41.229 76.5011 39.7529 76.5011 37.9346V13.231C76.5011 11.4126 77.9844 9.93659 79.8117 9.93659C81.6948 9.93659 83.1781 11.4126 83.1781 13.231M76.2731 3.34998C76.2731 1.41824 77.8703 0 79.8115 0C81.8085 0 83.3476 1.41824 83.4057 3.34998C83.3476 5.27949 81.8085 6.69995 79.8115 6.69995C77.8703 6.69995 76.2731 5.27949 76.2731 3.34998" fill="white"/>
<path fill-rule="evenodd" clip-rule="evenodd" d="M112.68 25.5538C112.68 20.3299 109.198 16.5242 104.348 16.5242C99.554 16.5242 96.0715 20.3299 96.0715 25.5538C96.0715 30.7799 99.554 34.5834 104.348 34.5834C109.198 34.5834 112.68 30.7799 112.68 25.5538M104.348 9.93774C108.57 9.93774 112.394 11.5827 115.191 14.5948C117.872 17.4913 119.301 21.4081 119.301 25.5539C119.301 29.7575 117.872 33.6188 115.191 36.5153C112.394 39.5251 108.57 41.2279 104.348 41.2279C101.323 41.2279 98.4707 40.3209 96.0716 38.7293V52.1315C96.0716 53.9476 94.5325 55.4259 92.7074 55.4259C90.8802 55.4259 89.3969 53.9476 89.3969 52.1315V29.8109C89.3969 26.5565 89.3366 22.6708 89.9821 20.2589C91.6687 13.9657 97.4186 9.93774 104.348 9.93774" fill="white"/>
<path fill-rule="evenodd" clip-rule="evenodd" d="M146.689 9.93677C144.867 9.93677 143.381 11.4128 143.381 13.2312V27.6559C143.381 31.0058 141.44 34.6403 137.218 34.6403C132.994 34.6403 131.053 31.0058 131.053 27.6559V13.2312C131.053 11.4128 129.569 9.93677 127.744 9.93677C125.917 9.93677 124.434 11.4128 124.434 13.2312V27.6559C124.434 35.3784 129.911 41.2292 137.218 41.2292C144.52 41.2292 150 35.3784 150 27.6559V13.2312C150 11.4128 148.517 9.93677 146.689 9.93677" fill="white"/>
<path fill-rule="evenodd" clip-rule="evenodd" d="M0 6.47311C0 4.65697 1.4855 3.17871 3.36863 3.17871C5.19368 3.17871 6.67695 4.65697 6.67695 6.47311V10.1076H10.9011C12.7262 10.1076 14.2095 11.5837 14.2095 13.402C14.2095 15.2182 12.7262 16.6964 10.9011 16.6964H6.67695V33.0506C6.67695 34.0176 7.42082 34.8112 8.39031 34.8112C9.07386 34.8112 9.5318 34.4133 9.70381 34.1866C10.9011 32.8239 13.0121 32.6527 14.3815 33.8465C15.8089 34.9824 15.9787 37.0831 14.7813 38.5035C13.1819 40.3197 10.8431 41.3978 8.39031 41.3978C3.76849 41.3978 0 37.6499 0 33.0506V6.47311Z" fill="white"/>
</svg>
