<svg width="1439" height="678" viewBox="0 0 1439 678" fill="none" xmlns="http://www.w3.org/2000/svg">
<rect x="-1" width="1440" height="678" fill="url(#paint0_linear)"/>
<mask id="mask0" mask-type="alpha" maskUnits="userSpaceOnUse" x="-1" y="0" width="1440" height="678">
<rect x="-1" width="1440" height="678" rx="5" fill="white"/>
</mask>
<g mask="url(#mask0)">
<path fill-rule="evenodd" clip-rule="evenodd" d="M1474.7 268.34C1328.5 268.34 1210.63 387.846 1210.63 533.852C1210.63 678.169 1328.5 797.675 1474.7 797.675C1620.84 797.675 1738.77 678.169 1738.77 533.852C1738.77 387.846 1620.84 268.34 1474.7 268.34ZM1474.47 990C1222.13 990 1018 784.162 1018 533.558C1018 281.264 1222.13 75.4264 1474.47 75.4264C1726.75 75.4265 1932.57 281.264 1932.57 533.558C1932.57 784.163 1726.75 990 1474.47 990Z" fill="url(#paint1_linear)"/>
<path fill-rule="evenodd" clip-rule="evenodd" d="M33.7009 -212.087C-112.505 -212.087 -230.366 -92.5803 -230.366 53.4253C-230.366 197.742 -112.505 317.249 33.7008 317.249C179.841 317.249 297.768 197.742 297.768 53.4254C297.768 -92.5802 179.841 -212.087 33.7009 -212.087ZM33.4747 509.574C-218.866 509.574 -423 303.736 -423 53.1315C-423 -199.162 -218.866 -405 33.4749 -405C285.751 -405 491.574 -199.162 491.574 53.1317C491.574 303.736 285.751 509.574 33.4747 509.574Z" fill="url(#paint2_linear)"/>
</g>
<mask id="mask1" mask-type="alpha" maskUnits="userSpaceOnUse" x="-1" y="0" width="1440" height="678">
<rect x="-1" width="1440" height="678" rx="5" fill="white"/>
</mask>
<g mask="url(#mask1)">
</g>
<defs>
<linearGradient id="paint0_linear" x1="1470.2" y1="-9.41668" x2="146.867" y2="957.6" gradientUnits="userSpaceOnUse">
<stop stop-color="#00C7FF"/>
<stop offset="1" stop-color="#09B3FF"/>
</linearGradient>
<linearGradient id="paint1_linear" x1="1968.43" y1="990" x2="1968.43" y2="75.4265" gradientUnits="userSpaceOnUse">
<stop stop-color="#00C7FF"/>
<stop offset="1" stop-color="#09B3FF"/>
</linearGradient>
<linearGradient id="paint2_linear" x1="527.425" y1="509.574" x2="527.425" y2="-405" gradientUnits="userSpaceOnUse">
<stop stop-color="#00C7FF"/>
<stop offset="1" stop-color="#09B3FF"/>
</linearGradient>
</defs>
</svg>
