<svg width="237" height="169" viewBox="0 0 237 169" fill="none" xmlns="http://www.w3.org/2000/svg">
<path opacity="0.1" d="M137.47 26.744C122.302 26.206 107.854 21.1895 94.06 15.7021C80.2657 10.2146 66.5991 4.13249 51.7955 1.22439C42.2727 -0.645246 31.3825 -0.909047 23.7107 4.31882C16.3256 9.34361 13.9407 18.0407 12.6593 26.0929C11.694 32.1645 11.1266 38.5397 13.769 44.2177C15.6053 48.1601 18.8655 51.4722 21.1206 55.2471C28.962 68.3848 23.4238 84.5856 14.9186 97.4134C10.9402 103.431 6.30653 109.171 3.23066 115.576C0.154787 121.98 -1.26903 129.321 1.42157 135.855C4.09123 142.333 10.4482 147.197 17.3349 150.618C31.3239 157.569 47.8088 159.557 63.8833 160.684C99.4663 163.177 135.24 162.097 170.917 161.017C184.121 160.615 197.381 160.211 210.372 158.119C217.583 156.957 225.028 155.115 230.263 150.664C236.911 145.011 238.559 135.449 234.103 128.366C226.639 116.489 205.979 113.541 200.757 100.786C197.882 93.7684 200.834 85.9507 205.011 79.431C213.973 65.4684 228.994 53.2184 229.786 37.2563C230.33 26.2939 223.108 15.3147 211.944 10.1287C200.239 4.68521 184.012 5.37612 175.377 14.3747C166.486 23.6559 150.862 27.2214 137.47 26.744Z" fill="#09B3FF"/>
<path opacity="0.1" d="M178.669 168.303C189.446 168.303 198.182 166.937 198.182 165.254C198.182 163.57 189.446 162.205 178.669 162.205C167.892 162.205 159.156 163.57 159.156 165.254C159.156 166.937 167.892 168.303 178.669 168.303Z" fill="#6C63FF"/>
<path d="M134.764 162.814L97.5669 162.341L97.6775 161.392L99.4749 145.74H132.142L134.545 161.392L134.729 162.578L134.764 162.814Z" fill="#D0D2D5"/>
<path opacity="0.1" d="M134.764 162.815H116.184L97.5669 162.571L97.6776 161.595H134.58L134.764 162.815Z" fill="black"/>
<path d="M140.862 161.595H91.4688V162.815H140.862V161.595Z" fill="#D0D2D5"/>
<path d="M188.426 50.7034C188.428 50.2932 188.35 49.8865 188.195 49.5066C188.04 49.1267 187.813 48.7811 187.525 48.4895C187.237 48.1979 186.894 47.9661 186.517 47.8073C186.14 47.6484 185.735 47.5656 185.326 47.5637H47.0055C46.1792 47.5682 45.3885 47.9014 44.8071 48.4901C44.2258 49.0789 43.9014 49.875 43.9053 50.7034V134.764H188.426V50.7034Z" fill="#444053"/>
<path d="M43.9053 134.154V143.887C43.9053 144.702 44.2319 145.484 44.8133 146.06C45.3947 146.636 46.1833 146.96 47.0055 146.96H185.326C185.733 146.96 186.136 146.881 186.512 146.727C186.889 146.572 187.231 146.346 187.519 146.061C187.807 145.775 188.035 145.436 188.191 145.063C188.346 144.691 188.426 144.291 188.426 143.887V134.154H43.9053Z" fill="#D0D2D5"/>
<path d="M182.938 53.052H50.0029V128.666H182.938V53.052Z" fill="white"/>
<path opacity="0.1" d="M120.129 146.96L134.764 161.595L132.518 146.96H120.129Z" fill="black"/>
<path opacity="0.1" d="M182.938 53.052H49.3931V57.3205H182.938V53.052Z" fill="#444053"/>
<path d="M54.1154 53.6616H50.7689C50.6827 53.6616 50.6128 53.7449 50.6128 53.8476V56.5246C50.6128 56.6273 50.6827 56.7106 50.7689 56.7106H54.1154C54.2016 56.7106 54.2715 56.6273 54.2715 56.5246V53.8476C54.2715 53.7449 54.2016 53.6616 54.1154 53.6616Z" fill="#09B3FF"/>
<path opacity="0.3" d="M135.862 53.6616H95.8589C95.7918 53.6616 95.7373 53.7235 95.7373 53.7999V56.5723C95.7373 56.6487 95.7918 56.7106 95.8589 56.7106H135.862C135.929 56.7106 135.984 56.6487 135.984 56.5723V53.7999C135.984 53.7235 135.929 53.6616 135.862 53.6616Z" fill="#09B3FF"/>
<path d="M134.848 55.4182H134.764L134.734 55.3931C134.837 55.2677 134.895 55.1101 134.896 54.947C134.895 54.8127 134.855 54.6816 134.78 54.5703C134.705 54.459 134.599 54.3726 134.476 54.3218C134.352 54.2711 134.216 54.2583 134.085 54.2852C133.954 54.3121 133.834 54.3775 133.74 54.4729C133.646 54.5684 133.582 54.6897 133.557 54.8216C133.531 54.9535 133.545 55.0899 133.597 55.2137C133.649 55.3375 133.736 55.4431 133.848 55.5172C133.959 55.5912 134.09 55.6303 134.224 55.6296C134.385 55.6272 134.541 55.5697 134.666 55.4666L134.696 55.4917V55.5759L135.219 56.1009L135.374 55.9432L134.848 55.4182ZM134.224 55.4182C134.131 55.4186 134.039 55.3911 133.962 55.3392C133.884 55.2874 133.823 55.2135 133.787 55.127C133.752 55.0405 133.742 54.9453 133.76 54.8533C133.778 54.7614 133.823 54.677 133.889 54.6107C133.955 54.5444 134.039 54.4994 134.131 54.4812C134.222 54.463 134.317 54.4725 134.403 54.5085C134.489 54.5445 134.563 54.6054 134.614 54.6835C134.666 54.7616 134.693 54.8533 134.693 54.947C134.693 55.009 134.681 55.0705 134.658 55.1279C134.635 55.1853 134.6 55.2374 134.556 55.2812C134.513 55.3251 134.461 55.3598 134.404 55.3833C134.347 55.4068 134.285 55.4187 134.224 55.4182Z" fill="#444053"/>
<path d="M181.108 56.7106C181.782 56.7106 182.328 56.0281 182.328 55.1861C182.328 54.3442 181.782 53.6616 181.108 53.6616C180.435 53.6616 179.889 54.3442 179.889 55.1861C179.889 56.0281 180.435 56.7106 181.108 56.7106Z" fill="#09B3FF"/>
<path opacity="0.1" d="M146.778 74.3945H85.5521C83.4315 74.3945 81.7119 75.9982 81.7119 77.9755V111.67C81.7119 113.647 83.4315 115.251 85.5521 115.251H146.778C148.899 115.251 150.618 113.647 150.618 111.67V77.9755C150.618 75.9982 148.899 74.3945 146.778 74.3945Z" fill="black"/>
<path opacity="0.7" d="M144.274 72.5652H88.0569C85.8999 72.5652 84.1514 74.2936 84.1514 76.4256V108.951C84.1514 111.083 85.8999 112.811 88.0569 112.811H144.274C146.431 112.811 148.18 111.083 148.18 108.951V76.4256C148.18 74.2936 146.431 72.5652 144.274 72.5652Z" fill="#181F3E"/>
<path opacity="0.3" d="M100.203 95.1274H91.8815C91.3167 95.1274 90.8589 95.6037 90.8589 96.1912V97.7225C90.8589 98.31 91.3167 98.7862 91.8815 98.7862H100.203C100.768 98.7862 101.225 98.31 101.225 97.7225V96.1912C101.225 95.6037 100.768 95.1274 100.203 95.1274Z" fill="#09B3FF"/>
<path opacity="0.3" d="M113.679 95.1274H105.847C105.315 95.1274 104.884 95.6037 104.884 96.1912V97.7225C104.884 98.31 105.315 98.7862 105.847 98.7862H113.679C114.21 98.7862 114.641 98.31 114.641 97.7225V96.1912C114.641 95.6037 114.21 95.1274 113.679 95.1274Z" fill="#09B3FF"/>
<path opacity="0.3" d="M118.488 102.445H111.404C110.834 102.445 110.373 102.876 110.373 103.408V103.921C110.373 104.453 110.834 104.884 111.404 104.884H118.488C119.058 104.884 119.519 104.453 119.519 103.921V103.408C119.519 102.876 119.058 102.445 118.488 102.445Z" fill="#09B3FF"/>
<path opacity="0.3" d="M127.644 95.1274H119.322C118.758 95.1274 118.3 95.6037 118.3 96.1912V97.7225C118.3 98.31 118.758 98.7862 119.322 98.7862H127.644C128.208 98.7862 128.666 98.31 128.666 97.7225V96.1912C128.666 95.6037 128.208 95.1274 127.644 95.1274Z" fill="#09B3FF"/>
<path opacity="0.3" d="M141.059 95.1274H132.737C132.173 95.1274 131.715 95.6037 131.715 96.1912V97.7225C131.715 98.31 132.173 98.7862 132.737 98.7862H141.059C141.623 98.7862 142.081 98.31 142.081 97.7225V96.1912C142.081 95.6037 141.623 95.1274 141.059 95.1274Z" fill="#09B3FF"/>
<path d="M98.1871 87.2002H92.6779C92.3469 87.2002 92.0786 87.4685 92.0786 87.7995V93.3086C92.0786 93.6396 92.3469 93.9079 92.6779 93.9079H98.1871C98.518 93.9079 98.7863 93.6396 98.7863 93.3086V87.7995C98.7863 87.4685 98.518 87.2002 98.1871 87.2002Z" fill="#09B3FF"/>
<path d="M96.347 91.4688H94.5176V89.6394H96.347V91.4688ZM94.5913 91.3933H96.2697V89.7149H94.5913V91.3933Z" fill="#09B3FF"/>
<path d="M95.7372 87.2002H95.1274V89.6394H95.7372V87.2002Z" fill="#454B69"/>
<path d="M95.7372 91.4688H95.1274V93.9079H95.7372V91.4688Z" fill="#454B69"/>
<path d="M94.4542 89.6395L93.7546 88.56H92.0786V88.4199H93.7916L94.5178 89.5408L94.4542 89.6395Z" fill="#454B69"/>
<path d="M96.409 89.6395L96.3472 89.5376L97.1936 88.4199H98.7863V88.56H97.2299L96.409 89.6395Z" fill="#454B69"/>
<path d="M93.7922 92.6883H92.0786V92.5655H93.7512L94.4501 91.4688L94.5178 91.5497L93.7922 92.6883Z" fill="#454B69"/>
<path d="M98.7863 92.6883H97.1929L96.3472 91.5551L96.4132 91.4688L97.2334 92.5658H98.7863V92.6883Z" fill="#454B69"/>
<path d="M109.508 75.6143H91.7234C91.246 75.6143 90.8589 75.9533 90.8589 76.3714V77.9061C90.8589 78.3242 91.246 78.6632 91.7234 78.6632H109.508C109.985 78.6632 110.372 78.3242 110.372 77.9061V76.3714C110.372 75.9533 109.985 75.6143 109.508 75.6143Z" fill="#09B3FF"/>
<g opacity="0.1">
<path opacity="0.1" d="M139.831 136.794C139.885 136.703 139.973 136.638 140.076 136.612C140.181 136.597 140.212 136.731 140.172 136.821C140.545 137.869 140.927 138.948 141.561 139.872C141.773 140.144 141.962 140.433 142.125 140.737C142.244 141.025 142.34 141.322 142.41 141.626C142.745 142.713 143.198 143.761 143.761 144.75C143.832 144.877 143.872 145.019 143.879 145.164C143.886 145.309 143.859 145.454 143.801 145.588C143.533 146.174 143.751 146.753 143.868 147.327C144.03 148.129 143.998 148.961 144.036 149.772C144.036 150.025 144.036 150.279 144.051 150.532C144.078 151.078 144.072 151.626 144.032 152.171C143.988 152.55 143.896 152.923 143.822 153.296C143.093 156.797 143.885 160.487 144.151 164.055C144.17 164.274 144.121 164.493 144.013 164.683C143.694 165.226 143.849 165.836 144.013 166.404C144.109 166.881 144.304 167.334 144.585 167.732C144.666 167.823 144.737 167.924 144.794 168.032C144.897 168.258 144.794 168.526 144.715 168.763C145.282 168.854 145.854 168.915 146.429 168.945C145.684 168.951 144.94 168.89 144.206 168.763C144.277 168.526 144.386 168.258 144.283 168.032C144.224 167.922 144.15 167.821 144.063 167.732C143.784 167.333 143.589 166.881 143.491 166.404C143.336 165.836 143.181 165.226 143.491 164.683C143.6 164.493 143.649 164.274 143.632 164.055C143.365 160.493 142.571 156.797 143.303 153.296C143.38 152.923 143.472 152.55 143.512 152.171C143.552 151.626 143.559 151.078 143.533 150.532C143.533 150.279 143.523 150.025 143.516 149.772C143.479 148.961 143.516 148.129 143.349 147.327C143.233 146.753 143.016 146.174 143.284 145.588C143.341 145.454 143.368 145.309 143.361 145.164C143.354 145.019 143.314 144.877 143.244 144.75C142.679 143.761 142.226 142.713 141.89 141.626C141.82 141.322 141.725 141.025 141.605 140.737C141.442 140.434 141.254 140.144 141.044 139.872C140.436 138.99 140.061 137.976 139.705 136.966C139.751 136.913 139.789 136.853 139.831 136.794Z" fill="black"/>
</g>
<g opacity="0.1">
<path opacity="0.1" d="M130.853 127.82C130.852 127.827 130.852 127.833 130.853 127.839C130.943 127.98 131.161 127.898 131.299 127.801L131.995 127.322C132.924 127.449 133.862 127.494 134.798 127.456C137.461 127.418 140.126 127.523 142.783 127.709C143.671 127.772 144.587 127.839 145.425 127.544C145.844 127.393 146.242 127.154 146.682 127.032C146.834 127.004 146.981 126.952 147.116 126.877C147.166 127.016 147.215 127.154 147.259 127.296C147.357 127.613 147.422 128.007 147.179 128.231C147.032 128.339 146.862 128.411 146.682 128.44C146.247 128.56 145.844 128.801 145.425 128.952C144.587 129.247 143.671 129.18 142.783 129.117C140.126 128.931 137.461 128.826 134.798 128.864C133.863 128.901 132.926 128.855 131.999 128.728L131.303 129.209C131.165 129.306 130.947 129.388 130.857 129.247C130.829 129.192 130.818 129.129 130.826 129.067C130.836 128.652 130.845 128.237 130.853 127.82Z" fill="black"/>
<path opacity="0.1" d="M146.06 115.027C145.939 114.343 145.712 113.683 145.385 113.07L145.123 115.14C145.106 115.27 145.09 115.4 145.075 115.53C145.041 115.232 145.029 114.933 145.037 114.633C145.037 114.333 145.085 114.034 145.123 113.736L145.385 111.666C145.712 112.279 145.939 112.939 146.06 113.623C146.298 114.645 146.591 115.653 146.94 116.642C147.137 117.24 147.334 117.837 147.547 118.428C147.684 118.766 147.788 119.117 147.859 119.475C147.906 119.762 147.908 120.055 147.941 120.343C148.01 120.962 148.226 121.556 148.57 122.075C148.633 122.197 148.738 122.29 148.865 122.339C148.951 122.355 149.039 122.351 149.123 122.329C150.049 122.146 150.946 121.835 151.788 121.407C151.899 121.352 152.004 121.286 152.1 121.208C152.211 121.627 152.465 122.086 152.238 122.455C152.122 122.61 151.967 122.731 151.788 122.807C150.946 123.235 150.049 123.545 149.123 123.728C149.038 123.747 148.95 123.747 148.865 123.728C148.738 123.68 148.633 123.586 148.57 123.464C148.226 122.945 148.011 122.351 147.941 121.732C147.908 121.445 147.906 121.151 147.859 120.864C147.788 120.506 147.684 120.155 147.547 119.817C147.338 119.224 147.128 118.629 146.94 118.032C146.592 117.047 146.298 116.044 146.06 115.027Z" fill="black"/>
<path opacity="0.1" d="M145.844 120.732C145.844 120.824 145.844 120.919 145.844 121.013C145.848 120.919 145.846 120.826 145.844 120.732Z" fill="black"/>
<path opacity="0.1" d="M130.648 124.256C130.878 124.862 130.87 125.528 130.857 126.176C130.857 126.345 130.857 126.513 130.857 126.683C130.839 126.333 130.769 125.988 130.648 125.66C130.551 125.409 130.415 125.174 130.329 124.921C130.182 124.477 130.188 123.997 130.346 123.557C130.432 123.795 130.555 124.02 130.648 124.256Z" fill="black"/>
<path opacity="0.1" d="M119.65 110.007L119.769 109.852L120.398 110.899C120.651 111.367 120.962 111.802 121.322 112.194C121.688 112.587 122.188 112.83 122.723 112.875C123.061 112.872 123.395 112.808 123.71 112.687C125.177 112.194 126.507 111.413 127.901 110.746C128.148 110.603 128.424 110.519 128.709 110.499C128.854 110.496 128.996 110.541 129.113 110.625C129.23 110.71 129.316 110.83 129.359 110.969C129.518 111.771 129.675 112.571 129.893 113.359C130.101 114.105 130.293 114.853 130.469 115.603C130.588 116.064 130.672 116.532 130.721 117.005C130.744 117.273 130.746 117.543 130.748 117.812L130.78 121.065C130.78 121.113 130.776 121.161 130.767 121.208L130.748 119.215C130.748 118.945 130.748 118.677 130.721 118.409C130.672 117.936 130.588 117.467 130.469 117.007C130.291 116.257 130.099 115.509 129.893 114.763C129.684 113.975 129.518 113.175 129.359 112.37C129.316 112.232 129.23 112.112 129.112 112.028C128.995 111.944 128.854 111.9 128.709 111.903C128.421 111.919 128.14 112.001 127.888 112.144C126.501 112.81 125.164 113.592 123.698 114.082C123.383 114.205 123.049 114.27 122.711 114.273C122.175 114.227 121.676 113.985 121.309 113.592C120.949 113.199 120.639 112.765 120.385 112.297C120.132 111.867 119.876 111.44 119.62 111.01C119.478 110.772 119.287 110.495 119.367 110.227C119.484 110.189 119.584 110.111 119.65 110.007Z" fill="black"/>
</g>
<path d="M206.772 96.5665C206.868 96.3037 206.146 94.8458 206.146 94.7743C206.146 94.7027 205.4 93.8899 205.4 93.436C205.4 92.982 204.413 92.0027 204.413 92.0027C204.413 92.0027 203.09 91.4526 202.946 90.2573C202.801 89.0621 201.361 89.0387 201.357 89.0387C201.357 89.0387 201.363 88.9289 201.366 88.7649C201.366 88.3948 201.355 87.7288 201.188 87.3661C200.941 86.8407 200.369 86.6729 200.369 86.6729C200.369 86.6729 200.225 85.7404 199.936 85.453C199.775 85.2845 199.659 85.0775 199.6 84.8517C199.541 84.6259 199.541 84.3888 199.599 84.1628C199.744 83.7101 199.407 82.5593 198.709 82.3953C198.011 82.2312 197.216 81.9648 197.216 81.9648C197.216 81.9648 197.139 81.9796 197.024 81.9956L196.928 81.9648C196.76 81.9959 196.592 82.0169 196.422 82.0277C196.274 82.0318 196.13 81.9843 196.014 81.8933C195.767 81.6305 193.824 81.1285 193.463 81.1285C193.101 81.1285 192.067 80.6499 192.067 80.6499C192.067 80.6499 191.345 80.101 191.033 79.8618C190.742 79.641 190.205 78.7442 190.128 78.6123L190.118 78.595H190.112C190.038 78.4252 189.975 78.2509 189.923 78.0732C189.912 78.0362 189.903 77.9992 189.893 77.9622C190.245 77.5926 190.546 77.1778 190.789 76.7288C190.813 76.6819 190.836 76.6338 190.859 76.5869C190.912 76.5868 190.965 76.5785 191.016 76.5623C191.037 76.5551 191.058 76.5469 191.079 76.5376C191.322 76.4091 191.506 76.1898 191.589 75.927C191.606 75.8752 191.621 75.8222 191.635 75.7691L191.646 75.7161C191.655 75.6803 191.662 75.6433 191.669 75.6063C191.677 75.5693 191.676 75.5656 191.679 75.5447C191.683 75.5237 191.69 75.4731 191.695 75.4373C191.7 75.4016 191.695 75.3966 191.704 75.3769C191.71 75.3313 191.715 75.2869 191.721 75.2412C191.741 75.0722 191.761 74.9033 191.796 74.738C191.796 74.7355 191.796 74.733 191.796 74.7306C191.94 74.0818 192.331 73.5341 192.607 72.9347C192.646 72.8483 192.683 72.7607 192.718 72.6732C192.752 72.5856 192.784 72.4807 192.813 72.3821C192.821 72.3525 192.828 72.3229 192.836 72.2933C192.854 72.2209 192.87 72.1481 192.884 72.0749C192.891 72.0441 192.897 72.0133 192.902 71.9812C192.919 71.8825 192.932 71.7826 192.94 71.6827C192.989 71.1115 192.905 70.5367 192.693 70.004C192.513 69.555 192.244 69.1504 192.062 68.7027C191.785 68.0218 191.713 67.2521 191.375 66.6058C190.808 65.5191 189.474 64.9752 188.377 65.3834C187.854 65.5783 187.4 65.957 186.869 66.1235C186.158 66.3505 185.397 66.1802 184.661 66.0779C183.925 65.9755 183.112 65.9669 182.52 66.4479C181.838 67.0017 181.656 68.0428 181.012 68.6496C180.743 68.905 180.409 69.0678 180.125 69.3034C179.926 69.4634 179.773 69.6731 179.68 69.9115C179.68 69.9287 179.669 69.946 179.664 69.9633C179.659 69.9805 179.653 70.004 179.648 70.0249C179.643 70.0459 179.639 70.073 179.636 70.0965C179.632 70.1199 179.636 70.1298 179.636 70.1458C179.632 70.1869 179.632 70.2281 179.636 70.2692C179.64 70.3106 179.646 70.3518 179.656 70.3925C179.658 70.4034 179.661 70.4141 179.664 70.4246C179.672 70.4588 179.682 70.4926 179.694 70.5257C179.694 70.5257 179.694 70.5381 179.694 70.5442C179.707 70.5812 179.722 70.617 179.737 70.654L179.76 70.707C179.76 70.7218 179.774 70.7366 179.78 70.7527C179.874 70.9293 179.949 71.1154 180.003 71.3077C180.034 71.4304 180.026 71.5596 179.981 71.6778C179.917 71.8111 179.826 71.9303 179.715 72.0281C179.236 72.526 178.866 73.1183 178.628 73.7672C178.601 73.8413 178.575 73.9153 178.55 73.9905C178.55 73.9905 178.55 73.9905 178.55 73.9967L178.582 74.0053C178.652 74.0252 178.722 74.0405 178.793 74.0509C178.834 74.0509 178.875 74.0608 178.917 74.0633C179.082 74.0728 179.248 74.0603 179.41 74.0263C179.452 74.0176 179.493 74.0078 179.533 73.9967C179.701 73.9515 179.864 73.8917 180.021 73.8178C180.021 73.8672 180.021 73.9153 180.021 73.9646C180.021 73.9917 180.021 74.0189 180.021 74.046C180.022 75.1032 180.318 76.139 180.876 77.037C181.434 77.935 182.231 78.6595 183.178 79.1291C183.186 79.1821 183.192 79.2327 183.199 79.2845C183.207 79.3363 183.21 79.3721 183.215 79.4152L183.15 79.3523C183.15 79.3523 182.717 79.1377 182.307 79.7594C181.898 80.381 181.128 80.6672 181.128 80.6672C181.128 80.6672 176.748 81.3604 176.581 81.934L174.534 82.0573C174.534 82.0573 173.813 82.1523 173.741 83.6608C173.67 85.1693 173.283 85.3099 173.283 85.3099C173.283 85.3099 172.441 86.7901 172.514 87.5561C172.587 88.322 171.864 88.7032 171.864 88.7032L171.768 90.06C171.768 90.06 170.973 89.9366 170.756 90.8728C170.539 91.809 170.155 92.2296 170.155 92.2296C170.155 92.2296 168.831 93.3299 168.759 94.2611L167.941 94.7632C167.941 94.7632 166.039 94.3327 165.606 93.5679L165.473 93.4446C165.469 93.4389 165.465 93.4327 165.462 93.4261C165.462 93.429 165.462 93.4319 165.462 93.4347C165.178 93.1671 164.574 92.6046 164.667 92.7341C164.722 92.8544 164.736 92.9899 164.706 93.119L164.564 92.9623L164.186 92.5417C164.186 92.5417 161.357 89.2928 159.553 89.0646L159.416 88.7945C159.379 88.7214 159.314 88.6661 159.236 88.6407C159.158 88.6153 159.073 88.6218 159 88.6588L156.278 90.0156C156.242 90.0335 156.209 90.0585 156.183 90.089C156.156 90.1196 156.136 90.155 156.123 90.1934C156.11 90.2319 156.105 90.2724 156.108 90.3128C156.111 90.3532 156.121 90.3926 156.14 90.4288L156.444 91.027H156.438C156.435 91.0287 156.432 91.0311 156.429 91.034C156.427 91.037 156.425 91.0404 156.423 91.0441C156.422 91.0478 156.422 91.0517 156.422 91.0555C156.423 91.0594 156.424 91.0631 156.426 91.0665L156.533 91.2774C156.537 91.2844 156.543 91.2898 156.55 91.2923C156.557 91.2949 156.566 91.2944 156.573 91.291L156.685 91.5118C156.677 91.5157 156.671 91.5226 156.668 91.5309C156.666 91.5392 156.666 91.5483 156.67 91.5562L156.874 91.9558C156.875 91.9598 156.878 91.9634 156.881 91.9663C156.885 91.9692 156.888 91.9714 156.893 91.9728C156.897 91.9742 156.901 91.9747 156.906 91.9744C156.91 91.974 156.914 91.9727 156.918 91.9706L157.001 92.1322C156.993 92.1361 156.988 92.1427 156.985 92.1505C156.983 92.1583 156.984 92.1667 156.987 92.1741L157.194 92.5812C157.196 92.585 157.198 92.5884 157.202 92.5912C157.205 92.5939 157.208 92.596 157.212 92.5973C157.216 92.5986 157.22 92.599 157.224 92.5986C157.229 92.5981 157.233 92.5968 157.236 92.5947L159.21 96.4937C159.247 96.5667 159.312 96.6221 159.389 96.6477C159.467 96.6734 159.552 96.6672 159.625 96.6306L161.715 95.5859L161.789 95.6401L162.406 96.4333C162.301 96.68 162.213 96.9266 162.139 97.1474C162.138 97.1545 162.135 97.1615 162.133 97.1684C162.117 97.2153 162.102 97.2621 162.089 97.3065L162.074 97.3534C162.059 97.3991 162.045 97.4435 162.033 97.4854L162.011 97.5643C162.011 97.5791 162.001 97.5952 161.997 97.61C161.93 97.8493 161.886 98.0343 161.863 98.1367L161.704 98.0873L161.859 98.1539C161.859 98.1626 161.859 98.1724 161.859 98.1786C161.852 98.2107 161.849 98.2292 161.849 98.2292C161.896 98.2514 161.946 98.2723 161.997 98.2933C162.84 98.6633 167.047 100.506 167.263 100.786C167.504 101.097 169.092 102.005 170.537 101.24C171.981 100.475 172.293 99.3048 172.293 99.3048C172.293 99.3048 173.689 97.3682 173.737 97.0845C173.786 96.8008 174.868 96.4678 174.868 96.4678C174.868 96.4678 174.965 99.6748 174.411 100.842C173.857 102.008 172.822 107.198 172.822 107.198C172.89 107.184 172.958 107.18 173.027 107.185L172.966 107.485C173.05 107.469 173.137 107.469 173.221 107.485C173.144 108.073 172.703 110.815 172.703 110.815C172.703 110.815 172.558 112.059 172.316 112.488C172.075 112.917 172.052 115.165 172.052 115.165L171.668 116.79C171.668 116.79 171.718 116.902 171.813 117.07V117.076C171.813 117.076 172.226 117.994 172.923 118.508C172.891 118.763 172.826 119.011 172.73 119.249C172.483 119.726 172.537 120.396 172.537 120.396C172.537 120.396 172.129 122.235 172.176 122.761C172.223 123.288 171.902 124.577 171.902 124.577L171.469 128.735C171.469 128.735 171.18 132.343 171.325 133.324C171.469 134.304 171.229 135.641 171.229 135.641C171.229 135.641 171.517 138.486 171.444 138.795C171.372 139.105 171.011 140.444 171.229 141.186C171.446 141.927 171.325 143.957 171.325 143.957C171.325 143.957 171.469 146.635 171.637 147.495C171.805 148.354 171.589 149.455 171.589 149.455C171.589 149.455 171.42 151.295 171.342 151.295C171.264 151.295 170.644 152.561 171.919 153.804C173.195 155.047 172.408 154.852 172.408 154.852C172.408 154.852 171.396 154.35 171.517 155.378C171.631 156.356 171.79 156.101 171.805 156.073L171.558 156.859C171.558 156.859 171.621 156.867 171.727 156.883L171.587 157.05C171.441 157.233 171.279 157.401 171.102 157.554C170.813 157.768 170.788 158.246 170.788 158.246C170.788 158.246 169.008 160.182 167.348 161.161C166.475 161.677 165.72 162.114 165.392 162.474C165.096 162.798 165.145 163.061 165.762 163.264C167.062 163.695 169.348 163.91 170.983 163.361C171.959 163.035 172.837 162.468 173.534 161.712C173.534 161.712 174.57 161.185 175.58 161.376C176.59 161.567 178.612 160.254 178.612 160.254L178.575 159.914L178.468 158.939C178.468 158.939 178.221 158.651 178.299 158.342C178.332 158.201 178.281 157.838 178.216 157.478C178.199 157.383 178.18 157.29 178.162 157.201L178.347 157.166C178.347 157.166 178.108 155.948 178.54 155.708C178.973 155.469 178.853 152.338 178.853 152.338C178.853 152.338 178.299 151.622 178.01 151.502C177.721 151.383 177.985 149.899 178.035 149.71C178.084 149.521 178.468 145.815 178.468 145.815C178.468 145.815 178.323 144.644 178.516 144.142C178.708 143.64 178.275 141.705 178.275 141.705C178.275 141.705 178.131 141.466 178.399 141.178C178.666 140.891 178.563 138.342 178.563 138.342C178.563 138.342 178.539 137.052 178.539 136.717C178.539 136.381 178.828 135.164 179.092 134.758C179.356 134.352 179.189 133.084 179.189 133.084L179.204 132.989C179.204 132.953 179.216 132.907 179.225 132.854L179.247 132.73C179.363 132.03 179.519 131.337 179.716 130.656C180.029 129.652 180.391 127.884 180.391 127.884L182.633 122.042L182.659 121.973C182.659 121.973 183.693 123.885 183.693 125.655C183.693 125.655 183.959 127.782 183.886 128.355C183.814 128.929 184.103 131.629 184.103 131.629C184.103 131.629 184.415 135.499 184.415 135.667C184.415 135.835 184.8 138.822 185.042 139.277C185.284 139.733 184.795 141.116 184.656 141.26C184.517 141.403 184.704 144.917 184.704 144.917C184.704 144.917 184.343 147.688 184.271 148.262C184.2 148.835 183.91 151.035 184.148 151.896C184.386 152.757 184.292 152.875 184.292 152.875C184.292 152.875 185.156 153.759 184.654 153.831C184.151 153.903 183.379 154.548 183.69 155.575C184.001 156.603 184.751 158.133 184.751 158.133C184.751 158.133 184.9 158.1 185.149 158.049V158.333L185.179 159.758C185.179 159.758 185.347 161.115 185.25 161.432C185.18 161.657 185.084 162.729 185.037 163.282C185.02 163.486 185.01 163.623 185.01 163.623C185.01 163.623 185.01 164.889 187.68 164.508C190.351 164.127 190.833 163.073 190.833 163.073L190.853 162.941C190.892 162.695 190.976 162.188 191.049 161.903C191.146 161.519 190.281 159.798 190.281 159.798C190.281 159.798 190.135 158.629 189.894 158.365C189.795 158.214 189.729 158.042 189.701 157.863C189.679 157.767 189.66 157.667 189.644 157.568C189.707 157.577 189.767 157.588 189.822 157.6C189.822 157.6 189.677 156.764 190.232 156.5C190.787 156.236 190.641 155.689 190.569 155.449C190.498 155.21 190.785 153.873 190.785 153.873C190.746 153.74 190.744 153.599 190.778 153.464C190.811 153.33 190.88 153.207 190.977 153.108C191.315 152.773 191.579 150.43 191.579 150.43L191.637 141.408C191.637 141.408 191.806 139.804 191.614 139.16C191.421 138.516 191.228 137.273 191.491 136.94C191.753 136.607 191.515 135.053 191.515 135.053C191.515 135.053 191.515 131.778 191.875 130.966C192.236 130.155 192.122 125.015 192.122 125.015L192.217 121.646C192.217 121.646 193.003 120.906 192.817 117.023C193.655 116.972 194.601 116.941 194.744 117.057C195.008 117.271 196.718 118.372 197.728 117.673C197.945 117.577 198.931 116.741 198.931 116.741L198.506 109.576C198.772 109.975 198.932 110.241 198.932 110.241C198.932 109.237 201.769 105.986 201.769 105.986C201.769 105.986 204.416 102.57 204.993 102.163C205.57 101.756 206.702 99.6057 206.702 99.6057C206.869 99.1956 207.062 98.7964 207.28 98.4105C207.542 97.9776 206.676 96.8304 206.772 96.5665ZM200.563 99.0766C199.841 99.1481 198.325 100.797 198.3 101.155C198.288 101.344 198.129 101.598 197.981 101.798C197.97 101.653 197.958 101.506 197.945 101.357C197.775 99.2455 197.592 96.6701 197.676 96.4234C197.821 95.9929 197.771 94.0576 197.771 94.0576L197.798 94.0206C198.284 95.5205 199.79 97.2893 199.79 97.2893C199.79 97.2893 200.056 98.054 200.368 98.0775C200.68 98.1009 200.563 99.0766 200.563 99.0766Z" fill="url(#paint0_linear)"/>
<path d="M161.979 98.5302C161.979 98.5302 162.856 93.9294 165.679 93.906L167.742 98.1516L166.366 99.1001C166.366 99.1001 163.378 99.1951 161.979 98.5302Z" fill="#65617D"/>
<path opacity="0.1" d="M167.742 98.1503L166.366 99.1001C166.366 99.1001 164.27 99.1667 162.76 98.7966C162.491 98.7339 162.23 98.6447 161.979 98.5302C161.979 98.5302 161.979 98.5055 161.995 98.4562C161.995 98.4504 161.995 98.4447 161.995 98.4389C162.125 97.8615 162.303 97.2962 162.529 96.7491C162.615 96.5431 162.714 96.3297 162.82 96.1176C163.233 95.322 163.814 94.5424 164.609 94.1564C164.903 94.0118 165.223 93.9279 165.55 93.9097H165.634H165.676L165.72 94.0034L166.418 95.4379L167.742 98.1503Z" fill="black"/>
<path d="M191.175 117.268C191.175 117.268 194.135 116.983 194.4 117.196C194.665 117.41 196.345 118.501 197.341 117.813C198.336 117.125 197.673 114.729 197.673 114.634C197.673 114.539 197.579 111.148 197.579 111.148L195.799 108.753L193.57 104.559L189.016 104.109L189.139 110.77L189.116 114.185L191.175 117.268Z" fill="#65617D"/>
<path opacity="0.1" d="M191.175 117.268C191.175 117.268 194.135 116.983 194.4 117.196C194.665 117.41 196.345 118.501 197.341 117.813C198.336 117.125 197.673 114.729 197.673 114.634C197.673 114.539 197.579 111.148 197.579 111.148L195.799 108.753L193.57 104.559L189.016 104.109L189.139 110.77L189.116 114.185L191.175 117.268Z" fill="black"/>
<path d="M165.084 93.7874C165.084 93.7874 164.849 96.6811 163.046 96.728C163.046 96.728 162.535 96.4196 161.848 95.9065C160.264 94.7211 157.75 92.4429 158.445 90.3239C159.441 87.2883 164.279 92.8857 164.279 92.8857L164.649 93.3027L165.084 93.7874Z" fill="#FBBEBE"/>
<path opacity="0.1" d="M165.085 93.7875C165.085 93.7875 164.849 96.6812 163.046 96.728C163.046 96.728 162.535 96.4197 161.848 95.9066L161.694 95.7092C161.999 95.8688 162.336 95.9593 162.681 95.9744C163.133 95.9843 163.643 95.8165 163.97 95.1628C164.157 94.7903 164.322 94.4068 164.463 94.0144C164.549 93.7845 164.611 93.5459 164.646 93.3027L165.085 93.7875Z" fill="black"/>
<path d="M164.303 99.0285L163.897 98.5067L162.528 96.7491L161.832 95.8511C162.137 96.0114 162.474 96.1024 162.819 96.1175C163.271 96.1274 163.781 95.9597 164.109 95.3047C164.297 94.9323 164.461 94.5488 164.602 94.1563C164.828 93.5162 164.823 93.1868 164.744 93.0758C164.665 92.9648 165.247 93.5063 165.527 93.7715L165.537 93.7814C165.618 93.8554 165.669 93.9047 165.669 93.9047L165.717 94.0009L166.404 95.375L166.412 95.433C166.475 95.8696 166.707 98.6363 164.303 99.0285Z" fill="#E7EFFD"/>
<path d="M178.51 160.077C178.51 160.077 176.518 161.382 175.522 161.187C174.527 160.993 173.506 161.52 173.506 161.52C172.819 162.27 171.954 162.833 170.991 163.157C169.378 163.702 167.126 163.489 165.846 163.061C165.239 162.86 165.191 162.599 165.482 162.278C165.806 161.919 166.55 161.486 167.411 160.974C169.047 160.002 170.802 158.08 170.802 158.08C170.802 158.08 170.825 157.607 171.11 157.393C171.285 157.244 171.445 157.079 171.589 156.9C171.843 156.599 172.082 156.283 172.082 156.283L177.941 156.473C177.941 156.473 178.041 156.896 178.119 157.328C178.184 157.682 178.235 158.042 178.201 158.181C178.13 158.489 178.368 158.774 178.368 158.774L178.473 159.742L178.51 160.077Z" fill="#65617D"/>
<path d="M190.774 161.713C190.704 161.996 190.619 162.506 190.58 162.745C190.567 162.826 190.561 162.876 190.561 162.876C190.561 162.876 190.086 163.919 187.453 164.299C184.821 164.679 184.821 163.421 184.821 163.421C184.821 163.421 184.831 163.285 184.848 163.082C184.894 162.527 184.989 161.465 185.058 161.239C185.153 160.931 184.988 159.579 184.988 159.579L184.959 158.165L184.94 157.178L189.304 156.727C189.331 157.054 189.378 157.378 189.444 157.699C189.472 157.875 189.537 158.044 189.635 158.192C189.872 158.455 190.015 159.616 190.015 159.616C190.015 159.616 190.866 161.333 190.774 161.713Z" fill="#65617D"/>
<path opacity="0.1" d="M177.946 156.472C177.946 156.472 178.046 156.895 178.124 157.326C177.491 157.442 174.724 157.922 174.032 157.587C173.25 157.207 171.565 156.993 171.565 156.993L171.594 156.897C171.848 156.596 172.087 156.281 172.087 156.281L177.946 156.472Z" fill="black"/>
<path opacity="0.1" d="M189.442 157.704C188.331 157.516 185.911 157.97 184.957 158.165L184.937 157.178L189.301 156.727C189.329 157.055 189.376 157.381 189.442 157.704Z" fill="black"/>
<path d="M191.91 121.75L191.815 125.094C191.815 125.094 191.938 130.193 191.578 131C191.218 131.806 191.221 135.055 191.221 135.055C191.221 135.055 191.46 136.597 191.198 136.928C190.937 137.258 191.126 138.494 191.321 139.134C191.516 139.774 191.344 141.364 191.344 141.364L191.297 150.329C191.297 150.329 191.036 152.653 190.703 152.986C190.608 153.084 190.54 153.207 190.507 153.34C190.474 153.473 190.476 153.613 190.515 153.745C190.515 153.745 190.23 155.072 190.301 155.31C190.373 155.548 190.515 156.092 189.969 156.352C189.424 156.612 189.565 157.444 189.565 157.444C188.261 157.135 184.562 157.967 184.562 157.967C184.562 157.967 183.822 156.448 183.517 155.428C183.213 154.408 183.969 153.768 184.466 153.701C184.963 153.635 184.111 152.752 184.111 152.752C184.111 152.752 184.206 152.628 183.969 151.78C183.732 150.931 184.016 148.743 184.092 148.174C184.169 147.606 184.519 144.854 184.519 144.854C184.519 144.854 184.33 141.368 184.472 141.225C184.614 141.082 185.089 139.707 184.852 139.251C184.615 138.796 184.235 135.836 184.235 135.674C184.235 135.513 183.927 131.666 183.927 131.666C183.927 131.666 183.643 128.985 183.713 128.417C183.784 127.848 183.523 125.738 183.523 125.738C183.523 123.981 182.505 122.084 182.505 122.084L182.479 122.152L180.275 127.949C180.275 127.949 179.919 129.703 179.61 130.7C179.415 131.376 179.261 132.064 179.147 132.758L179.126 132.882C179.118 132.935 179.11 132.981 179.105 133.015L179.09 133.111C179.09 133.111 179.256 134.368 178.995 134.771C178.735 135.175 178.439 136.384 178.439 136.72C178.439 137.057 178.461 138.335 178.461 138.335C178.461 138.335 178.558 140.872 178.296 141.157C178.035 141.442 178.173 141.679 178.173 141.679C178.173 141.679 178.601 143.599 178.411 144.098C178.221 144.596 178.364 145.757 178.364 145.757C178.364 145.757 177.988 149.425 177.946 149.617C177.904 149.81 177.637 151.278 177.921 151.396C178.205 151.514 178.751 152.226 178.751 152.226C178.751 152.226 178.875 155.333 178.444 155.57C178.014 155.807 178.253 157.017 178.253 157.017C178.253 157.017 174.815 157.682 174.032 157.302C173.249 156.922 171.565 156.709 171.565 156.709L171.801 155.929C171.787 155.956 171.63 156.209 171.518 155.238C171.395 154.218 172.396 154.717 172.396 154.717C172.396 154.717 173.178 154.906 171.92 153.673C170.662 152.44 171.28 151.183 171.352 151.183C171.423 151.183 171.589 149.357 171.589 149.357C171.589 149.357 171.802 148.266 171.635 147.412C171.469 146.558 171.328 143.902 171.328 143.902C171.328 143.902 171.452 141.886 171.233 141.151C171.015 140.416 171.375 139.087 171.447 138.778C171.518 138.468 171.233 135.647 171.233 135.647C171.233 135.647 171.471 134.32 171.328 133.348C171.185 132.376 171.471 128.794 171.471 128.794L171.898 124.667C171.898 124.667 172.205 123.387 172.158 122.865C172.112 122.343 172.514 120.521 172.514 120.521C172.514 120.521 172.467 119.857 172.704 119.383C172.94 118.909 173.037 117.344 173.037 117.344L175.314 112.125L176.424 107.524L191.484 107.383C191.484 107.383 191.54 107.781 191.63 108.506C191.72 109.232 191.851 110.306 192 111.631C192.131 112.834 192.274 114.25 192.414 115.824C192.858 120.848 191.91 121.75 191.91 121.75Z" fill="#3F3D56"/>
<path d="M190.511 80.2208L186.999 83.9693C186.999 83.9693 182.495 82.166 182.968 81.5493C183.152 81.31 183.122 80.5625 183.016 79.7262C182.85 78.4138 182.495 76.9004 182.495 76.9004C182.495 76.9004 190.368 75.62 189.703 76.9472C189.456 77.4332 189.503 77.9994 189.654 78.5224C189.846 79.131 190.135 79.7046 190.511 80.2208Z" fill="#FBBEBE"/>
<path opacity="0.1" d="M189.703 76.9472C189.456 77.4332 189.345 77.4801 189.497 78.0031C188.467 79.1132 187.153 80.3158 185.53 80.3158C184.658 80.3172 183.797 80.1153 183.016 79.7262C182.85 78.4138 182.495 76.9004 182.495 76.9004C182.495 76.9004 190.368 75.62 189.703 76.9472Z" fill="black"/>
<path d="M191.175 74.5284C191.186 75.2767 191.048 76.0198 190.769 76.7144C190.491 77.4089 190.076 78.0411 189.551 78.5742C189.026 79.1073 188.4 79.5307 187.71 79.8196C187.019 80.1086 186.278 80.2574 185.53 80.2574C184.781 80.2574 184.04 80.1086 183.35 79.8196C182.66 79.5307 182.034 79.1073 181.508 78.5742C180.983 78.0411 180.569 77.4089 180.29 76.7144C180.012 76.0198 179.874 75.2767 179.885 74.5284C179.885 74.5013 179.885 74.4741 179.885 74.447C179.896 72.95 180.501 71.5187 181.567 70.4678C182.633 69.4169 184.073 68.8326 185.57 68.8434C187.067 68.8542 188.498 69.4592 189.549 70.5254C190.6 71.5915 191.184 73.0315 191.174 74.5284H191.175Z" fill="#FBBEBE"/>
<path opacity="0.1" d="M191.992 111.768C191.245 111.774 188.755 111.795 185.972 111.839H185.939L185.018 111.854H184.99C181.691 111.907 178.439 111.262 177.134 111.385C174.359 111.646 178.13 108.823 178.13 108.823C178.13 108.823 181.133 109.625 184.451 109.462L185.249 109.422C187.772 109.279 190.306 109.042 191.629 108.645C191.721 109.377 191.849 110.448 191.992 111.768Z" fill="black"/>
<path d="M191.992 111.626C191.245 111.626 188.755 111.653 185.972 111.696H185.939L185.018 111.712H184.99C181.691 111.765 178.439 111.12 177.134 111.242C174.359 111.502 178.13 108.682 178.13 108.682C178.13 108.682 181.133 109.482 184.451 109.32L185.249 109.279C187.772 109.137 190.306 108.899 191.629 108.501C191.721 109.234 191.849 110.301 191.992 111.626Z" fill="#E3A79F"/>
<path opacity="0.1" d="M184.012 81.7859L179.648 83.8261L176.281 109.867C176.281 109.867 178.273 108.966 179.411 109.535C180.55 110.104 184.059 109.583 184.059 109.583C184.059 109.583 186.621 109.44 187.001 109.725C187.381 110.01 191.838 108.54 191.838 108.54C191.838 108.54 192.645 106.736 192.028 106.453C191.412 106.169 192.218 103.369 192.218 103.369L191.838 84.5846L191.08 82.1658L189.04 80.9324L186.95 82.5926L185.963 82.7345L184.012 81.7859Z" fill="black"/>
<path d="M184.012 81.501L179.648 83.5412L176.281 109.584C176.281 109.584 178.273 108.683 179.411 109.253C180.55 109.822 184.059 109.299 184.059 109.299C184.059 109.299 186.621 109.158 187.001 109.441C187.381 109.725 191.838 108.256 191.838 108.256C191.838 108.256 192.645 106.454 192.028 106.169C191.412 105.884 192.218 103.085 192.218 103.085L191.838 84.2985L191.08 81.8797L189.04 80.6462L186.95 82.3077L185.963 82.4483L184.012 81.501Z" fill="#E7EFFD"/>
<path opacity="0.1" d="M183.941 82.7112C183.941 82.7112 185.197 84.205 185.174 84.5133C185.151 84.8217 185.104 85.5568 185.104 85.5568L184.154 87.4786C184.154 87.4786 183.632 89.8739 183.632 90.3722C183.632 90.8706 182.802 95.1827 182.802 95.1827L181.807 101.824L180.55 110.528L181.83 112.734L183.349 111.453L185.364 95.9413L185.791 92.8823C185.791 92.8823 186.241 87.3799 186.241 86.8113C186.241 86.2426 185.981 84.7477 185.981 84.7477C185.981 84.7477 186.289 83.3243 187.569 82.9925C188.85 82.6607 187.474 82.9209 187.474 82.9209L186.734 82.3276L186.094 82.5891C186.094 82.5891 184.32 82.0476 183.941 82.7112Z" fill="black"/>
<path d="M183.799 82.5718C183.799 82.5718 185.056 84.0655 185.032 84.3739C185.009 84.6823 184.961 85.4174 184.961 85.4174L184.012 87.3391C184.012 87.3391 183.497 89.732 183.497 90.2291C183.497 90.7262 182.667 95.0396 182.667 95.0396L181.664 101.69L180.413 110.389L181.695 112.595L183.206 111.311L185.224 95.8031L185.65 92.7442C185.65 92.7442 186.101 87.2417 186.101 86.6718C186.101 86.102 185.84 84.6083 185.84 84.6083C185.84 84.6083 186.149 83.1861 187.429 82.8531C188.709 82.52 187.334 82.7827 187.334 82.7827L186.594 82.1895L185.964 82.4485C185.964 82.4485 184.179 81.9045 183.799 82.5718Z" fill="#3F3D56"/>
<path opacity="0.1" d="M182.969 80.0789C182.969 80.0789 182.779 80.2207 182.732 81.1692C182.685 82.1178 182.02 84.2529 182.02 84.2529C182.02 84.2529 184.487 82.5445 185.72 82.7345L182.969 80.0789Z" fill="black"/>
<path d="M182.969 79.7939C182.969 79.7939 182.779 79.9358 182.732 80.8856C182.685 81.8353 182.02 83.9692 182.02 83.9692C182.02 83.9692 184.487 82.2621 185.72 82.452L182.969 79.7939Z" fill="#E7EFFD"/>
<path opacity="0.1" d="M189.704 79.3191L185.814 82.7345C185.814 82.7345 189.088 84.6797 189.514 85.1546C189.941 85.6295 190.368 80.5057 190.368 80.5057L189.704 79.3191Z" fill="black"/>
<path d="M189.846 79.0354L185.963 82.4484C185.963 82.4484 189.236 84.3923 189.664 84.8672C190.092 85.3421 190.519 80.2183 190.519 80.2183L189.846 79.0354Z" fill="#E7EFFD"/>
<path opacity="0.1" d="M183.11 80.0789C183.11 80.0789 182.683 79.8655 182.28 80.4822C181.877 81.099 181.118 81.3827 181.118 81.3827C181.118 81.3827 176.801 82.0709 176.636 82.6396L174.62 82.7629C174.62 82.7629 173.909 82.8567 173.837 84.3516C173.766 85.8466 173.382 85.9847 173.382 85.9847C173.382 85.9847 172.552 87.455 172.622 88.2136C172.692 88.9721 171.982 89.352 171.982 89.352L174.942 97.0599C174.942 97.0599 175.037 100.239 174.491 101.4C173.944 102.562 172.926 107.71 172.926 107.71C172.926 107.71 173.354 107.615 173.329 107.898C173.304 108.182 172.807 111.29 172.807 111.29C172.807 111.29 172.665 112.524 172.429 112.951C172.192 113.377 172.167 115.607 172.167 115.607L171.787 117.22C171.787 117.22 172.689 119.236 174.064 118.946C175.439 118.657 177.946 113.285 177.946 113.285L179.534 107.474L180.768 101.735L181.123 97.8456L181.693 89.2361L182.523 83.5437C182.523 83.5437 183.443 80.4822 183.11 80.0789Z" fill="black"/>
<path d="M182.969 79.794C182.969 79.794 182.542 79.5806 182.138 80.1973C181.735 80.8141 180.977 81.099 180.977 81.099C180.977 81.099 176.659 81.786 176.494 82.3559L174.477 82.4792C174.477 82.4792 173.766 82.5742 173.695 84.0679C173.625 85.5616 173.244 85.7047 173.244 85.7047C173.244 85.7047 172.414 87.175 172.485 87.9336C172.557 88.6922 171.845 89.0721 171.845 89.0721L174.806 96.7799C174.806 96.7799 174.901 99.9586 174.355 101.12C173.81 102.282 172.79 107.43 172.79 107.43C172.79 107.43 173.217 107.335 173.193 107.62C173.17 107.904 172.672 111.01 172.672 111.01C172.672 111.01 172.53 112.244 172.292 112.671C172.054 113.097 172.031 115.327 172.031 115.327L171.655 116.935C171.655 116.935 172.557 118.951 173.932 118.661C175.308 118.372 177.798 112.994 177.798 112.994L179.388 107.183L180.621 101.442L180.978 97.5533L181.546 88.9438L182.376 83.2514C182.376 83.2514 183.3 80.1973 182.969 79.794Z" fill="#65617D"/>
<path opacity="0.1" d="M167.742 98.1503L166.366 99.1001C166.366 99.1001 164.269 99.1667 162.76 98.7967L161.995 98.4562L161.841 98.3896L161.999 98.439C162.792 98.6746 163.412 98.6696 163.897 98.5068C165.843 97.8519 165.624 94.6375 165.554 93.9097C165.546 93.8369 165.541 93.7864 165.537 93.7716C165.537 93.7687 165.537 93.7658 165.537 93.7629L165.549 93.7814C165.575 93.8251 165.605 93.8664 165.639 93.9048C165.666 93.9356 165.694 93.9677 165.725 93.9973L166.412 95.3714L166.419 95.4293L167.742 98.1503Z" fill="black"/>
<path d="M172.509 88.8772L171.845 89.0672L171.75 90.424C171.75 90.424 170.967 90.3006 170.754 91.2306C170.54 92.1607 170.162 92.5874 170.162 92.5874C170.162 92.5874 168.857 93.679 168.785 94.6029L167.98 95.0963C167.98 95.0963 166.105 94.6596 165.679 93.906C165.679 93.906 166.533 100.025 161.979 98.5302C161.979 98.5302 167.078 100.76 167.315 101.069C167.552 101.377 169.118 102.277 170.54 101.519C171.963 100.76 172.272 99.5935 172.272 99.5935C172.272 99.5935 173.648 97.6718 173.696 97.3868C173.744 97.1019 174.806 96.7701 174.806 96.7701L176.846 91.8363L172.509 88.8772Z" fill="#65617D"/>
<path opacity="0.1" d="M189.159 82.1659L189.847 79.0354C189.847 79.0354 190.155 80.0555 190.463 80.2923L191.483 81.0743C191.483 81.0743 192.503 81.5492 192.859 81.5492C193.214 81.5492 195.136 82.0426 195.372 82.3078C195.609 82.573 196.559 82.3793 196.559 82.3793C196.559 82.3793 197.341 82.6396 198.029 82.8061C198.718 82.9726 199.049 84.1111 198.906 84.5613C198.849 84.7854 198.849 85.0205 198.908 85.2444C198.966 85.4683 199.08 85.6738 199.239 85.8416C199.523 86.1265 199.666 87.0516 199.666 87.0516C200.015 87.1652 200.304 87.4122 200.472 87.7387C200.71 88.2604 200.638 89.3989 200.638 89.3989L197.104 94.3796C197.104 94.3796 197.151 96.3013 197.009 96.7232C196.867 97.145 197.503 104.408 197.503 104.408L198.243 116.883C198.243 116.883 197.271 117.713 197.057 117.808C196.844 117.903 196.629 113.396 196.629 113.231C196.629 113.065 191.152 105.024 191.152 105.024C191.152 105.024 190.411 103.838 190.411 103.578C190.411 103.317 189.723 100.921 189.723 100.921L188.68 96.2964L189.159 82.1659Z" fill="black"/>
<path d="M200.932 89.1276C200.932 89.2905 200.923 89.399 200.923 89.399L197.392 94.376C197.392 94.376 197.441 96.2965 197.298 96.7196C197.215 96.9663 197.396 99.5195 197.564 101.615C197.688 103.129 197.796 104.404 197.796 104.404L198.108 109.696L198.53 116.879C198.53 116.879 197.558 117.709 197.345 117.804C197.131 117.899 196.918 113.392 196.918 113.226C196.918 113.059 191.439 105.021 191.439 105.021C191.439 105.021 190.699 103.834 190.699 103.574C190.699 103.314 190.012 100.917 190.012 100.917L188.968 96.2916L189.442 82.1574L189.845 79.0269C189.845 79.0269 190.439 80.0469 190.747 80.2825C191.055 80.5181 191.766 81.0658 191.766 81.0658C191.766 81.0658 192.786 81.5406 193.142 81.5406C193.499 81.5406 195.419 82.034 195.656 82.2992C195.893 82.5644 196.843 82.3708 196.843 82.3708C196.843 82.3708 197.625 82.631 198.312 82.7975C198.999 82.9641 199.332 84.1025 199.19 84.5515C199.132 84.7758 199.132 85.011 199.19 85.2351C199.249 85.4593 199.362 85.665 199.522 85.8331C199.807 86.118 199.949 87.0419 199.949 87.0419C200.298 87.1562 200.588 87.4041 200.755 87.7314C200.922 88.1002 200.938 88.7576 200.932 89.1276Z" fill="#65617D"/>
<path opacity="0.1" d="M171.94 152.321C172.064 152.321 177.04 152.511 176.945 153.318C176.85 154.125 171.94 152.321 171.94 152.321Z" fill="black"/>
<path opacity="0.1" d="M173.055 153.673C173.055 153.673 176.399 154.218 175.522 154.717C174.645 155.215 173.055 153.673 173.055 153.673Z" fill="black"/>
<path opacity="0.1" d="M185.482 151.8C185.482 151.8 191.033 152.274 190.203 152.89C189.373 153.505 187.404 153.602 187.309 153.63C187.214 153.658 185.482 151.8 185.482 151.8Z" fill="black"/>
<path opacity="0.1" d="M184.819 154.243C184.819 154.243 187.902 154.765 187.996 155.353C188.09 155.941 184.819 154.243 184.819 154.243Z" fill="black"/>
<path opacity="0.1" d="M186.526 139.965C186.526 139.965 189.348 140.628 189.515 141.075L186.526 139.965Z" fill="black"/>
<path opacity="0.1" d="M175.639 142.005C175.639 142.005 174.169 142.431 175.592 143.285C177.016 144.139 175.639 142.005 175.639 142.005Z" fill="black"/>
<path opacity="0.1" d="M182.162 119.212C182.328 119.212 184.913 118.358 185.814 118.738C186.714 119.118 187.831 119.117 187.831 119.117L182.162 119.212Z" fill="black"/>
<path opacity="0.1" d="M182.495 121.919L182.469 122.153L180.265 127.951C180.265 127.951 179.91 129.705 179.6 130.701C179.406 131.378 179.252 132.065 179.138 132.76L181.095 120.621L182.495 121.919Z" fill="black"/>
<path d="M185.939 111.696L185.019 111.712H184.99L184.451 109.322C184.716 109.308 184.982 109.295 185.249 109.279L185.939 111.696Z" fill="#3F3D56"/>
<path d="M197.127 108.801L196.536 109.287L194.563 110.91C194.563 110.91 189.226 113.757 187.755 111.053C186.459 108.672 192.51 106.971 193.967 106.599C194.166 106.549 194.278 106.524 194.278 106.524L197.127 108.801Z" fill="#FBBEBE"/>
<path opacity="0.1" d="M174.335 85.4863C174.335 85.4863 175.379 85.96 175.616 86.6248C175.853 87.2896 174.335 85.4863 174.335 85.4863Z" fill="black"/>
<path opacity="0.1" d="M171.11 92.6008C171.11 92.6008 169.592 94.451 170.208 95.1627C170.825 95.8744 171.11 92.6008 171.11 92.6008Z" fill="black"/>
<path opacity="0.1" d="M198.242 86.5298C198.242 86.5298 196.819 86.6716 196.772 87.9051L198.242 86.5298Z" fill="black"/>
<path opacity="0.1" d="M185.056 105.978C185.198 105.836 188.471 100.997 189.23 101.424L185.056 105.978Z" fill="black"/>
<path opacity="0.1" d="M191.175 74.5282C191.176 75.4578 190.947 76.3732 190.508 77.1925L190.466 77.1851C190.108 77.1098 189.922 76.6917 189.648 76.4327C189.48 76.2727 189.266 76.1693 189.037 76.137C188.807 76.1047 188.573 76.1451 188.367 76.2526C188.16 76.377 187.991 76.5569 187.88 76.7719C187.769 76.9869 187.72 77.2287 187.738 77.47C187.558 76.7102 187.615 75.9023 187.439 75.1413C187.262 74.3802 186.731 73.6105 186.004 73.597C185.691 73.597 185.325 73.7129 185.099 73.4736C184.962 73.3318 184.934 73.1036 184.831 72.9371C184.312 72.0958 182.734 72.5214 182.085 72.9519C181.461 73.3663 180.689 74.0718 179.886 74.4419C179.897 72.9449 180.502 71.5136 181.568 70.4627C182.634 69.4118 184.074 68.8275 185.571 68.8383C187.068 68.8491 188.5 69.4541 189.55 70.5202C190.601 71.5864 191.186 73.0263 191.175 74.5233V74.5282Z" fill="black"/>
<path d="M184.831 72.7991C184.935 72.9706 184.962 73.1951 185.099 73.3357C185.325 73.57 185.691 73.4504 186.004 73.459C186.731 73.4714 187.262 74.2423 187.439 75.0033C187.615 75.7644 187.562 76.571 187.739 77.3309C187.72 77.0896 187.769 76.8479 187.881 76.633C187.992 76.4181 188.161 76.2386 188.369 76.1147C188.574 76.0073 188.808 75.9669 189.037 75.9989C189.266 76.031 189.48 76.134 189.648 76.2935C189.922 76.5538 190.108 76.9707 190.466 77.0459C190.823 77.1212 191.169 76.7783 191.297 76.4008C191.425 76.0234 191.42 75.6102 191.502 75.2192C191.663 74.4791 192.146 73.8735 192.413 73.1704C192.731 72.3142 192.722 71.371 192.389 70.5209C192.211 70.0757 191.946 69.6748 191.772 69.2295C191.498 68.5536 191.427 67.7913 191.095 67.1474C190.536 66.0694 189.221 65.5291 188.141 65.9349C187.625 66.1286 187.177 66.5036 186.654 66.675C185.953 66.8995 185.204 66.7305 184.477 66.6294C183.751 66.5282 182.95 66.5184 182.367 66.9994C181.696 67.5483 181.512 68.5807 180.887 69.1839C180.622 69.4367 180.292 69.5983 180.012 69.8327C179.732 70.067 179.492 70.4149 179.519 70.796C179.561 71.2894 180.042 71.7334 179.864 72.1886C179.8 72.3201 179.711 72.4378 179.601 72.5352C179.072 73.0887 178.679 73.7575 178.453 74.489C179.722 74.8849 181.096 73.4862 182.089 72.825C182.732 72.3847 184.312 71.9641 184.831 72.7991Z" fill="#7C5C5C"/>
<path opacity="0.1" d="M197.127 108.801L196.537 109.287C196.016 108.424 193.878 106.688 193.878 106.688L193.971 106.599C194.17 106.549 194.282 106.524 194.282 106.524L197.127 108.801Z" fill="black"/>
<path d="M197.697 107.923C197.697 107.923 197.485 108.451 197.265 108.91C197.046 109.369 196.808 109.781 196.796 109.444C196.772 108.779 194.021 106.549 194.021 106.549L194.392 106.186L194.824 105.767L197.697 107.923Z" fill="#E7EFFD"/>
<path opacity="0.1" d="M197.792 104.413L198.104 109.704C197.364 108.558 195.345 105.621 194.044 105.716L197.199 102.089C197.33 101.942 197.451 101.787 197.561 101.624C197.681 103.137 197.792 104.413 197.792 104.413Z" fill="black"/>
<path opacity="0.1" d="M197.697 107.923C197.697 107.923 197.485 108.451 197.266 108.91C196.439 107.776 195.302 106.437 194.394 106.186L194.827 105.767L197.697 107.923Z" fill="black"/>
<path d="M200.069 88.739L200.923 89.4026C200.923 89.4026 202.345 89.4273 202.488 90.6126C202.631 91.798 203.935 92.3395 203.935 92.3395C203.935 92.3395 204.907 93.3114 204.907 93.7617C204.907 94.2119 205.647 95.0198 205.647 95.0901C205.647 95.1604 206.359 96.6085 206.264 96.8687C206.169 97.129 207.022 98.2687 206.757 98.6955C206.543 99.0783 206.352 99.4741 206.187 99.8808C206.187 99.8808 205.077 102.016 204.504 102.419C203.93 102.823 201.326 106.213 201.326 106.213C201.326 106.213 198.528 109.439 198.528 110.436C198.528 110.436 195.799 105.882 194.187 105.995L197.341 102.366C197.341 102.366 197.887 101.774 197.911 101.418C197.934 101.061 199.428 99.4257 200.14 99.3542C200.14 99.3542 200.263 98.3822 199.95 98.3587C199.636 98.3353 199.381 97.5755 199.381 97.5755C199.381 97.5755 197.294 95.1086 197.271 93.5433C197.247 91.9781 200.069 88.739 200.069 88.739Z" fill="#65617D"/>
<path opacity="0.1" d="M178.51 160.077C178.51 160.077 176.518 161.382 175.522 161.187C174.527 160.992 173.506 161.52 173.506 161.52C172.819 162.27 171.954 162.833 170.991 163.157C169.378 163.702 167.126 163.489 165.846 163.061C165.239 162.86 165.191 162.598 165.482 162.278C166.875 162.555 169.987 163.107 170.825 162.706C171.916 162.184 173.481 161.046 173.481 161.046C173.481 161.046 175.522 160.761 175.806 160.761C176.008 160.761 177.583 160.111 178.473 159.737L178.51 160.077Z" fill="black"/>
<path opacity="0.1" d="M190.578 162.747C190.564 162.828 190.558 162.877 190.558 162.877C190.558 162.877 190.083 163.921 187.451 164.301C184.819 164.681 184.819 163.423 184.819 163.423C184.819 163.423 184.829 163.287 184.846 163.083C185.679 163.398 187.497 163.752 190.578 162.747Z" fill="black"/>
<path opacity="0.1" d="M175.32 90.7039C175.32 90.7039 175.32 96.1113 174.858 96.6454C174.395 97.1795 175.32 90.7039 175.32 90.7039Z" fill="black"/>
<path opacity="0.1" d="M196.701 92.4468L197.388 94.3796C197.388 94.3796 197.662 92.4825 196.701 92.4468Z" fill="black"/>
<g opacity="0.1">
<path opacity="0.1" d="M179.93 71.7172C180.104 71.2719 179.649 70.8365 179.59 70.3604C179.529 70.4949 179.503 70.6424 179.513 70.7896C179.544 71.1485 179.809 71.4853 179.883 71.8171C179.902 71.7854 179.918 71.7519 179.93 71.7172Z" fill="black"/>
<path opacity="0.1" d="M187.802 76.8249C187.632 76.0762 187.679 75.2843 187.509 74.5369C187.339 73.7894 186.802 73.0049 186.075 72.9926C185.762 72.9926 185.396 73.1073 185.169 72.8692C185.033 72.7286 185.005 72.4992 184.902 72.3327C184.383 71.4915 182.806 71.9182 182.156 72.3487C181.185 72.9938 179.853 74.342 178.609 74.0361C178.549 74.1804 178.493 74.3259 178.448 74.4752C179.717 74.8711 181.091 73.4724 182.084 72.8113C182.732 72.3808 184.312 71.9478 184.831 72.7952C184.935 72.9667 184.962 73.1912 185.099 73.3318C185.324 73.5661 185.691 73.4465 186.004 73.4551C186.73 73.4675 187.262 74.2384 187.438 74.9994C187.615 75.7605 187.562 76.5671 187.738 77.3269C187.726 77.157 187.748 76.9863 187.802 76.8249Z" fill="black"/>
<path opacity="0.1" d="M191.368 75.9342C191.245 76.3117 190.901 76.6571 190.536 76.5793C190.171 76.5016 189.992 76.086 189.719 75.8269C189.551 75.6672 189.337 75.564 189.108 75.5319C188.878 75.4998 188.644 75.5405 188.439 75.6481C188.241 75.7663 188.078 75.9351 187.968 76.1373C187.857 76.3394 187.803 76.5674 187.81 76.7977C187.904 76.5074 188.104 76.2626 188.368 76.1106C188.574 76.0033 188.807 75.9628 189.037 75.9949C189.266 76.027 189.48 76.13 189.648 76.2895C189.921 76.5497 190.108 76.9667 190.465 77.0419C190.823 77.1171 191.168 76.7742 191.297 76.3968C191.365 76.1752 191.408 75.9469 191.427 75.7159C191.412 75.7898 191.392 75.8627 191.368 75.9342Z" fill="black"/>
<path opacity="0.1" d="M192.483 72.7039C192.217 73.407 191.733 74.0138 191.573 74.7539C191.541 74.9032 191.522 75.0561 191.504 75.2091C191.667 74.469 192.147 73.8671 192.413 73.1665C192.531 72.8493 192.605 72.5172 192.633 72.1797C192.596 72.3579 192.546 72.5332 192.483 72.7039Z" fill="black"/>
</g>
<path d="M160.194 90.3875L160.181 90.3942C160.158 90.4058 160.149 90.434 160.16 90.4571L160.519 91.1688C160.53 91.1919 160.558 91.2012 160.582 91.1896L160.595 91.1829C160.618 91.1713 160.627 91.1431 160.616 91.12L160.257 90.4083C160.246 90.3852 160.217 90.3759 160.194 90.3875Z" fill="#3A3768"/>
<path d="M156.648 91.379L156.64 91.3829C156.628 91.3893 156.622 91.4049 156.629 91.4177L156.738 91.6336C156.744 91.6463 156.76 91.6515 156.772 91.645L156.78 91.6412C156.793 91.6347 156.798 91.6191 156.792 91.6064L156.683 91.3905C156.676 91.3777 156.661 91.3726 156.648 91.379Z" fill="#3A3768"/>
<path d="M156.892 91.8707L156.884 91.8746C156.87 91.882 156.864 91.8998 156.871 91.9144L157.074 92.3176C157.082 92.3322 157.099 92.3381 157.114 92.3307L157.122 92.3268C157.136 92.3195 157.142 92.3017 157.135 92.2871L156.932 91.8839C156.924 91.8693 156.907 91.8634 156.892 91.8707Z" fill="#3A3768"/>
<path d="M157.202 92.4865L157.194 92.4904C157.18 92.4975 157.174 92.5145 157.181 92.5285L157.387 92.9372C157.394 92.9512 157.411 92.9568 157.425 92.9498L157.433 92.9459C157.447 92.9389 157.452 92.9218 157.445 92.9078L157.24 92.4991C157.233 92.4851 157.215 92.4795 157.202 92.4865Z" fill="#3A3768"/>
<path d="M159.194 89.0253L156.46 90.4023C156.323 90.471 156.269 90.6371 156.337 90.7734L159.393 96.8412C159.462 96.9775 159.628 97.0324 159.764 96.9637L162.498 95.5867C162.635 95.5181 162.689 95.352 162.621 95.2157L159.565 89.1478C159.496 89.0116 159.33 88.9567 159.194 89.0253Z" fill="#3A3768"/>
<path d="M158.818 89.4235C158.802 89.4305 158.788 89.4408 158.776 89.4536C158.765 89.4664 158.756 89.4815 158.751 89.4979C158.745 89.5143 158.743 89.5316 158.745 89.5487C158.747 89.5659 158.752 89.5825 158.761 89.5974L158.773 89.6209C158.782 89.6359 158.787 89.6526 158.789 89.6698C158.79 89.687 158.788 89.7043 158.783 89.7207C158.777 89.7371 158.769 89.7522 158.757 89.7649C158.745 89.7777 158.731 89.7879 158.715 89.7948L157.347 90.4843C157.332 90.4928 157.316 90.4982 157.299 90.4999C157.282 90.5017 157.264 90.4999 157.248 90.4945C157.231 90.4892 157.216 90.4804 157.204 90.4689C157.191 90.4574 157.18 90.4433 157.173 90.4275L157.161 90.4029C157.154 90.3871 157.144 90.373 157.131 90.3615C157.118 90.35 157.103 90.3413 157.087 90.3359C157.07 90.3306 157.053 90.3287 157.036 90.3305C157.019 90.3322 157.002 90.3376 156.987 90.3461L156.721 90.4793C156.692 90.4939 156.666 90.5141 156.644 90.5387C156.623 90.5634 156.607 90.592 156.596 90.623C156.586 90.6539 156.582 90.6866 156.585 90.7191C156.587 90.7516 156.596 90.7833 156.611 90.8124L159.521 96.5887C159.535 96.6179 159.555 96.6439 159.58 96.6652C159.605 96.6866 159.633 96.7028 159.664 96.713C159.695 96.7232 159.728 96.7272 159.76 96.7247C159.793 96.7222 159.825 96.7133 159.854 96.6984L162.24 95.4958C162.27 95.4813 162.295 95.4612 162.317 95.4366C162.338 95.412 162.354 95.3835 162.364 95.3527C162.374 95.3219 162.378 95.2893 162.376 95.257C162.374 95.2246 162.365 95.193 162.35 95.164L159.444 89.3865C159.43 89.3576 159.409 89.3318 159.385 89.3107C159.36 89.2896 159.332 89.2735 159.301 89.2634C159.27 89.2534 159.238 89.2495 159.205 89.2519C159.173 89.2544 159.141 89.2633 159.112 89.278L158.818 89.4235Z" fill="#09B3FF"/>
<path d="M158.026 89.8597L157.655 90.0467C157.633 90.0577 157.624 90.0844 157.635 90.1063L157.641 90.1184C157.652 90.1403 157.679 90.1491 157.701 90.1381L158.072 89.9512C158.094 89.9401 158.103 89.9134 158.092 89.8915L158.086 89.8794C158.075 89.8575 158.048 89.8487 158.026 89.8597Z" fill="#E6E8EC"/>
<path d="M158.208 89.8762C158.24 89.8762 158.266 89.8502 158.266 89.8182C158.266 89.7862 158.24 89.7603 158.208 89.7603C158.176 89.7603 158.15 89.7862 158.15 89.8182C158.15 89.8502 158.176 89.8762 158.208 89.8762Z" fill="#E6E8EC"/>
<defs>
<linearGradient id="paint0_linear" x1="181.713" y1="164.583" x2="181.713" y2="65.2552" gradientUnits="userSpaceOnUse">
<stop stop-color="#808080" stop-opacity="0.25"/>
<stop offset="0.54" stop-color="#808080" stop-opacity="0.12"/>
<stop offset="1" stop-color="#808080" stop-opacity="0.1"/>
</linearGradient>
</defs>
</svg>
