<svg width="102" height="165" viewBox="0 0 102 165" fill="none" xmlns="http://www.w3.org/2000/svg">
<path opacity="0.25" fill-rule="evenodd" clip-rule="evenodd" d="M88.4688 3.57373H25.6837C20.1529 3.57373 15.6694 8.03204 15.6694 13.5315V154.095C15.6694 159.595 20.1529 164.053 25.6837 164.053H88.4688C93.9995 164.053 98.4834 159.595 98.4834 154.095V13.5315C98.4834 8.03204 93.9995 3.57373 88.4688 3.57373Z" fill="#181F3E"/>
<path fill-rule="evenodd" clip-rule="evenodd" d="M91.4824 0.274658H28.6973C23.1666 0.274658 18.6831 4.73296 18.6831 10.2324V150.796C18.6831 156.296 23.1666 160.754 28.6973 160.754H91.4824C97.0132 160.754 101.497 156.296 101.497 150.796V10.2324C101.497 4.73296 97.0132 0.274658 91.4824 0.274658Z" fill="#D9E6F4"/>
<mask id="mask0" mask-type="alpha" maskUnits="userSpaceOnUse" x="18" y="0" width="84" height="161">
<path fill-rule="evenodd" clip-rule="evenodd" d="M91.4819 0.274658H28.6968C23.1661 0.274658 18.6826 4.73296 18.6826 10.2324V150.796C18.6826 156.296 23.1661 160.754 28.6968 160.754H91.4819C97.0127 160.754 101.497 156.296 101.497 150.796V10.2324C101.497 4.73296 97.0127 0.274658 91.4819 0.274658Z" fill="#D9E6F4"/>
</mask>
<g mask="url(#mask0)">
<path d="M5.43553 28.3823L105.405 110.256L106.72 43.2495L-6.18359 39.2498L11.6461 56.3467L124.724 65.0369L6.94304 94.7188L113.602 129.341L113.203 142.459L3.14278 135.917L6.47693 169L54.8053 164.688L80.7247 4.72412" stroke="white" stroke-miterlimit="10"/>
</g>
<path fill-rule="evenodd" clip-rule="evenodd" d="M97.6553 148.346C97.6553 152.588 94.1974 156.026 89.9316 156.026H30.2478C25.9822 156.026 22.5243 152.588 22.5243 148.346V12.0272C22.5243 7.78573 25.9822 4.34718 30.2478 4.34718H89.9316C94.1974 4.34718 97.6553 7.78573 97.6553 12.0272V148.346ZM91.4822 0.274658H28.6971C23.1663 0.274658 18.6826 4.73296 18.6826 10.2324V150.796C18.6826 156.296 23.1663 160.754 28.6971 160.754H91.4822C97.0129 160.754 101.497 156.296 101.497 150.796V10.2324C101.497 4.73296 97.0129 0.274658 91.4822 0.274658Z" fill="#38404C"/>
<path d="M89.8369 35.6127C88.5268 45.0656 69.0788 64.8355 69.0788 64.8355C69.0788 64.8355 54.3742 40.3307 55.673 30.8777C55.9839 28.6345 56.7336 26.4745 57.8793 24.521C59.025 22.5675 60.5442 20.8588 62.3503 19.4924C64.1563 18.126 66.2138 17.1288 68.4052 16.5576C70.5967 15.9864 72.8792 15.8524 75.1224 16.1633C77.3657 16.4742 79.5257 17.2239 81.4792 18.3696C83.4327 19.5152 85.1414 21.0345 86.5078 22.8405C87.8741 24.6466 88.8714 26.704 89.4426 28.8955C90.0138 31.0869 90.1478 33.3695 89.8369 35.6127Z" fill="url(#paint0_linear)"/>
<path d="M88.7074 35.9091C87.4792 44.7776 69.2255 63.3221 69.2255 63.3221C69.2255 63.3221 55.4498 40.3532 56.6809 31.4706C56.931 29.3328 57.6053 27.2664 58.6645 25.3927C59.7236 23.5189 61.1462 21.8754 62.8488 20.5586C64.5513 19.2418 66.4997 18.2781 68.5796 17.7242C70.6595 17.1702 72.829 17.0371 74.9611 17.3325C77.0931 17.628 79.1447 18.3461 80.9955 19.4449C82.8463 20.5436 84.4592 22.0008 85.7395 23.731C87.0198 25.4612 87.9418 27.4296 88.4515 29.5208C88.9611 31.612 89.0481 33.7839 88.7074 35.9091Z" fill="#09B3FF"/>
<path d="M80.8768 33.5156C81.4914 29.081 78.4047 24.9893 73.9825 24.3765C69.5604 23.7637 65.4773 26.8618 64.8627 31.2963C64.2482 35.7308 67.3349 39.8225 71.757 40.4353C76.1792 41.0482 80.2623 37.9501 80.8768 33.5156Z" fill="white"/>
<path d="M20.216 102.574H0V104.595H20.216V102.574Z" fill="#B0BEC5"/>
<path d="M27.5568 127.138H7.34082V129.16H27.5568V127.138Z" fill="#B0BEC5"/>
<path d="M33.8729 139.013H23.5137V141.286H33.8729V139.013Z" fill="#B0BEC5"/>
<path d="M39.1811 151.397H28.8218V152.913H39.1811V151.397Z" fill="#B0BEC5"/>
<path d="M23.2877 98.9231C23.2877 98.9231 10.2151 100.442 14.168 108.348C16.6764 113.49 18.6874 118.86 20.1734 124.385L27.0881 122.939C27.0881 122.939 24.3522 110.019 21.9212 108.5L28.4575 107.283L23.2877 98.9231Z" fill="#FDA57D"/>
<path opacity="0.05" d="M21.9214 108.5L28.4577 107.283L23.2879 98.9231C23.2879 98.9231 23.1354 98.94 22.87 98.9824L28.0031 107.283L21.4668 108.5C23.9006 110.019 26.6365 122.939 26.6365 122.939L20.1426 124.295L20.168 124.385L27.0826 122.939C27.0826 122.939 24.3524 110.019 21.9214 108.5Z" fill="black"/>
<path d="M24.3327 121.477C24.3327 121.477 20.2952 124.374 14.1683 124.142C14.1683 124.142 10.91 125.625 15.5207 126.805C20.1314 127.985 27.5712 127.152 28.1557 126.24C28.7402 125.328 27.9129 122.248 26.552 120.986C25.1911 119.724 24.3327 121.477 24.3327 121.477Z" fill="#09B3FF"/>
<path d="M34.9941 117.468C34.9941 117.468 34.6892 123.397 36.8181 127.652L38.3371 148.176H43.2019C43.2019 148.176 43.2019 138.141 45.4833 132.822C47.7646 127.502 44.2664 121.573 44.2664 121.573L43.9614 115.491L34.9941 117.468Z" fill="#FDA57D"/>
<path d="M38.0322 60.1598C41.4736 60.1598 44.2635 57.3699 44.2635 53.9284C44.2635 50.4869 41.4736 47.697 38.0322 47.697C34.5907 47.697 31.8008 50.4869 31.8008 53.9284C31.8008 57.3699 34.5907 60.1598 38.0322 60.1598Z" fill="#FDA57D"/>
<path d="M41.3776 57.1189H33.7769V63.9601H41.3776V57.1189Z" fill="#FDA57D"/>
<path d="M41.378 146.654C41.378 146.654 36.8181 148.63 30.8889 147.111C30.8889 147.111 27.3934 147.871 31.6484 149.999C35.9033 152.128 43.3544 152.888 44.1139 152.126C44.8735 151.363 44.7238 148.173 43.6594 146.654C42.5949 145.135 41.378 146.654 41.378 146.654Z" fill="#09B3FF"/>
<path d="M21.9975 76.3496L13.0386 99.454C13.0386 99.454 6.19737 101.278 9.69564 104.624C9.69564 104.624 9.08578 101.43 13.9506 102.342C13.9506 102.342 15.32 104.624 15.32 105.383C15.32 106.143 16.8813 102.842 16.2517 101.227C17.8758 96.4666 20.4512 92.0861 23.8214 88.3521C23.8214 88.3521 27.6218 81.6634 27.4693 77.1035L21.9975 76.3496Z" fill="#FDA57D"/>
<path d="M52.0957 68.1389C52.0957 68.1389 56.9605 70.4202 59.3915 69.6607C61.1138 69.1215 62.9886 65.6853 63.9373 63.7315C64.1522 63.2852 64.4758 62.9 64.8784 62.6114C65.2809 62.3228 65.7496 62.14 66.2412 62.0798C68.0482 61.8623 70.5809 61.8849 69.8807 63.8896C68.8162 66.9305 65.3208 67.8424 65.3208 67.8424L60.3035 74.8277H51.4858L52.0957 68.1389Z" fill="#FDA57D"/>
<path d="M36.8941 59.7787C40.4198 59.7787 43.2779 56.9205 43.2779 53.3948C43.2779 49.8691 40.4198 47.011 36.8941 47.011C33.3684 47.011 30.5103 49.8691 30.5103 53.3948C30.5103 56.9205 33.3684 59.7787 36.8941 59.7787Z" fill="#3D213C"/>
<path d="M40.2373 50.3541C42.8398 50.3541 44.9496 49.1633 44.9496 47.6944C44.9496 46.2255 42.8398 45.0347 40.2373 45.0347C37.6347 45.0347 35.5249 46.2255 35.5249 47.6944C35.5249 49.1633 37.6347 50.3541 40.2373 50.3541Z" fill="#3D213C"/>
<path opacity="0.05" d="M35.0195 119.772V120.54L44.1562 119.368V118.495L35.0195 119.772Z" fill="black"/>
<path opacity="0.05" d="M22.2488 99.0896L21.6333 99.211L24.5866 108.003L24.9565 107.936L22.2488 99.0896Z" fill="black"/>
<path opacity="0.05" d="M54.603 69.113L55.2044 69.2994L55.3992 74.8277H54.603V69.113Z" fill="black"/>
<path opacity="0.05" d="M21.7179 77.0667L21.5146 77.5862L26.9159 80.963L27.0684 80.3729L21.7179 77.0667Z" fill="black"/>
<path opacity="0.05" d="M27.9634 95.5942L27.0684 95.95C27.0684 95.95 42.0581 103.215 46.9992 96.8507L46.8354 96.286C46.8354 96.286 42.2924 102.373 27.9634 95.5942Z" fill="black"/>
<path d="M20.6255 96.8647L24.8607 108.938C26.8898 108.277 28.9434 107.692 31.0215 107.182C32.0607 106.896 33.1383 106.776 34.2148 106.826C33.3678 106.981 33.5005 107.537 33.2661 108.379C33.0318 109.22 33.1024 110.11 33.1532 110.982C33.329 113.914 33.2117 116.857 32.8031 119.766C37.2857 118.799 41.8549 118.29 46.4404 118.247C45.7996 115.782 45.3764 113.266 45.1755 110.728C45.0992 110.063 45.0992 109.391 45.1755 108.726C45.311 107.828 45.695 106.987 46.0225 106.137C46.764 104.18 47.2039 102.122 47.327 100.033C47.417 99.2281 47.3293 98.4137 47.07 97.6468C46.6691 96.6445 45.774 95.9047 44.7858 95.4699C43.7816 95.0744 42.7247 94.829 41.649 94.7415C37.586 94.2389 33.6049 94.3377 29.5279 94.3773C27.9637 94.3914 27.1985 94.877 25.7896 95.5546C25.3294 95.772 20.8288 97.4492 20.6255 96.8647Z" fill="#09B3FF"/>
<path d="M28.5059 64.4995C26.041 65.835 24.0843 67.9215 22.1728 69.9742L17.4097 75.0818C19.7325 76.1687 21.9946 77.3808 24.186 78.7128C24.9935 79.2041 25.8349 79.7603 26.2217 80.6243C26.6085 81.4883 26.4673 82.468 26.2923 83.3856C25.6004 87.0261 24.4515 90.5645 22.8731 93.9171C26.7073 94.7501 30.6065 95.6112 34.0257 97.5312C34.8897 98.0168 35.7593 98.5815 36.7475 98.6605C37.3412 98.6787 37.9342 98.6073 38.5066 98.4488L47.1802 96.5006C47.4553 96.4631 47.7159 96.3552 47.9369 96.1872C48.0919 96.0251 48.212 95.8329 48.2898 95.6225C49.8173 92.2795 51.3815 88.7756 51.2178 85.1023C51.1387 83.3715 50.6785 81.6153 51.0738 79.9297C51.4691 78.2441 53.2111 76.6714 54.8262 77.3039L55.5377 69.1808C55.6195 68.266 55.6365 67.2044 54.9221 66.6171C54.4252 66.2162 53.7335 66.1964 53.1264 65.9959C52.1665 65.6797 51.4324 64.9117 50.5853 64.3583C48.2729 62.8421 45.2857 63.0228 42.53 63.26C40.1865 63.4605 37.8628 63.8247 35.5335 63.4859C33.0121 63.1358 30.807 63.2544 28.5059 64.4995Z" fill="#09B3FF"/>
<path fill-rule="evenodd" clip-rule="evenodd" d="M76.6925 9.49236H43.4872C41.6962 9.49236 40.0813 8.42131 39.3931 6.77729L38.3223 4.21924H81.8574L80.7866 6.77729C80.0986 8.42131 78.4835 9.49236 76.6925 9.49236Z" fill="#38404C"/>
<defs>
<linearGradient id="paint0_linear" x1="16611.7" y1="21430.2" x2="17777" y2="13021.5" gradientUnits="userSpaceOnUse">
<stop stop-color="#808080" stop-opacity="0.25"/>
<stop offset="0.54" stop-color="#808080" stop-opacity="0.12"/>
<stop offset="1" stop-color="#808080" stop-opacity="0.1"/>
</linearGradient>
</defs>
</svg>
