<svg width="81" height="30" viewBox="0 0 81 30" fill="none" xmlns="http://www.w3.org/2000/svg">
<path fill-rule="evenodd" clip-rule="evenodd" d="M18.1327 9.01239C15.4207 9.01239 13.2344 11.2204 13.2344 13.918C13.2344 16.5844 15.4207 18.7924 18.1327 18.7924C20.8435 18.7924 23.031 16.5844 23.031 13.918C23.031 11.2204 20.8435 9.01239 18.1327 9.01239ZM18.1327 22.348C13.449 22.348 9.66016 18.5464 9.66016 13.918C9.66016 9.25839 13.449 5.45679 18.1327 5.45679C22.8151 5.45679 26.6354 9.25839 26.6354 13.918C26.6354 18.5464 22.8151 22.348 18.1327 22.348Z" fill="#09B3FF"/>
<path fill-rule="evenodd" clip-rule="evenodd" d="M32.9176 6.68258C33.9655 6.06938 35.1665 5.73218 36.4291 5.73218C37.4469 5.73218 38.2476 6.53018 38.2476 7.50938C38.2476 8.49098 37.4469 9.28778 36.4291 9.28778C34.4575 9.28778 32.9803 10.8826 32.9803 13.0594V20.4778C32.9803 21.4594 32.1784 22.2562 31.1931 22.2562C30.2067 22.2562 29.406 21.4594 29.406 20.4778V13.1614C29.406 13.1614 29.0467 8.68058 32.9176 6.68258Z" fill="#09B3FF"/>
<path fill-rule="evenodd" clip-rule="evenodd" d="M44.901 7.14264V20.4782C44.901 21.4598 44.1003 22.2566 43.0837 22.2566C42.0973 22.2566 41.2966 21.4598 41.2966 20.4782V7.14264C41.2966 6.16104 42.0973 5.36424 43.0837 5.36424C44.1003 5.36424 44.901 6.16104 44.901 7.14264ZM41.1736 1.80864C41.1736 0.765844 42.0358 0.000244141 43.0837 0.000244141C44.1618 0.000244141 44.9926 0.765844 45.024 1.80864C44.9926 2.85024 44.1618 3.61704 43.0837 3.61704C42.0358 3.61704 41.1736 2.85024 41.1736 1.80864Z" fill="#09B3FF"/>
<path fill-rule="evenodd" clip-rule="evenodd" d="M60.8272 13.7947C60.8272 10.9747 58.9472 8.92035 56.3292 8.92035C53.7414 8.92035 51.8614 10.9747 51.8614 13.7947C51.8614 16.6159 53.7414 18.6691 56.3292 18.6691C58.9472 18.6691 60.8272 16.6159 60.8272 13.7947ZM56.3292 5.36475C58.6083 5.36475 60.6728 6.25275 62.1826 7.87875C63.6296 9.44235 64.4014 11.5567 64.4014 13.7947C64.4014 16.0639 63.6296 18.1483 62.1826 19.7119C60.6728 21.3367 58.6083 22.2559 56.3292 22.2559C54.6965 22.2559 53.1565 21.7663 51.8614 20.9071V28.1419C51.8614 29.1223 51.0306 29.9203 50.0454 29.9203C49.059 29.9203 48.2583 29.1223 48.2583 28.1419V16.0927C48.2583 14.3359 48.2257 12.2383 48.5742 10.9363C49.4846 7.53915 52.5886 5.36475 56.3292 5.36475Z" fill="#09B3FF"/>
<path fill-rule="evenodd" clip-rule="evenodd" d="M79.1862 5.36426C78.2022 5.36426 77.4003 6.16106 77.4003 7.14266V14.9295C77.4003 16.7379 76.3524 18.6999 74.0733 18.6999C71.7929 18.6999 70.745 16.7379 70.745 14.9295V7.14266C70.745 6.16106 69.9443 5.36426 68.9591 5.36426C67.9727 5.36426 67.172 6.16106 67.172 7.14266V14.9295C67.172 19.0983 70.1288 22.2567 74.0733 22.2567C78.0153 22.2567 80.9733 19.0983 80.9733 14.9295V7.14266C80.9733 6.16106 80.1726 5.36426 79.1862 5.36426Z" fill="#09B3FF"/>
<path fill-rule="evenodd" clip-rule="evenodd" d="M-0.000488281 3.49471C-0.000488281 2.51431 0.801424 1.71631 1.81798 1.71631C2.80319 1.71631 3.60389 2.51431 3.60389 3.49471V5.45671H5.88422C6.86942 5.45671 7.67013 6.25351 7.67013 7.23511C7.67013 8.21551 6.86942 9.01351 5.88422 9.01351H3.60389V17.8419C3.60389 18.3639 4.00545 18.7923 4.52881 18.7923C4.89781 18.7923 5.14501 18.5775 5.23786 18.4551C5.88422 17.7195 7.02378 17.6271 7.76298 18.2715C8.53354 18.8847 8.62519 20.0187 7.97884 20.7855C7.11542 21.7659 5.85286 22.3479 4.52881 22.3479C2.03384 22.3479 -0.000488281 20.3247 -0.000488281 17.8419V3.49471Z" fill="#09B3FF"/>
</svg>
