<svg width="700" height="524" viewBox="0 0 700 524" fill="none" xmlns="http://www.w3.org/2000/svg">
<g clip-path="url(#clip0)">
<path opacity="0.1" d="M399.349 73.4275C356.69 71.951 316.061 58.1751 277.265 43.1073C238.468 28.0395 200.04 11.3239 158.403 3.36815C131.622 -1.77309 100.992 -2.49814 79.419 11.8644C58.6628 25.6798 51.9397 49.5536 48.3342 71.661C45.6186 88.3107 44.0235 105.837 51.4585 121.426C56.6261 132.249 65.7881 141.345 72.1289 151.706C94.1901 187.781 78.595 232.259 54.6948 267.476C43.4896 283.994 30.4717 299.774 21.8173 317.34C13.1628 334.906 9.16189 355.075 16.7353 373.017C24.2363 390.814 42.1186 404.154 61.4905 413.547C100.834 432.629 147.178 438.087 192.401 441.184C292.477 448.026 393.081 445.067 493.421 442.094C530.556 441 567.85 439.886 604.379 434.145C624.667 430.955 645.608 425.893 660.34 413.672C679.033 398.163 683.667 371.903 671.136 352.452C650.123 319.831 592.04 311.731 577.335 276.724C569.254 257.451 577.553 235.99 589.305 218.12C614.51 179.779 656.754 146.143 658.975 102.324C660.505 72.2278 640.197 42.0857 608.796 27.8418C575.885 12.9124 530.24 14.7909 505.971 39.4953C480.957 64.9444 437.006 74.7391 399.349 73.4275Z" fill="#09B3FF"/>
<path d="M171.052 81.3898H0V252.442H171.052V81.3898Z" fill="#F4F9FF"/>
<path d="M700 81.3898H528.948V252.442H700V81.3898Z" fill="#F4F9FF"/>
<path opacity="0.5" d="M95.8316 21.112L94.1244 19.3653C94.0905 19.3274 94.0488 19.2971 94.0022 19.2767C93.9555 19.2562 93.9051 19.246 93.8542 19.2467C93.8031 19.2451 93.7524 19.2549 93.7056 19.2754C93.6589 19.296 93.6173 19.3267 93.5839 19.3653L81.7854 31.2297L77.4879 26.9388C77.4533 26.9017 77.4115 26.872 77.365 26.8518C77.3185 26.8315 77.2683 26.8211 77.2176 26.8211C77.1669 26.8211 77.1167 26.8315 77.0703 26.8518C77.0238 26.872 76.9819 26.9017 76.9474 26.9388L75.227 28.6591C75.1896 28.6948 75.1597 28.7378 75.1393 28.7854C75.1189 28.833 75.1084 28.8842 75.1084 28.936C75.1084 28.9877 75.1189 29.039 75.1393 29.0866C75.1597 29.1341 75.1896 29.1771 75.227 29.2128L80.6451 34.6243C80.936 34.9464 81.3395 35.1446 81.7722 35.178C82.1997 35.1406 82.5997 34.9512 82.8994 34.6441V34.6441L95.8382 21.6657C95.9063 21.5896 95.9439 21.491 95.9439 21.3889C95.9439 21.2867 95.9063 21.1882 95.8382 21.112H95.8316Z" fill="#0BCEAD"/>
<path opacity="0.5" d="M85.5225 9.80792C89.5463 9.8108 93.4446 11.2086 96.5534 13.7632C99.6622 16.3178 101.789 19.8711 102.572 23.818C103.355 27.7648 102.745 31.8611 100.847 35.4089C98.9488 38.9567 95.8792 41.7366 92.1612 43.2752C88.4432 44.8138 84.3068 45.0157 80.4565 43.8467C76.6063 42.6777 73.2805 40.2101 71.0455 36.8641C68.8106 33.5181 67.8048 29.5008 68.1994 25.4964C68.5941 21.492 70.3648 17.7483 73.2099 14.903C74.8236 13.2821 76.7426 11.9972 78.8561 11.1226C80.9695 10.2481 83.2353 9.80122 85.5225 9.80792ZM85.5225 7.09888C81.5422 7.09888 77.6513 8.27926 74.3419 10.4907C71.0325 12.7022 68.4532 15.8454 66.9303 19.5229C65.4075 23.2003 65.0093 27.2468 65.7863 31.1505C66.5633 35.0543 68.4805 38.6399 71.2955 41.4539C74.1105 44.268 77.6967 46.184 81.6007 46.9597C85.5047 47.7354 89.551 47.336 93.228 45.8119C96.9049 44.2878 100.047 41.7075 102.258 38.3974C104.468 35.0872 105.647 31.1959 105.646 27.2156C105.647 24.5731 105.127 21.9562 104.116 19.5147C103.105 17.0732 101.622 14.855 99.7534 12.9867C97.8845 11.1184 95.6658 9.63679 93.2239 8.62652C90.7821 7.61625 88.1651 7.09715 85.5225 7.09888V7.09888Z" fill="#09B3FF"/>
<path opacity="0.8" d="M227.942 77.3559L225.793 75.1544C225.75 75.108 225.698 75.071 225.64 75.046C225.582 75.021 225.52 75.0086 225.457 75.0094C225.392 75.0067 225.328 75.0183 225.269 75.0434C225.21 75.0685 225.157 75.1064 225.114 75.1544L210.264 90.1167L204.852 84.7119C204.809 84.666 204.757 84.6295 204.699 84.6046C204.641 84.5796 204.579 84.5668 204.516 84.5668C204.452 84.5667 204.389 84.5794 204.33 84.6043C204.271 84.6293 204.218 84.6658 204.173 84.7119L202.005 86.8804C201.957 86.9248 201.92 86.9784 201.894 87.0379C201.868 87.0974 201.855 87.1616 201.855 87.2264C201.855 87.2913 201.868 87.3555 201.894 87.415C201.92 87.4745 201.957 87.5281 202.005 87.5725L208.82 94.3747C209.189 94.7793 209.698 95.0271 210.244 95.0668C210.777 95.0211 211.277 94.7875 211.654 94.4077L227.935 78.0348C228.011 77.9418 228.053 77.8254 228.053 77.7053C228.053 77.5851 228.011 77.4687 227.935 77.3757L227.942 77.3559Z" fill="#0BCEAD"/>
<path opacity="0.8" d="M214.957 63.1187C220.027 63.1198 224.94 64.8788 228.859 68.096C232.777 71.3132 235.459 75.7896 236.448 80.7625C237.436 85.7354 236.67 90.8972 234.279 95.3684C231.888 99.8396 228.022 103.344 223.337 105.283C218.653 107.223 213.441 107.479 208.589 106.007C203.737 104.535 199.546 101.426 196.729 97.2106C193.912 92.9949 192.644 87.9329 193.141 82.8871C193.638 77.8414 195.869 73.124 199.454 69.5386C201.484 67.4953 203.9 65.8756 206.561 64.7736C209.223 63.6715 212.076 63.109 214.957 63.1187V63.1187ZM214.957 59.7109C209.947 59.7109 205.049 61.1965 200.884 63.9799C196.718 66.7633 193.472 70.7193 191.554 75.3479C189.637 79.9764 189.136 85.0695 190.113 89.9832C191.09 94.8968 193.503 99.4103 197.045 102.953C200.588 106.495 205.101 108.908 210.015 109.885C214.929 110.863 220.022 110.361 224.65 108.444C229.279 106.527 233.235 103.28 236.018 99.1143C238.802 94.9487 240.287 90.0513 240.287 85.0414C240.288 81.7147 239.634 78.4205 238.361 75.3469C237.088 72.2732 235.222 69.4805 232.87 67.1281C230.518 64.7758 227.725 62.91 224.651 61.6373C221.578 60.3647 218.283 59.7101 214.957 59.7109V59.7109Z" fill="#09B3FF"/>
<path opacity="0.5" d="M614.471 9.80792C618.495 9.8108 622.393 11.2086 625.502 13.7632C628.61 16.3178 630.737 19.8711 631.52 23.818C632.303 27.7648 631.694 31.8611 629.795 35.4089C627.897 38.9567 624.827 41.7366 621.109 43.2752C617.391 44.8138 613.255 45.0157 609.405 43.8467C605.555 42.6777 602.229 40.2101 599.994 36.8641C597.759 33.5181 596.753 29.5008 597.148 25.4964C597.542 21.492 599.313 17.7483 602.158 14.903C603.772 13.2821 605.691 11.9972 607.804 11.1226C609.918 10.2481 612.184 9.80122 614.471 9.80792V9.80792ZM614.471 7.09888C610.49 7.09888 606.6 8.27926 603.29 10.4907C599.981 12.7022 597.401 15.8454 595.879 19.5229C594.356 23.2003 593.958 27.2468 594.735 31.1505C595.512 35.0543 597.429 38.6399 600.244 41.4539C603.059 44.268 606.645 46.184 610.549 46.9597C614.453 47.7354 618.499 47.336 622.176 45.8119C625.853 44.2878 628.996 41.7075 631.206 38.3974C633.416 35.0872 634.595 31.1959 634.594 27.2156C634.595 24.5731 634.075 21.9562 633.064 19.5147C632.053 17.0732 630.571 14.855 628.702 12.9867C626.833 11.1184 624.614 9.63679 622.172 8.62652C619.73 7.61625 617.113 7.09715 614.471 7.09888V7.09888Z" fill="#09B3FF"/>
<path opacity="0.8" d="M484.114 63.1186C489.186 63.1121 494.102 64.8647 498.026 68.0777C501.95 71.2906 504.639 75.765 505.633 80.7382C506.627 85.7114 505.866 90.8754 503.479 95.3501C501.092 99.8248 497.227 103.333 492.543 105.277C487.858 107.221 482.645 107.48 477.791 106.011C472.937 104.541 468.743 101.433 465.924 97.2174C463.105 93.0016 461.835 87.9385 462.331 82.8912C462.827 77.8439 465.058 73.1249 468.644 69.5386C470.676 67.4971 473.092 65.8785 475.753 64.7766C478.414 63.6746 481.267 63.1111 484.147 63.1186H484.114ZM484.147 59.7109C479.137 59.7109 474.24 61.1965 470.074 63.9799C465.908 66.7632 462.662 70.7193 460.745 75.3478C458.827 79.9764 458.326 85.0695 459.303 89.9831C460.281 94.8968 462.693 99.4102 466.236 102.953C469.778 106.495 474.292 108.908 479.205 109.885C484.119 110.863 489.212 110.361 493.84 108.444C498.469 106.527 502.425 103.28 505.208 99.1143C507.992 94.9487 509.477 90.0513 509.477 85.0414C509.478 81.7119 508.823 78.415 507.548 75.3392C506.273 72.2634 504.404 69.4692 502.049 67.1164C499.693 64.7637 496.896 62.8986 493.819 61.6278C490.741 60.3571 487.443 59.7057 484.114 59.7109H484.147Z" fill="#09B3FF"/>
<path d="M348.899 103.313C355.599 103.317 362.09 105.644 367.267 109.898C372.443 114.151 375.985 120.067 377.289 126.639C378.592 133.211 377.577 140.031 374.417 145.938C371.256 151.846 366.145 156.474 359.954 159.036C353.764 161.598 346.877 161.934 340.466 159.988C334.055 158.042 328.517 153.933 324.796 148.362C321.075 142.79 319.4 136.101 320.057 129.434C320.714 122.767 323.663 116.533 328.4 111.796C331.086 109.096 334.281 106.956 337.8 105.5C341.318 104.044 345.091 103.3 348.899 103.313V103.313ZM348.899 98.8041C342.276 98.8041 335.8 100.768 330.293 104.448C324.785 108.128 320.493 113.359 317.958 119.478C315.423 125.598 314.76 132.332 316.052 138.828C317.344 145.325 320.534 151.292 325.218 155.976C329.902 160.66 335.869 163.85 342.366 165.142C348.862 166.434 355.596 165.771 361.716 163.236C367.835 160.701 373.066 156.409 376.746 150.901C380.426 145.394 382.39 138.919 382.39 132.295C382.391 127.896 381.525 123.541 379.842 119.477C378.16 115.414 375.693 111.721 372.583 108.611C369.473 105.501 365.78 103.034 361.717 101.352C357.653 99.6689 353.298 98.8033 348.899 98.8041V98.8041Z" fill="#09B3FF"/>
<path d="M310.268 126.224H119.646V316.846H310.268V126.224Z" fill="#F4F9FF"/>
<path d="M579.425 126.224H388.803V316.846H579.425V126.224Z" fill="#F4F9FF"/>
<path opacity="0.1" d="M80.6713 111.756H17.0913V118.822H80.6713V111.756Z" fill="black"/>
<path opacity="0.1" d="M623.31 111.756H559.73V118.822H623.31V111.756Z" fill="black"/>
<path d="M462.178 407.615C462.178 407.615 478.696 378.356 503.572 369.926C514.027 366.456 523.075 359.689 529.357 350.639C532.304 346.312 534.85 341.725 536.963 336.936" stroke="#535461" stroke-width="2" stroke-miterlimit="10"/>
<path d="M552.605 331.551C549.77 334.299 536.568 337.147 536.568 337.147C536.568 337.147 539.811 324.037 542.645 321.282C544.007 319.961 545.838 319.235 547.734 319.264C549.631 319.293 551.439 320.075 552.759 321.436C554.08 322.798 554.806 324.629 554.777 326.526C554.748 328.423 553.966 330.23 552.605 331.551V331.551Z" fill="#0BCEAD"/>
<path d="M545.137 355.267C541.261 356.038 528.658 351.252 528.658 351.252C528.658 351.252 538.499 342.025 542.375 341.24C544.215 340.918 546.109 341.33 547.65 342.386C549.191 343.443 550.258 345.061 550.621 346.894C550.985 348.727 550.616 350.629 549.595 352.194C548.574 353.759 546.981 354.861 545.156 355.267H545.137Z" fill="#0BCEAD"/>
<path d="M517.947 380.94C514.217 379.621 505.734 369.141 505.734 369.141C505.734 369.141 518.916 366.129 522.627 367.421C523.515 367.728 524.333 368.207 525.036 368.831C525.738 369.454 526.311 370.21 526.722 371.055C527.132 371.9 527.372 372.818 527.428 373.755C527.483 374.693 527.354 375.633 527.047 376.52C526.739 377.408 526.26 378.226 525.637 378.929C525.013 379.631 524.257 380.204 523.412 380.615C522.567 381.025 521.65 381.265 520.712 381.321C519.775 381.376 518.835 381.247 517.947 380.94V380.94Z" fill="#0BCEAD"/>
<path d="M493.032 395.724C489.13 395.065 478.992 386.16 478.992 386.16C478.992 386.16 491.463 380.973 495.359 381.612C496.292 381.757 497.188 382.086 497.994 382.579C498.8 383.072 499.5 383.72 500.054 384.485C500.608 385.25 501.005 386.118 501.222 387.037C501.439 387.957 501.471 388.91 501.318 389.842C501.164 390.775 500.827 391.667 500.326 392.468C499.826 393.27 499.171 393.964 498.401 394.511C497.631 395.057 496.759 395.446 495.838 395.655C494.916 395.863 493.963 395.887 493.032 395.724V395.724Z" fill="#0BCEAD"/>
<path d="M517.631 341.009C517.631 344.964 524.776 356.413 524.776 356.413C524.776 356.413 531.921 344.964 531.921 341.016C531.921 339.119 531.167 337.3 529.826 335.959C528.485 334.618 526.666 333.864 524.769 333.864C522.873 333.864 521.054 334.618 519.712 335.959C518.371 337.3 517.618 339.119 517.618 341.016L517.631 341.009Z" fill="#0BCEAD"/>
<path d="M488.675 358.687C489.855 362.458 500.105 371.25 500.105 371.25C500.105 371.25 503.506 358.186 502.326 354.416C502.045 353.52 501.591 352.688 500.989 351.967C500.387 351.246 499.649 350.651 498.817 350.215C497.985 349.78 497.075 349.513 496.139 349.429C495.204 349.345 494.261 349.446 493.365 349.726C492.469 350.007 491.636 350.461 490.916 351.063C490.195 351.665 489.6 352.404 489.164 353.236C488.729 354.068 488.461 354.977 488.377 355.913C488.294 356.848 488.395 357.791 488.675 358.687Z" fill="#0BCEAD"/>
<path d="M462.89 379.707C463.417 383.622 472.025 394.017 472.025 394.017C472.025 394.017 477.589 381.717 477.068 377.802C476.815 375.922 475.826 374.219 474.318 373.069C472.81 371.918 470.907 371.413 469.026 371.666C467.146 371.918 465.444 372.907 464.293 374.415C463.142 375.924 462.637 377.827 462.89 379.707V379.707Z" fill="#0BCEAD"/>
<path opacity="0.25" d="M545.137 355.267C541.261 356.038 528.658 351.252 528.658 351.252C528.658 351.252 538.499 342.025 542.375 341.24C544.215 340.918 546.109 341.33 547.65 342.386C549.191 343.443 550.258 345.061 550.621 346.894C550.985 348.727 550.616 350.629 549.595 352.194C548.574 353.759 546.981 354.861 545.156 355.267H545.137Z" fill="#0BCEAD"/>
<path opacity="0.25" d="M517.947 380.94C514.217 379.621 505.734 369.141 505.734 369.141C505.734 369.141 518.916 366.129 522.627 367.421C523.515 367.728 524.333 368.207 525.036 368.831C525.738 369.454 526.311 370.21 526.722 371.055C527.132 371.9 527.372 372.818 527.428 373.755C527.483 374.693 527.354 375.633 527.047 376.52C526.739 377.408 526.26 378.226 525.637 378.929C525.013 379.631 524.257 380.204 523.412 380.615C522.567 381.025 521.65 381.265 520.712 381.321C519.775 381.376 518.835 381.247 517.947 380.94V380.94Z" fill="#0BCEAD"/>
<path opacity="0.25" d="M493.032 395.724C489.13 395.065 478.992 386.16 478.992 386.16C478.992 386.16 491.463 380.973 495.359 381.612C496.292 381.757 497.188 382.086 497.994 382.579C498.8 383.072 499.5 383.72 500.054 384.485C500.608 385.25 501.005 386.118 501.222 387.037C501.439 387.957 501.471 388.91 501.318 389.842C501.164 390.775 500.827 391.667 500.326 392.468C499.826 393.27 499.171 393.964 498.401 394.511C497.631 395.057 496.759 395.446 495.838 395.655C494.916 395.863 493.963 395.887 493.032 395.724V395.724Z" fill="#0BCEAD"/>
<path opacity="0.25" d="M517.631 341.009C517.631 344.964 524.776 356.413 524.776 356.413C524.776 356.413 531.921 344.964 531.921 341.016C531.921 339.119 531.167 337.3 529.826 335.959C528.485 334.618 526.666 333.864 524.769 333.864C522.873 333.864 521.054 334.618 519.712 335.959C518.371 337.3 517.618 339.119 517.618 341.016L517.631 341.009Z" fill="#0BCEAD"/>
<path opacity="0.25" d="M488.675 358.687C489.855 362.458 500.105 371.25 500.105 371.25C500.105 371.25 503.506 358.186 502.326 354.416C502.045 353.52 501.591 352.688 500.989 351.967C500.387 351.246 499.649 350.651 498.817 350.215C497.985 349.78 497.075 349.513 496.139 349.429C495.204 349.345 494.261 349.446 493.365 349.726C492.469 350.007 491.636 350.461 490.916 351.063C490.195 351.665 489.6 352.404 489.164 353.236C488.729 354.068 488.461 354.977 488.377 355.913C488.294 356.848 488.395 357.791 488.675 358.687Z" fill="#0BCEAD"/>
<path opacity="0.25" d="M462.89 379.707C463.417 383.622 472.025 394.017 472.025 394.017C472.025 394.017 477.589 381.717 477.068 377.802C476.815 375.922 475.826 374.219 474.318 373.069C472.81 371.918 470.907 371.413 469.026 371.666C467.146 371.918 465.444 372.907 464.293 374.415C463.142 375.924 462.637 377.827 462.89 379.707V379.707Z" fill="#0BCEAD"/>
<path d="M463.127 407.035C463.127 407.035 466.377 373.597 485.696 355.807C493.849 348.391 499.379 338.532 501.456 327.708C502.398 322.563 502.868 317.343 502.86 312.113" fill="#0BCEAD"/>
<path d="M463.127 407.035C463.127 407.035 466.377 373.597 485.696 355.807C493.849 348.391 499.379 338.532 501.456 327.708C502.398 322.563 502.868 317.343 502.86 312.113" stroke="#535461" stroke-width="2" stroke-miterlimit="10"/>
<path d="M514.975 300.848C513.498 304.513 502.583 312.462 502.583 312.462C502.583 312.462 500.23 299.168 501.706 295.503C502.057 294.632 502.576 293.838 503.234 293.167C503.892 292.497 504.675 291.962 505.539 291.595C506.404 291.227 507.332 291.033 508.271 291.024C509.21 291.014 510.142 291.19 511.013 291.541C511.884 291.892 512.678 292.412 513.349 293.069C514.019 293.727 514.554 294.51 514.921 295.374C515.289 296.239 515.483 297.167 515.492 298.106C515.502 299.045 515.326 299.977 514.975 300.848Z" fill="#0BCEAD"/>
<path d="M517.756 325.559C514.526 327.833 501.047 328.578 501.047 328.578C501.047 328.578 506.32 316.134 509.53 313.866C511.083 312.843 512.972 312.465 514.799 312.811C516.626 313.158 518.245 314.202 519.315 315.723C520.385 317.243 520.82 319.121 520.529 320.957C520.238 322.793 519.244 324.444 517.756 325.559V325.559Z" fill="#0BCEAD"/>
<path d="M503.301 360.045C499.347 360.375 487.357 354.212 487.357 354.212C487.357 354.212 498.167 346.124 502.102 345.795C503.047 345.698 504.002 345.79 504.911 346.067C505.82 346.343 506.664 346.798 507.396 347.404C508.127 348.011 508.73 348.757 509.17 349.599C509.609 350.441 509.877 351.363 509.957 352.309C510.036 353.256 509.927 354.209 509.634 355.113C509.341 356.017 508.871 356.853 508.252 357.573C507.632 358.293 506.875 358.883 506.025 359.307C505.175 359.732 504.249 359.983 503.301 360.045V360.045Z" fill="#0BCEAD"/>
<path d="M486.493 383.675C482.664 384.664 469.784 380.617 469.784 380.617C469.784 380.617 479.078 370.822 482.901 369.827C484.722 369.393 486.641 369.69 488.245 370.655C489.849 371.62 491.011 373.175 491.481 374.987C491.952 376.799 491.693 378.723 490.76 380.346C489.828 381.969 488.296 383.162 486.493 383.668V383.675Z" fill="#0BCEAD"/>
<path d="M486.83 323.674C488.431 327.286 499.603 334.879 499.603 334.879C499.603 334.879 501.508 321.512 499.913 317.9C499.145 316.165 497.719 314.806 495.949 314.123C494.179 313.439 492.21 313.487 490.475 314.255C488.739 315.023 487.381 316.45 486.697 318.22C486.014 319.99 486.061 321.959 486.83 323.694V323.674Z" fill="#0BCEAD"/>
<path d="M467.517 351.556C470.154 354.522 483.059 358.411 483.059 358.411C483.059 358.411 480.871 345.083 478.268 342.117C477.016 340.691 475.249 339.821 473.356 339.698C471.463 339.575 469.598 340.209 468.173 341.461C466.747 342.713 465.877 344.479 465.754 346.372C465.631 348.266 466.265 350.13 467.517 351.556V351.556Z" fill="#0BCEAD"/>
<path d="M452.469 381.23C454.532 384.598 466.621 390.616 466.621 390.616C466.621 390.616 466.726 377.11 464.643 373.742C463.65 372.126 462.056 370.97 460.211 370.53C458.366 370.089 456.422 370.399 454.806 371.392C453.189 372.385 452.034 373.979 451.593 375.824C451.152 377.669 451.463 379.614 452.456 381.23H452.469Z" fill="#0BCEAD"/>
<path opacity="0.1" d="M207.831 166.912H144.251V173.978H207.831V166.912Z" fill="black"/>
<path opacity="0.1" d="M299.372 229.023H261.412V236.089H299.372V229.023Z" fill="black"/>
<path opacity="0.1" d="M317.623 276.441H261.412V283.507H317.623V276.441Z" fill="black"/>
<path opacity="0.1" d="M207.831 191.815H144.251V198.88H207.831V191.815Z" fill="black"/>
<path opacity="0.1" d="M493.942 166.912H430.362V173.978H493.942V166.912Z" fill="black"/>
<path opacity="0.1" d="M493.942 191.815H430.362V198.88H493.942V191.815Z" fill="black"/>
<path d="M339.889 142.142L341.669 139.809C343.381 141.486 345.678 142.432 348.075 142.445C351.081 142.445 353.309 140.975 353.309 138.596C353.309 136.012 351.173 134.312 345.254 134.312V131.629C350.527 131.629 352.505 129.895 352.505 127.608C352.505 125.539 350.732 124.247 348.102 124.247C346.053 124.307 344.095 125.108 342.591 126.501L340.7 124.247C342.778 122.389 345.459 121.347 348.247 121.314C352.801 121.314 356.156 123.502 356.156 127.338C356.156 130.04 354.179 131.807 351.332 132.782V132.927C354.383 133.587 356.941 135.61 356.941 138.767C356.941 142.933 352.986 145.431 348.319 145.431C344.351 145.425 341.629 143.915 339.889 142.142Z" fill="#09B3FF"/>
<g opacity="0.8">
<path opacity="0.8" d="M486.216 81.403C486.216 80.1375 486.329 78.5226 486.394 77.2571H486.23C485.505 78.3776 484.681 79.4916 483.943 80.6055L478.669 87.3682H492.669V90.0904H475.057V87.7835L485.571 73.9417H489.44V95.9501H486.216V81.403Z" fill="#09B3FF"/>
</g>
<g opacity="0.5">
<path opacity="0.5" d="M607.622 34.1958L608.815 32.5678C609.969 33.6984 611.518 34.3345 613.133 34.3409C615.255 34.3409 616.923 33.0753 616.923 30.9991C616.923 28.9228 615.453 27.8023 613.271 27.8023C612.166 27.7931 611.084 28.1119 610.16 28.7185L608.921 27.9209L609.422 20.1365H618.65V22.2787H611.597L611.208 26.5433C612.067 26.1534 613 25.9554 613.943 25.9633C616.969 25.9633 619.434 27.5188 619.434 30.9595C619.434 34.4002 616.547 36.4105 613.429 36.4105C612.363 36.4418 611.302 36.2623 610.305 35.8822C609.308 35.5022 608.397 34.9291 607.622 34.1958V34.1958Z" fill="#09B3FF"/>
</g>
<path opacity="0.1" d="M464.459 186.746H228.825V422.379H464.459V186.746Z" fill="#029EE4"/>
<path d="M472.368 175.54H236.734V411.174H472.368V175.54Z" fill="white"/>
<path opacity="0.5" d="M447.684 201.642H261.412V208.708H447.684V201.642Z" fill="#09B3FF"/>
<path opacity="0.1" d="M380.023 252.732H261.412V259.798H380.023V252.732Z" fill="black"/>
<path opacity="0.1" d="M376.497 300.156H261.412V307.222H376.497V300.156Z" fill="black"/>
<path opacity="0.1" d="M418.293 323.865H261.412V330.931H418.293V323.865Z" fill="black"/>
<path opacity="0.5" d="M413.62 253.358L412.809 252.521C412.773 252.487 412.726 252.469 412.677 252.468C412.63 252.468 412.585 252.487 412.552 252.521L406.929 258.189L404.88 256.139C404.843 256.107 404.796 256.088 404.748 256.087C404.701 256.088 404.656 256.107 404.622 256.139L403.799 256.963C403.781 256.98 403.767 257.001 403.758 257.024C403.748 257.046 403.743 257.07 403.743 257.095C403.743 257.12 403.748 257.144 403.758 257.167C403.767 257.189 403.781 257.21 403.799 257.227L406.382 259.804C406.523 259.957 406.716 260.051 406.923 260.068C407.126 260.051 407.316 259.959 407.457 259.811V259.811L413.62 253.621C413.65 253.584 413.666 253.538 413.666 253.49C413.666 253.442 413.65 253.395 413.62 253.358V253.358Z" fill="#0BCEAD"/>
<path opacity="0.5" d="M408.709 247.953C410.631 247.952 412.493 248.617 413.98 249.835C415.466 251.053 416.484 252.749 416.86 254.633C417.236 256.518 416.946 258.475 416.041 260.17C415.136 261.865 413.671 263.194 411.896 263.93C410.121 264.666 408.145 264.763 406.306 264.206C404.467 263.649 402.878 262.471 401.81 260.873C400.742 259.275 400.262 257.357 400.45 255.444C400.638 253.532 401.484 251.744 402.843 250.385C403.611 249.612 404.525 248.999 405.532 248.581C406.539 248.164 407.619 247.95 408.709 247.953V247.953ZM408.709 246.668C406.812 246.666 404.957 247.228 403.378 248.281C401.8 249.334 400.57 250.832 399.843 252.585C399.117 254.338 398.926 256.266 399.296 258.127C399.666 259.988 400.579 261.698 401.921 263.039C403.263 264.381 404.972 265.295 406.833 265.664C408.694 266.034 410.623 265.844 412.376 265.117C414.128 264.39 415.626 263.16 416.679 261.582C417.733 260.004 418.294 258.149 418.293 256.251C418.289 253.712 417.278 251.278 415.481 249.483C413.684 247.689 411.249 246.681 408.709 246.681V246.668Z" fill="#0BCEAD"/>
<path opacity="0.5" d="M413.62 300.776L412.809 299.945C412.792 299.928 412.771 299.914 412.749 299.905C412.726 299.896 412.702 299.892 412.677 299.893C412.654 299.892 412.63 299.896 412.609 299.905C412.587 299.914 412.568 299.928 412.552 299.945L406.929 305.607L404.88 303.564C404.863 303.546 404.842 303.531 404.82 303.521C404.797 303.511 404.773 303.505 404.748 303.505C404.724 303.505 404.7 303.511 404.679 303.521C404.657 303.531 404.638 303.546 404.622 303.564L403.799 304.381C403.781 304.399 403.767 304.419 403.758 304.442C403.748 304.464 403.743 304.489 403.743 304.513C403.743 304.538 403.748 304.562 403.758 304.585C403.767 304.607 403.781 304.628 403.799 304.645L406.382 307.229C406.523 307.382 406.716 307.476 406.923 307.492C407.126 307.472 407.315 307.381 407.457 307.235V307.235L413.62 301.04C413.65 301.002 413.666 300.956 413.666 300.908C413.666 300.86 413.65 300.813 413.62 300.776V300.776Z" fill="#0BCEAD"/>
<path opacity="0.5" d="M408.709 295.411C410.631 295.409 412.493 296.074 413.98 297.292C415.466 298.511 416.484 300.207 416.86 302.091C417.236 303.976 416.946 305.932 416.041 307.627C415.136 309.323 413.671 310.651 411.896 311.387C410.121 312.123 408.145 312.221 406.306 311.664C404.467 311.106 402.878 309.928 401.81 308.331C400.742 306.733 400.262 304.814 400.45 302.902C400.638 300.99 401.484 299.202 402.843 297.843C403.611 297.069 404.525 296.456 405.532 296.039C406.539 295.621 407.619 295.408 408.709 295.411V295.411ZM408.709 294.092C406.812 294.091 404.957 294.652 403.379 295.705C401.801 296.758 400.571 298.256 399.844 300.008C399.117 301.76 398.926 303.689 399.296 305.55C399.665 307.41 400.578 309.12 401.919 310.462C403.26 311.804 404.969 312.718 406.829 313.088C408.69 313.459 410.618 313.269 412.371 312.544C414.124 311.818 415.622 310.589 416.676 309.012C417.73 307.434 418.293 305.58 418.293 303.683C418.294 302.424 418.046 301.177 417.565 300.013C417.084 298.85 416.378 297.792 415.488 296.902C414.598 296.011 413.541 295.304 412.378 294.822C411.215 294.34 409.968 294.092 408.709 294.092V294.092Z" fill="#0BCEAD"/>
<path opacity="0.1" d="M337.813 523.589C363.808 523.589 384.881 520.054 384.881 515.693C384.881 511.332 363.808 507.797 337.813 507.797C311.817 507.797 290.744 511.332 290.744 515.693C290.744 520.054 311.817 523.589 337.813 523.589Z" fill="#029EE4"/>
<path opacity="0.1" d="M165.673 453.883C179.852 453.883 191.347 452.119 191.347 449.942C191.347 447.765 179.852 446 165.673 446C151.494 446 140 447.765 140 449.942C140 452.119 151.494 453.883 165.673 453.883Z" fill="#029EE4"/>
<path opacity="0.1" d="M127.669 444.288C133.009 444.288 137.338 443.695 137.338 442.962C137.338 442.23 133.009 441.636 127.669 441.636C122.329 441.636 118 442.23 118 442.962C118 443.695 122.329 444.288 127.669 444.288Z" fill="#6C63FF"/>
<path opacity="0.1" d="M164.708 448.045C170.049 448.045 174.378 447.451 174.378 446.719C174.378 445.986 170.049 445.393 164.708 445.393C159.368 445.393 155.039 445.986 155.039 446.719C155.039 447.451 159.368 448.045 164.708 448.045Z" fill="#6C63FF"/>
<path opacity="0.1" d="M208.331 442.962C213.671 442.962 218 442.369 218 441.636C218 440.904 213.671 440.31 208.331 440.31C202.991 440.31 198.662 440.904 198.662 441.636C198.662 442.369 202.991 442.962 208.331 442.962Z" fill="#6C63FF"/>
<path opacity="0.1" d="M149.882 458.356C153.679 458.356 156.757 457.933 156.757 457.412C156.757 456.891 153.679 456.468 149.882 456.468C146.084 456.468 143.006 456.891 143.006 457.412C143.006 457.933 146.084 458.356 149.882 458.356Z" fill="#6C63FF"/>
<path opacity="0.1" d="M188.322 457.412C192.12 457.412 195.198 456.989 195.198 456.468C195.198 455.947 192.12 455.524 188.322 455.524C184.525 455.524 181.447 455.947 181.447 456.468C181.447 456.989 184.525 457.412 188.322 457.412Z" fill="#6C63FF"/>
<path d="M164.911 446.417C164.911 446.417 151.354 401.964 167.035 384.159C178.766 370.837 192.083 372.432 198.048 374.079C199.591 374.49 201.027 375.232 202.255 376.253C203.483 377.274 204.474 378.55 205.16 379.992C207.245 384.489 206.868 391.79 192.149 400.312C167.507 414.587 165.973 434.147 165.973 434.147L164.911 446.417Z" fill="#0BCEAD"/>
<path d="M195.925 380.389C195.925 380.389 155.95 392.889 164.911 446.417" stroke="#565987" stroke-miterlimit="10"/>
<path d="M172.58 384.872C172.58 384.872 178.082 388.581 176.355 394.154" stroke="#565987" stroke-miterlimit="10"/>
<path d="M191.914 388.17C191.914 388.17 188.549 384.749 184.458 386.636" stroke="#565987" stroke-miterlimit="10"/>
<path d="M176.114 405.39C176.114 405.39 170.206 402.388 168.677 406.145" stroke="#565987" stroke-miterlimit="10"/>
<path d="M161.495 411.638C161.495 411.638 165.931 411.284 166.011 413.407" stroke="#565987" stroke-miterlimit="10"/>
<path d="M164.359 446.775C164.359 446.775 180.243 414.469 184.604 415.158C186.675 415.498 187.633 417.518 188.063 419.584C188.598 422.231 188.296 424.979 187.199 427.446C184.948 432.632 178.899 442.448 164.359 446.775Z" fill="#0BCEAD"/>
<path d="M184.49 421.307C184.49 421.307 167.823 445.473 164.6 446.539" stroke="#565987" stroke-miterlimit="10"/>
<path d="M186.024 425.077H182.136" stroke="#565987" stroke-miterlimit="10"/>
<path d="M181.367 433.925L175.265 434.185" stroke="#565987" stroke-miterlimit="10"/>
<path d="M177.653 426.847L178.318 430.023" stroke="#565987" stroke-miterlimit="10"/>
<path d="M171.169 436.516L171.287 439.404" stroke="#565987" stroke-miterlimit="10"/>
<path d="M164.831 446.775C164.831 446.775 148.952 414.469 144.587 415.158C142.515 415.498 141.562 417.518 141.128 419.584C140.593 422.231 140.895 424.979 141.991 427.446C144.252 432.632 150.306 442.448 164.831 446.775Z" fill="#0BCEAD"/>
<path d="M144.709 421.307C144.709 421.307 161.382 445.478 164.6 446.539" stroke="#565987" stroke-miterlimit="10"/>
<path d="M143.18 425.077H147.069" stroke="#565987" stroke-miterlimit="10"/>
<path d="M147.838 433.925L153.94 434.185" stroke="#565987" stroke-miterlimit="10"/>
<path d="M151.552 426.847L150.886 430.023" stroke="#565987" stroke-miterlimit="10"/>
<path d="M158.036 436.516L157.918 439.404" stroke="#565987" stroke-miterlimit="10"/>
<path d="M192.107 454.321C192.54 453.969 192.855 453.493 193.008 452.957C193.084 452.685 193.063 452.395 192.948 452.137C192.834 451.878 192.633 451.668 192.381 451.541C191.8 451.32 191.177 451.725 190.71 452.131C190.243 452.537 189.7 453 189.087 452.915C189.403 452.627 189.639 452.262 189.773 451.856C189.907 451.451 189.934 451.017 189.851 450.598C189.824 450.423 189.749 450.26 189.634 450.126C189.313 449.781 188.733 449.927 188.346 450.201C187.119 451.065 186.774 452.731 186.77 454.226C186.711 453.676 186.711 453.121 186.77 452.57C186.794 452.293 186.75 452.014 186.642 451.758C186.533 451.502 186.363 451.277 186.147 451.102C185.857 450.946 185.532 450.868 185.203 450.876C184.929 450.838 184.651 450.857 184.385 450.932C184.119 451.008 183.872 451.138 183.66 451.315C183.188 451.815 183.315 452.655 183.721 453.202C184.175 453.718 184.715 454.15 185.316 454.481C185.773 454.756 186.163 455.128 186.458 455.571C186.493 455.633 186.522 455.698 186.543 455.765H189.997C190.762 455.38 191.472 454.895 192.107 454.321V454.321Z" fill="#0BCEAD"/>
<path d="M131.591 441.311C132.022 440.957 132.336 440.482 132.492 439.947C132.562 439.677 132.538 439.392 132.423 439.139C132.308 438.885 132.109 438.679 131.86 438.555C131.279 438.333 130.661 438.734 130.189 439.14C129.717 439.546 129.184 440.013 128.566 439.923C128.883 439.637 129.121 439.274 129.255 438.868C129.389 438.463 129.415 438.03 129.33 437.611C129.305 437.437 129.231 437.274 129.118 437.139C128.797 436.795 128.212 436.941 127.83 437.21C126.603 438.073 126.258 439.739 126.254 441.24C126.195 440.688 126.195 440.131 126.254 439.579C126.277 439.302 126.232 439.024 126.123 438.768C126.015 438.512 125.846 438.287 125.631 438.111C125.341 437.956 125.015 437.88 124.687 437.889C124.413 437.85 124.134 437.868 123.868 437.944C123.603 438.02 123.356 438.151 123.144 438.328C122.672 438.828 122.799 439.668 123.205 440.216C123.659 440.731 124.199 441.164 124.8 441.495C125.258 441.766 125.648 442.137 125.942 442.58C125.974 442.642 126 442.707 126.022 442.774H129.439C130.219 442.385 130.943 441.893 131.591 441.311V441.311Z" fill="#0BCEAD"/>
<path d="M151.759 454.321C152.191 453.968 152.505 453.492 152.661 452.957C152.737 452.684 152.716 452.394 152.6 452.135C152.485 451.876 152.283 451.666 152.028 451.541C151.448 451.32 150.83 451.725 150.358 452.131C149.886 452.537 149.353 453 148.735 452.915C149.052 452.628 149.289 452.263 149.423 451.857C149.557 451.451 149.583 451.017 149.499 450.598C149.476 450.423 149.402 450.259 149.287 450.126C148.966 449.781 148.381 449.927 147.998 450.201C146.771 451.065 146.427 452.731 146.422 454.226C146.363 453.676 146.363 453.121 146.422 452.57C146.446 452.293 146.402 452.015 146.293 451.759C146.185 451.503 146.015 451.278 145.799 451.102C145.51 450.946 145.185 450.868 144.856 450.876C144.582 450.838 144.303 450.857 144.038 450.932C143.772 451.008 143.525 451.138 143.312 451.315C142.841 451.815 142.968 452.655 143.374 453.202C143.828 453.718 144.367 454.15 144.969 454.481C145.425 454.756 145.816 455.128 146.111 455.571C146.144 455.633 146.171 455.698 146.191 455.765H149.65C150.415 455.38 151.124 454.895 151.759 454.321V454.321Z" fill="#0BCEAD"/>
<path d="M200.12 438.361C200.12 438.361 203.744 438.248 204.839 437.469C205.933 436.691 210.412 435.766 210.681 436.997C210.95 438.229 216.122 443.198 212.035 443.231C207.948 443.264 202.531 442.594 201.441 441.929C200.351 441.263 200.12 438.361 200.12 438.361Z" fill="#A8A8A8"/>
<path opacity="0.2" d="M212.101 442.811C208.014 442.844 202.602 442.174 201.512 441.509C200.681 441.004 200.351 439.192 200.242 438.357H200.12C200.12 438.357 200.351 441.278 201.436 441.938C202.522 442.599 207.939 443.274 212.03 443.241C213.21 443.241 213.616 442.811 213.597 442.188C213.437 442.571 212.965 442.807 212.101 442.811Z" fill="black"/>
<path opacity="0.1" d="M389.443 304.381C389.001 303.478 385.488 291.858 385.488 291.858L378.718 274.674C378.718 274.674 374.612 252.059 368.482 257.701C362.352 263.344 371.778 276.882 371.778 276.882C371.778 276.882 375.647 286.769 375.449 288.747C375.251 290.724 377.605 297.975 377.605 297.975L376.84 302.14C375.845 302.074 375.199 302.074 375.199 302.074C375.199 302.074 374.592 302.944 374.012 303.004C373.914 303.017 373.814 303.003 373.722 302.964C373.063 302.668 370.881 302.727 369.767 302.727C368.733 302.587 367.731 302.266 366.808 301.778C366.426 301.013 364.264 300.558 362.346 300.301C360.889 296.676 358.839 293.15 358.556 289.366C358.416 288.336 358.62 287.289 359.136 286.387C359.263 286.194 359.409 286.013 359.571 285.846C360.105 285.306 360.757 284.831 361.35 284.33C361.647 284.08 361.917 283.823 362.174 283.559C367.203 278.682 366.406 271.128 361.845 265.901C356.572 259.857 332.79 246.852 325.592 257.991C324.59 259.547 324.557 261.346 324.274 263.073C323.557 267.297 321.576 271.204 318.592 274.279C316.206 276.816 313.075 279.156 311.704 282.03L311.658 281.925C311.331 282.548 311.092 283.213 310.946 283.902C310.254 287.402 312.614 290.77 313.853 294.178C314.275 295.335 314.58 296.532 314.763 297.75L314.842 296.999C315.145 298.739 315.249 300.508 315.152 302.272C306.517 304.039 306.51 318.922 306.51 318.922C306.51 318.922 305.449 324.854 305.627 326.97C305.805 329.086 305.805 333.713 305.805 334.84C305.805 335.967 304.737 342.888 304.619 343.718C304.467 344.635 302.846 349.024 306.761 350.013C307.031 350.086 307.321 350.145 307.618 350.198C307.783 353.75 308.092 361.205 307.822 362.853C307.822 362.853 309.246 372.859 310.426 375.377C311.183 376.865 312.065 378.288 313.062 379.628C312.979 380.236 312.775 380.82 312.462 381.348C311.863 382.225 312.172 382.943 313.181 383.253C313.15 383.556 313.111 383.899 313.062 384.281C312.634 388.144 311.988 395.81 313.062 399.699C314.572 405.024 314.657 406.797 314.657 406.797C314.656 407.664 314.869 408.518 315.277 409.282C315.936 410.172 317.057 418.425 317.057 419.756C317.057 421.088 320.075 433.071 319.186 435.911C318.296 438.752 319.008 442.747 319.008 442.747C319.008 442.747 318.474 449.76 317.854 451.269C317.234 452.779 316.964 477.101 317.94 483.402C318.915 489.703 319.541 494.943 319.541 494.943C319.541 494.943 318.882 500.711 319.449 501.535C320.016 502.359 320.959 507.131 320.247 507.394C319.535 507.658 319.186 509.616 319.186 509.616C319.561 510.188 319.965 510.74 320.398 511.27C320.123 511.174 319.854 511.059 319.594 510.927C319.878 511.33 320.299 511.883 320.814 512.49L320.332 518.87C320.312 519.12 320.38 519.369 320.524 519.574C320.669 519.779 320.881 519.926 321.123 519.991C322.681 520.418 324.327 520.411 325.881 519.971C327.436 519.53 328.84 518.673 329.943 517.492C334.379 512.964 335.875 513.59 336.692 510.835C336.771 510.539 336.85 510.255 336.91 509.978C337.032 509.447 337.001 508.893 336.82 508.379C336.64 507.864 336.318 507.412 335.89 507.074C335.463 506.736 334.949 506.526 334.407 506.468C333.865 506.411 333.318 506.508 332.83 506.749C333.113 504.771 333.337 502.603 333.12 501.357C332.678 498.786 332.764 492.037 332.764 492.037L332.144 459.739C332.144 459.739 333.298 453.352 334.629 450.867C335.96 448.382 335.782 439.662 335.782 439.662L337.292 411.075L338.795 397.233C338.795 397.233 340.212 392.442 341.985 397.767C341.985 397.767 341.009 408.505 341.458 411.082C341.906 413.659 342.519 426.169 342.077 428.925C341.636 431.68 339.678 446.767 340.924 450.584C342.169 454.4 343.494 459.014 343.231 460.523C342.967 462.033 342.077 494.798 342.077 494.798C342.077 494.798 344.47 501.1 342.697 503.143C340.924 505.186 342.611 513.353 342.611 513.353C342.611 513.353 342.822 513.505 343.191 513.722L343.138 514.381L342.585 521.724C342.565 521.974 342.634 522.222 342.778 522.427C342.923 522.632 343.134 522.779 343.376 522.845C344.934 523.27 346.579 523.263 348.133 522.823C349.687 522.382 351.092 521.526 352.195 520.346C356.631 515.818 358.127 516.438 358.944 513.689C359.024 513.393 359.103 513.103 359.169 512.826C359.302 512.238 359.249 511.623 359.016 511.067C358.783 510.512 358.381 510.043 357.868 509.726C357.355 509.41 356.756 509.263 356.154 509.304C355.553 509.346 354.98 509.575 354.515 509.959C354.485 509.991 354.452 510.019 354.416 510.044C354.304 510.143 354.186 510.229 354.067 510.314L353.895 510.427C354.337 508.396 354.983 504.936 354.68 503.301C354.238 500.902 355.121 493.625 355.121 493.625C355.121 493.625 357.699 484.925 357.758 481.464C357.817 478.004 358.47 453.781 358.47 453.781C358.47 453.781 358.384 442.509 358.74 439.761C359.096 437.012 361.93 413.217 364.771 406.145C366.953 400.701 367.928 386.826 367.348 379.78C367.315 379.424 367.282 379.12 367.25 378.778C370.723 376.168 371.092 371.87 371.092 371.87C371.092 371.87 367.895 365.714 364.817 363.11C361.739 360.507 361.027 356.011 361.146 354.113C361.2 352.955 360.822 351.818 360.085 350.923C360.085 350.923 358.661 346.309 357.712 345.834C357.634 345.795 357.565 345.742 357.508 345.676C356.848 344.977 357.356 342.993 357.356 342.993V342.934C357.461 342.473 358.154 339.493 357.929 338.729C357.705 337.964 358.048 333.996 358.048 333.996C358.048 333.996 360.302 327.253 359.946 321.927C359.59 316.602 364.56 317.07 364.56 317.07L379.911 316.911H381.658C382.395 316.283 383.058 315.573 383.636 314.796C384.228 314.907 384.837 314.89 385.423 314.747C386.008 314.604 386.556 314.337 387.03 313.965C390.286 310.986 389.884 305.297 389.443 304.381ZM318.052 350.521L318.164 347.818L318.764 348.332C318.947 349.041 318.947 349.785 318.764 350.494C318.671 350.828 318.504 351.136 318.276 351.396C318.048 351.656 317.764 351.862 317.445 351.997C317.369 352.035 317.296 352.079 317.228 352.129L317.076 350.587C317.702 350.547 318.052 350.514 318.052 350.514V350.521Z" fill="black"/>
<path d="M375.64 309.621C375.64 309.621 384.381 315.244 387.689 312.258C390.998 309.272 390.59 303.511 390.141 302.602C389.693 301.692 386.134 289.992 386.134 289.992L379.259 272.67C379.259 272.67 375.08 249.871 368.845 255.533C362.609 261.195 372.206 274.865 372.206 274.865C372.206 274.865 376.161 284.838 375.937 286.835C375.713 288.832 378.125 296.149 378.125 296.149L375.64 309.621Z" fill="url(#paint0_linear)"/>
<path d="M359.34 512.747C359.274 513.03 359.202 513.32 359.109 513.617C358.299 516.392 356.763 515.766 352.254 520.327C351.129 521.519 349.7 522.383 348.121 522.827C346.542 523.27 344.872 523.277 343.29 522.845C343.045 522.781 342.831 522.633 342.684 522.427C342.537 522.221 342.467 521.97 342.486 521.718L343.053 514.315L343.323 510.75C343.323 510.75 350.501 512.766 354.159 510.216C354.278 510.13 354.397 510.044 354.509 509.945L354.614 509.86C355.085 509.474 355.664 509.245 356.271 509.203C356.878 509.161 357.483 509.309 358.002 509.626C358.521 509.943 358.929 510.414 359.168 510.973C359.408 511.532 359.468 512.152 359.34 512.747Z" fill="url(#paint1_linear)"/>
<path d="M336.817 509.952C336.758 510.235 336.679 510.525 336.593 510.822C335.782 513.597 334.247 512.971 329.738 517.532C328.611 518.723 327.183 519.587 325.605 520.032C324.026 520.476 322.357 520.485 320.774 520.056C320.527 519.993 320.311 519.845 320.164 519.637C320.017 519.429 319.948 519.176 319.97 518.923L320.53 511.521L320.807 507.955C320.807 507.955 327.985 509.972 331.637 507.421C331.762 507.335 331.874 507.249 331.992 507.151L332.098 507.065C332.568 506.678 333.147 506.447 333.754 506.404C334.361 506.361 334.967 506.509 335.486 506.827C336.006 507.145 336.413 507.616 336.651 508.177C336.89 508.737 336.948 509.357 336.817 509.952V509.952Z" fill="url(#paint2_linear)"/>
<g opacity="0.1">
<path opacity="0.1" d="M329.382 511.066L329.679 514.909C325.553 518.995 320.649 512.931 319.199 510.914C322.976 512.852 329.382 511.066 329.382 511.066Z" fill="url(#paint3_linear)"/>
</g>
<g opacity="0.1">
<path opacity="0.1" d="M353.605 512.628L354.153 512.272C350.382 517.954 344.793 515.33 343.053 514.315L343.323 510.75C343.323 510.75 350.501 512.766 354.159 510.216C353.869 511.606 353.605 512.628 353.605 512.628Z" fill="url(#paint4_linear)"/>
</g>
<path d="M365.068 405.15C362.181 412.308 359.294 436.294 358.931 439.069C358.569 441.844 358.661 453.207 358.661 453.207L357.91 481.128C357.824 484.621 355.207 493.388 355.207 493.388C355.207 493.388 354.304 500.731 354.752 503.143C355.201 505.556 353.579 511.916 353.579 511.916L354.126 511.56C349.611 518.356 342.486 513.254 342.486 513.254C342.486 513.254 340.772 505.022 342.572 502.965C344.371 500.909 341.945 494.555 341.945 494.555C341.945 494.555 342.842 461.532 343.119 460.009C343.395 458.487 342.09 453.833 340.772 449.984C339.454 446.135 341.491 430.922 341.945 428.147C342.4 425.372 341.761 412.756 341.286 410.159C340.812 407.562 341.827 396.733 341.827 396.733C340.021 391.367 338.577 396.199 338.577 396.199L337.134 410.251L335.651 439.102C335.651 439.102 335.835 447.868 334.477 450.373C333.12 452.878 331.953 459.324 331.953 459.324L332.612 491.898C332.612 491.898 332.52 498.701 332.975 501.298C333.429 503.895 331.979 510.605 331.979 510.605C326.93 522.416 318.797 509.622 318.797 509.622C318.797 509.622 319.153 507.645 319.878 507.381C320.603 507.118 319.607 502.28 319.067 501.449C318.526 500.619 319.153 494.858 319.153 494.858C319.153 494.858 318.526 489.585 317.531 483.218C316.536 476.85 316.813 452.344 317.439 450.821C318.065 449.299 318.612 442.252 318.612 442.252C318.612 442.252 317.894 438.225 318.797 435.358C319.7 432.491 316.628 420.415 316.628 419.071C316.628 417.726 315.455 409.408 314.822 408.524C314.397 407.757 314.171 406.896 314.163 406.02C314.163 406.02 314.071 404.227 312.535 398.862C311.414 394.907 312.073 387.208 312.535 383.319C312.693 381.876 312.825 380.959 312.825 380.959C312.825 380.959 364.613 372.635 366.689 374.52C367.177 374.955 367.5 376.497 367.685 378.646C368.271 385.672 367.276 399.666 365.068 405.15Z" fill="url(#paint5_linear)"/>
<g opacity="0.1">
<path opacity="0.1" d="M345.485 445.39C345.729 445.39 351.417 445.871 353.546 445.449C355.675 445.027 345.485 445.39 345.485 445.39Z" fill="url(#paint6_linear)"/>
</g>
<g opacity="0.1">
<path opacity="0.1" d="M345.907 448.732C345.907 448.732 353.816 450.103 354.212 449.391C354.607 448.679 345.907 448.732 345.907 448.732Z" fill="url(#paint7_linear)"/>
</g>
<g opacity="0.1">
<path opacity="0.1" d="M321.789 447.301C321.789 447.301 325.876 447.479 328.104 448.494C330.331 449.509 321.789 447.301 321.789 447.301Z" fill="url(#paint8_linear)"/>
</g>
<path d="M306.932 346.948C306.932 346.948 307.591 359.419 307.235 361.621C307.235 361.621 308.679 371.705 309.872 374.269C310.948 376.315 312.217 378.252 313.662 380.056L317.208 355.299L316.384 346.823L306.932 346.948Z" fill="url(#paint9_linear)"/>
<path d="M344.226 290.144C351.9 290.144 358.121 283.973 358.121 276.362C358.121 268.75 351.9 262.579 344.226 262.579C336.552 262.579 330.332 268.75 330.332 276.362C330.332 283.973 336.552 290.144 344.226 290.144Z" fill="url(#paint10_linear)"/>
<path d="M337.009 282.808C337.009 282.808 332.678 291.218 328.348 295.16C324.017 299.102 354.331 303.571 355.049 303.571C355.767 303.571 349.638 285.675 350.719 283.526C351.8 281.378 337.009 282.808 337.009 282.808Z" fill="url(#paint11_linear)"/>
<g opacity="0.1">
<path opacity="0.1" d="M367.685 378.58C367.005 379.097 366.254 379.514 365.457 379.819C359.927 381.968 353.909 384.954 349.816 383.774C345.722 382.594 337.068 383.774 337.068 383.774C337.068 383.774 319.621 382.337 316.134 383.174C314.965 383.53 313.721 383.561 312.535 383.266C312.693 381.823 312.825 380.907 312.825 380.907C312.825 380.907 364.613 372.582 366.689 374.467C367.177 374.889 367.5 376.411 367.685 378.58Z" fill="url(#paint12_linear)"/>
</g>
<path d="M371.475 370.631C371.475 370.631 370.993 376.563 365.457 378.745C359.92 380.927 353.909 383.879 349.815 382.7C345.722 381.52 337.068 382.7 337.068 382.7C337.068 382.7 319.621 381.263 316.134 382.1C312.647 382.937 310.861 381.863 311.922 380.307C312.983 378.751 312.891 373.63 312.891 371.481C312.891 369.332 311.685 360.619 312.766 359.07C313.847 357.521 314.809 351.556 316.977 350.6C317.302 350.465 317.592 350.259 317.826 349.996C318.06 349.734 318.232 349.422 318.329 349.084C318.518 348.369 318.518 347.617 318.329 346.902C318.329 346.902 317.966 346.605 317.459 346.157C316.187 345.03 314.025 342.934 314.717 342.249C315.679 341.293 314.717 335.084 314.717 335.084C314.717 335.084 312.429 330.312 313.273 328.525C314.117 326.739 305.937 317.32 305.937 317.32C305.937 317.32 305.937 301.092 315.824 300.374C315.824 300.374 322.798 300.618 323.641 297.513C324.485 294.409 330.015 292.616 330.015 292.616L342.644 295.364C342.644 295.364 353.849 297.75 355.88 296.32C357.91 294.89 359.492 298.225 359.492 298.225C359.492 298.225 366.465 298.588 367.19 300.018C367.915 301.448 364.903 315.409 364.903 315.409C364.903 315.409 359.848 314.934 360.21 320.306C360.573 325.678 358.285 332.474 358.285 332.474C358.285 332.474 357.923 336.428 358.167 337.246C358.411 338.063 357.692 341.016 357.58 341.484V341.543C357.58 341.543 357.079 343.521 357.732 344.252C357.795 344.314 357.866 344.368 357.943 344.411C358.905 344.885 360.348 349.539 360.348 349.539C361.101 350.44 361.489 351.589 361.436 352.762C361.317 354.673 362.036 359.202 365.16 361.831C368.284 364.461 371.475 370.631 371.475 370.631Z" fill="url(#paint13_linear)"/>
<path d="M317.814 343.007V343.514L317.59 349.097C317.59 349.097 310.195 349.69 306.161 348.675C302.127 347.66 303.834 343.25 303.992 342.328C304.111 341.491 305.192 334.51 305.192 333.377C305.192 332.243 305.192 327.589 305.014 325.467C304.836 323.345 305.917 317.353 305.917 317.353L306.695 316.397L315.178 319.62L317.814 343.007Z" fill="url(#paint14_linear)"/>
<g opacity="0.1">
<path opacity="0.1" d="M317.801 343.527L317.577 349.11C317.577 349.11 310.182 349.703 306.148 348.688C302.114 347.673 303.821 343.264 303.979 342.341L317.801 343.527Z" fill="url(#paint15_linear)"/>
</g>
<g opacity="0.1">
<path opacity="0.1" d="M318.362 349.071C318.551 348.356 318.551 347.604 318.362 346.889C318.362 346.889 317.999 346.592 317.491 346.144C323.865 345.267 349.09 341.827 357.593 341.458V341.517C357.593 341.517 357.092 343.494 357.745 344.226L318.362 349.071Z" fill="url(#paint16_linear)"/>
</g>
<g opacity="0.1">
<path opacity="0.1" d="M358.483 353.414C358.483 353.414 360.045 362.187 354.212 365.279C354.212 365.279 357.521 360.909 358.483 353.414Z" fill="url(#paint17_linear)"/>
</g>
<g opacity="0.1">
<path opacity="0.1" d="M320.286 365.503C320.286 365.503 334.359 363.117 337.127 364.962C339.895 366.808 320.286 365.503 320.286 365.503Z" fill="url(#paint18_linear)"/>
</g>
<g opacity="0.1">
<path opacity="0.1" d="M353.605 311.151C353.605 311.151 351.443 319.976 353.065 322.007C354.686 324.037 353.605 311.151 353.605 311.151Z" fill="url(#paint19_linear)"/>
</g>
<g opacity="0.1">
<path opacity="0.1" d="M312.825 303.927C312.825 303.927 314.802 307.222 313.609 310.61C312.416 313.998 312.825 303.927 312.825 303.927Z" fill="url(#paint20_linear)"/>
</g>
<path d="M308.738 332.685C308.738 332.685 311.263 334.181 310.419 336.508C309.575 338.834 308.738 332.685 308.738 332.685Z" fill="url(#paint21_linear)"/>
<g opacity="0.1">
<path opacity="0.1" d="M308.475 325.882C308.475 325.882 310.821 327.141 311.111 328.987C311.401 330.832 308.475 325.882 308.475 325.882Z" fill="url(#paint22_linear)"/>
</g>
<g opacity="0.1">
<path opacity="0.1" d="M343.264 397.24C343.264 397.24 358.002 398.736 360.948 395.263C360.948 395.276 347.653 397.899 343.264 397.24Z" fill="url(#paint23_linear)"/>
</g>
<g opacity="0.1">
<path opacity="0.1" d="M317.821 396.41C317.821 396.41 333.64 400.107 336.765 397.181C336.765 397.181 323.173 398.196 317.821 396.41Z" fill="url(#paint24_linear)"/>
</g>
<g opacity="0.1">
<path opacity="0.1" d="M344.404 402.078C344.404 402.078 350.995 402.078 354.087 402.256C357.178 402.434 344.404 402.078 344.404 402.078Z" fill="url(#paint25_linear)"/>
</g>
<g opacity="0.1">
<path opacity="0.1" d="M318.902 404.879C318.902 404.879 322.152 408.518 325.816 407.865C329.481 407.213 318.902 404.879 318.902 404.879Z" fill="url(#paint26_linear)"/>
</g>
<path d="M325.282 255.862C324.261 257.431 324.228 259.244 323.964 260.984C323.238 265.261 321.224 269.214 318.19 272.314C315.303 275.36 311.342 278.115 310.597 281.832C309.892 285.365 312.291 288.76 313.55 292.194C316.846 301.257 312.232 310.755 310.88 320.108C310.511 322.692 310.96 325.994 314.176 326.851C315.178 327.121 316.325 327.088 317.221 327.51C318.434 328.084 318.803 329.277 319.027 330.351C319.83 334.191 320.107 338.123 319.851 342.038C319.706 344.239 319.548 346.764 321.637 348.273C322.703 348.931 323.877 349.395 325.105 349.644C328.4 350.527 332.665 351.233 334.886 349.169C335.822 348.306 336.204 347.08 337.331 346.394C339.072 345.373 341.543 346.065 343.738 346.17C345.812 346.259 347.873 345.792 349.705 344.816C351.537 343.84 353.075 342.391 354.159 340.62C355.932 337.45 355.781 333.838 355.121 330.424C354.462 327.009 353.329 323.635 353.243 320.181C353.14 318.971 353.412 317.758 354.021 316.707C355.339 314.651 358.483 313.715 360.612 312.093C364.606 309.061 364.567 304.091 363.143 299.932C361.719 295.773 359.083 291.798 358.76 287.501C358.618 286.461 358.827 285.403 359.353 284.495C360.051 283.633 360.868 282.874 361.779 282.241C367.612 277.357 366.927 269.329 362.102 263.838C356.749 257.728 332.566 244.611 325.282 255.862Z" fill="url(#paint27_linear)"/>
<g opacity="0.1">
<path opacity="0.1" d="M314.288 295.944C314.862 292.338 314.547 288.645 313.372 285.187C312.713 283.454 311.81 281.727 311.144 279.993C310.809 280.614 310.565 281.28 310.419 281.971C309.707 285.497 312.113 288.892 313.372 292.332C313.797 293.503 314.103 294.713 314.288 295.944V295.944Z" fill="url(#paint28_linear)"/>
<path opacity="0.1" d="M319.68 335.031C319.937 331.116 319.657 327.184 318.849 323.345C318.625 322.27 318.256 321.077 317.05 320.504C316.147 320.075 315 320.108 313.998 319.845C313.386 319.698 312.815 319.414 312.329 319.014C311.842 318.614 311.453 318.11 311.19 317.538C311.012 318.447 310.847 319.357 310.716 320.26C310.34 322.844 310.788 326.146 314.011 327.003C315.013 327.273 316.16 327.24 317.063 327.662C318.269 328.235 318.638 329.428 318.862 330.503C319.236 332.284 319.496 334.087 319.64 335.901C319.627 335.618 319.68 335.321 319.68 335.031Z" fill="url(#paint29_linear)"/>
<path opacity="0.1" d="M353.955 333.64C352.872 335.41 351.335 336.859 349.504 337.835C347.673 338.811 345.614 339.279 343.54 339.19C341.346 339.085 338.874 338.393 337.134 339.414C335.974 340.073 335.618 341.326 334.688 342.189C332.467 344.252 328.202 343.547 324.907 342.664C323.679 342.416 322.505 341.952 321.44 341.293C320.53 340.635 319.916 339.645 319.733 338.538C319.733 339.764 319.733 340.996 319.653 342.222C319.508 344.417 319.35 346.942 321.44 348.451C322.505 349.11 323.679 349.575 324.907 349.822C328.202 350.712 332.467 351.411 334.688 349.347C335.618 348.484 336.007 347.265 337.134 346.579C338.874 345.551 341.346 346.243 343.54 346.355C345.615 346.444 347.675 345.976 349.506 344.998C351.338 344.021 352.874 342.571 353.955 340.798C355.662 337.753 355.589 334.299 354.996 331.004C354.768 331.925 354.418 332.812 353.955 333.64V333.64Z" fill="url(#paint30_linear)"/>
<path opacity="0.1" d="M361.594 275.241C360.681 275.874 359.862 276.633 359.162 277.495C358.638 278.404 358.432 279.462 358.575 280.501C358.687 281.807 358.964 283.094 359.399 284.33C360.072 283.623 360.807 282.977 361.594 282.399C365.549 279.104 366.498 274.358 365.219 269.935C364.542 272.013 363.284 273.855 361.594 275.241V275.241Z" fill="url(#paint31_linear)"/>
<path opacity="0.1" d="M360.427 305.093C358.292 306.708 355.154 307.644 353.836 309.707C353.225 310.757 352.953 311.97 353.058 313.181C353.108 314.577 353.28 315.967 353.572 317.333C353.651 317.172 353.739 317.016 353.836 316.865C355.154 314.815 358.292 313.873 360.427 312.251C364.072 309.483 364.382 305.1 363.301 301.191C362.75 302.747 361.75 304.105 360.427 305.093Z" fill="url(#paint32_linear)"/>
</g>
<path d="M387.894 306.556C385.428 312.759 382.238 315.204 382.238 315.204H380.465L364.857 315.362L363.051 310.472L365.582 299.926L367.137 300.024C368.075 300.517 369.093 300.84 370.143 300.98C371.283 300.98 373.511 300.921 374.17 301.217C374.263 301.259 374.366 301.273 374.467 301.257C375.054 301.198 375.68 300.321 375.68 300.321C375.68 300.321 390.359 300.347 387.894 306.556Z" fill="url(#paint33_linear)"/>
<g opacity="0.1">
<path opacity="0.1" d="M387.894 306.556C385.428 312.759 382.238 315.204 382.238 315.204H380.465C381.388 312.746 383.339 307.697 384.104 306.537C384.868 305.377 378.297 302.687 374.474 301.204C375.06 301.145 375.686 300.268 375.686 300.268C375.686 300.268 390.359 300.347 387.894 306.556Z" fill="url(#paint34_linear)"/>
</g>
<path d="M375.179 311.362C375.179 311.362 383.748 316.938 387.043 313.959C390.339 310.979 389.897 305.284 389.456 304.381C389.014 303.478 385.501 291.858 385.501 291.858L378.732 274.674C378.732 274.674 374.625 252.059 368.495 257.702C362.365 263.344 371.791 276.882 371.791 276.882C371.791 276.882 375.66 286.769 375.462 288.747C375.265 290.724 377.618 297.975 377.618 297.975L375.179 311.362Z" fill="#EFB7B9"/>
<path d="M359.142 512.832C359.076 513.109 358.997 513.399 358.918 513.696C358.114 516.444 356.605 515.825 352.169 520.353C351.065 521.533 349.661 522.389 348.107 522.829C346.552 523.269 344.908 523.277 343.349 522.851C343.108 522.786 342.896 522.638 342.752 522.434C342.607 522.229 342.539 521.98 342.558 521.731L343.112 514.388L343.382 510.855C343.382 510.855 350.448 512.832 354.041 510.321C354.159 510.235 354.278 510.15 354.39 510.051C354.426 510.026 354.459 509.997 354.489 509.965C354.953 509.581 355.527 509.352 356.128 509.311C356.729 509.269 357.329 509.417 357.842 509.733C358.355 510.049 358.756 510.518 358.99 511.074C359.223 511.63 359.276 512.245 359.142 512.832V512.832Z" fill="#09B3FF"/>
<path d="M336.962 510.064C336.903 510.341 336.824 510.624 336.745 510.921C335.941 513.676 334.431 513.05 329.995 517.578C328.893 518.759 327.488 519.616 325.934 520.057C324.379 520.497 322.734 520.504 321.176 520.076C320.934 520.012 320.721 519.865 320.577 519.66C320.432 519.455 320.364 519.206 320.385 518.956L320.939 511.613L321.209 508.08C321.209 508.08 328.275 510.057 331.867 507.546C331.988 507.465 332.105 507.377 332.216 507.282L332.315 507.19C332.781 506.808 333.354 506.581 333.955 506.541C334.556 506.5 335.154 506.649 335.666 506.966C336.178 507.283 336.579 507.752 336.811 508.307C337.043 508.863 337.096 509.477 336.962 510.064V510.064Z" fill="#09B3FF"/>
<path opacity="0.1" d="M329.666 511.165L329.956 514.981C325.902 519.028 321.071 513.004 319.647 511.026C323.378 512.925 329.666 511.165 329.666 511.165Z" fill="black"/>
<path opacity="0.1" d="M353.5 512.714L354.034 512.364C350.33 517.993 344.806 515.396 343.112 514.388L343.382 510.855C343.382 510.855 350.448 512.832 354.041 510.321C353.757 511.699 353.5 512.714 353.5 512.714Z" fill="black"/>
<path d="M364.771 406.145C361.93 413.244 359.09 437.032 358.74 439.761C358.391 442.49 358.47 453.781 358.47 453.781L357.758 481.464C357.672 484.925 355.122 493.625 355.122 493.625C355.122 493.625 354.238 500.876 354.68 503.301C355.122 505.727 353.526 512.002 353.526 512.002L354.06 511.646C349.624 518.389 342.611 513.333 342.611 513.333C342.611 513.333 340.924 505.167 342.697 503.123C344.47 501.08 342.077 494.779 342.077 494.779C342.077 494.779 342.967 462.026 343.231 460.504C343.494 458.981 342.163 454.38 340.924 450.564C339.685 446.748 341.636 431.653 342.077 428.905C342.519 426.156 341.899 413.633 341.458 411.062C341.016 408.492 341.985 397.748 341.985 397.748C340.212 392.422 338.795 397.214 338.795 397.214L337.371 411.148L335.835 439.761C335.835 439.761 336.013 448.455 334.682 450.966C333.35 453.477 332.203 459.812 332.203 459.812L332.823 492.109C332.823 492.109 332.737 498.859 333.179 501.429C333.621 504 332.203 510.657 332.203 510.657C327.234 522.37 319.245 509.682 319.245 509.682C319.245 509.682 319.601 507.704 320.306 507.46C321.011 507.217 320.042 502.398 319.509 501.601C318.975 500.803 319.601 495.009 319.601 495.009C319.601 495.009 318.942 489.769 317.999 483.468C317.057 477.167 317.294 452.845 317.913 451.335C318.533 449.826 319.067 442.813 319.067 442.813C319.067 442.813 318.355 438.818 319.245 435.977C320.135 433.137 317.116 421.153 317.116 419.822C317.116 418.491 315.962 410.238 315.336 409.348C314.929 408.584 314.716 407.73 314.717 406.863C314.717 406.863 314.631 405.09 313.122 399.765C312.021 395.876 312.667 388.21 313.122 384.347C313.28 382.917 313.412 382.008 313.412 382.008C313.412 382.008 364.363 373.755 366.406 375.621C366.881 376.056 367.203 377.598 367.381 379.714C367.929 386.793 366.953 400.668 364.771 406.145Z" fill="#444053"/>
<path opacity="0.1" d="M345.511 446.023C345.749 446.023 351.371 446.497 353.421 446.082C355.471 445.667 345.511 446.023 345.511 446.023Z" fill="black"/>
<path opacity="0.1" d="M345.927 449.338C345.927 449.338 353.678 450.702 354.093 449.997C354.508 449.292 345.927 449.338 345.927 449.338Z" fill="black"/>
<path opacity="0.1" d="M322.198 447.921C322.198 447.921 326.218 448.099 328.407 449.101C330.595 450.103 322.198 447.921 322.198 447.921Z" fill="black"/>
<path d="M307.578 348.385C307.578 348.385 308.237 360.75 307.875 362.939C307.875 362.939 309.298 372.944 310.478 375.462C311.538 377.489 312.787 379.412 314.209 381.203L317.702 356.67L316.879 348.266L307.578 348.385Z" fill="#EFB7B9"/>
<path d="M344.272 292.049C351.822 292.049 357.942 285.929 357.942 278.379C357.942 270.829 351.822 264.708 344.272 264.708C336.722 264.708 330.602 270.829 330.602 278.379C330.602 285.929 336.722 292.049 344.272 292.049Z" fill="#EFB7B9"/>
<path d="M337.167 284.772C337.167 284.772 332.909 293.11 328.644 297.019C324.379 300.928 354.212 305.363 354.924 305.363C355.636 305.363 349.598 287.606 350.659 285.477C351.72 283.348 337.167 284.772 337.167 284.772Z" fill="#EFB7B9"/>
<path opacity="0.1" d="M367.348 379.78C366.681 380.292 365.944 380.706 365.16 381.012C359.715 383.141 353.796 386.101 349.769 384.914C345.742 383.728 337.246 384.914 337.246 384.914C337.246 384.914 320.108 383.497 316.654 384.321C315.495 384.67 314.261 384.695 313.088 384.394C313.247 382.963 313.378 382.054 313.378 382.054C313.378 382.054 364.329 373.801 366.373 375.667C366.847 376.102 367.17 377.611 367.348 379.78Z" fill="black"/>
<path d="M371.092 371.87C371.092 371.87 370.618 377.802 365.16 379.918C359.703 382.034 353.797 385.007 349.769 383.827C345.742 382.647 337.246 383.827 337.246 383.827C337.246 383.827 320.108 382.403 316.655 383.234C313.201 384.064 311.447 382.996 312.509 381.454C313.57 379.912 313.458 374.863 313.458 372.701C313.458 370.539 312.271 361.93 313.339 360.388C314.407 358.846 315.317 352.933 317.485 351.984C317.803 351.848 318.087 351.643 318.315 351.383C318.544 351.123 318.71 350.815 318.803 350.481C318.986 349.772 318.986 349.028 318.803 348.319C318.803 348.319 318.447 348.023 317.946 347.581C316.694 346.461 314.572 344.384 315.257 343.705C316.2 342.756 315.257 336.6 315.257 336.6C315.257 336.6 313.003 331.867 313.833 330.094C314.664 328.321 306.583 318.968 306.583 318.968C306.583 318.968 306.583 302.872 316.292 302.16C316.292 302.16 323.154 302.397 323.984 299.319C324.815 296.241 330.259 294.468 330.259 294.468L342.684 297.19C342.684 297.19 353.691 299.557 355.702 298.139C357.712 296.722 359.228 300.025 359.228 300.025C359.228 300.025 366.09 300.38 366.801 301.798C367.513 303.215 364.554 317.063 364.554 317.063C364.554 317.063 359.584 316.595 359.94 321.921C360.296 327.247 358.042 333.99 358.042 333.99C358.042 333.99 357.686 337.898 357.923 338.722C358.16 339.546 357.455 342.466 357.349 342.928V342.987C357.349 342.987 356.862 344.964 357.501 345.67C357.558 345.735 357.628 345.789 357.705 345.828C358.655 346.296 360.078 350.916 360.078 350.916C360.816 351.811 361.194 352.948 361.14 354.106C361.021 356.005 361.733 360.5 364.811 363.104C367.889 365.707 371.092 371.87 371.092 371.87Z" fill="#09B3FF"/>
<path d="M318.289 344.476V344.977L318.072 350.514C318.072 350.514 310.821 351.107 306.866 350.099C302.912 349.09 304.573 344.72 304.724 343.804C304.843 342.974 305.911 336.046 305.911 334.926C305.911 333.805 305.911 329.185 305.733 327.056C305.555 324.927 306.616 319.008 306.616 319.008L307.387 318.058L315.732 321.255L318.289 344.476Z" fill="#09B3FF"/>
<path opacity="0.1" d="M318.269 344.977L318.052 350.514C318.052 350.514 310.801 351.107 306.846 350.099C302.892 349.09 304.553 344.72 304.704 343.804L318.269 344.977Z" fill="black"/>
<path opacity="0.1" d="M318.797 350.488C318.98 349.779 318.98 349.035 318.797 348.326C318.797 348.326 318.441 348.029 317.94 347.588C324.215 346.717 349.031 343.31 357.395 342.974V343.033C357.395 343.033 356.908 345.01 357.547 345.716L318.797 350.488Z" fill="black"/>
<path opacity="0.1" d="M358.292 354.772C358.292 354.772 359.834 363.473 354.093 366.551C354.093 366.551 357.349 362.233 358.292 354.772Z" fill="black"/>
<path opacity="0.1" d="M320.715 366.788C320.715 366.788 334.556 364.422 337.285 366.254C340.014 368.087 320.715 366.788 320.715 366.788Z" fill="black"/>
<path opacity="0.1" d="M353.5 312.878C353.5 312.878 351.371 321.637 352.966 323.648C354.561 325.658 353.5 312.878 353.5 312.878Z" fill="black"/>
<path opacity="0.1" d="M313.378 305.719C313.378 305.719 315.356 308.969 314.15 312.344C312.943 315.718 313.378 305.719 313.378 305.719Z" fill="black"/>
<path d="M309.358 334.24C309.358 334.24 311.843 335.723 311.012 338.03C310.182 340.337 309.358 334.24 309.358 334.24Z" fill="#6C63FF"/>
<path opacity="0.1" d="M309.134 327.497C309.134 327.497 311.441 328.736 311.737 330.569C312.034 332.401 309.134 327.497 309.134 327.497Z" fill="black"/>
<path opacity="0.1" d="M343.323 398.268C343.323 398.268 357.824 399.751 360.718 396.291C360.718 396.317 347.64 398.894 343.323 398.268Z" fill="black"/>
<path opacity="0.1" d="M318.289 397.438C318.289 397.438 333.851 401.109 336.929 398.209C336.929 398.235 323.556 399.217 318.289 397.438Z" fill="black"/>
<path opacity="0.1" d="M344.443 403.06C344.443 403.06 350.956 403.06 353.974 403.238C356.993 403.416 344.443 403.06 344.443 403.06Z" fill="black"/>
<path opacity="0.1" d="M319.357 405.842C319.357 405.842 322.554 409.454 326.159 408.801C329.765 408.149 319.357 405.842 319.357 405.842Z" fill="black"/>
<path d="M325.612 258.011C324.61 259.567 324.577 261.366 324.294 263.093C323.577 267.317 321.596 271.224 318.612 274.298C315.778 277.317 311.882 280.053 311.144 283.737C310.452 287.237 312.812 290.605 314.051 294.013C317.347 302.997 312.733 312.423 311.414 321.697C311.045 324.261 311.487 327.537 314.644 328.387C315.633 328.651 316.76 328.618 317.65 329.046C318.836 329.613 319.199 330.799 319.416 331.861C320.21 335.671 320.485 339.571 320.234 343.455C320.089 345.637 319.93 348.141 321.987 349.644C323.037 350.292 324.193 350.751 325.401 351.002C328.644 351.879 332.836 352.571 335.025 350.527C335.941 349.67 336.284 348.458 337.43 347.779C339.144 346.764 341.576 347.449 343.732 347.555C345.777 347.64 347.807 347.174 349.61 346.205C351.413 345.237 352.923 343.802 353.981 342.051C355.728 338.9 355.576 335.328 354.93 331.94C354.284 328.552 353.164 325.203 353.085 321.776C352.981 320.578 353.248 319.377 353.849 318.335C355.168 316.292 358.233 315.363 360.335 313.761C364.29 310.755 364.251 305.851 362.827 301.699C361.403 297.546 358.826 293.631 358.51 289.366C358.37 288.336 358.574 287.289 359.09 286.387C359.801 285.551 360.624 284.817 361.535 284.205C367.276 279.361 366.597 271.398 361.851 265.954C356.591 259.89 332.797 246.885 325.612 258.011Z" fill="#FF7C65"/>
<g opacity="0.1">
<path opacity="0.1" d="M314.822 297.797C315.381 294.218 315.069 290.557 313.913 287.125C313.293 285.405 312.383 283.698 311.718 281.977C311.391 282.601 311.151 283.266 311.006 283.955C310.314 287.455 312.673 290.823 313.913 294.231C314.334 295.386 314.638 296.581 314.822 297.797V297.797Z" fill="black"/>
<path opacity="0.1" d="M320.108 336.567C320.36 332.683 320.085 328.783 319.291 324.973C319.074 323.911 318.711 322.725 317.525 322.158C316.635 321.73 315.508 321.763 314.519 321.499C313.916 321.35 313.355 321.067 312.877 320.671C312.398 320.275 312.016 319.776 311.757 319.212C311.579 320.108 311.421 321.011 311.289 321.908C310.92 324.472 311.362 327.748 314.519 328.598C315.508 328.861 316.635 328.829 317.525 329.257C318.711 329.83 319.074 331.01 319.291 332.078C319.657 333.845 319.912 335.632 320.056 337.43C320.069 337.14 320.089 336.85 320.108 336.567Z" fill="black"/>
<path opacity="0.1" d="M353.856 335.163C352.798 336.915 351.288 338.35 349.485 339.318C347.682 340.287 345.651 340.752 343.606 340.667C341.451 340.561 338.992 339.876 337.305 340.891C336.165 341.55 335.815 342.782 334.899 343.639C332.711 345.683 328.519 344.991 325.276 344.114C324.068 343.865 322.914 343.403 321.868 342.749C320.974 342.092 320.37 341.114 320.181 340.021C320.181 341.233 320.181 342.453 320.108 343.666C319.963 345.847 319.805 348.352 321.868 349.855C322.916 350.503 324.069 350.963 325.276 351.213C328.519 352.089 332.711 352.781 334.899 350.745C335.815 349.881 336.165 348.668 337.305 347.99C339.019 346.975 341.451 347.66 343.606 347.765C345.651 347.851 347.682 347.385 349.485 346.417C351.288 345.449 352.798 344.014 353.856 342.262C355.537 339.236 355.464 335.815 354.878 332.546C354.653 333.459 354.31 334.339 353.856 335.163V335.163Z" fill="black"/>
<path opacity="0.1" d="M361.357 277.265C360.458 277.893 359.652 278.645 358.964 279.499C358.449 280.401 358.245 281.448 358.384 282.478C358.5 283.775 358.775 285.052 359.202 286.281C359.859 285.577 360.581 284.935 361.357 284.363C365.239 281.068 366.182 276.388 364.923 272.005C364.261 274.062 363.023 275.888 361.357 277.265V277.265Z" fill="black"/>
<path opacity="0.1" d="M360.21 306.873C358.107 308.475 355.043 309.404 353.724 311.441C353.125 312.485 352.859 313.688 352.96 314.888C353.01 316.273 353.18 317.651 353.467 319.007C353.54 318.847 353.626 318.692 353.724 318.546C355.043 316.503 358.107 315.573 360.21 313.972C363.796 311.223 364.099 306.879 363.038 303.004C362.495 304.543 361.511 305.888 360.21 306.873Z" fill="black"/>
</g>
<path d="M387.234 308.323C384.809 314.479 381.665 316.892 381.665 316.892H379.918L364.567 317.05L362.794 312.199L365.279 301.725L366.814 301.784C367.737 302.273 368.739 302.594 369.774 302.734C370.901 302.734 373.07 302.674 373.729 302.971C373.82 303.01 373.92 303.024 374.019 303.01C374.599 302.951 375.205 302.081 375.205 302.081C375.205 302.081 389.653 302.167 387.234 308.323Z" fill="#09B3FF"/>
<path opacity="0.1" d="M387.234 308.323C384.809 314.479 381.665 316.892 381.665 316.892H379.918C380.834 314.453 382.752 309.45 383.504 308.323C384.255 307.196 377.789 304.507 374.032 303.05C374.612 302.991 375.218 302.12 375.218 302.12C375.218 302.12 389.653 302.167 387.234 308.323Z" fill="black"/>
</g>
<defs>
<linearGradient id="paint0_linear" x1="378.593" y1="313.121" x2="378.593" y2="254.63" gradientUnits="userSpaceOnUse">
<stop stop-color="#808080" stop-opacity="0.25"/>
<stop offset="0.54" stop-color="#808080" stop-opacity="0.12"/>
<stop offset="1" stop-color="#808080" stop-opacity="0.1"/>
</linearGradient>
<linearGradient id="paint1_linear" x1="10520.6" y1="12334" x2="10520.6" y2="12037.7" gradientUnits="userSpaceOnUse">
<stop stop-color="#808080" stop-opacity="0.25"/>
<stop offset="0.54" stop-color="#808080" stop-opacity="0.12"/>
<stop offset="1" stop-color="#808080" stop-opacity="0.1"/>
</linearGradient>
<linearGradient id="paint2_linear" x1="9917.69" y1="12277" x2="9917.69" y2="11980.6" gradientUnits="userSpaceOnUse">
<stop stop-color="#808080" stop-opacity="0.25"/>
<stop offset="0.54" stop-color="#808080" stop-opacity="0.12"/>
<stop offset="1" stop-color="#808080" stop-opacity="0.1"/>
</linearGradient>
<linearGradient id="paint3_linear" x1="6200.89" y1="5008.42" x2="6200.89" y2="4964.53" gradientUnits="userSpaceOnUse">
<stop stop-color="#808080" stop-opacity="0.25"/>
<stop offset="0.54" stop-color="#808080" stop-opacity="0.12"/>
<stop offset="1" stop-color="#808080" stop-opacity="0.1"/>
</linearGradient>
<linearGradient id="paint4_linear" x1="6983.34" y1="5183.4" x2="6983.34" y2="5135.91" gradientUnits="userSpaceOnUse">
<stop stop-color="#808080" stop-opacity="0.25"/>
<stop offset="0.54" stop-color="#808080" stop-opacity="0.12"/>
<stop offset="1" stop-color="#808080" stop-opacity="0.1"/>
</linearGradient>
<linearGradient id="paint5_linear" x1="33013.9" y1="118422" x2="33013.9" y2="88093.8" gradientUnits="userSpaceOnUse">
<stop stop-color="#808080" stop-opacity="0.25"/>
<stop offset="0.54" stop-color="#808080" stop-opacity="0.12"/>
<stop offset="1" stop-color="#808080" stop-opacity="0.1"/>
</linearGradient>
<linearGradient id="paint6_linear" x1="5353.48" y1="720.403" x2="5353.48" y2="720.187" gradientUnits="userSpaceOnUse">
<stop stop-color="#808080" stop-opacity="0.25"/>
<stop offset="0.54" stop-color="#808080" stop-opacity="0.12"/>
<stop offset="1" stop-color="#808080" stop-opacity="0.1"/>
</linearGradient>
<linearGradient id="paint7_linear" x1="5337.64" y1="1084.43" x2="5337.64" y2="1083.3" gradientUnits="userSpaceOnUse">
<stop stop-color="#808080" stop-opacity="0.25"/>
<stop offset="0.54" stop-color="#808080" stop-opacity="0.12"/>
<stop offset="1" stop-color="#808080" stop-opacity="0.1"/>
</linearGradient>
<linearGradient id="paint8_linear" x1="4080.67" y1="1518.31" x2="4080.67" y2="1515.09" gradientUnits="userSpaceOnUse">
<stop stop-color="#808080" stop-opacity="0.25"/>
<stop offset="0.54" stop-color="#808080" stop-opacity="0.12"/>
<stop offset="1" stop-color="#808080" stop-opacity="0.1"/>
</linearGradient>
<linearGradient id="paint9_linear" x1="5881.19" y1="21264.7" x2="5881.19" y2="19589.4" gradientUnits="userSpaceOnUse">
<stop stop-color="#808080" stop-opacity="0.25"/>
<stop offset="0.54" stop-color="#808080" stop-opacity="0.12"/>
<stop offset="1" stop-color="#808080" stop-opacity="0.1"/>
</linearGradient>
<linearGradient id="paint10_linear" x1="14842.9" y1="12396.4" x2="14842.9" y2="11243.6" gradientUnits="userSpaceOnUse">
<stop stop-color="#808080" stop-opacity="0.25"/>
<stop offset="0.54" stop-color="#808080" stop-opacity="0.12"/>
<stop offset="1" stop-color="#808080" stop-opacity="0.1"/>
</linearGradient>
<linearGradient id="paint11_linear" x1="16288.1" y1="11180.9" x2="16288.1" y2="10497.1" gradientUnits="userSpaceOnUse">
<stop stop-color="#808080" stop-opacity="0.25"/>
<stop offset="0.54" stop-color="#808080" stop-opacity="0.12"/>
<stop offset="1" stop-color="#808080" stop-opacity="0.1"/>
</linearGradient>
<linearGradient id="paint12_linear" x1="32574.6" y1="6634.56" x2="32574.6" y2="6487.27" gradientUnits="userSpaceOnUse">
<stop stop-color="#808080" stop-opacity="0.25"/>
<stop offset="0.54" stop-color="#808080" stop-opacity="0.12"/>
<stop offset="1" stop-color="#808080" stop-opacity="0.1"/>
</linearGradient>
<linearGradient id="paint13_linear" x1="38503.9" y1="57560.1" x2="38503.9" y2="45172.7" gradientUnits="userSpaceOnUse">
<stop stop-color="#808080" stop-opacity="0.25"/>
<stop offset="0.54" stop-color="#808080" stop-opacity="0.12"/>
<stop offset="1" stop-color="#808080" stop-opacity="0.1"/>
</linearGradient>
<linearGradient id="paint14_linear" x1="8038.03" y1="19471.2" x2="8038.03" y2="17828.9" gradientUnits="userSpaceOnUse">
<stop stop-color="#808080" stop-opacity="0.25"/>
<stop offset="0.54" stop-color="#808080" stop-opacity="0.12"/>
<stop offset="1" stop-color="#808080" stop-opacity="0.1"/>
</linearGradient>
<linearGradient id="paint15_linear" x1="8037.73" y1="4387.26" x2="8037.73" y2="4314.16" gradientUnits="userSpaceOnUse">
<stop stop-color="#808080" stop-opacity="0.25"/>
<stop offset="0.54" stop-color="#808080" stop-opacity="0.12"/>
<stop offset="1" stop-color="#808080" stop-opacity="0.1"/>
</linearGradient>
<linearGradient id="paint16_linear" x1="23709.1" y1="4775.33" x2="23709.1" y2="4687.4" gradientUnits="userSpaceOnUse">
<stop stop-color="#808080" stop-opacity="0.25"/>
<stop offset="0.54" stop-color="#808080" stop-opacity="0.12"/>
<stop offset="1" stop-color="#808080" stop-opacity="0.1"/>
</linearGradient>
<linearGradient id="paint17_linear" x1="3074.53" y1="7554.87" x2="3074.53" y2="7341.08" gradientUnits="userSpaceOnUse">
<stop stop-color="#808080" stop-opacity="0.25"/>
<stop offset="0.54" stop-color="#808080" stop-opacity="0.12"/>
<stop offset="1" stop-color="#808080" stop-opacity="0.1"/>
</linearGradient>
<linearGradient id="paint18_linear" x1="10036.3" y1="1390.98" x2="10036.3" y2="1386.66" gradientUnits="userSpaceOnUse">
<stop stop-color="#808080" stop-opacity="0.25"/>
<stop offset="0.54" stop-color="#808080" stop-opacity="0.12"/>
<stop offset="1" stop-color="#808080" stop-opacity="0.1"/>
</linearGradient>
<linearGradient id="paint19_linear" x1="1257.64" y1="6309.09" x2="1257.64" y2="6123.07" gradientUnits="userSpaceOnUse">
<stop stop-color="#808080" stop-opacity="0.25"/>
<stop offset="0.54" stop-color="#808080" stop-opacity="0.12"/>
<stop offset="1" stop-color="#808080" stop-opacity="0.1"/>
</linearGradient>
<linearGradient id="paint20_linear" x1="984.888" y1="4179.48" x2="984.888" y2="4096.75" gradientUnits="userSpaceOnUse">
<stop stop-color="#808080" stop-opacity="0.25"/>
<stop offset="0.54" stop-color="#808080" stop-opacity="0.12"/>
<stop offset="1" stop-color="#808080" stop-opacity="0.1"/>
</linearGradient>
<linearGradient id="paint21_linear" x1="1307.31" y1="2786.02" x2="1307.31" y2="2757.32" gradientUnits="userSpaceOnUse">
<stop stop-color="#808080" stop-opacity="0.25"/>
<stop offset="0.54" stop-color="#808080" stop-opacity="0.12"/>
<stop offset="1" stop-color="#808080" stop-opacity="0.1"/>
</linearGradient>
<linearGradient id="paint22_linear" x1="1740.62" y1="2269.12" x2="1740.62" y2="2250.34" gradientUnits="userSpaceOnUse">
<stop stop-color="#808080" stop-opacity="0.25"/>
<stop offset="0.54" stop-color="#808080" stop-opacity="0.12"/>
<stop offset="1" stop-color="#808080" stop-opacity="0.1"/>
</linearGradient>
<linearGradient id="paint23_linear" x1="11010.4" y1="1902.59" x2="11010.4" y2="1894.61" gradientUnits="userSpaceOnUse">
<stop stop-color="#808080" stop-opacity="0.25"/>
<stop offset="0.54" stop-color="#808080" stop-opacity="0.12"/>
<stop offset="1" stop-color="#808080" stop-opacity="0.1"/>
</linearGradient>
<linearGradient id="paint24_linear" x1="11031.3" y1="1643.73" x2="11031.3" y2="1638.26" gradientUnits="userSpaceOnUse">
<stop stop-color="#808080" stop-opacity="0.25"/>
<stop offset="0.54" stop-color="#808080" stop-opacity="0.12"/>
<stop offset="1" stop-color="#808080" stop-opacity="0.1"/>
</linearGradient>
<linearGradient id="paint25_linear" x1="6435.57" y1="553.117" x2="6435.57" y2="553.039" gradientUnits="userSpaceOnUse">
<stop stop-color="#808080" stop-opacity="0.25"/>
<stop offset="0.54" stop-color="#808080" stop-opacity="0.12"/>
<stop offset="1" stop-color="#808080" stop-opacity="0.1"/>
</linearGradient>
<linearGradient id="paint26_linear" x1="4612.65" y1="2463.22" x2="4612.65" y2="2448.97" gradientUnits="userSpaceOnUse">
<stop stop-color="#808080" stop-opacity="0.25"/>
<stop offset="0.54" stop-color="#808080" stop-opacity="0.12"/>
<stop offset="1" stop-color="#808080" stop-opacity="0.1"/>
</linearGradient>
<linearGradient id="paint27_linear" x1="32598.6" y1="58157.7" x2="32598.6" y2="43272" gradientUnits="userSpaceOnUse">
<stop stop-color="#808080" stop-opacity="0.25"/>
<stop offset="0.54" stop-color="#808080" stop-opacity="0.12"/>
<stop offset="1" stop-color="#808080" stop-opacity="0.1"/>
</linearGradient>
<linearGradient id="paint28_linear" x1="2632.72" y1="8284.37" x2="2632.72" y2="7898.36" gradientUnits="userSpaceOnUse">
<stop stop-color="#808080" stop-opacity="0.25"/>
<stop offset="0.54" stop-color="#808080" stop-opacity="0.12"/>
<stop offset="1" stop-color="#808080" stop-opacity="0.1"/>
</linearGradient>
<linearGradient id="paint29_linear" x1="5327.21" y1="10645.7" x2="5327.21" y2="10133.9" gradientUnits="userSpaceOnUse">
<stop stop-color="#808080" stop-opacity="0.25"/>
<stop offset="0.54" stop-color="#808080" stop-opacity="0.12"/>
<stop offset="1" stop-color="#808080" stop-opacity="0.1"/>
</linearGradient>
<linearGradient id="paint30_linear" x1="21120.4" y1="11846.3" x2="21120.4" y2="11258.1" gradientUnits="userSpaceOnUse">
<stop stop-color="#808080" stop-opacity="0.25"/>
<stop offset="0.54" stop-color="#808080" stop-opacity="0.12"/>
<stop offset="1" stop-color="#808080" stop-opacity="0.1"/>
</linearGradient>
<linearGradient id="paint31_linear" x1="4824.73" y1="7240.08" x2="4824.73" y2="6925.68" gradientUnits="userSpaceOnUse">
<stop stop-color="#808080" stop-opacity="0.25"/>
<stop offset="0.54" stop-color="#808080" stop-opacity="0.12"/>
<stop offset="1" stop-color="#808080" stop-opacity="0.1"/>
</linearGradient>
<linearGradient id="paint32_linear" x1="6978.8" y1="8925.17" x2="6978.8" y2="8530.01" gradientUnits="userSpaceOnUse">
<stop stop-color="#808080" stop-opacity="0.25"/>
<stop offset="0.54" stop-color="#808080" stop-opacity="0.12"/>
<stop offset="1" stop-color="#808080" stop-opacity="0.1"/>
</linearGradient>
<linearGradient id="paint33_linear" x1="16412.4" y1="8501.54" x2="16412.4" y2="8139.7" gradientUnits="userSpaceOnUse">
<stop stop-color="#808080" stop-opacity="0.25"/>
<stop offset="0.54" stop-color="#808080" stop-opacity="0.12"/>
<stop offset="1" stop-color="#808080" stop-opacity="0.1"/>
</linearGradient>
<linearGradient id="paint34_linear" x1="9244.93" y1="8232.17" x2="9244.93" y2="7893.72" gradientUnits="userSpaceOnUse">
<stop stop-color="#808080" stop-opacity="0.25"/>
<stop offset="0.54" stop-color="#808080" stop-opacity="0.12"/>
<stop offset="1" stop-color="#808080" stop-opacity="0.1"/>
</linearGradient>
<clipPath id="clip0">
<rect width="700" height="523.589" fill="white"/>
</clipPath>
</defs>
</svg>
