<svg width="60" height="60" viewBox="0 0 60 60" fill="none" xmlns="http://www.w3.org/2000/svg">
<g clip-path="url(#clip0)">
<g filter="url(#filter0_d)">
<circle cx="25" cy="25" r="25" fill="#09B3FF"/>
</g>
<path d="M39.041 18.5313C38.7422 18.4118 38.4435 18.4118 38.1447 18.4118C38.085 18.4118 38.0252 18.4118 37.9655 18.4118C36.4718 12.5565 31.1542 8.19482 24.8208 8.19482C18.7264 8.19482 13.5881 12.5565 12.0346 18.4118H11.9749C11.6761 18.4118 11.3176 18.4716 11.0189 18.5313C9.46542 19.0691 8.15095 20.025 7.25472 21.3993C5.58176 23.849 5.58176 27.1351 7.25472 29.5848C8.2107 30.959 9.52517 31.9748 11.0189 32.4527C11.3176 32.5722 11.6164 32.5722 11.8554 32.5722C12.6321 39.4433 15.0818 42.0723 22.7296 42.4308C22.8491 42.61 22.9686 42.7295 23.0881 42.9088C23.6856 43.5062 24.4623 43.805 25.239 43.805C26.0158 43.805 26.7925 43.5062 27.39 42.9088C28.585 41.7138 28.585 39.8018 27.39 38.6069C26.7925 38.0094 26.0158 37.7106 25.239 37.7106C24.4623 37.7106 23.6856 38.0094 23.0881 38.6069C22.9686 38.7263 22.8491 38.8458 22.7894 38.9653C16.8145 38.8458 15.3208 37.5911 15.022 27.8521V21.459C15.022 21.3993 15.022 21.2798 14.9623 21.22C15.3805 15.8426 19.6227 11.6602 24.7611 11.6602C30.3177 11.6602 34.9183 16.2011 34.9183 21.8175C34.9183 21.9967 34.9781 22.1162 34.9781 22.2955V29.5848C34.9781 30.6005 35.4561 31.4968 36.2328 32.0943C36.7705 32.4527 37.368 32.6917 38.0252 32.6917C38.324 32.6917 38.6825 32.632 38.9812 32.5125C40.5347 31.9748 41.8491 31.0188 42.7454 29.6446C44.4183 27.1949 44.4183 23.9087 42.7454 21.459C41.8491 20.025 40.5944 19.0691 39.041 18.5313ZM41.8491 28.9276C41.0724 30.0628 39.9372 30.8993 38.6825 31.3773C38.5032 31.437 38.2642 31.4968 38.085 31.4968C37.6667 31.4968 37.3083 31.3773 36.9498 31.1383C36.4718 30.7798 36.173 30.1823 36.173 29.5848V22.2357V22.0565L36.1133 21.8772C36.1133 21.8175 36.1133 21.7578 36.1133 21.698C36.1133 15.4842 31.0347 10.4055 24.8208 10.4055C19.1447 10.4055 14.3648 15.0659 13.8868 21.0408V21.1603V21.2798C13.8868 21.3395 13.8868 21.3993 13.8868 21.459V27.9119C14.1856 37.7704 15.7988 39.9213 22.7894 40.1006H23.3868L23.7453 39.6226C23.8051 39.5031 23.8648 39.4433 23.9246 39.3836C24.2831 39.0251 24.7611 38.8458 25.239 38.8458C25.717 38.8458 26.195 39.0251 26.5535 39.3836C27.2705 40.1006 27.2705 41.2955 26.5535 42.0125C26.195 42.371 25.717 42.5503 25.239 42.5503C24.7611 42.5503 24.2831 42.371 23.9246 42.0125C23.8648 41.9528 23.7453 41.8333 23.6856 41.7138L23.3868 41.2358H22.7894C15.9183 40.937 13.7076 38.9056 12.9906 32.393L12.8711 31.3773L11.8554 31.437C11.6761 31.437 11.4969 31.3773 11.3176 31.3773C10.0032 30.959 8.92768 30.1226 8.15095 28.9276C6.77673 26.8961 6.77673 24.0879 8.15095 22.0565C8.92768 20.9213 10.0629 20.0848 11.3176 19.6068C11.4969 19.5471 11.6761 19.5471 11.9151 19.5471H12.8113L13.0503 18.6508C14.4843 13.154 19.3239 9.2703 24.7611 9.2703C30.4372 9.2703 35.3963 13.0942 36.7705 18.6508L37.0095 19.5471L37.9655 19.4873H38.085C38.324 19.4873 38.5032 19.4873 38.6227 19.5471C39.9372 19.9653 41.0127 20.8018 41.7894 21.9967C43.2234 24.1477 43.2234 26.8961 41.8491 28.9276Z" fill="white"/>
</g>
<defs>
<filter id="filter0_d" x="-4" y="0" width="58" height="58" filterUnits="userSpaceOnUse" color-interpolation-filters="sRGB">
<feFlood flood-opacity="0" result="BackgroundImageFix"/>
<feColorMatrix in="SourceAlpha" type="matrix" values="0 0 0 0 0 0 0 0 0 0 0 0 0 0 0 0 0 0 127 0"/>
<feOffset dy="4"/>
<feGaussianBlur stdDeviation="2"/>
<feColorMatrix type="matrix" values="0 0 0 0 0 0 0 0 0 0 0 0 0 0 0 0 0 0 0.25 0"/>
<feBlend mode="normal" in2="BackgroundImageFix" result="effect1_dropShadow"/>
<feBlend mode="normal" in="SourceGraphic" in2="effect1_dropShadow" result="shape"/>
</filter>
<clipPath id="clip0">
<rect width="60" height="60" fill="white"/>
</clipPath>
</defs>
</svg>
