<svg width="20" height="20" viewBox="0 0 20 20" fill="none" xmlns="http://www.w3.org/2000/svg">
<path fill-rule="evenodd" clip-rule="evenodd" d="M15.1011 3.70923C14.4529 3.70923 13.9258 4.23637 13.9258 4.88423C13.9258 5.53209 14.4529 6.05923 15.1011 6.05923C15.7486 6.05923 16.2758 5.53209 16.2758 4.88423C16.2758 4.23637 15.7486 3.70923 15.1011 3.70923Z" fill="#9EA9CA"/>
<path fill-rule="evenodd" clip-rule="evenodd" d="M17.5181 14.7759C17.5181 16.3012 16.2771 17.5419 14.7521 17.5419H5.19778C3.67278 17.5419 2.43207 16.3009 2.43207 14.7759V5.22158C2.43207 3.69658 3.67278 2.45586 5.19778 2.45586H14.7521C16.2774 2.45586 17.5181 3.69658 17.5181 5.22158V14.7759ZM14.7521 0.356934H5.19778C2.51564 0.356934 0.333496 2.53943 0.333496 5.22158V14.7759C0.333496 17.4584 2.51564 19.6401 5.19778 19.6401H14.7521C17.4346 19.6401 19.6164 17.4584 19.6164 14.7759V5.22158C19.6164 2.53943 17.4346 0.356934 14.7521 0.356934Z" fill="#9EA9CA"/>
<path fill-rule="evenodd" clip-rule="evenodd" d="M9.97487 12.8664C8.39415 12.8664 7.10701 11.5796 7.10701 9.99819C7.10701 8.41747 8.39415 7.13104 9.97487 7.13104C11.5559 7.13104 12.8424 8.41783 12.8424 9.99819C12.8424 11.5796 11.5563 12.8664 9.97487 12.8664ZM9.97486 5.03247C7.23665 5.03247 5.00879 7.26033 5.00879 9.99854C5.00879 12.7375 7.23665 14.965 9.97486 14.965C12.7131 14.965 14.9413 12.7371 14.9413 9.99854C14.9413 7.26033 12.7134 5.03247 9.97486 5.03247Z" fill="#9EA9CA"/>
</svg>
