<svg width="20" height="20" viewBox="0 0 20 20" fill="none" xmlns="http://www.w3.org/2000/svg">
<path fill-rule="evenodd" clip-rule="evenodd" d="M19.8055 3.90545C19.077 4.22848 18.2933 4.44697 17.4715 4.54455C18.3106 4.04182 18.9545 3.24636 19.2585 2.29697C18.4733 2.76273 17.6033 3.10061 16.6782 3.28273C15.937 2.49333 14.8809 2 13.7115 2C11.4679 2 9.64818 3.8197 9.64818 6.06333C9.64818 6.38182 9.68424 6.69182 9.75394 6.98939C6.37697 6.82 3.38273 5.20242 1.37848 2.74333C1.02879 3.34333 0.828182 4.04182 0.828182 4.78636C0.828182 6.19576 1.54606 7.44 2.63576 8.16849C1.97 8.14758 1.34303 7.96485 0.795455 7.6597C0.795152 7.67697 0.795152 7.69424 0.795152 7.71121C0.795152 9.6803 2.19636 11.3224 4.05485 11.6952C3.71424 11.7888 3.35455 11.8379 2.98455 11.8379C2.72212 11.8379 2.46788 11.8127 2.22 11.7655C2.73697 13.3797 4.23727 14.5545 6.01576 14.5873C4.62485 15.6776 2.87303 16.3267 0.968788 16.3267C0.641515 16.3267 0.317273 16.3076 0 16.2697C1.79727 17.423 3.93364 18.0955 6.22818 18.0955C13.7021 18.0955 17.7894 11.9042 17.7894 6.53394C17.7894 6.35788 17.7855 6.18242 17.7776 6.00848C18.5721 5.43576 19.2609 4.7203 19.8055 3.90545Z" fill="#9EA9CA"/>
</svg>
